<svg xmlns="http://www.w3.org/2000/svg" viewBox="0 0 1371 405.48"><title>アセット 2</title><g id="レイヤー_2" data-name="レイヤー 2"><g id="レイヤー_1-2" data-name="レイヤー 1"><path d="M256.31,201.39h0l.12-.12-4.58-4.57H219.49a32.36,32.36,0,0,0-22.89,9.48l-64.46,64.46L159.6,298.1,251.74,206h0L443.81,398a16.21,16.21,0,0,0,11.44,4.74h2.45Z"/><path d="M128.71,274.07l-49.79-49.8L303.19,0H261.67a32.36,32.36,0,0,0-22.88,9.48L51.46,196.81l-4.58,4.58,27.46,27.46h0l49.79,49.79L0,402.78H41.52A32.36,32.36,0,0,0,64.4,393.3l87.2-87.2L243.53,398A16.21,16.21,0,0,0,255,402.78h2.45L156.17,301.53Z"/><path d="M675.49,397.11a169.31,169.31,0,0,0,20.25-.81v7.29a169.31,169.31,0,0,0-20.25-.81H591.25a178.43,178.43,0,0,0-20.79.81,169.31,169.31,0,0,0,.81-20.25V222.41a169.31,169.31,0,0,0-.81-20.25h7.83a169.31,169.31,0,0,0-.81,20.25v174.7Z"/><path d="M716.8,330.42v1.35c0,41,23.76,68,59.94,68,14.31,0,28.08-4.05,38.34-11.61a51.18,51.18,0,0,0,10.8-10.8l4.32,4.05a71,71,0,0,1-10.26,9.72c-11.34,9.18-26.73,14.31-43.2,14.31-39.15,0-66.15-30-66.15-73.71,0-45.36,24.3-72.9,64-72.9,37.8,0,59.13,24,59.13,66.69v4.86ZM827.5,325c0-38.88-18.9-60.48-53.19-60.48-33.75,0-55.08,22.68-57.24,60.48Z"/><path d="M961.69,382.26c0,9.18.27,14.58.81,20.52h-7.56c.54-5.94.81-11.34.81-20.52V282.63c0-6.48,0-10.8-.27-14.85H887.17V382.26c0,9.18.27,14.58.81,20.52h-7.56c.54-5.94.81-11.34.81-20.52V267.78h-9.45c-9.19,0-14.58.27-20.52.81v-7c5.94.54,11.33.81,20.52.81h9.45v-7.29c0-37.27,18.36-57.52,52.38-57.52,7.56,0,18.09,2.16,23.76,4.86L956,208.37a52,52,0,0,0-23.49-5.67c-29.16,0-45.36,18.36-45.36,51.85v7.83h55.08a198.16,198.16,0,0,0,20.25-.81,197.94,197.94,0,0,0-.81,21.06Z"/><path d="M1085.89,382.53c8.1,11.07,11.88,15.93,16.2,20.25h-10.53c-3.24-6.75-4.32-8.64-12.69-20.25L1046.2,336.9l-32.4,45.63c-7,9.72-10.26,15.12-13,20.25h-10c4.33-4.32,8.1-9.18,16.21-20.25L1043,332.58l-35.91-49.95c-8.11-11.07-11.88-15.93-16.21-20.25h10.54a164.14,164.14,0,0,0,13,20.25L1047,328.26l32.4-45.63c7.56-10.53,10.26-14.85,12.69-20.25h10c-4.32,4.32-8.1,9.18-16.2,20.25l-35.64,49.95Z"/><path d="M1125.84,330.42v1.35c0,41,23.76,68,59.94,68,14.31,0,28.08-4.05,38.34-11.61a51.18,51.18,0,0,0,10.8-10.8l4.32,4.05a71,71,0,0,1-10.26,9.72c-11.34,9.18-26.73,14.31-43.2,14.31-39.15,0-66.15-30-66.15-73.71,0-45.36,24.3-72.9,64-72.9,37.8,0,59.14,24,59.14,66.69v4.86Zm110.7-5.4c0-38.88-18.9-60.48-53.19-60.48-33.75,0-55.08,22.68-57.24,60.48Z"/><path d="M1364.25,390.36a169.34,169.34,0,0,1,1.35-20h-.54c-10.26,22.68-29.43,35.1-53.73,35.1-29.7,0-47-14-47-37.8,0-30.24,25.11-44.82,77-44.82,10.26,0,17,.27,22.68.81V310.44c0-31.32-13.23-44.55-43.2-44.55a55.39,55.39,0,0,0-25.65,6.21,57.51,57.51,0,0,0-16.47,13l-3.78-4.86A70.24,70.24,0,0,1,1293,266.7c8.37-4.32,17.55-6.48,28.35-6.48,33.48,0,48.87,15.39,48.87,49.41v72.63c0,8.1.27,13.77.81,20.52h-6.75Zm-.27-61.29c-5.94-.54-12.69-.81-22.68-.81-48.6,0-71,12.42-71,39.42,0,20.52,14.85,32.13,41,32.13,24.57,0,42.12-11.88,52.65-35.1Z"/></g></g></svg>