<svg width="350" height="85" viewBox="0 0 350 85" fill="none" xmlns="http://www.w3.org/2000/svg">
<g clip-path="url(#clip0)">
<path d="M115.561 41.3546H105.517V32.9575H115.561V30.9429H103.478V55.7957H105.517V43.3693H115.561V41.3546Z" fill="#053456"/>
<path d="M139.772 38.0172C138.533 37.3636 137.151 37.0357 135.754 37.0637C134.522 37.0436 133.299 37.2819 132.162 37.7637C131.025 38.2455 130 38.9602 129.15 39.8627C128.263 40.7407 127.563 41.7923 127.092 42.9532C126.621 44.114 126.389 45.3597 126.411 46.6142C126.387 47.8836 126.616 49.1449 127.084 50.3232C127.552 51.5016 128.249 52.5728 129.135 53.4733C129.973 54.3754 130.987 55.0915 132.114 55.576C133.24 56.0605 134.454 56.3029 135.678 56.2877C137.06 56.2947 138.424 55.9789 139.665 55.3649C140.943 54.7093 142.065 53.7805 142.952 52.6428L143.348 52.1507V55.7802H145.25V37.5404H143.348V41.5236L142.937 40.9238C142.124 39.7154 141.04 38.7192 139.772 38.0172V38.0172ZM143.5 46.7679C143.527 48.1572 143.197 49.5296 142.541 50.7512C141.889 51.928 140.925 52.8974 139.757 53.5502C138.592 54.2164 137.276 54.5661 135.937 54.5652C134.615 54.5718 133.316 54.2157 132.178 53.5348C130.984 52.8321 130.005 51.8104 129.348 50.582C128.674 49.3979 128.318 48.0569 128.313 46.691C128.322 45.3259 128.679 43.9861 129.348 42.8001C129.996 41.6175 130.947 40.6326 132.101 39.9482C133.254 39.2638 134.569 38.9049 135.907 38.9092C136.908 38.8921 137.901 39.084 138.826 39.473C139.75 39.862 140.585 40.4397 141.278 41.1699C142.003 41.9035 142.573 42.7776 142.955 43.7396C143.337 44.7016 143.522 45.7317 143.5 46.7679V46.7679Z" fill="#053456"/>
<path d="M183.993 38.0019C183.02 37.3657 181.881 37.039 180.722 37.0638C179.403 37.0554 178.112 37.4406 177.009 38.1711C175.781 38.9859 174.785 40.1095 174.117 41.4315L173.859 41.8929L173.691 41.4008C173.42 40.4996 172.981 39.6591 172.398 38.9247C171.875 38.3385 171.231 37.8764 170.511 37.5713C169.733 37.2305 168.893 37.0576 168.046 37.0638C166.745 37.0672 165.47 37.4344 164.363 38.125C163.376 38.7999 162.532 39.668 161.883 40.6779L161.457 41.2777V37.5406H159.524V55.7957H161.457V48.1061C161.373 46.3144 161.61 44.5222 162.157 42.8156C162.598 41.6767 163.36 40.6931 164.348 39.9859C165.285 39.3093 166.407 38.9438 167.559 38.9401C168.484 38.9141 169.395 39.1831 170.161 39.709C170.873 40.2144 171.406 40.9365 171.683 41.7699C172.029 43.2815 172.172 44.8333 172.109 46.3836V55.7342H174.026V48.7059C173.931 46.7329 174.162 44.7577 174.711 42.8618C175.157 41.6994 175.935 40.698 176.948 39.9859C177.9 39.2915 179.045 38.92 180.22 38.9247V38.9247C181.129 38.9013 182.024 39.153 182.791 39.6475C183.488 40.1083 184.021 40.7817 184.313 41.5699C184.682 42.947 184.831 44.3747 184.754 45.7992V55.7803H186.733V45.8146C186.813 44.0583 186.576 42.302 186.033 40.6318C185.629 39.5687 184.918 38.6526 183.993 38.0019Z" fill="#053456"/>
<path d="M195.741 34.834C195.691 35.4942 195.579 36.1481 195.407 36.7871C195.193 37.4379 194.928 38.0705 194.615 38.6788L195.544 39.2017C195.982 38.3282 196.329 37.4107 196.578 36.4642C196.795 35.3346 196.892 34.1849 196.867 33.0346V30.3125H194.235V34.5725H195.757L195.741 34.834Z" fill="#053456"/>
<path d="M212.846 39.3552C211.585 37.9982 209.86 37.1786 208.022 37.0637C207.382 37.0403 206.744 37.1465 206.145 37.3764C205.547 37.6062 205 37.9548 204.537 38.4017C204.087 38.8371 203.732 39.3633 203.496 39.9462C203.26 40.5291 203.148 41.1557 203.167 41.7852C203.155 42.7757 203.453 43.7448 204.02 44.5534C204.938 45.6233 206.075 46.4787 207.352 47.0602C208.475 47.5684 209.504 48.2652 210.396 49.121C210.864 49.6722 211.113 50.3789 211.096 51.105C211.096 51.553 211 51.9958 210.813 52.4022C210.626 52.8086 210.354 53.169 210.015 53.458C209.315 54.1187 208.386 54.4773 207.428 54.4576C206.683 54.4241 205.953 54.2313 205.287 53.892C204.621 53.5527 204.033 53.0745 203.563 52.4891L202.346 53.8732C202.99 54.6271 203.786 55.2328 204.681 55.6493C205.576 56.0658 206.549 56.2835 207.535 56.2877C208.245 56.3024 208.952 56.1739 209.613 55.9099C210.274 55.6458 210.876 55.2515 211.385 54.7498C211.88 54.2637 212.271 53.6795 212.533 53.0339C212.795 52.3882 212.922 51.6949 212.907 50.9973C212.922 49.992 212.612 49.0092 212.024 48.1983C211.034 47.0875 209.827 46.1971 208.478 45.5838C207.387 45.0906 206.392 44.403 205.541 43.5538C205.093 43.025 204.835 42.3581 204.811 41.6621C204.812 41.2859 204.893 40.9144 205.048 40.5723C205.203 40.2302 205.428 39.9254 205.709 39.6782C206.289 39.1287 207.059 38.8306 207.854 38.8477C209.276 38.9428 210.609 39.5806 211.583 40.6317L212.846 39.3552Z" fill="#053456"/>
<path d="M256.869 43.9845C255.998 43.2938 255.007 42.7724 253.948 42.4466L253.445 42.2774L253.902 42.0313C254.857 41.5398 255.658 40.7889 256.215 39.8629C256.735 38.9685 257.004 37.9474 256.991 36.9101C256.986 35.8217 256.68 34.7564 256.109 33.8342C255.523 32.8984 254.676 32.1597 253.674 31.7119C252.236 31.1883 250.711 30.9533 249.185 31.0198H244.482V55.7957H251.087C252.134 55.8694 253.185 55.7334 254.18 55.3956C255.175 55.0578 256.094 54.5248 256.885 53.8272C257.571 53.1987 258.117 52.4288 258.484 51.5692C258.852 50.7097 259.033 49.7805 259.015 48.8443C259.028 47.9209 258.836 47.0063 258.452 46.1683C258.096 45.328 257.555 44.5811 256.869 43.9845V43.9845ZM246.461 33.2191V32.9884H249.565C250.968 32.8755 252.367 33.244 253.537 34.0341C253.963 34.3818 254.303 34.8261 254.527 35.3312C254.752 35.8362 254.856 36.3877 254.83 36.9408C254.842 37.8268 254.576 38.6938 254.069 39.4169C253.578 40.1653 252.864 40.7363 252.03 41.0471C250.762 41.4495 249.432 41.6213 248.104 41.5546H246.522L246.461 33.2191ZM256.078 51.4742C255.545 52.2685 254.794 52.8885 253.917 53.2582C252.594 53.6991 251.2 53.8869 249.809 53.8118H246.522V43.6154H248.18C249.708 43.567 251.237 43.67 252.745 43.923C253.945 44.1798 255.036 44.8089 255.865 45.7223C256.611 46.5691 257.023 47.6641 257.022 48.7982C256.993 49.7589 256.663 50.6854 256.078 51.4434V51.4742Z" fill="#053456"/>
<path d="M283.683 38.0174C282.443 37.3657 281.062 37.0379 279.665 37.0639C278.433 37.0438 277.21 37.2822 276.073 37.764C274.936 38.2457 273.911 38.9604 273.061 39.863C272.174 40.741 271.474 41.7926 271.003 42.9534C270.532 44.1143 270.3 45.36 270.322 46.6144C270.295 47.8829 270.521 49.1438 270.987 50.3222C271.452 51.5006 272.147 52.5723 273.031 53.4735C273.871 54.3761 274.889 55.0923 276.018 55.5767C277.147 56.0612 278.363 56.3034 279.589 56.2879C280.97 56.2998 282.334 55.9893 283.576 55.3806C284.852 54.7209 285.973 53.7927 286.863 52.6584L287.259 52.1663V55.7958H289.131V37.5407H287.244V41.5239L286.833 40.9241C286.025 39.7175 284.945 38.7214 283.683 38.0174V38.0174ZM287.411 46.7682C287.43 48.1419 287.1 49.4974 286.452 50.7053C285.796 51.8787 284.832 52.847 283.668 53.5043C282.503 54.1705 281.187 54.5202 279.848 54.5193C278.526 54.526 277.227 54.1698 276.089 53.4889C274.924 52.7961 273.967 51.7968 273.32 50.5976C272.647 49.4108 272.293 48.0668 272.293 46.699C272.293 45.3312 272.647 43.9872 273.32 42.8004C273.967 41.6201 274.915 40.6367 276.066 39.9524C277.217 39.2681 278.528 38.908 279.863 38.9094C280.867 38.8921 281.863 39.0838 282.79 39.4728C283.717 39.8618 284.554 40.4396 285.25 41.1702C285.968 41.9058 286.53 42.7816 286.902 43.7441C287.273 44.7066 287.446 45.7357 287.411 46.7682V46.7682Z" fill="#053456"/>
<path d="M313.098 37.064C311.723 37.0452 310.364 37.3506 309.126 37.956C307.861 38.6181 306.751 39.5462 305.87 40.6781L305.459 41.1702V30.3125H303.542V55.8112H305.459V51.8895L305.87 52.4586C306.69 53.6603 307.773 54.6549 309.035 55.3652C310.262 56.0216 311.633 56.3548 313.022 56.3341C314.248 56.3351 315.462 56.0817 316.587 55.5897C317.713 55.0976 318.726 54.3774 319.565 53.4736C320.454 52.5937 321.155 51.5397 321.626 50.376C322.097 49.2124 322.328 47.9637 322.305 46.7067C322.33 45.4407 322.104 44.1824 321.638 43.0067C321.173 41.831 320.478 40.7619 319.596 39.863C318.762 38.9687 317.755 38.2583 316.637 37.7766C315.518 37.2949 314.314 37.0523 313.098 37.064V37.064ZM319.368 50.5362C318.725 51.7174 317.78 52.702 316.632 53.3867C315.483 54.0713 314.173 54.4307 312.839 54.4271C311.825 54.4559 310.817 54.2696 309.878 53.8802C308.94 53.4908 308.093 52.907 307.391 52.1663C306.675 51.4289 306.113 50.5531 305.739 49.5913C305.366 48.6294 305.187 47.6013 305.215 46.5683C305.192 45.1874 305.528 43.8245 306.189 42.6159C306.846 41.4424 307.809 40.4741 308.974 39.8168C310.135 39.1393 311.453 38.7838 312.794 38.7864C314.106 38.78 315.395 39.1363 316.522 39.8168C317.695 40.5105 318.659 41.5157 319.307 42.7235C319.975 43.9147 320.326 45.2606 320.326 46.6298C320.326 47.9991 319.975 49.345 319.307 50.5362H319.368Z" fill="#053456"/>
<path d="M347.626 37.5405L341.296 52.3046L334.767 37.5405H332.759L340.261 54.6114L336.791 62.6394H338.815L349.665 37.5405H347.626Z" fill="#053456"/>
<path d="M37.8607 15.2253C32.5285 15.2709 27.3288 16.9105 22.917 19.9376C18.5052 22.9647 15.0787 27.2438 13.0693 32.2357C11.0599 37.2276 10.5574 42.709 11.6253 47.989C12.6931 53.269 15.2835 58.1115 19.07 61.9061C22.8564 65.7008 27.6696 68.2779 32.9028 69.3126C38.1361 70.3474 43.5553 69.7935 48.4777 67.7207C53.4 65.648 57.6051 62.1492 60.5631 57.6652C63.5211 53.1811 65.0997 47.9126 65.0999 42.5234C65.0677 35.2535 62.1802 28.2941 57.0723 23.1751C51.9644 18.0562 45.0542 15.1967 37.8607 15.2253V15.2253ZM37.8607 68.745C32.7348 68.7024 27.736 67.1272 23.4946 64.2179C19.2531 61.3085 15.9589 57.1953 14.027 52.3966C12.0952 47.598 11.6123 42.3287 12.6391 37.2531C13.666 32.1775 16.1567 27.5227 19.7973 23.8755C23.4378 20.2284 28.0652 17.752 33.0963 16.7587C38.1273 15.7655 43.3366 16.2996 48.0677 18.294C52.7988 20.2883 56.8397 23.6535 59.6812 27.9654C62.5227 32.2773 64.0375 37.3428 64.0347 42.5234C64.0024 49.5078 61.2272 56.1934 56.3191 61.1104C51.4109 66.0275 44.7716 68.7736 37.8607 68.745V68.745Z" fill="#053456"/>
<path d="M37.861 17.24C32.9223 17.2825 28.1066 18.8014 24.0206 21.6053C19.9346 24.4092 16.7613 28.3726 14.9004 32.9961C13.0395 37.6196 12.5744 42.6964 13.5636 47.5866C14.5528 52.4768 16.9522 56.9617 20.4592 60.4762C23.9663 63.9906 28.4242 66.3774 33.2712 67.3356C38.1182 68.2938 43.1374 67.7807 47.6963 65.8609C52.2553 63.9411 56.1499 60.7005 58.8896 56.5475C61.6292 52.3944 63.0913 47.5148 63.0914 42.5234C63.0775 39.189 62.4138 35.89 61.1383 32.8148C59.8628 29.7396 58.0004 26.9484 55.6576 24.6007C53.3147 22.2529 50.5372 20.3944 47.4836 19.1315C44.4301 17.8685 41.1603 17.2258 37.861 17.24V17.24ZM37.861 67.4685C32.9849 67.426 28.2303 65.9256 24.1966 63.1565C20.1628 60.3874 17.0305 56.4736 15.1942 51.9082C13.358 47.3428 12.9001 42.3302 13.8782 37.5022C14.8563 32.6742 17.2267 28.2468 20.6906 24.7782C24.1545 21.3095 28.5569 18.9548 33.3429 18.0107C38.1289 17.0667 43.0843 17.5756 47.5846 19.4733C52.0848 21.371 55.9286 24.5726 58.6313 28.6746C61.334 32.7765 62.7747 37.5952 62.7719 42.5234C62.7397 49.1692 60.0975 55.5301 55.4262 60.2078C50.755 64.8855 44.4369 67.4971 37.861 67.4685Z" fill="#053456"/>
<path fill-rule="evenodd" clip-rule="evenodd" d="M41.5436 81.0791L42.9284 82.4325C44.2219 83.6013 45.8197 84.2011 47.2806 82.8477C47.7739 82.3889 48.073 81.7554 48.1155 81.0793C48.1581 80.4031 47.9407 79.7364 47.5088 79.2182C48.1942 78.8422 48.7241 78.2312 49.0031 77.4952C49.2821 76.7593 49.2919 75.9468 49.0306 75.2042C48.9844 75.0689 48.968 74.9251 48.9824 74.7827C48.9969 74.6403 49.0419 74.5029 49.1144 74.3799C49.1868 74.2569 49.2849 74.1514 49.4018 74.0706C49.5188 73.9899 49.6517 73.9359 49.7914 73.9124C51.1153 73.774 51.3132 75.4503 50.4458 75.6349C50.3697 75.6535 50.2905 75.6544 50.214 75.6376C50.1376 75.6208 50.0659 75.5867 50.0044 75.5378C49.9429 75.489 49.8931 75.4266 49.8588 75.3555C49.8246 75.2844 49.8067 75.2064 49.8066 75.1273C50.3393 75.681 50.7806 74.7736 50.2632 74.5429C49.1979 74.0816 48.9849 75.7733 49.9284 76.1885C52.3936 77.2804 55.0414 72.9435 52.3023 71.5748C52.3472 71.7607 52.3547 71.9538 52.3243 72.1428C52.294 72.3317 52.2264 72.5125 52.1257 72.6746C52.0249 72.8366 51.893 72.9766 51.7378 73.0862C51.5825 73.1958 51.4071 73.2728 51.2219 73.3126C49.6866 73.6885 48.0911 73.7409 46.5349 73.4664H46.2306C45.6896 73.4968 45.1665 73.6726 44.7153 73.9757C44.264 74.2787 43.901 74.698 43.6637 75.1902C43.4264 75.6824 43.3234 76.2297 43.3653 76.7756C43.4073 77.3215 43.5926 77.8462 43.9023 78.2955C43.2636 78.4055 42.6331 78.5596 42.0153 78.7568L35.6545 72.2822C28.2317 71.7552 21.275 68.4319 16.1605 62.9697C11.046 57.5075 8.14622 50.3042 8.03491 42.7849C7.96781 43.4479 7.71435 44.0776 7.30447 44.5996C7.80919 52.0014 10.9691 58.9628 16.1914 64.1774C21.2243 69.2271 27.8335 72.3576 34.8936 73.0358H35.3197L41.8175 79.6796C43.0346 79.3044 44.275 79.0115 45.5306 78.803C45.0393 78.4562 44.6603 77.9706 44.441 77.407C44.2218 76.8434 44.172 76.2269 44.2979 75.6349C44.4781 75.1763 44.8086 74.7943 45.2342 74.5526C45.6598 74.3109 46.1545 74.2242 46.6358 74.307C47.117 74.3899 47.5555 74.6373 47.8778 75.0078C48.2002 75.3782 48.3869 75.8494 48.4066 76.3423C48.3464 76.9541 48.1006 77.5321 47.703 77.9974C47.3053 78.4626 46.7751 78.7923 46.1849 78.9414C47.174 79.9103 47.7066 81.2329 46.7023 82.2325C45.1806 83.6013 43.6588 82.0941 42.6697 81.0022L41.7414 80.0795C40.9338 80.3541 40.1896 80.7914 39.554 81.365C38.9184 81.9387 38.4046 82.6366 38.0436 83.4167C38.0278 83.4456 38.0047 83.4696 37.9766 83.4864C37.9485 83.5031 37.9164 83.5119 37.8838 83.5119C37.8512 83.5119 37.8192 83.5031 37.7911 83.4864C37.763 83.4696 37.7398 83.4456 37.724 83.4167C37.3574 82.6351 36.8381 81.9365 36.1974 81.363C35.5567 80.7895 34.8078 80.3529 33.9958 80.0795L33.0675 81.0022C32.0023 82.0941 30.5262 83.6013 29.0197 82.2325C27.9545 81.2329 28.5479 79.9103 29.5371 78.9414C28.9497 78.7896 28.4229 78.4587 28.0281 77.9937C27.6333 77.5286 27.3898 76.9521 27.3306 76.3423C27.3415 75.8462 27.523 75.3694 27.8438 74.9936C28.1646 74.6179 28.6047 74.3667 29.0887 74.283C29.5727 74.1994 30.0705 74.2885 30.4965 74.5352C30.9226 74.7818 31.2505 75.1706 31.424 75.6349C31.5516 76.2254 31.5041 76.8408 31.2876 77.4043C31.0711 77.9677 30.6951 78.4542 30.2066 78.803C31.4616 79.0149 32.7018 79.3077 33.9197 79.6796L36.8871 76.6038L36.324 76.0193L33.6914 78.7107C33.074 78.512 32.4435 78.3578 31.8045 78.2493C32.1642 77.7881 32.3813 77.2299 32.4285 76.6446C32.4757 76.0593 32.3509 75.4729 32.0698 74.959C31.7887 74.445 31.3638 74.0263 30.8483 73.7553C30.3328 73.4843 29.7496 73.3731 29.1719 73.4356V73.4356C27.6207 73.7098 26.0303 73.6574 24.5001 73.2818C24.3149 73.242 24.1395 73.165 23.9842 73.0554C23.829 72.9458 23.697 72.8059 23.5963 72.6438C23.4955 72.4818 23.428 72.3009 23.3977 72.112C23.3673 71.9231 23.3748 71.7299 23.4197 71.544C20.6653 72.9435 23.3284 77.2804 25.7936 76.1578C26.7219 75.7425 26.524 74.0508 25.4588 74.5122C24.9414 74.7429 25.3827 75.6502 25.9153 75.0966C25.9129 75.1763 25.893 75.2545 25.857 75.3255C25.821 75.3966 25.7699 75.4586 25.7072 75.5072C25.6446 75.5557 25.5721 75.5896 25.4949 75.6064C25.4177 75.6232 25.3378 75.6224 25.261 75.6041C24.424 75.4503 24.6066 73.7432 25.9306 73.8816C26.0702 73.9046 26.203 73.9584 26.3196 74.0394C26.4362 74.1203 26.5337 74.2263 26.6049 74.3498C26.6762 74.4733 26.7196 74.6112 26.7319 74.7536C26.7442 74.896 26.7252 75.0394 26.6762 75.1735C26.4181 75.9163 26.4294 76.7276 26.7081 77.4627C26.9868 78.1979 27.5148 78.8091 28.1979 79.1875C27.7679 79.7076 27.5532 80.3754 27.5986 81.0516C27.6439 81.7278 27.9459 82.3603 28.4414 82.8169C29.9632 84.1703 31.4849 83.5705 32.7936 82.4017L34.1632 81.0483C35.3862 81.5628 36.3779 82.5158 36.9479 83.7243L37.3436 84.6625C37.3899 84.7638 37.4639 84.8496 37.557 84.9098C37.65 84.9699 37.7582 85.0019 37.8686 85.0019C37.979 85.0019 38.0872 84.9699 38.1802 84.9098C38.2733 84.8496 38.3473 84.7638 38.3936 84.6625L38.7893 83.7243C39.3532 82.5169 40.3399 81.5635 41.5588 81.0483L41.5436 81.0791ZM41.5436 3.95238L42.9284 2.59901C44.2219 1.43019 45.8197 0.830404 47.2806 2.18377C47.7749 2.64517 48.0745 3.28128 48.117 3.96001C48.1595 4.63874 47.9417 5.30794 47.5088 5.82865C48.193 6.20183 48.7225 6.81008 49.0016 7.54345C49.2807 8.27681 49.291 9.08689 49.0306 9.82724C48.9845 9.96352 48.968 10.1083 48.9824 10.2516C48.9968 10.3948 49.0417 10.5333 49.1139 10.6574C49.1862 10.7816 49.2841 10.8885 49.4011 10.9708C49.518 11.0532 49.6512 11.109 49.7914 11.1345C51.1153 11.2575 51.3132 9.59655 50.4458 9.39662C50.3697 9.37802 50.2905 9.37708 50.214 9.39389C50.1376 9.4107 50.0659 9.44482 50.0044 9.49367C49.9429 9.54253 49.8931 9.60485 49.8588 9.67594C49.8246 9.74704 49.8067 9.82506 49.8066 9.90414C50.3393 9.36586 50.7806 10.2732 50.2632 10.4885C49.1979 10.9499 48.9849 9.25821 49.9284 8.84297C52.3936 7.75105 55.0414 12.088 52.3023 13.4567C52.3471 13.2718 52.3544 13.0795 52.3239 12.8916C52.2934 12.7037 52.2257 12.524 52.1248 12.3631C52.0239 12.2023 51.8919 12.0637 51.7368 11.9556C51.5816 11.8476 51.4065 11.7723 51.2219 11.7343C49.6887 11.3456 48.0916 11.288 46.5349 11.5651H46.2306C45.6896 11.5347 45.1665 11.3589 44.7153 11.0558C44.264 10.7528 43.901 10.3335 43.6637 9.84131C43.4264 9.34909 43.3234 8.80178 43.3653 8.25589C43.4073 7.70999 43.5926 7.18531 43.9023 6.73602C43.2636 6.62601 42.6331 6.47186 42.0153 6.27464L35.6545 12.7647C28.2318 13.2845 21.2731 16.6035 16.1576 22.0639C11.0421 27.5244 8.14302 34.7278 8.03491 42.2466C7.97932 41.5622 7.72524 40.9095 7.30447 40.3703C7.82367 32.9902 10.9825 26.0531 16.1914 20.8541C21.2243 15.8044 27.8335 12.6739 34.8936 11.9957H35.3197L41.8175 5.35189C43.0346 5.72709 44.275 6.01994 45.5306 6.22851C45.0393 6.5753 44.6603 7.06093 44.441 7.62452C44.2218 8.1881 44.172 8.80456 44.2979 9.39662C44.4781 9.85514 44.8086 10.2372 45.2342 10.4789C45.6598 10.7206 46.1545 10.8073 46.6358 10.7244C47.117 10.6416 47.5555 10.3942 47.8778 10.0237C48.2002 9.65325 48.3869 9.18212 48.4066 8.68918C48.3367 8.08764 48.0864 7.52211 47.6893 7.06852C47.2921 6.61492 46.7672 6.29497 46.1849 6.15161C47.174 5.18272 47.7066 3.84473 46.7023 2.86046C45.1806 1.46095 43.6588 2.98349 42.6697 4.07542L41.7414 4.99817C40.9296 4.71831 40.1829 4.27387 39.5471 3.69208C38.9112 3.11029 38.3996 2.4034 38.0436 1.61474C38.0278 1.5859 38.0047 1.56185 37.9766 1.54511C37.9485 1.52837 37.9164 1.51954 37.8838 1.51954C37.8512 1.51954 37.8192 1.52837 37.7911 1.54511C37.763 1.56185 37.7398 1.5859 37.724 1.61474C37.3574 2.39637 36.8381 3.09496 36.1974 3.66849C35.5567 4.24201 34.8078 4.67862 33.9958 4.95203L33.0675 4.02928C31.9566 2.93736 30.4349 1.41481 28.9893 2.81432C27.924 3.79859 28.5175 5.13658 29.5066 6.10547C28.9205 6.25436 28.3941 6.58237 27.9992 7.04476C27.6043 7.50715 27.3602 8.0814 27.3001 8.68918C27.3111 9.18531 27.4926 9.66212 27.8133 10.0378C28.1341 10.4136 28.5743 10.6648 29.0583 10.7484C29.5423 10.8321 30.04 10.743 30.4661 10.4963C30.8922 10.2497 31.2201 9.86087 31.3936 9.39662C31.5211 8.80608 31.4737 8.19065 31.2572 7.6272C31.0407 7.06376 30.6647 6.57727 30.1762 6.22851C31.4311 6.0166 32.6713 5.72379 33.8893 5.35189L36.8566 8.42773L36.2936 8.99676L33.661 6.32078C33.0436 6.51949 32.413 6.67367 31.774 6.78216C32.1338 7.24334 32.3508 7.80155 32.398 8.38686C32.4452 8.97217 32.3205 9.55854 32.0394 10.0725C31.7583 10.5865 31.3334 11.0052 30.8179 11.2762C30.3024 11.5471 29.7192 11.6583 29.1414 11.5958V11.5958C27.5898 11.3186 25.9977 11.3762 24.4697 11.765C24.2851 11.803 24.1099 11.8783 23.9548 11.9864C23.7996 12.0944 23.6676 12.233 23.5668 12.3939C23.4659 12.5547 23.3982 12.7345 23.3677 12.9224C23.3372 13.1103 23.3445 13.3025 23.3893 13.4875C20.6349 12.088 23.2979 7.75105 25.7632 8.87373C26.6914 9.28897 26.4936 10.9807 25.4284 10.5193C24.911 10.304 25.3523 9.39662 25.8849 9.93489C25.8825 9.85515 25.8626 9.77695 25.8266 9.70594C25.7906 9.63493 25.7394 9.5729 25.6768 9.52433C25.6142 9.47576 25.5417 9.44186 25.4645 9.42509C25.3873 9.40833 25.3074 9.40911 25.2306 9.42738C24.3936 9.58117 24.5762 11.2883 25.9001 11.1652C26.0403 11.1403 26.1733 11.0845 26.2899 11.002C26.4065 10.9195 26.5037 10.8121 26.5748 10.6875C26.6459 10.5629 26.6891 10.424 26.7013 10.2807C26.7136 10.1374 26.6946 9.9931 26.6458 9.858C26.3886 9.11741 26.4004 8.30851 26.6792 7.57594C26.958 6.84338 27.4856 6.23493 28.1675 5.8594C27.7365 5.33679 27.5214 4.66645 27.5667 3.98767C27.612 3.30889 27.9144 2.67386 28.411 2.21453C29.9327 0.861163 31.4545 1.46095 32.7632 2.62977L34.1327 3.98314C35.37 3.46946 36.37 2.50282 36.9327 1.2764L37.3284 0.353649C37.3694 0.246631 37.4415 0.154656 37.5352 0.0897985C37.6289 0.0249414 37.7398 -0.00976563 37.8534 -0.00976562C37.9669 -0.00976563 38.0779 0.0249414 38.1716 0.0897985C38.2652 0.154656 38.3373 0.246631 38.3784 0.353649L38.774 1.2764C39.3331 2.48738 40.3215 3.4423 41.5436 3.95238V3.95238ZM4.0023 39.4322C6.1936 38.9247 5.34143 36.9715 4.3523 37.0484C4.24333 37.0484 4.13882 37.0922 4.06177 37.1701C3.98472 37.2479 3.94143 37.3535 3.94143 37.4637C3.94143 37.5738 3.98472 37.6794 4.06177 37.7573C4.13882 37.8352 4.24333 37.8789 4.3523 37.8789C4.44976 37.8733 4.54663 37.8975 4.63034 37.9482C4.71405 37.999 4.78074 38.074 4.82175 38.1635C4.86276 38.253 4.8762 38.3529 4.86033 38.4503C4.84445 38.5476 4.8 38.6379 4.73273 38.7094C4.58139 38.8501 4.39345 38.9443 4.19099 38.9808C3.98853 39.0173 3.77996 38.9947 3.58979 38.9155C3.39962 38.8364 3.23575 38.704 3.11744 38.534C2.99912 38.364 2.93127 38.1634 2.92186 37.9558C2.6023 35.1722 4.56534 33.5266 6.40665 34.0341C6.09167 34.1411 5.82002 34.3494 5.63317 34.6271C5.44632 34.9048 5.35454 35.2367 5.37186 35.572C5.2895 35.6264 5.22316 35.7022 5.1798 35.7915C5.13644 35.8808 5.11766 35.9802 5.12545 36.0793C5.13323 36.1784 5.16729 36.2736 5.22403 36.3548C5.28078 36.436 5.35813 36.5003 5.44795 36.5409C5.65382 36.8746 5.78738 37.2487 5.83984 37.6383C5.8923 38.028 5.86246 38.4245 5.7523 38.8017C5.77383 38.9342 5.7644 39.0699 5.72477 39.1981C5.68514 39.3263 5.6164 39.4433 5.52404 39.5399C6.16838 39.7335 6.73361 40.1322 7.13555 40.6768C7.53748 41.2213 7.75462 41.8825 7.75462 42.5619C7.75462 43.2412 7.53748 43.9024 7.13555 44.447C6.73361 44.9915 6.16838 45.3903 5.52404 45.5839C5.6164 45.6804 5.68514 45.7975 5.72477 45.9256C5.7644 46.0538 5.77383 46.1896 5.7523 46.3221C5.86246 46.6993 5.8923 47.0958 5.83984 47.4854C5.78738 47.8751 5.65382 48.2491 5.44795 48.5828C5.35813 48.6234 5.28078 48.6877 5.22403 48.7689C5.16729 48.8502 5.13323 48.9453 5.12545 49.0445C5.11766 49.1436 5.13644 49.243 5.1798 49.3323C5.22316 49.4215 5.2895 49.4973 5.37186 49.5517C5.35454 49.8871 5.44632 50.219 5.63317 50.4967C5.82002 50.7744 6.09167 50.9826 6.40665 51.0897C4.56534 51.5049 2.6023 49.8593 2.86099 47.0757C2.8704 46.868 2.93825 46.6674 3.05657 46.4974C3.17488 46.3274 3.33875 46.1951 3.52892 46.1159C3.71909 46.0368 3.92766 46.0142 4.13012 46.0507C4.33258 46.0872 4.52052 46.1814 4.67186 46.3221C4.73913 46.3936 4.78358 46.4839 4.79946 46.5812C4.81533 46.6785 4.80189 46.7785 4.76088 46.868C4.71987 46.9575 4.65318 47.0325 4.56947 47.0833C4.48576 47.134 4.38889 47.1582 4.29143 47.1526C4.18246 47.1526 4.07795 47.1963 4.0009 47.2742C3.92385 47.3521 3.88056 47.4577 3.88056 47.5678C3.88056 47.6779 3.92385 47.7836 4.0009 47.8614C4.07795 47.9393 4.18246 47.983 4.29143 47.983C5.28056 48.0753 6.13273 46.1068 3.94143 45.5993C3.13425 45.5993 2.36013 45.2752 1.78936 44.6984C1.2186 44.1215 0.897949 43.3392 0.897949 42.5234C0.897949 41.7077 1.2186 40.9253 1.78936 40.3485C2.36013 39.7717 3.13425 39.4476 3.94143 39.4476L4.0023 39.4322ZM2.32838 42.5081C2.32838 42.9704 2.46404 43.4224 2.7182 43.8068C2.97236 44.1912 3.33361 44.4908 3.75626 44.6677C4.17892 44.8447 4.64399 44.891 5.09268 44.8008C5.54137 44.7106 5.95351 44.4879 6.277 44.161C6.60048 43.8341 6.82078 43.4176 6.91003 42.9641C6.99928 42.5106 6.95347 42.0406 6.7784 41.6135C6.60333 41.1863 6.30686 40.8212 5.92649 40.5644C5.54611 40.3075 5.0989 40.1704 4.64143 40.1704C4.33639 40.1704 4.03436 40.2314 3.75273 40.3498C3.47111 40.4683 3.21544 40.6418 3.00045 40.8605C2.78547 41.0792 2.61541 41.3387 2.50007 41.6241C2.38472 41.9095 2.32638 42.2152 2.32838 42.5234V42.5081ZM4.64143 40.601C4.26822 40.601 3.9034 40.7129 3.59309 40.9224C3.28278 41.132 3.04093 41.4298 2.89811 41.7783C2.75529 42.1267 2.71792 42.5102 2.79073 42.8801C2.86354 43.25 3.04325 43.5898 3.30715 43.8565C3.57104 44.1232 3.90727 44.3048 4.2733 44.3784C4.63933 44.452 5.01874 44.4142 5.36353 44.2699C5.70833 44.1256 6.00303 43.8811 6.21037 43.5675C6.41772 43.2539 6.52838 42.8852 6.52838 42.5081C6.52838 42.0023 6.32958 41.5172 5.97571 41.1596C5.62183 40.8019 5.14188 40.601 4.64143 40.601V40.601ZM3.48491 42.5081C3.48491 42.818 3.60675 43.1153 3.82364 43.3345C4.04053 43.5537 4.3347 43.6769 4.64143 43.6769C4.94816 43.6769 5.24232 43.5537 5.45921 43.3345C5.6761 43.1153 5.79795 42.818 5.79795 42.5081C5.79795 42.1981 5.6761 41.9008 5.45921 41.6816C5.24232 41.4624 4.94816 41.3392 4.64143 41.3392C4.3347 41.3392 4.04053 41.4624 3.82364 41.6816C3.60675 41.9008 3.48491 42.1981 3.48491 42.5081V42.5081ZM71.6893 39.4322C72.4964 39.4322 73.2706 39.7563 73.8413 40.3331C74.4121 40.9099 74.7327 41.6923 74.7327 42.5081C74.7327 43.3238 74.4121 44.1062 73.8413 44.683C73.2706 45.2598 72.4964 45.5839 71.6893 45.5839C69.4979 46.0914 70.3501 48.0599 71.3545 47.9677C71.4634 47.9677 71.5679 47.9239 71.645 47.846C71.722 47.7682 71.7653 47.6626 71.7653 47.5524C71.7653 47.4423 71.722 47.3367 71.645 47.2588C71.5679 47.1809 71.4634 47.1372 71.3545 47.1372C71.257 47.1428 71.1601 47.1186 71.0764 47.0679C70.9927 47.0171 70.926 46.9421 70.885 46.8526C70.844 46.7631 70.8306 46.6632 70.8464 46.5658C70.8623 46.4685 70.9068 46.3782 70.974 46.3067C71.1248 46.1611 71.3141 46.0628 71.519 46.0235C71.7239 45.9843 71.9356 46.0058 72.1287 46.0855C72.3218 46.1651 72.4879 46.2996 72.607 46.4725C72.7262 46.6455 72.7932 46.8497 72.8001 47.0603C73.0436 49.8439 71.0958 51.4895 69.2393 50.9974C69.5542 50.8904 69.8259 50.6821 70.0127 50.4044C70.1996 50.1267 70.2914 49.7948 70.274 49.4595C70.3612 49.4086 70.4323 49.3338 70.4791 49.2438C70.526 49.1537 70.5466 49.0521 70.5386 48.9507C70.5307 48.8493 70.4944 48.7523 70.4341 48.6709C70.3738 48.5894 70.292 48.5269 70.198 48.4906C69.999 48.154 69.8694 47.7802 69.8171 47.3916C69.7648 47.0031 69.7908 46.6079 69.8936 46.2298C69.8755 46.0974 69.8866 45.9625 69.926 45.8349C69.9655 45.7073 70.0324 45.5901 70.1219 45.4916C69.4775 45.298 68.9123 44.8993 68.5104 44.3547C68.1084 43.8102 67.8913 43.149 67.8913 42.4696C67.8913 41.7902 68.1084 41.129 68.5104 40.5845C68.9123 40.04 69.4775 39.6412 70.1219 39.4476C70.057 39.3462 70.0129 39.2328 69.992 39.114C69.9711 38.9951 69.9739 38.8733 70.0001 38.7555C69.8974 38.3774 69.8713 37.9822 69.9236 37.5937C69.9759 37.2052 70.1055 36.8314 70.3045 36.4948C70.3985 36.4584 70.4804 36.3959 70.5407 36.3145C70.601 36.2331 70.6372 36.136 70.6451 36.0346C70.6531 35.9332 70.6325 35.8316 70.5857 35.7416C70.5388 35.6515 70.4677 35.5768 70.3806 35.5259C70.3979 35.1905 70.3061 34.8586 70.1193 34.5809C69.9324 34.3032 69.6607 34.095 69.3458 33.988C71.2023 33.4805 73.1501 35.126 72.9066 37.9097C72.8998 38.1203 72.8327 38.3244 72.7136 38.4974C72.5944 38.6704 72.4283 38.8048 72.2352 38.8845C72.0422 38.9642 71.8304 38.9857 71.6255 38.9464C71.4206 38.9072 71.2314 38.8088 71.0806 38.6632C71.0133 38.5918 70.9688 38.5015 70.953 38.4041C70.9371 38.3068 70.9505 38.2069 70.9915 38.1174C71.0326 38.0278 71.0992 37.9528 71.1829 37.9021C71.2667 37.8513 71.3635 37.8272 71.461 37.8328C71.57 37.8328 71.6745 37.789 71.7515 37.7112C71.8286 37.6333 71.8719 37.5277 71.8719 37.4175C71.8719 37.3074 71.8286 37.2018 71.7515 37.1239C71.6745 37.046 71.57 37.0023 71.461 37.0023C70.4566 36.9254 69.6045 38.8786 71.7958 39.3861L71.6893 39.4322ZM73.3632 42.5081C73.3662 42.0451 73.2331 41.5916 72.9808 41.2052C72.7284 40.8187 72.3683 40.5167 71.9459 40.3374C71.5235 40.1581 71.058 40.1096 70.6083 40.1981C70.1586 40.2865 69.745 40.508 69.42 40.8343C69.095 41.1606 68.8732 41.5771 68.7827 42.0309C68.6922 42.4848 68.7371 42.9556 68.9117 43.3837C69.0863 43.8117 69.3828 44.1777 69.7635 44.4353C70.1442 44.6928 70.592 44.8303 71.0501 44.8303C71.661 44.8303 72.247 44.5862 72.6803 44.1511C73.1137 43.716 73.3591 43.1254 73.3632 42.5081V42.5081ZM71.0501 40.601C70.6776 40.6041 70.3143 40.7185 70.006 40.9299C69.6977 41.1413 69.4582 41.4401 69.3177 41.7889C69.1772 42.1376 69.142 42.5205 69.2165 42.8894C69.291 43.2583 69.4719 43.5967 69.7364 43.8619C70.0009 44.127 70.3372 44.3071 70.7028 44.3795C71.0684 44.4518 71.447 44.4132 71.7909 44.2684C72.1348 44.1236 72.4286 43.8792 72.6353 43.5659C72.842 43.2527 72.9523 42.8846 72.9523 42.5081C72.9523 42.2563 72.903 42.0071 72.8072 41.7747C72.7114 41.5423 72.5711 41.3314 72.3943 41.1541C72.2174 40.9768 72.0076 40.8367 71.7769 40.7418C71.5462 40.6468 71.2992 40.599 71.0501 40.601ZM72.2219 42.5081C72.1891 42.2192 72.0524 41.9526 71.8377 41.7591C71.623 41.5655 71.3454 41.4586 71.0577 41.4586C70.7701 41.4586 70.4924 41.5655 70.2777 41.7591C70.0631 41.9526 69.9263 42.2192 69.8936 42.5081C69.9263 42.7969 70.0631 43.0635 70.2777 43.257C70.4924 43.4506 70.7701 43.5575 71.0577 43.5575C71.3454 43.5575 71.623 43.4506 71.8377 43.257C72.0524 43.0635 72.1891 42.7969 72.2219 42.5081ZM38.4849 10.1502L37.9219 10.7654L40.0371 12.7647C47.4625 13.2808 54.4249 16.5982 59.5435 22.059C64.6622 27.5198 67.5634 34.7253 67.6719 42.2466C67.7346 41.5499 68.0173 40.8921 68.4784 40.3703C67.9333 32.978 64.7414 26.0398 59.5001 20.8541C54.4673 15.8044 47.8581 12.6739 40.7979 11.9957H40.3871L38.4849 10.1502ZM39.3675 9.22745L38.8197 9.7811L40.6458 11.5651H40.9349C48.0522 12.265 54.7121 15.4266 59.7893 20.5158C64.9943 25.7102 68.185 32.6178 68.7827 39.9859C69.0059 39.7772 69.2569 39.6012 69.5284 39.463C68.886 33.0153 66.3219 26.9166 62.1754 21.9735C58.0289 17.0305 52.4954 13.4761 46.3066 11.7804V11.7804C45.7749 11.8069 45.2468 11.6788 44.7849 11.4113C43.5167 11.1123 42.2307 10.8965 40.9349 10.7654L39.4132 9.22745H39.3675ZM37.724 7.55112L35.6697 5.45955C36.5074 4.99405 37.2508 4.37317 37.861 3.62942C38.4604 4.37199 39.1936 4.993 40.0219 5.45955L34.7719 10.7654C33.5242 10.889 32.2845 11.0841 31.0588 11.3498C30.5767 11.6404 30.022 11.7846 29.461 11.765H29.3849C23.1972 13.4626 17.6648 17.0176 13.5186 21.9603C9.37243 26.9029 6.80765 33.0006 6.16317 39.4476C6.43718 39.5895 6.69275 39.7651 6.92404 39.9705C7.53704 32.6276 10.7204 25.7461 15.9023 20.5619C20.9877 15.4759 27.6512 12.3151 34.7719 11.6112H35.0001L41.4066 5.22886C39.8728 4.68364 38.5898 3.58941 37.8001 2.15302V2.15302C37.0045 3.59043 35.7164 4.68436 34.1784 5.22886L37.1001 8.15091L37.6784 7.5665L37.724 7.55112ZM33.6153 5.09044C32.3219 3.82935 30.6936 1.70702 29.2175 3.06039C28.2436 3.95238 28.9893 5.15196 29.8719 5.96706C31.0436 5.59796 31.9719 5.67485 33.6153 5.09044ZM28.9132 6.76678C28.3983 7.03649 27.9902 7.47606 27.7566 8.01249C27.6609 8.22327 27.6094 8.45185 27.6055 8.68377C27.6016 8.91568 27.6454 9.14589 27.7341 9.35982C27.8228 9.57376 27.9544 9.76676 28.1207 9.92664C28.287 10.0865 28.4843 10.2098 28.7001 10.2886C29.0087 10.4379 29.3541 10.4917 29.6928 10.4432C30.0316 10.3947 30.3485 10.246 30.6039 10.0159C30.8592 9.78573 31.0416 9.48444 31.1279 9.14987C31.2143 8.8153 31.2008 8.46239 31.0893 8.13553C30.8628 7.41387 30.4084 6.78719 29.7958 6.35154C29.4896 6.46227 29.1941 6.60127 28.9132 6.76678V6.76678ZM31.9566 4.61369C31.424 4.07542 30.7393 3.41411 30.2371 3.41411C29.1719 3.41411 29.6132 4.59831 30.0697 4.95203C30.7088 4.79824 31.2719 4.7521 31.9566 4.59831V4.61369ZM29.6436 7.33581C29.1698 7.50628 28.778 7.85272 28.5479 8.3047C28.274 9.10442 28.7153 9.55041 29.5066 9.58117C30.2979 9.61193 30.7545 8.42773 29.6436 7.33581ZM42.0914 5.09044C43.7349 5.67485 44.6632 5.59796 45.8349 5.96706C46.7023 5.15196 47.4632 3.95238 46.474 3.06039C44.9523 1.70702 43.4306 3.82935 42.0914 5.09044V5.09044ZM46.7936 6.76678C46.5111 6.60417 46.216 6.46529 45.911 6.35154C45.2942 6.78638 44.8348 7.41275 44.6023 8.13553C44.4881 8.46419 44.4734 8.81978 44.56 9.15693C44.6466 9.49408 44.8307 9.79751 45.0886 10.0285C45.3466 10.2595 45.6668 10.4076 46.0084 10.454C46.35 10.5003 46.6975 10.4427 47.0066 10.2886C47.2226 10.2102 47.4199 10.0869 47.5858 9.92667C47.7517 9.76648 47.8826 9.57295 47.9701 9.35854C48.0575 9.14413 48.0996 8.91358 48.0935 8.68175C48.0875 8.44992 48.0334 8.22194 47.9349 8.01249C47.7073 7.47714 47.3043 7.03727 46.7936 6.76678V6.76678ZM43.7045 4.61369C44.374 4.76748 44.9371 4.81362 45.5762 4.96741C46.0327 4.59831 46.4893 3.42949 45.4088 3.42949C44.9219 3.42949 44.2371 4.0908 43.7045 4.62907V4.61369ZM46.0632 7.28967C44.9523 8.38159 45.3175 9.55041 46.1849 9.53503C47.0523 9.51966 47.4327 9.05828 47.1436 8.25856C46.9196 7.80759 46.5329 7.46075 46.0632 7.28967V7.28967ZM38.4545 74.8351L37.8914 74.2815L40.0371 72.2822C47.4626 71.7589 54.423 68.4372 59.5407 62.9746C64.6584 57.512 67.5602 50.3067 67.6719 42.7849C67.7471 43.4599 68.029 44.0944 68.4784 44.5996C67.9478 52.0136 64.7548 58.9761 59.5001 64.1774C54.4673 69.2271 47.8581 72.3576 40.7979 73.0358H40.3871L38.4849 74.8813L38.4545 74.8351ZM39.3371 75.7271L38.7893 75.1735L40.6153 73.3895H40.9045C48.023 72.683 54.6824 69.5161 59.7588 64.4234C64.9522 59.2611 68.1521 52.3952 68.7827 45.061C69.0059 45.2696 69.2569 45.4456 69.5284 45.5839C68.886 52.0316 66.3219 58.1303 62.1754 63.0733C58.0289 68.0163 52.4954 71.5708 46.3066 73.2665C45.7755 73.2466 45.2492 73.3742 44.7849 73.6356C43.5414 73.9262 42.2809 74.1368 41.011 74.2661L39.4893 75.804L39.3371 75.7271ZM37.6936 77.4342L35.6393 79.5412C36.4794 79.9964 37.2238 80.6128 37.8306 81.3559C38.4262 80.6137 39.1604 79.9971 39.9914 79.5412L34.7414 74.2046C33.4938 74.081 32.2541 73.8859 31.0284 73.6202C30.5463 73.3295 29.9916 73.1854 29.4306 73.2049H29.3545C23.1668 71.5073 17.6343 67.9523 13.4882 63.0097C9.34199 58.067 6.77722 51.9694 6.13273 45.5224C6.40675 45.3805 6.66231 45.2049 6.8936 44.9995C7.5066 52.3424 10.6899 59.2239 15.8719 64.408C20.9558 69.4987 27.6192 72.6649 34.7414 73.3741H35.0001L41.4066 79.7565C39.8757 80.3067 38.5942 81.3996 37.8001 82.8323V82.8323C37.0002 81.3986 35.7136 80.306 34.1784 79.7565L37.1458 76.896L37.724 77.4804L37.6936 77.4342ZM33.6153 79.9718C32.3219 81.2483 30.6936 83.3552 29.2175 82.0019C28.2436 81.1099 28.9893 79.9103 29.8719 79.0952C31.0436 79.4797 31.9719 79.4028 33.6153 79.9718ZM28.9132 78.2647C28.3983 77.995 27.9902 77.5554 27.7566 77.019C27.6609 76.8082 27.6094 76.5796 27.6055 76.3477C27.6016 76.1158 27.6454 75.8856 27.7341 75.6717C27.8228 75.4577 27.9544 75.2647 28.1207 75.1048C28.287 74.945 28.4843 74.8217 28.7001 74.7429C29.0087 74.5935 29.3541 74.5398 29.6928 74.5883C30.0316 74.6368 30.3485 74.7855 30.6039 75.0156C30.8592 75.2458 31.0416 75.547 31.1279 75.8816C31.2143 76.2162 31.2008 76.5691 31.0893 76.896C30.8628 77.6176 30.4084 78.2443 29.7958 78.6799C29.487 78.5757 29.1909 78.4364 28.9132 78.2647V78.2647ZM31.9566 80.3717C31.424 80.9099 30.7393 81.5712 30.2371 81.5866C29.1719 81.5866 29.6132 80.387 30.0697 80.0487C30.7088 80.2179 31.2719 80.2486 31.9566 80.4024V80.3717ZM29.598 77.6957C29.1217 77.5294 28.7286 77.1817 28.5023 76.7268C28.2284 75.9271 28.6697 75.4811 29.461 75.4503C30.2523 75.4196 30.7088 76.6038 29.598 77.6957ZM42.0914 79.9718C43.7349 79.4028 44.6632 79.4797 45.8349 79.0952C46.7023 79.9103 47.4632 81.1099 46.474 82.0019C44.9523 83.3552 43.4306 81.2483 42.0914 79.9718V79.9718ZM46.7936 78.2955C46.5144 78.4643 46.2186 78.6034 45.911 78.7107C45.2889 78.268 44.8289 77.63 44.6023 76.896C44.4881 76.5673 44.4734 76.2117 44.56 75.8746C44.6466 75.5374 44.8307 75.234 45.0886 75.003C45.3466 74.772 45.6668 74.6238 46.0084 74.5775C46.35 74.5312 46.6975 74.5888 47.0066 74.7429C47.2211 74.8233 47.4169 74.9477 47.5815 75.1082C47.7461 75.2688 47.8761 75.462 47.9633 75.6758C48.0505 75.8895 48.093 76.1192 48.0881 76.3504C48.0832 76.5815 48.031 76.8092 47.9349 77.019C47.7073 77.5543 47.3043 77.9942 46.7936 78.2647V78.2955ZM43.7501 80.4024C44.4197 80.2486 44.9827 80.2179 45.6219 80.0487C46.0784 80.4178 46.5349 81.5866 45.4545 81.5866C44.9675 81.5866 44.2827 80.9099 43.7501 80.3717V80.4024ZM46.1088 77.7264C44.9979 76.6345 45.3632 75.4657 46.2306 75.4811C47.0979 75.4965 47.4784 75.9578 47.1893 76.7575C47.0719 76.9811 46.912 77.1791 46.7188 77.3401C46.5255 77.5011 46.3027 77.6219 46.0632 77.6957L46.1088 77.7264Z" fill="#053456"/>
<path d="M36.339 21.9463C33.9346 21.9463 31.9868 22.3923 31.9868 22.8383C31.9868 23.2843 33.9651 23.638 36.3694 23.5919C38.7738 23.5457 40.7368 23.1459 40.7216 22.6845C40.7064 22.2231 38.7586 21.9001 36.339 21.9463ZM36.5673 22.8998C35.4162 23.018 34.2536 22.9401 33.1281 22.6691C34.2347 22.3768 35.3799 22.2626 36.5216 22.3308C37.6725 22.2033 38.8366 22.2814 39.9607 22.5614C38.8395 22.8586 37.6785 22.9729 36.5216 22.8998H36.5673Z" fill="#053456"/>
<path d="M31.1197 32.0196C31.0436 32.7424 31.2566 34.4956 30.9523 34.6648C30.6479 34.834 30.1914 34.8186 30.5566 35.2646C30.7746 35.5316 31.0438 35.7513 31.3479 35.9105C31.4111 36.079 31.4111 36.265 31.3479 36.4334C31.1958 36.5411 31.2262 36.7102 31.3479 36.8333C31.211 36.9409 31.3479 37.1562 31.4392 37.2485C31.5305 37.3408 31.4392 37.8637 32.3371 38.3404C33.2349 38.8172 33.661 38.4788 33.661 38.4788C33.9206 38.6315 34.2077 38.7305 34.5055 38.7701C34.8033 38.8097 35.1059 38.7891 35.3958 38.7095C34.9713 39.0459 34.5697 39.4107 34.1936 39.8015C33.6458 39.8937 32.3523 39.5862 31.7132 40.109C31.416 40.0146 31.0973 40.0146 30.8001 40.109C30.5414 40.2167 30.0697 39.5093 28.5327 39.8015C28.3326 39.6153 28.074 39.5064 27.8023 39.4939C27.7099 39.1647 27.5515 38.8582 27.3368 38.5936C27.1221 38.329 26.8558 38.112 26.5545 37.956C26.4406 37.7696 26.2608 37.6341 26.0517 37.5769C25.8425 37.5198 25.6196 37.5453 25.4284 37.6484C24.6371 37.9867 24.3479 37.6484 23.9066 38.1251C23.9066 38.1251 22.9479 38.4327 23.8153 39.1248C23.6327 39.663 23.6479 39.7707 24.2414 39.8937C24.2414 40.3551 24.2414 40.5704 24.6219 40.7396C24.4088 41.0626 24.7284 41.2779 25.0632 41.4932C25.3089 41.6438 25.5881 41.7297 25.8752 41.7432C26.1623 41.7566 26.4482 41.6971 26.7066 41.5701C26.8113 41.7392 26.9611 41.8751 27.1387 41.9622C27.3164 42.0492 27.5147 42.0839 27.711 42.0622C28.4734 42.6509 29.3416 43.0845 30.2675 43.3387C30.461 43.4394 30.6726 43.4995 30.8897 43.5153C31.1068 43.5312 31.3247 43.5025 31.5305 43.431C31.9884 43.6089 32.4779 43.6886 32.9678 43.6647C33.4578 43.6409 33.9374 43.5141 34.3762 43.2925C34.5588 43.5847 34.6958 43.7847 35.0458 43.8308C34.8901 44.9085 35.1399 46.006 35.7458 46.9067C36.3697 47.814 35.7458 49.7057 37.8001 50.9052C37.7629 51.2287 37.7998 51.5564 37.908 51.8631C38.0162 52.1698 38.1928 52.4472 38.424 52.6739C38.424 53.3505 37.7545 54.7962 38.6066 55.6574C38.4011 55.9728 38.3258 56.357 38.3969 56.7277C38.468 57.0985 38.6798 57.4264 38.9871 57.6413C39.0463 58.6858 39.332 59.7044 39.824 60.6249C39.7711 61.0484 39.7406 61.4745 39.7327 61.9014C39.3189 62.1575 38.9781 62.5178 38.7436 62.9472L38.5001 63.1625C38.5001 63.1625 37.4958 63.2394 37.4805 63.7007C37.4653 64.1621 38.2871 64.0545 38.2871 64.0545C38.3729 64.1564 38.4862 64.231 38.6131 64.2692C38.7401 64.3075 38.8752 64.3076 39.0023 64.2698C39.1088 64.5312 39.5805 64.3774 39.5805 64.3774C39.5805 64.3774 39.7479 64.9772 40.4632 64.5005C41.1784 64.0237 41.3153 63.6392 41.8632 63.2547C42.411 62.8703 44.2827 61.7168 43.9479 60.8556C43.8244 60.4247 43.5939 60.033 43.2784 59.7175C43.3245 59.5697 43.3178 59.4101 43.2594 59.2668C43.201 59.1234 43.0946 59.0053 42.9588 58.9332C42.756 58.5412 42.6865 58.0926 42.761 57.6567C42.8845 57.2666 42.8845 56.8473 42.761 56.4571C42.8827 55.9804 44.0088 54.4425 44.1914 53.612C44.6175 54.3809 45.7892 54.6116 46.2001 54.7039C46.4134 55.0256 46.6975 55.293 47.0302 55.4851C47.3628 55.6772 47.735 55.7888 48.1175 55.8112C48.6344 55.8276 49.1499 55.7495 49.6392 55.5805C50.3083 55.1232 51.0103 54.7171 51.7392 54.3656C51.9827 54.3656 52.6675 55.1038 53.261 55.1038C53.261 55.6728 53.9762 55.8881 53.9762 55.8881C53.9762 55.8881 53.474 56.7801 54.0827 56.9954C54.6914 57.2107 54.7827 56.5187 54.7827 56.5187C54.812 56.5659 54.8505 56.6066 54.8957 56.6385C54.9409 56.6703 54.9921 56.6927 55.046 56.7042C55.1 56.7156 55.1557 56.716 55.2098 56.7053C55.2639 56.6946 55.3153 56.6729 55.361 56.6417C55.711 56.3956 56.2436 56.4571 56.0914 55.9804C55.8483 55.1572 55.4674 54.3821 54.9653 53.6889C54.3414 52.7815 54.7219 51.7972 53.8849 51.2128C53.0479 50.6284 52.6523 50.7668 51.9675 51.5358C51.9049 51.5006 51.8352 51.4803 51.7636 51.4763C51.6921 51.4724 51.6206 51.485 51.5546 51.5132C51.4886 51.5413 51.4298 51.5843 51.3827 51.6389C51.3356 51.6934 51.3014 51.7581 51.2827 51.828C50.7607 51.6134 50.1765 51.6134 49.6545 51.828C49.3349 51.5973 48.9392 51.3359 48.7414 51.4897C48.5436 51.6434 48.7414 50.7361 47.2197 49.598C47.4152 49.2109 47.5133 48.7811 47.5053 48.3465C47.4974 47.912 47.3836 47.4861 47.174 47.1066C46.3827 45.8762 44.2979 45.5687 42.8219 43.2618C41.3458 40.9549 41.4219 39.7092 39.8849 38.7557C39.8128 38.4054 39.762 38.051 39.7327 37.6945C39.7327 37.4177 43.674 33.7882 41.6349 29.9126C39.5958 26.0371 31.8653 25.5296 31.1197 32.0196Z" fill="#053456"/>
<path d="M31.652 32.7885C31.652 32.7885 30.1303 32.4655 30.6933 31.0506C30.6933 31.0506 30.1303 30.8968 30.3738 30.0664C29.9781 29.9279 29.8107 29.3282 30.1911 28.5284C30.5716 27.7287 30.7085 27.9286 30.7085 27.9286C30.6047 27.786 30.5487 27.6136 30.5487 27.4365C30.5487 27.2594 30.6047 27.087 30.7085 26.9444C31.0738 26.4369 30.6325 27.2673 31.1042 27.4058C31.1042 27.4058 30.9064 26.3292 32.2303 26.3446C32.0933 25.9447 32.839 25.0681 33.8433 25.0681C33.9498 25.0681 34.1325 24.699 34.3151 24.699C34.4977 24.699 34.1325 25.022 34.3151 25.0835C34.4977 25.145 34.6346 24.2376 35.5172 24.6683C36.3694 24.2992 36.6281 24.2992 37.039 24.6683C37.7542 24.3299 38.5607 24.007 39.2455 25.1143C39.8846 24.6836 40.539 25.5756 40.4477 25.9447C40.5893 25.874 40.7469 25.8423 40.9046 25.8528C41.0622 25.8633 41.2143 25.9156 41.3455 26.0046C41.4768 26.0935 41.5824 26.2158 41.6519 26.3592C41.7214 26.5027 41.7521 26.6621 41.7411 26.8213C42.4107 26.8213 42.852 27.3442 42.6694 27.8364C43.2325 28.1747 43.6129 28.6822 43.202 29.282C43.305 29.314 43.3978 29.373 43.4709 29.453C43.544 29.5331 43.5947 29.6313 43.6179 29.7376C43.6412 29.844 43.636 29.9547 43.603 30.0584C43.5701 30.162 43.5105 30.255 43.4303 30.3278C43.0042 30.7123 43.7346 30.5893 43.9172 30.3278C44.0998 30.0664 43.9172 30.6661 43.4151 30.9891C43.5126 31.0765 43.5863 31.1877 43.6291 31.3122C43.6719 31.4366 43.6823 31.57 43.6594 31.6997C43.6365 31.8294 43.581 31.951 43.4982 32.0527C43.4155 32.1545 43.3082 32.2331 43.1868 32.281C43.4759 32.5424 43.4911 33.1883 42.6542 33.619C42.6542 33.9881 42.7607 34.311 42.2738 34.5417C42.0455 34.8339 42.5172 34.9723 42.7911 34.7724C43.0651 34.5725 42.7911 35.3876 42.0759 35.3722C42.0759 35.3722 42.0759 36.0181 41.4672 36.0027C41.2846 36.0027 41.2238 36.4795 41.6194 36.6179C42.0151 36.7563 41.2085 37.0947 40.7825 36.7256H40.6151C40.6151 36.7256 40.0216 37.2484 39.5803 36.4334C39.139 35.6183 31.652 32.7885 31.652 32.7885Z" fill="#053456"/>
<path d="M17.9567 39.9857C18.0165 40.0495 18.0884 40.1002 18.1682 40.135C18.248 40.1697 18.334 40.1876 18.4209 40.1876C18.5077 40.1876 18.5937 40.1697 18.6735 40.135C18.7533 40.1002 18.8253 40.0495 18.885 39.9857C18.9557 39.8845 18.9937 39.7636 18.9937 39.6397C18.9937 39.5157 18.9557 39.3949 18.885 39.2936V39.2936H33.5393H34.1176L34.498 39.7089L37.9372 39.9857L37.3437 39.2167V38.9861L37.9372 38.2171L34.498 38.4478L34.1176 38.863H33.4785H18.7785C18.8161 38.8341 18.8472 38.7974 18.8698 38.7554C18.9646 38.6269 19.0051 38.4656 18.9822 38.307C18.9594 38.1483 18.8752 38.0054 18.748 37.9095C18.6209 37.8137 18.4613 37.7728 18.3043 37.7958C18.1474 37.8189 18.0059 37.9041 17.9111 38.0325C17.4698 38.3401 17.1806 38.8323 16.8154 39.0168C17.2263 39.2014 17.5154 39.7089 17.9567 39.9857Z" fill="#053456"/>
<path d="M24.8653 38.8171C25.1544 38.8171 25.1696 39.4168 25.1849 39.6475C25.1849 39.8628 25.3979 40.4319 25.1849 40.5395C24.9718 40.6472 24.9718 40.8932 25.0023 41.0932C25.4356 42.9551 26.5785 44.5689 28.1827 45.5839C29.4617 46.3489 30.5954 47.3384 31.5305 48.506C32.4892 49.6594 31.0131 50.2899 30.724 49.6133C30.724 49.6133 31.3023 49.3211 30.724 48.8443C30.606 48.7739 30.4666 48.7494 30.332 48.7753C30.1974 48.8013 30.0768 48.876 29.9928 48.9854C29.9088 49.0949 29.8672 49.2315 29.8757 49.3697C29.8843 49.5079 29.9424 49.6383 30.0392 49.7363C30.2948 50.0287 30.6507 50.212 31.0349 50.2491C31.4192 50.2862 31.8031 50.1744 32.1088 49.9362C32.9305 49.1673 32.2762 48.0292 29.6588 45.9223C26.311 43.2001 26.9349 42.7541 26.3262 40.5703C26.2388 40.4719 26.136 40.3887 26.0218 40.3242C25.9001 40.3242 25.8544 39.5245 25.8544 39.5245C25.8544 39.5245 25.6566 38.7863 25.7631 38.7094C25.8109 38.6279 25.8468 38.5398 25.8696 38.448C25.7936 36.1872 25.0631 35.9411 27.3914 32.2963C29.2327 29.4819 29.5218 28.19 28.5175 27.6825C28.1533 27.5425 27.7499 27.549 27.3904 27.7007C27.0308 27.8523 26.7425 28.1375 26.5849 28.4976C26.5217 28.6216 26.5058 28.7647 26.5402 28.8998C26.5746 29.0349 26.6569 29.1525 26.7714 29.2303C26.886 29.308 27.0248 29.3406 27.1615 29.3218C27.2982 29.303 27.4234 29.2341 27.5131 29.1282C27.9696 28.4822 27.3305 28.4515 27.3457 28.39C27.3457 27.6364 29.0044 27.7902 28.4414 29.1897C27.9075 30.5932 27.1235 31.8859 26.1283 33.0037C24.9102 34.4669 24.3139 36.3576 24.4696 38.2634C24.561 38.5402 24.637 38.7863 24.8653 38.8171Z" fill="#053456"/>
<path d="M36.1263 39.1091L31.3328 48.4135L31.1807 48.3213L35.9741 39.0322L36.1263 39.1091Z" fill="#053456"/>
<path d="M36.1109 39.0169L35.9892 39.1245L28.4565 30.4968L28.5783 30.3892L36.1109 39.0169Z" fill="#053456"/>
<path d="M39.3521 40.6472C40.0217 39.8167 42.0303 39.2169 42.5934 38.0789C43.1564 36.9408 43.3238 35.3875 44.1912 35.003C45.482 34.3332 46.6098 33.3825 47.4934 32.2194C47.9195 31.2966 48.3151 30.6046 48.1782 30.0663C48.0412 29.528 48.5738 29.0051 49.289 29.7279C49.601 30.1244 49.7953 30.6023 49.8491 31.1059C49.903 31.6096 49.8143 32.1184 49.5934 32.5731C49.213 33.5266 49.5934 33.5266 49.9129 33.0345C50.1132 32.8063 50.2544 32.5315 50.3238 32.2347C50.3238 31.9579 51.3282 32.1579 50.8869 34.0341C50.7386 34.6192 50.4331 35.1514 50.0043 35.572C50.0043 35.572 50.0043 35.9104 50.3086 35.6643C50.613 35.4182 50.8716 35.1876 51.1303 35.5567C51.389 35.9258 50.4303 37.2638 50.0651 37.3406C49.6999 37.4175 49.8521 37.556 50.1412 37.4944C50.4303 37.4329 50.8716 37.2022 51.0847 37.4944C51.2977 37.7866 50.4608 38.5402 49.8977 38.7248C49.3347 38.9093 50.2325 38.7248 50.4456 39.0324C50.6586 39.3399 50.0651 40.0628 48.9238 39.9397C48.9238 39.9397 49.9738 40.1397 49.5782 40.6472C49.1825 41.1547 48.239 41.0624 48.239 41.0624C48.239 41.0624 48.8477 41.3546 48.239 41.7391C48.0245 41.8432 47.7918 41.9036 47.5542 41.9168C47.3166 41.93 47.0788 41.8958 46.8543 41.816C46.8543 41.816 47.4021 42.1236 46.8543 42.4927C46.3064 42.8618 45.3325 42.4927 45.0434 42.4927C43.9806 42.0222 42.7964 41.909 41.6651 42.1697C40.3108 42.6311 38.9564 41.1393 39.3521 40.6472Z" fill="#053456"/>
<path d="M41.6502 40.3091C42.6393 39.94 44.6936 40.4783 45.7436 39.817C46.7936 39.1557 47.7523 37.9099 48.7871 37.9868C50.2363 38.1043 51.693 37.8887 53.048 37.3563C53.8849 36.8026 54.5697 36.4182 54.7371 35.8184C54.9045 35.2186 55.6349 35.1263 55.848 36.1259C55.9185 36.6265 55.8439 37.137 55.6333 37.5955C55.4226 38.0541 55.0849 38.4411 54.661 38.7097C53.8393 39.3094 54.1589 39.5094 54.661 39.2787C55.1632 39.048 55.2393 39.0172 55.4371 38.8019C55.6349 38.5866 56.3349 39.2633 54.9958 40.6321C54.5617 41.085 54.0065 41.4003 53.398 41.5394C53.398 41.5394 53.2002 41.8163 53.611 41.7855C54.0219 41.7547 54.3415 41.6932 54.3719 42.1392C54.4023 42.5852 52.8502 43.2158 52.5458 43.1081C52.2415 43.0005 52.2567 43.1081 52.5458 43.2619C52.8349 43.4157 53.3219 43.3849 53.3219 43.7848C53.3219 44.1847 52.2567 44.3384 51.6784 44.2C51.1002 44.0616 51.9523 44.4307 51.9828 44.7537C52.0132 45.0766 51.1458 45.4457 50.248 44.7537C50.248 44.7537 51.0393 45.4919 50.4458 45.7072C49.8523 45.9225 49.0915 45.3535 49.0915 45.3535C49.0915 45.3535 49.4567 45.9379 48.7719 45.9533C48.5352 45.9323 48.3052 45.8629 48.0959 45.7492C47.8866 45.6355 47.7024 45.4799 47.5545 45.292C47.5545 45.292 47.8741 45.861 47.2502 45.8917C46.6262 45.9225 45.8806 45.1382 45.7284 44.9229C45.0639 43.9637 44.1155 43.2422 43.0197 42.862C41.4371 42.4929 41.0871 40.509 41.6502 40.3091Z" fill="#053456"/>
</g>
<defs>
<clipPath id="clip0">
<rect width="350" height="84.5856" fill="white"/>
</clipPath>
</defs>
</svg>
