<svg width="348" height="84" viewBox="0 0 348 84" fill="none" xmlns="http://www.w3.org/2000/svg">
<g clip-path="url(#clip0)">
<path d="M114.9 41.0682H104.914V32.7292H114.9V30.7285H102.887V55.4092H104.914V43.0689H114.9V41.0682Z" fill="white"/>
<path d="M138.973 37.7542C137.741 37.1051 136.367 36.7795 134.978 36.8073C133.753 36.7874 132.537 37.0241 131.406 37.5025C130.276 37.9809 129.256 38.6907 128.412 39.5869C127.53 40.4589 126.834 41.5032 126.365 42.656C125.897 43.8088 125.667 45.0459 125.688 46.2917C125.664 47.5523 125.892 48.8049 126.357 49.9751C126.822 51.1452 127.516 52.209 128.397 53.1033C129.23 53.9992 130.238 54.7103 131.358 55.1914C132.478 55.6726 133.685 55.9133 134.903 55.8982C136.276 55.9052 137.633 55.5916 138.867 54.9819C140.138 54.3308 141.253 53.4084 142.135 52.2786L142.528 51.7898V55.3942H144.42V37.2808H142.528V41.2364L142.12 40.6408C141.312 39.4407 140.233 38.4513 138.973 37.7542V37.7542ZM142.68 46.4444C142.706 47.824 142.378 49.187 141.726 50.4C141.078 51.5687 140.119 52.5314 138.958 53.1797C137.799 53.8413 136.491 54.1886 135.16 54.1877C133.845 54.1943 132.554 53.8406 131.423 53.1644C130.235 52.4666 129.262 51.452 128.608 50.232C127.939 49.0562 127.584 47.7244 127.58 46.368C127.589 45.0123 127.943 43.6818 128.608 42.504C129.253 41.3297 130.198 40.3516 131.346 39.6719C132.493 38.9922 133.799 38.6358 135.13 38.64C136.125 38.623 137.113 38.8137 138.032 39.2C138.951 39.5863 139.781 40.16 140.471 40.8851C141.191 41.6136 141.758 42.4817 142.138 43.437C142.517 44.3924 142.702 45.4153 142.68 46.4444V46.4444Z" fill="white"/>
<path d="M182.942 37.7386C181.974 37.1068 180.841 36.7823 179.689 36.807C178.378 36.7986 177.094 37.1811 175.997 37.9066C174.777 38.7158 173.786 39.8316 173.122 41.1444L172.865 41.6026L172.699 41.1139C172.429 40.2189 171.993 39.3843 171.413 38.655C170.893 38.0729 170.252 37.6139 169.536 37.311C168.763 36.9725 167.928 36.8008 167.085 36.807C165.792 36.8103 164.525 37.175 163.424 37.8608C162.442 38.531 161.603 39.3931 160.958 40.3961L160.534 40.9917V37.2804H158.612V55.4091H160.534V47.7728C160.451 45.9935 160.687 44.2137 161.23 42.519C161.669 41.3879 162.427 40.4111 163.409 39.7088C164.34 39.0369 165.456 38.674 166.601 38.6702C167.522 38.6445 168.427 38.9116 169.188 39.4339C169.896 39.9357 170.426 40.6528 170.702 41.4804C171.045 42.9816 171.188 44.5227 171.125 46.0622V55.3481H173.032V48.3684C172.937 46.4091 173.167 44.4476 173.712 42.5648C174.156 41.4105 174.93 40.416 175.937 39.7088C176.883 39.0193 178.022 38.6503 179.19 38.655V38.655C180.094 38.6318 180.984 38.8817 181.747 39.3728C182.44 39.8303 182.97 40.4992 183.26 41.2819C183.626 42.6494 183.775 44.0672 183.699 45.4819V55.3939H185.666V45.4972C185.746 43.7531 185.51 42.0089 184.97 40.3502C184.568 39.2945 183.862 38.3848 182.942 37.7386Z" fill="white"/>
<path d="M194.623 34.5927C194.572 35.2484 194.461 35.8978 194.29 36.5324C194.078 37.1786 193.814 37.8068 193.503 38.4109L194.426 38.9302C194.862 38.0628 195.207 37.1516 195.455 36.2116C195.671 35.0899 195.767 33.9482 195.743 32.8058V30.1025H193.125V34.3331H194.638L194.623 34.5927Z" fill="white"/>
<path d="M211.629 39.0825C210.376 37.7349 208.661 36.921 206.833 36.8069C206.197 36.7836 205.563 36.8891 204.967 37.1173C204.372 37.3455 203.829 37.6918 203.368 38.1356C202.921 38.568 202.568 39.0905 202.333 39.6694C202.099 40.2483 201.987 40.8705 202.006 41.4956C201.994 42.4793 202.291 43.4416 202.854 44.2447C203.766 45.3072 204.897 46.1566 206.167 46.7342C207.283 47.2388 208.307 47.9308 209.193 48.7807C209.659 49.328 209.907 50.0299 209.889 50.7509C209.89 51.1958 209.794 51.6355 209.608 52.0391C209.423 52.4428 209.152 52.8006 208.815 53.0876C208.118 53.7437 207.196 54.0999 206.243 54.0803C205.502 54.047 204.776 53.8556 204.114 53.5186C203.451 53.1817 202.867 52.7068 202.4 52.1254L201.189 53.5C201.83 54.2487 202.622 54.8501 203.512 55.2638C204.402 55.6774 205.369 55.8936 206.349 55.8978C207.055 55.9123 207.758 55.7847 208.415 55.5225C209.072 55.2603 209.671 54.8687 210.177 54.3705C210.669 53.8877 211.058 53.3076 211.318 52.6664C211.579 52.0252 211.705 51.3367 211.69 50.644C211.705 49.6457 211.397 48.6696 210.812 47.8643C209.829 46.7612 208.628 45.877 207.287 45.268C206.202 44.7782 205.213 44.0953 204.367 43.252C203.921 42.7268 203.665 42.0645 203.641 41.3734C203.642 40.9998 203.722 40.6309 203.876 40.2911C204.03 39.9514 204.254 39.6487 204.533 39.4032C205.11 38.8575 205.876 38.5615 206.667 38.5785C208.08 38.6729 209.405 39.3063 210.374 40.3502L211.629 39.0825Z" fill="white"/>
<path d="M255.402 43.6798C254.535 42.9939 253.55 42.4761 252.497 42.1525L251.997 41.9845L252.451 41.7402C253.401 41.2521 254.198 40.5064 254.751 39.5867C255.268 38.6985 255.535 37.6845 255.523 36.6544C255.518 35.5736 255.214 34.5156 254.645 33.5998C254.063 32.6705 253.22 31.9369 252.224 31.4922C250.795 30.9722 249.279 30.7388 247.761 30.8049H243.085V55.4093H249.652C250.693 55.4824 251.738 55.3474 252.727 55.0119C253.717 54.6764 254.631 54.1471 255.417 53.4544C256.1 52.8302 256.642 52.0656 257.007 51.212C257.373 50.3584 257.553 49.4357 257.535 48.506C257.548 47.589 257.357 46.6807 256.975 45.8485C256.621 45.014 256.083 44.2722 255.402 43.6798V43.6798ZM245.052 32.9889V32.7598H248.139C249.534 32.6478 250.925 33.0136 252.088 33.7984C252.512 34.1436 252.85 34.5848 253.073 35.0864C253.297 35.5879 253.4 36.1356 253.374 36.6849C253.386 37.5647 253.121 38.4257 252.618 39.1438C252.129 39.8871 251.419 40.4541 250.59 40.7627C249.329 41.1624 248.007 41.333 246.686 41.2667H245.113L245.052 32.9889ZM254.615 51.1176C254.085 51.9065 253.338 52.5221 252.466 52.8893C251.15 53.3272 249.765 53.5136 248.381 53.4391H245.113V43.3133H246.762C248.281 43.2652 249.802 43.3675 251.301 43.6187C252.494 43.8738 253.579 44.4985 254.403 45.4056C255.145 46.2466 255.555 47.3339 255.553 48.4602C255.525 49.4142 255.196 50.3343 254.615 51.0871V51.1176Z" fill="white"/>
<path d="M282.062 37.754C280.829 37.1068 279.456 36.7813 278.067 36.8071C276.842 36.7871 275.625 37.0238 274.495 37.5023C273.365 37.9807 272.345 38.6905 271.501 39.5867C270.619 40.4587 269.923 41.503 269.454 42.6558C268.986 43.8086 268.756 45.0457 268.777 46.2915C268.75 47.5511 268.975 48.8034 269.438 49.9736C269.9 51.1438 270.592 52.2081 271.47 53.1031C272.306 53.9994 273.318 54.7106 274.44 55.1917C275.563 55.6728 276.772 55.9133 277.991 55.898C279.364 55.9098 280.721 55.6014 281.956 54.9969C283.224 54.3418 284.338 53.42 285.224 52.2936L285.617 51.8049V55.4093H287.478V37.2805H285.602V41.2362L285.194 40.6405C284.39 39.4422 283.317 38.4531 282.062 37.754V37.754ZM285.768 46.4442C285.787 47.8083 285.459 49.1545 284.815 50.354C284.162 51.5193 283.204 52.4809 282.046 53.1336C280.888 53.7952 279.58 54.1425 278.249 54.1416C276.934 54.1482 275.642 53.7946 274.511 53.1184C273.353 52.4303 272.401 51.438 271.758 50.2471C271.089 49.0685 270.737 47.7338 270.737 46.3755C270.737 45.0171 271.089 43.6824 271.758 42.5038C272.401 41.3317 273.344 40.3551 274.488 39.6755C275.633 38.996 276.936 38.6383 278.264 38.6398C279.261 38.6225 280.252 38.813 281.174 39.1993C282.095 39.5855 282.928 40.1594 283.62 40.8849C284.334 41.6154 284.892 42.4852 285.262 43.441C285.631 44.3969 285.804 45.4188 285.768 46.4442V46.4442Z" fill="white"/>
<path d="M311.309 36.8073C309.942 36.7886 308.59 37.0919 307.36 37.6931C306.101 38.3506 304.997 39.2723 304.122 40.3964L303.713 40.8851V30.1025H301.807V55.4247H303.713V51.5302L304.122 52.0953C304.937 53.2887 306.014 54.2764 307.269 54.9818C308.489 55.6337 309.852 55.9646 311.233 55.944C312.452 55.9449 313.659 55.6933 314.778 55.2047C315.897 54.7161 316.905 54.0008 317.739 53.1033C318.623 52.2295 319.32 51.1827 319.788 50.0272C320.257 48.8716 320.486 47.6316 320.462 46.3833C320.488 45.126 320.263 43.8764 319.8 42.7089C319.337 41.5413 318.647 40.4796 317.769 39.5869C316.941 38.6988 315.939 37.9933 314.827 37.515C313.715 37.0366 312.517 36.7957 311.309 36.8073V36.8073ZM317.542 50.1862C316.904 51.3592 315.964 52.337 314.822 53.0169C313.68 53.6969 312.377 54.0538 311.051 54.0502C310.043 54.0788 309.04 53.8937 308.107 53.507C307.174 53.1204 306.332 52.5406 305.635 51.8051C304.922 51.0727 304.364 50.203 303.992 49.2478C303.62 48.2927 303.443 47.2717 303.471 46.2458C303.448 44.8744 303.782 43.521 304.439 42.3207C305.092 41.1554 306.05 40.1938 307.208 39.5411C308.363 38.8682 309.673 38.5152 311.006 38.5178C312.311 38.5114 313.593 38.8652 314.713 39.5411C315.88 40.2299 316.837 41.2282 317.482 42.4276C318.146 43.6105 318.495 44.9471 318.495 46.3069C318.495 47.6667 318.146 49.0033 317.482 50.1862H317.542Z" fill="white"/>
<path d="M345.639 37.2803L339.345 51.9421L332.854 37.2803H330.857L338.316 54.233L334.867 62.2054H336.879L347.667 37.2803H345.639Z" fill="white"/>
<path d="M37.6442 15.1203C32.3424 15.1656 27.1725 16.7938 22.7859 19.8C18.3993 22.8061 14.9924 27.0556 12.9944 32.013C10.9965 36.9703 10.4969 42.4137 11.5587 47.6572C12.6204 52.9006 15.196 57.7096 18.9608 61.478C22.7257 65.2464 27.5113 67.8056 32.7146 68.8332C37.918 69.8607 43.3063 69.3107 48.2005 67.2523C53.0946 65.1939 57.2757 61.7193 60.2169 57.2663C63.158 52.8134 64.7275 47.5813 64.7277 42.2294C64.6957 35.0099 61.8247 28.0986 56.746 23.0151C51.6673 17.9316 44.7965 15.0919 37.6442 15.1203V15.1203ZM37.6442 68.2694C32.5476 68.2272 27.5774 66.6629 23.3602 63.7737C19.143 60.8845 15.8675 56.7997 13.9467 52.0343C12.0259 47.2688 11.5457 42.0361 12.5667 36.9956C13.5877 31.9551 16.0642 27.3326 19.684 23.7107C23.3037 20.0887 27.9047 17.6296 32.907 16.6431C37.9092 15.6567 43.0888 16.1872 47.7929 18.1678C52.4969 20.1483 56.5148 23.4902 59.34 27.7722C62.1652 32.0542 63.6714 37.0847 63.6686 42.2294C63.6365 49.1654 60.8772 55.8047 55.9971 60.6878C51.117 65.5708 44.5156 68.2978 37.6442 68.2694V68.2694Z" fill="white"/>
<path d="M37.6446 17.1203C32.7341 17.1626 27.9459 18.6709 23.8832 21.4554C19.8206 24.2399 16.6654 28.1759 14.8152 32.7674C12.9649 37.3589 12.5024 42.4005 13.486 47.2569C14.4696 52.1132 16.8552 56.5671 20.3422 60.0572C23.8293 63.5473 28.2617 65.9175 33.081 66.8691C37.9003 67.8207 42.8908 67.3112 47.4237 65.4047C51.9566 63.4981 55.829 60.28 58.553 56.1557C61.277 52.0314 62.7306 47.1855 62.7308 42.2287C62.7169 38.9174 62.057 35.6412 60.7888 32.5873C59.5206 29.5334 57.6689 26.7616 55.3394 24.4301C53.0099 22.0985 50.2483 20.253 47.2122 18.9988C44.1761 17.7446 40.925 17.1063 37.6446 17.1203V17.1203ZM37.6446 67.0011C32.7963 66.9589 28.0689 65.4689 24.0582 62.719C20.0475 59.9691 16.933 56.0823 15.1073 51.5485C13.2815 47.0147 12.8262 42.0368 13.7988 37.2423C14.7713 32.4477 17.1282 28.051 20.5723 24.6064C24.0164 21.1617 28.3936 18.8233 33.1523 17.8858C37.9109 16.9483 42.838 17.4536 47.3126 19.3382C51.7871 21.2228 55.6089 24.4022 58.2961 28.4758C60.9834 32.5493 62.4159 37.3347 62.4131 42.2287C62.381 48.8285 59.754 55.1454 55.1094 59.7907C50.4648 64.436 44.1829 67.0295 37.6446 67.0011Z" fill="white"/>
<path fill-rule="evenodd" clip-rule="evenodd" d="M41.306 80.5177L42.6828 81.8617C43.9689 83.0224 45.5576 83.618 47.0101 82.274C47.5007 81.8185 47.7981 81.1893 47.8403 80.5178C47.8826 79.8464 47.6665 79.1843 47.2371 78.6697C47.9185 78.2963 48.4455 77.6895 48.7229 76.9586C49.0003 76.2278 49.01 75.4209 48.7501 74.6835C48.7042 74.5491 48.6879 74.4063 48.7023 74.2649C48.7167 74.1235 48.7615 73.987 48.8335 73.8648C48.9055 73.7427 49.003 73.6379 49.1193 73.5577C49.2356 73.4775 49.3678 73.4239 49.5067 73.4006C50.823 73.2631 51.0197 74.9279 50.1573 75.1111C50.0817 75.1296 50.0029 75.1305 49.9269 75.1138C49.8508 75.0972 49.7796 75.0633 49.7184 75.0148C49.6572 74.9662 49.6078 74.9043 49.5737 74.8337C49.5396 74.7631 49.5219 74.6857 49.5218 74.6071C50.0514 75.157 50.4901 74.2559 49.9757 74.0268C48.9166 73.5686 48.7048 75.2486 49.6428 75.661C52.094 76.7453 54.7267 72.4384 52.0032 71.0791C52.0478 71.2638 52.0552 71.4556 52.0251 71.6432C51.9949 71.8308 51.9278 72.0104 51.8276 72.1713C51.7274 72.3323 51.5963 72.4713 51.4419 72.5801C51.2875 72.6889 51.1131 72.7654 50.9289 72.805C49.4024 73.1783 47.8161 73.2303 46.2687 72.9577H45.9661C45.4283 72.9879 44.9082 73.1625 44.4595 73.4634C44.0109 73.7644 43.6499 74.1807 43.414 74.6695C43.178 75.1583 43.0756 75.7019 43.1173 76.244C43.159 76.7861 43.3433 77.3071 43.6512 77.7533C43.0162 77.8626 42.3893 78.0156 41.775 78.2115L35.4505 71.7817C28.0701 71.2584 21.1531 67.9581 16.0679 62.5337C10.9826 57.1093 8.09943 49.9559 7.98875 42.4886C7.92204 43.147 7.67003 43.7723 7.26249 44.2908C7.76432 51.6414 10.9062 58.5545 16.0987 63.733C21.1027 68.7477 27.6742 71.8566 34.694 72.53H35.1176L41.5783 79.1279C42.7884 78.7553 44.0217 78.4644 45.2701 78.2573C44.7817 77.9129 44.4049 77.4307 44.1868 76.871C43.9688 76.3113 43.9193 75.6991 44.0446 75.1111C44.2237 74.6558 44.5523 74.2764 44.9755 74.0363C45.3986 73.7963 45.8906 73.7102 46.369 73.7925C46.8475 73.8748 47.2835 74.1205 47.604 74.4884C47.9245 74.8563 48.1101 75.3241 48.1298 75.8137C48.0699 76.4212 47.8255 76.9953 47.4301 77.4573C47.0347 77.9193 46.5075 78.2467 45.9208 78.3948C46.9042 79.357 47.4338 80.6704 46.4352 81.6631C44.9221 83.0224 43.4091 81.5257 42.4256 80.4413L41.5027 79.525C40.6996 79.7977 39.9597 80.232 39.3278 80.8016C38.6958 81.3713 38.1849 82.0644 37.826 82.8391C37.8103 82.8678 37.7873 82.8917 37.7593 82.9083C37.7314 82.9249 37.6995 82.9337 37.6671 82.9337C37.6347 82.9337 37.6028 82.9249 37.5749 82.9083C37.5469 82.8917 37.5239 82.8678 37.5082 82.8391C37.1437 82.0629 36.6274 81.3692 35.9903 80.7996C35.3533 80.2301 34.6087 79.7965 33.8013 79.525L32.8783 80.4413C31.8192 81.5257 30.3515 83.0224 28.8536 81.6631C27.7945 80.6704 28.3846 79.357 29.3681 78.3948C28.7841 78.244 28.2602 77.9154 27.8677 77.4536C27.4752 76.9918 27.233 76.4192 27.1741 75.8137C27.1851 75.321 27.3655 74.8475 27.6844 74.4744C28.0034 74.1012 28.441 73.8517 28.9222 73.7687C29.4035 73.6856 29.8984 73.7741 30.322 74.0191C30.7457 74.264 31.0717 74.6501 31.2442 75.1111C31.371 75.6976 31.3239 76.3088 31.1086 76.8683C30.8933 77.4278 30.5195 77.911 30.0338 78.2573C31.2815 78.4678 32.5147 78.7585 33.7256 79.1279L36.6761 76.0733L36.1162 75.493L33.4987 78.1657C32.8848 77.9683 32.2578 77.8152 31.6225 77.7075C31.9802 77.2495 32.196 76.6952 32.2429 76.1139C32.2899 75.5326 32.1658 74.9503 31.8863 74.4399C31.6068 73.9295 31.1844 73.5137 30.6718 73.2446C30.1592 72.9755 29.5794 72.8651 29.0049 72.9271V72.9271C27.4627 73.1994 25.8813 73.1474 24.3599 72.7744C24.1757 72.7349 24.0013 72.6584 23.8469 72.5496C23.6925 72.4407 23.5614 72.3017 23.4612 72.1408C23.361 71.9799 23.2939 71.8003 23.2637 71.6127C23.2336 71.4251 23.241 71.2332 23.2856 71.0486C20.547 72.4384 23.1948 76.7453 25.646 75.6304C26.5689 75.218 26.3722 73.538 25.3131 73.9962C24.7987 74.2253 25.2374 75.1264 25.767 74.5766C25.7646 74.6558 25.7448 74.7334 25.709 74.804C25.6732 74.8745 25.6224 74.9361 25.5601 74.9843C25.4978 75.0326 25.4257 75.0662 25.349 75.0829C25.2723 75.0995 25.1928 75.0987 25.1164 75.0806C24.2842 74.9279 24.4658 73.2326 25.7821 73.37C25.921 73.3928 26.0531 73.4463 26.169 73.5267C26.2849 73.6071 26.3818 73.7123 26.4527 73.835C26.5235 73.9576 26.5666 74.0945 26.5789 74.2359C26.5911 74.3774 26.5722 74.5198 26.5235 74.653C26.2669 75.3906 26.2781 76.1963 26.5552 76.9264C26.8323 77.6564 27.3573 78.2634 28.0366 78.6391C27.609 79.1556 27.3955 79.8188 27.4406 80.4904C27.4857 81.1619 27.7859 81.79 28.2787 82.2435C29.7917 83.5875 31.3047 82.9919 32.606 81.8311L33.9677 80.4871C35.1837 80.998 36.1698 81.9445 36.7366 83.1446L37.13 84.0762C37.176 84.1769 37.2496 84.2621 37.3421 84.3218C37.4346 84.3816 37.5422 84.4133 37.652 84.4133C37.7618 84.4133 37.8693 84.3816 37.9618 84.3218C38.0543 84.2621 38.1279 84.1769 38.174 84.0762L38.5674 83.1446C39.1281 81.9455 40.1092 80.9987 41.3211 80.4871L41.306 80.5177ZM41.306 3.92495L42.6828 2.58095C43.9689 1.42022 45.5576 0.824587 47.0101 2.16859C47.5017 2.62679 47.7995 3.2585 47.8418 3.93253C47.884 4.60655 47.6675 5.27112 47.2371 5.78822C47.9174 6.15883 48.4438 6.76287 48.7213 7.49115C48.9988 8.21944 49.0091 9.02391 48.7501 9.75913C48.7043 9.89447 48.688 10.0382 48.7023 10.1805C48.7166 10.3228 48.7612 10.4603 48.833 10.5836C48.9049 10.7069 49.0023 10.813 49.1185 10.8948C49.2348 10.9766 49.3672 11.032 49.5067 11.0573C50.823 11.1795 51.0197 9.53004 50.1573 9.3315C50.0817 9.31302 50.0029 9.31209 49.9269 9.32879C49.8508 9.34548 49.7796 9.37936 49.7184 9.42788C49.6572 9.47639 49.6078 9.53828 49.5737 9.60888C49.5396 9.67949 49.5219 9.75697 49.5218 9.8355C50.0514 9.30095 50.4901 10.202 49.9757 10.4159C48.9166 10.874 48.7048 9.19404 49.6428 8.78168C52.094 7.69731 54.7267 12.0042 52.0032 13.3635C52.0477 13.1798 52.055 12.9889 52.0247 12.8023C51.9943 12.6157 51.927 12.4372 51.8267 12.2775C51.7264 12.1177 51.5952 11.9801 51.4409 11.8728C51.2866 11.7655 51.1125 11.6907 50.9289 11.653C49.4045 11.267 47.8166 11.2097 46.2687 11.485H45.9661C45.4283 11.4547 44.9082 11.2801 44.4595 10.9792C44.0109 10.6783 43.6499 10.2619 43.414 9.7731C43.178 9.2843 43.0756 8.74077 43.1173 8.19866C43.159 7.65655 43.3433 7.1355 43.6512 6.68931C43.0162 6.58007 42.3893 6.42698 41.775 6.23113L35.4505 12.6762C28.0702 13.1924 21.1513 16.4884 16.0651 21.9111C10.9788 27.3337 8.09625 34.4873 7.98875 41.954C7.93348 41.2744 7.68086 40.6262 7.26249 40.0908C7.77872 32.7617 10.9195 25.8727 16.0987 20.7097C21.1027 15.6949 27.6742 12.5861 34.694 11.9126H35.1176L41.5783 5.31477C42.7884 5.68737 44.0217 5.97819 45.2701 6.18532C44.7817 6.52971 44.4049 7.01198 44.1868 7.57166C43.9688 8.13134 43.9193 8.74354 44.0446 9.3315C44.2237 9.78684 44.5523 10.1663 44.9755 10.4063C45.3986 10.6463 45.8906 10.7324 46.369 10.6501C46.8475 10.5678 47.2835 10.3222 47.604 9.95427C47.9245 9.58635 48.1101 9.11848 48.1298 8.62895C48.0603 8.03158 47.8114 7.46997 47.4165 7.01951C47.0216 6.56906 46.4997 6.25132 45.9208 6.10895C46.9042 5.14677 47.4338 3.81804 46.4352 2.84059C44.9221 1.45077 43.4091 2.96277 42.4256 4.04713L41.5027 4.9635C40.6955 4.68558 39.9531 4.24421 39.3208 3.66645C38.6886 3.08869 38.1799 2.3867 37.826 1.6035C37.8103 1.57485 37.7873 1.55097 37.7593 1.53435C37.7314 1.51772 37.6995 1.50895 37.6671 1.50895C37.6347 1.50895 37.6028 1.51772 37.5749 1.53435C37.5469 1.55097 37.5239 1.57485 37.5082 1.6035C37.1437 2.37971 36.6274 3.07347 35.9903 3.64302C35.3533 4.21258 34.6087 4.64616 33.8013 4.91768L32.8783 4.00131C31.7738 2.91695 30.2607 1.40495 28.8234 2.79477C27.7642 3.77222 28.3543 5.10095 29.3378 6.06313C28.755 6.21099 28.2316 6.53673 27.839 6.99592C27.4463 7.45511 27.2036 8.02538 27.1439 8.62895C27.1548 9.12165 27.3352 9.59516 27.6542 9.96828C27.9731 10.3414 28.4107 10.5909 28.892 10.674C29.3732 10.757 29.8681 10.6685 30.2918 10.4236C30.7154 10.1786 31.0415 9.79253 31.214 9.3315C31.3408 8.74505 31.2936 8.13388 31.0783 7.57433C30.8631 7.01478 30.4892 6.53166 30.0035 6.18532C31.2513 5.97487 32.4844 5.6841 33.6954 5.31477L36.6458 8.36931L36.086 8.93441L33.4684 6.27695C32.8545 6.47428 32.2276 6.6274 31.5922 6.73513C31.9499 7.19312 32.1657 7.74747 32.2127 8.32873C32.2596 8.90998 32.1355 9.49229 31.8561 10.0027C31.5766 10.5131 31.1541 10.9289 30.6415 11.198C30.129 11.4671 29.5491 11.5776 28.9747 11.5155V11.5155C27.4319 11.2402 25.8489 11.2974 24.3296 11.6835C24.146 11.7213 23.9719 11.796 23.8176 11.9033C23.6634 12.0106 23.5322 12.1483 23.4319 12.308C23.3315 12.4677 23.2642 12.6462 23.2339 12.8329C23.2036 13.0195 23.2109 13.2103 23.2554 13.394C20.5168 12.0042 23.1646 7.69731 25.6157 8.81222C26.5387 9.22459 26.342 10.9046 25.2828 10.4464C24.7684 10.2326 25.2072 9.3315 25.7368 9.86604C25.7344 9.78685 25.7145 9.70919 25.6788 9.63867C25.643 9.56816 25.5921 9.50655 25.5298 9.45832C25.4676 9.41008 25.3955 9.37642 25.3187 9.35977C25.242 9.34312 25.1625 9.3439 25.0861 9.36204C24.254 9.51477 24.4355 11.21 25.7519 11.0879C25.8913 11.0631 26.0235 11.0077 26.1394 10.9258C26.2553 10.8438 26.352 10.7372 26.4227 10.6134C26.4934 10.4897 26.5363 10.3518 26.5485 10.2094C26.5607 10.0671 26.5419 9.92385 26.4933 9.78968C26.2375 9.05422 26.2493 8.25092 26.5265 7.52342C26.8037 6.79593 27.3282 6.19169 28.0063 5.81877C27.5778 5.29977 27.3638 4.63408 27.4089 3.95999C27.454 3.28591 27.7547 2.65528 28.2484 2.19913C29.7614 0.855133 31.2745 1.45077 32.5757 2.6115L33.9374 3.9555C35.1677 3.44537 36.1619 2.48542 36.7214 1.2675L37.1148 0.351133C37.1556 0.244856 37.2273 0.153517 37.3205 0.0891091C37.4136 0.0247011 37.5239 -0.00976563 37.6368 -0.00976562C37.7498 -0.00976563 37.86 0.0247011 37.9532 0.0891091C38.0463 0.153517 38.118 0.244856 38.1588 0.351133L38.5522 1.2675C39.1081 2.47009 40.0908 3.4184 41.306 3.92495V3.92495ZM3.97919 39.1591C6.15797 38.6551 5.31066 36.7155 4.32719 36.7919C4.21884 36.7919 4.11493 36.8353 4.03832 36.9126C3.96171 36.99 3.91866 37.0949 3.91866 37.2042C3.91866 37.3136 3.96171 37.4185 4.03832 37.4958C4.11493 37.5731 4.21884 37.6166 4.32719 37.6166C4.42409 37.611 4.52041 37.635 4.60364 37.6854C4.68687 37.7358 4.75318 37.8103 4.79396 37.8992C4.83473 37.9881 4.8481 38.0873 4.83231 38.184C4.81653 38.2807 4.77233 38.3703 4.70545 38.4413C4.55497 38.5811 4.3681 38.6746 4.1668 38.7108C3.96549 38.7471 3.75812 38.7246 3.56904 38.646C3.37996 38.5674 3.21702 38.436 3.09938 38.2672C2.98174 38.0984 2.91428 37.8991 2.90493 37.693C2.58719 34.9286 4.53901 33.2944 6.3698 33.7984C6.05662 33.9047 5.78652 34.1115 5.60074 34.3873C5.41495 34.6631 5.3237 34.9926 5.34093 35.3257C5.25904 35.3797 5.19307 35.455 5.14996 35.5436C5.10685 35.6323 5.08818 35.731 5.09592 35.8294C5.10366 35.9279 5.13752 36.0224 5.19394 36.103C5.25037 36.1837 5.32727 36.2476 5.41658 36.2879C5.62127 36.6193 5.75407 36.9907 5.80623 37.3777C5.85839 37.7646 5.82872 38.1584 5.71919 38.533C5.7406 38.6645 5.73122 38.7994 5.69182 38.9267C5.65241 39.0539 5.58406 39.1702 5.49223 39.266C6.13289 39.4583 6.69489 39.8543 7.09453 40.3951C7.49417 40.9359 7.71007 41.5925 7.71007 42.2671C7.71007 42.9418 7.49417 43.5984 7.09453 44.1392C6.69489 44.68 6.13289 45.076 5.49223 45.2682C5.58406 45.3641 5.65241 45.4803 5.69182 45.6076C5.73122 45.7349 5.7406 45.8697 5.71919 46.0013C5.82872 46.3759 5.85839 46.7696 5.80623 47.1566C5.75407 47.5436 5.62127 47.915 5.41658 48.2464C5.32727 48.2867 5.25037 48.3506 5.19394 48.4312C5.13752 48.5119 5.10366 48.6064 5.09592 48.7048C5.08818 48.8033 5.10685 48.902 5.14996 48.9906C5.19307 49.0793 5.25904 49.1546 5.34093 49.2086C5.3237 49.5416 5.41495 49.8712 5.60074 50.147C5.78652 50.4228 6.05662 50.6296 6.3698 50.7359C4.53901 51.1482 2.58719 49.514 2.8444 46.7497C2.85376 46.5435 2.92122 46.3443 3.03886 46.1754C3.1565 46.0066 3.31943 45.8752 3.50852 45.7966C3.6976 45.718 3.90497 45.6955 4.10628 45.7318C4.30758 45.7681 4.49445 45.8616 4.64493 46.0013C4.71181 46.0723 4.75601 46.162 4.77179 46.2586C4.78757 46.3553 4.77421 46.4545 4.73343 46.5434C4.69266 46.6323 4.62635 46.7068 4.54312 46.7572C4.45989 46.8076 4.36357 46.8316 4.26666 46.826C4.15832 46.826 4.05441 46.8695 3.9778 46.9468C3.90118 47.0242 3.85814 47.129 3.85814 47.2384C3.85814 47.3478 3.90118 47.4527 3.9778 47.53C4.05441 47.6073 4.15832 47.6508 4.26666 47.6508C5.25014 47.7424 6.09745 45.7875 3.91866 45.2835C3.1161 45.2835 2.3464 44.9617 1.7789 44.3888C1.2114 43.816 0.892578 43.0391 0.892578 42.229C0.892578 41.4188 1.2114 40.6419 1.7789 40.0691C2.3464 39.4962 3.1161 39.1744 3.91866 39.1744L3.97919 39.1591ZM2.31484 42.2137C2.31484 42.6728 2.44972 43.1216 2.70243 43.5034C2.95514 43.8852 3.31432 44.1827 3.73456 44.3584C4.1548 44.5341 4.61722 44.5801 5.06334 44.4905C5.50946 44.401 5.91925 44.1799 6.24089 43.8552C6.56252 43.5305 6.78156 43.1169 6.8703 42.6666C6.95904 42.2163 6.9135 41.7495 6.73943 41.3253C6.56536 40.9011 6.27058 40.5385 5.89238 40.2835C5.51418 40.0284 5.06953 39.8922 4.61466 39.8922C4.31137 39.8922 4.01107 39.9528 3.73105 40.0704C3.45103 40.188 3.19683 40.3604 2.98307 40.5776C2.76931 40.7947 2.60022 41.0525 2.48554 41.3359C2.37086 41.6193 2.31284 41.9228 2.31484 42.229V42.2137ZM4.61466 40.3199C4.24359 40.3199 3.88085 40.4309 3.57232 40.639C3.26378 40.8471 3.02331 41.1429 2.88131 41.4889C2.7393 41.835 2.70215 42.2158 2.77454 42.5831C2.84693 42.9505 3.02562 43.288 3.28801 43.5528C3.5504 43.8177 3.8847 43.998 4.24864 44.0711C4.61258 44.1442 4.98982 44.1067 5.33265 43.9633C5.67547 43.82 5.96849 43.5773 6.17465 43.2658C6.3808 42.9544 6.49084 42.5882 6.49084 42.2137C6.49084 41.7114 6.29317 41.2297 5.94132 40.8745C5.58947 40.5194 5.11226 40.3199 4.61466 40.3199V40.3199ZM3.46475 42.2137C3.46475 42.5215 3.5859 42.8168 3.80155 43.0344C4.0172 43.2521 4.30969 43.3744 4.61466 43.3744C4.91964 43.3744 5.21213 43.2521 5.42778 43.0344C5.64343 42.8168 5.76458 42.5215 5.76458 42.2137C5.76458 41.9058 5.64343 41.6106 5.42778 41.3929C5.21213 41.1752 4.91964 41.053 4.61466 41.053C4.30969 41.053 4.0172 41.1752 3.80155 41.3929C3.5859 41.6106 3.46475 41.9058 3.46475 42.2137V42.2137ZM71.2794 39.1591C72.0819 39.1591 72.8516 39.481 73.4191 40.0538C73.9866 40.6266 74.3054 41.4036 74.3054 42.2137C74.3054 43.0238 73.9866 43.8007 73.4191 44.3736C72.8516 44.9464 72.0819 45.2682 71.2794 45.2682C69.1006 45.7722 69.9479 47.7271 70.9465 47.6355C71.0548 47.6355 71.1587 47.5921 71.2354 47.5147C71.312 47.4374 71.355 47.3325 71.355 47.2231C71.355 47.1138 71.312 47.0089 71.2354 46.9316C71.1587 46.8542 71.0548 46.8108 70.9465 46.8108C70.8496 46.8163 70.7533 46.7923 70.67 46.7419C70.5868 46.6915 70.5205 46.6171 70.4797 46.5282C70.4389 46.4392 70.4256 46.34 70.4414 46.2434C70.4571 46.1467 70.5013 46.057 70.5682 45.986C70.7182 45.8415 70.9064 45.7438 71.1101 45.7048C71.3138 45.6658 71.5243 45.6872 71.7163 45.7663C71.9083 45.8454 72.0734 45.9789 72.1919 46.1507C72.3104 46.3225 72.377 46.5252 72.3839 46.7344C72.626 49.4988 70.6893 51.133 68.8434 50.6442C69.1565 50.538 69.4266 50.3311 69.6124 50.0554C69.7982 49.7796 69.8894 49.45 69.8722 49.117C69.9589 49.0664 70.0296 48.9922 70.0762 48.9028C70.1227 48.8134 70.1432 48.7125 70.1353 48.6118C70.1274 48.5111 70.0914 48.4147 70.0314 48.3338C69.9715 48.2529 69.89 48.1909 69.7966 48.1548C69.5987 47.8205 69.4699 47.4493 69.4179 47.0634C69.3659 46.6776 69.3918 46.2852 69.494 45.9097C69.476 45.7782 69.487 45.6442 69.5262 45.5175C69.5654 45.3908 69.6319 45.2744 69.7209 45.1766C69.0803 44.9843 68.5183 44.5883 68.1186 44.0475C67.719 43.5068 67.5031 42.8502 67.5031 42.1755C67.5031 41.5008 67.719 40.8442 68.1186 40.3034C68.5183 39.7627 69.0803 39.3667 69.7209 39.1744C69.6565 39.0737 69.6126 38.9611 69.5918 38.8431C69.571 38.7251 69.5738 38.6041 69.5999 38.4871C69.4977 38.1117 69.4718 37.7192 69.5238 37.3334C69.5758 36.9475 69.7046 36.5763 69.9025 36.242C69.996 36.206 70.0774 36.1439 70.1373 36.063C70.1973 35.9821 70.2333 35.8858 70.2412 35.7851C70.2491 35.6844 70.2286 35.5835 70.1821 35.4941C70.1355 35.4046 70.0648 35.3304 69.9781 35.2799C69.9954 34.9468 69.9041 34.6172 69.7183 34.3415C69.5325 34.0657 69.2624 33.8589 68.9493 33.7526C70.7952 33.2486 72.7319 34.8828 72.4898 37.6471C72.4829 37.8563 72.4163 38.059 72.2978 38.2308C72.1794 38.4026 72.0142 38.5361 71.8222 38.6152C71.6303 38.6944 71.4197 38.7157 71.216 38.6767C71.0123 38.6377 70.8241 38.5401 70.6741 38.3955C70.6073 38.3245 70.5631 38.2349 70.5473 38.1382C70.5315 38.0415 70.5449 37.9423 70.5856 37.8534C70.6264 37.7645 70.6927 37.69 70.7759 37.6396C70.8592 37.5892 70.9555 37.5652 71.0524 37.5708C71.1607 37.5708 71.2647 37.5273 71.3413 37.45C71.4179 37.3727 71.4609 37.2678 71.4609 37.1584C71.4609 37.049 71.4179 36.9442 71.3413 36.8668C71.2647 36.7895 71.1607 36.746 71.0524 36.746C70.0538 36.6697 69.2065 38.6093 71.3853 39.1133L71.2794 39.1591ZM72.9437 42.2137C72.9467 41.7539 72.8144 41.3036 72.5635 40.9198C72.3126 40.536 71.9545 40.2361 71.5345 40.0581C71.1146 39.88 70.6517 39.8319 70.2046 39.9197C69.7574 40.0076 69.3462 40.2274 69.0231 40.5515C68.6999 40.8755 68.4794 41.2891 68.3894 41.7399C68.2994 42.1906 68.3441 42.6581 68.5177 43.0832C68.6913 43.5083 68.9861 43.8718 69.3646 44.1275C69.7431 44.3833 70.1884 44.5199 70.6439 44.5199C71.2512 44.5199 71.8339 44.2774 72.2648 43.8453C72.6956 43.4133 72.9397 42.8267 72.9437 42.2137V42.2137ZM70.6439 40.3199C70.2735 40.3229 69.9122 40.4365 69.6057 40.6464C69.2991 40.8563 69.061 41.1532 68.9213 41.4995C68.7817 41.8458 68.7467 42.2261 68.8207 42.5924C68.8948 42.9588 69.0747 43.2948 69.3377 43.5581C69.6007 43.8214 69.935 44.0003 70.2985 44.0721C70.662 44.144 71.0385 44.1056 71.3804 43.9618C71.7224 43.8181 72.0145 43.5753 72.22 43.2642C72.4255 42.9531 72.5352 42.5876 72.5352 42.2137C72.5352 41.9637 72.4862 41.7162 72.3909 41.4854C72.2957 41.2546 72.1562 41.0452 71.9803 40.8691C71.8045 40.6931 71.5959 40.5539 71.3665 40.4596C71.1371 40.3653 70.8915 40.3178 70.6439 40.3199ZM71.8089 42.2137C71.7764 41.9268 71.6404 41.6621 71.427 41.4699C71.2135 41.2777 70.9375 41.1715 70.6514 41.1715C70.3654 41.1715 70.0894 41.2777 69.8759 41.4699C69.6625 41.6621 69.5265 41.9268 69.494 42.2137C69.5265 42.5005 69.6625 42.7653 69.8759 42.9575C70.0894 43.1497 70.3654 43.2559 70.6514 43.2559C70.9375 43.2559 71.2135 43.1497 71.427 42.9575C71.6404 42.7653 71.7764 42.5005 71.8089 42.2137ZM38.2648 10.0799L37.7049 10.6908L39.8081 12.6762C47.191 13.1888 54.1136 16.4832 59.2031 21.9062C64.2925 27.3292 67.1771 34.4848 67.2849 41.954C67.3473 41.2622 67.6284 40.6089 68.0868 40.0908C67.5449 32.7496 64.3712 25.8594 59.1599 20.7097C54.1558 15.6949 47.5843 12.5861 40.5646 11.9126H40.1561L38.2648 10.0799ZM39.1423 9.1635L38.5976 9.71332L40.4133 11.485H40.7007C47.7773 12.18 54.3992 15.3198 59.4474 20.3737C64.6227 25.5321 67.7952 32.3919 68.3894 39.709C68.6114 39.5018 68.8609 39.327 69.1308 39.1897C68.4921 32.7866 65.9427 26.7301 61.8199 21.8213C57.6971 16.9125 52.1951 13.3827 46.0418 11.6988V11.6988C45.5131 11.7251 44.988 11.5979 44.5288 11.3322C43.2678 11.0353 41.9891 10.821 40.7007 10.6908L39.1877 9.1635H39.1423ZM37.5082 7.49877L35.4656 5.42168C36.2985 4.9594 37.0377 4.34283 37.6444 3.60422C38.2404 4.34165 38.9694 4.95836 39.7929 5.42168L34.5729 10.6908C33.3324 10.8135 32.0998 11.0073 30.8811 11.2711C30.4018 11.5598 29.8502 11.703 29.2924 11.6835H29.2167C23.0644 13.3694 17.5636 16.8998 13.4411 21.8082C9.31863 26.7166 6.76851 32.772 6.12771 39.1744C6.40016 39.3153 6.65426 39.4897 6.88423 39.6937C7.49373 32.4016 10.6589 25.5678 15.8112 20.4195C20.8676 15.3687 27.493 12.2297 34.5729 11.5308H34.7999L41.1698 5.19259C39.6447 4.65114 38.3691 3.56449 37.5839 2.13804V2.13804C36.7928 3.56551 35.5121 4.65186 33.9828 5.19259L36.8879 8.09441L37.4628 7.51404L37.5082 7.49877ZM33.423 5.05513C32.1369 3.80277 30.518 1.69513 29.0503 3.03913C28.082 3.92495 28.8234 5.11622 29.7009 5.92568C30.866 5.55913 31.7889 5.6355 33.423 5.05513ZM28.7477 6.71986C28.2358 6.98771 27.83 7.42423 27.5978 7.95695C27.5026 8.16627 27.4514 8.39327 27.4475 8.62358C27.4437 8.85389 27.4872 9.0825 27.5754 9.29495C27.6636 9.5074 27.7944 9.69908 27.9598 9.85784C28.1251 10.0166 28.3213 10.139 28.5359 10.2173C28.8427 10.3656 29.1861 10.419 29.5229 10.3708C29.8597 10.3226 30.1749 10.175 30.4288 9.94644C30.6827 9.71791 30.8639 9.4187 30.9498 9.08645C31.0357 8.7542 31.0223 8.40373 30.9114 8.07913C30.6862 7.36248 30.2344 6.74013 29.6253 6.3075C29.3208 6.41746 29.0271 6.5555 28.7477 6.71986V6.71986ZM31.7738 4.58168C31.2442 4.04713 30.5634 3.39041 30.0641 3.39041C29.0049 3.39041 29.4437 4.56641 29.8976 4.91768C30.5331 4.76495 31.0929 4.71913 31.7738 4.56641V4.58168ZM29.474 7.28495C29.0029 7.45424 28.6133 7.79829 28.3846 8.24713C28.1122 9.04132 28.551 9.48422 29.3378 9.51477C30.1246 9.54531 30.5785 8.36931 29.474 7.28495ZM41.8507 5.05513C43.4847 5.6355 44.4077 5.55913 45.5728 5.92568C46.4352 5.11622 47.1917 3.92495 46.2082 3.03913C44.6952 1.69513 43.1821 3.80277 41.8507 5.05513V5.05513ZM46.526 6.71986C46.2451 6.55838 45.9516 6.42046 45.6484 6.3075C45.0352 6.73933 44.5783 7.36136 44.3472 8.07913C44.2337 8.40552 44.219 8.75865 44.3052 9.09346C44.3913 9.42828 44.5743 9.72961 44.8308 9.95902C45.0872 10.1884 45.4056 10.3355 45.7453 10.3815C46.0849 10.4275 46.4305 10.3704 46.7378 10.2173C46.9525 10.1394 47.1487 10.017 47.3136 9.85788C47.4786 9.6988 47.6088 9.50661 47.6957 9.29368C47.7827 9.08075 47.8245 8.8518 47.8185 8.62158C47.8124 8.39135 47.7587 8.16495 47.6607 7.95695C47.4344 7.42531 47.0337 6.98848 46.526 6.71986V6.71986ZM43.4545 4.58168C44.1202 4.73441 44.6801 4.78022 45.3155 4.93295C45.7694 4.56641 46.2234 3.40568 45.1491 3.40568C44.6649 3.40568 43.9841 4.06241 43.4545 4.59695V4.58168ZM45.7997 7.23913C44.6952 8.3235 45.0583 9.48422 45.9208 9.46895C46.7832 9.45368 47.1614 8.9955 46.874 8.20131C46.6513 7.75347 46.2667 7.40903 45.7997 7.23913V7.23913ZM38.2345 74.317L37.6747 73.7671L39.8081 71.7817C47.1911 71.262 54.1118 67.9633 59.2002 62.5386C64.2887 57.1138 67.1739 49.9583 67.2849 42.4886C67.3597 43.159 67.6401 43.789 68.0868 44.2908C67.5593 51.6534 64.3845 58.5677 59.1599 63.733C54.1558 68.7477 47.5843 71.8566 40.5646 72.53H40.1561L38.2648 74.3628L38.2345 74.317ZM39.1121 75.2028L38.5674 74.653L40.383 72.8813H40.6705C47.7484 72.1797 54.3697 69.0348 59.4171 63.9773C64.5808 58.8508 67.7624 52.0324 68.3894 44.749C68.6114 44.9561 68.8609 45.1309 69.1308 45.2682C68.4921 51.6713 65.9427 57.7278 61.8199 62.6366C57.6971 67.5454 52.1951 71.0752 46.0418 72.7591C45.5137 72.7394 44.9904 72.8662 44.5288 73.1257C43.2923 73.4143 42.039 73.6234 40.7764 73.7519L39.2634 75.2791L39.1121 75.2028ZM37.478 76.898L35.4354 78.9904C36.2707 79.4425 37.0108 80.0547 37.6141 80.7926C38.2064 80.0555 38.9364 79.4432 39.7627 78.9904L34.5427 73.6908C33.3022 73.568 32.0696 73.3743 30.8508 73.1104C30.3715 72.8218 29.82 72.6786 29.2621 72.698H29.1865C23.0342 71.0122 17.5333 67.4818 13.4109 62.5734C9.28837 57.6649 6.73825 51.6095 6.09745 45.2071C6.3699 45.0662 6.624 44.8918 6.85397 44.6879C7.46347 51.9799 10.6286 58.8138 15.7809 63.962C20.8358 69.0175 27.4611 72.1617 34.5427 72.866H34.7999L41.1698 79.2042C39.6476 79.7506 38.3734 80.836 37.5839 82.2588V82.2588C36.7885 80.8349 35.5093 79.7499 33.9828 79.2042L36.9333 76.3635L37.5082 76.9439L37.478 76.898ZM33.423 79.418C32.1369 80.6857 30.518 82.778 29.0503 81.434C28.082 80.5482 28.8234 79.357 29.7009 78.5475C30.866 78.9293 31.7889 78.853 33.423 79.418ZM28.7477 77.7228C28.2358 77.4549 27.83 77.0184 27.5978 76.4857C27.5026 76.2764 27.4514 76.0494 27.4475 75.8191C27.4437 75.5887 27.4872 75.3601 27.5754 75.1477C27.6636 74.9352 27.7944 74.7436 27.9598 74.5848C28.1251 74.426 28.3213 74.3036 28.5359 74.2253C28.8427 74.077 29.1861 74.0236 29.5229 74.0718C29.8597 74.12 30.1749 74.2677 30.4288 74.4962C30.6827 74.7247 30.8639 75.0239 30.9498 75.3562C31.0357 75.6884 31.0223 76.0389 30.9114 76.3635C30.6862 77.0802 30.2344 77.7025 29.6253 78.1351C29.3182 78.0316 29.0238 77.8933 28.7477 77.7228V77.7228ZM31.7738 79.8151C31.2442 80.3497 30.5634 81.0064 30.0641 81.0217C29.0049 81.0217 29.4437 79.8304 29.8976 79.4944C30.5331 79.6624 31.0929 79.693 31.7738 79.8457V79.8151ZM29.4286 77.1577C28.9551 76.9926 28.5642 76.6473 28.3392 76.1955C28.0668 75.4013 28.5056 74.9584 29.2924 74.9279C30.0792 74.8973 30.5331 76.0733 29.4286 77.1577ZM41.8507 79.418C43.4847 78.853 44.4077 78.9293 45.5728 78.5475C46.4352 79.357 47.1917 80.5482 46.2082 81.434C44.6952 82.778 43.1821 80.6857 41.8507 79.418V79.418ZM46.526 77.7533C46.2483 77.921 45.9542 78.0591 45.6484 78.1657C45.0299 77.726 44.5725 77.0925 44.3472 76.3635C44.2337 76.0371 44.219 75.684 44.3052 75.3492C44.3913 75.0143 44.5743 74.713 44.8308 74.4836C45.0872 74.2542 45.4056 74.1071 45.7453 74.0611C46.0849 74.0151 46.4305 74.0723 46.7378 74.2253C46.9511 74.3052 47.1457 74.4287 47.3094 74.5881C47.4731 74.7476 47.6023 74.9395 47.689 75.1518C47.7757 75.364 47.8179 75.5921 47.8131 75.8217C47.8082 76.0513 47.7563 76.2773 47.6607 76.4857C47.4344 77.0173 47.0337 77.4542 46.526 77.7228V77.7533ZM43.4999 79.8457C44.1656 79.693 44.7254 79.6624 45.3609 79.4944C45.8148 79.861 46.2688 81.0217 45.1945 81.0217C44.7103 81.0217 44.0294 80.3497 43.4999 79.8151V79.8457ZM45.8451 77.1882C44.7406 76.1039 45.1037 74.9431 45.9661 74.9584C46.8286 74.9737 47.2068 75.4319 46.9194 76.226C46.8027 76.4481 46.6437 76.6447 46.4516 76.8046C46.2594 76.9644 46.0379 77.0844 45.7997 77.1577L45.8451 77.1882Z" fill="white"/>
<path d="M36.1315 21.7944C33.7409 21.7944 31.8042 22.2373 31.8042 22.6802C31.8042 23.1231 33.7712 23.4744 36.1618 23.4286C38.5524 23.3828 40.5042 22.9857 40.4891 22.5275C40.4739 22.0693 38.5372 21.7486 36.1315 21.7944ZM36.3585 22.7413C35.214 22.8587 34.0581 22.7813 32.939 22.5122C34.0392 22.2219 35.1779 22.1085 36.3131 22.1762C37.4574 22.0497 38.6148 22.1272 39.7325 22.4053C38.6177 22.7004 37.4633 22.8139 36.3131 22.7413H36.3585Z" fill="white"/>
<path d="M30.9416 31.7977C30.8659 32.5155 31.0778 34.2566 30.7752 34.4246C30.4725 34.5926 30.0186 34.5774 30.3818 35.0203C30.5985 35.2854 30.8661 35.5036 31.1685 35.6617C31.2313 35.829 31.2313 36.0137 31.1685 36.181C31.0172 36.2879 31.0475 36.4559 31.1685 36.5781C31.0324 36.685 31.1685 36.8988 31.2593 36.9904C31.3501 37.0821 31.2593 37.6014 32.152 38.0748C33.0447 38.5483 33.4684 38.2123 33.4684 38.2123C33.7265 38.3639 34.0119 38.4622 34.308 38.5015C34.6041 38.5408 34.905 38.5204 35.1932 38.4414C34.7712 38.7754 34.3719 39.1377 33.9979 39.5257C33.4532 39.6173 32.1672 39.3119 31.5317 39.8312C31.2362 39.7374 30.9193 39.7374 30.6238 39.8312C30.3666 39.9381 29.8976 39.2355 28.3694 39.5257C28.1704 39.3409 27.9133 39.2327 27.6432 39.2203C27.5513 38.8933 27.3938 38.589 27.1803 38.3262C26.9669 38.0635 26.7021 37.8479 26.4025 37.693C26.2893 37.5079 26.1105 37.3733 25.9025 37.3166C25.6945 37.2598 25.4729 37.2852 25.2828 37.3875C24.496 37.7235 24.2085 37.3875 23.7698 37.861C23.7698 37.861 22.8165 38.1664 23.679 38.8537C23.4974 39.3883 23.5125 39.4952 24.1026 39.6174C24.1026 40.0755 24.1026 40.2894 24.4809 40.4574C24.2691 40.7781 24.5868 40.9919 24.9197 41.2057C25.164 41.3553 25.4416 41.4406 25.7271 41.454C26.0125 41.4673 26.2968 41.4082 26.5538 41.2821C26.6579 41.4501 26.8068 41.585 26.9834 41.6715C27.16 41.7579 27.3572 41.7923 27.5524 41.7708C28.3104 42.3555 29.1737 42.786 30.0943 43.0384C30.2867 43.1384 30.4971 43.1981 30.7129 43.2139C30.9287 43.2296 31.1455 43.2011 31.3501 43.1301C31.8053 43.3068 32.292 43.3859 32.7791 43.3622C33.2663 43.3386 33.7432 43.2127 34.1795 42.9926C34.3611 43.2828 34.4972 43.4814 34.8452 43.5272C34.6904 44.5974 34.9388 45.6873 35.5412 46.5817C36.1616 47.4828 35.5412 49.3613 37.5838 50.5526C37.5469 50.8738 37.5836 51.1993 37.6911 51.5038C37.7987 51.8084 37.9742 52.0839 38.2042 52.309C38.2042 52.981 37.5385 54.4166 38.3858 55.2719C38.1814 55.5851 38.1065 55.9666 38.1772 56.3348C38.2479 56.703 38.4585 57.0286 38.764 57.2421C38.8229 58.2793 39.107 59.2909 39.5962 60.205C39.5436 60.6256 39.5133 61.0487 39.5054 61.4726C39.094 61.7269 38.7551 62.0848 38.5219 62.5112L38.2798 62.725C38.2798 62.725 37.2812 62.8013 37.2661 63.2595C37.251 63.7177 38.068 63.6108 38.068 63.6108C38.1534 63.7121 38.266 63.7861 38.3922 63.8241C38.5184 63.862 38.6528 63.8622 38.7791 63.8246C38.8851 64.0843 39.3541 63.9315 39.3541 63.9315C39.3541 63.9315 39.5205 64.5272 40.2317 64.0537C40.9428 63.5803 41.079 63.1984 41.6237 62.8166C42.1684 62.4348 44.0294 61.2893 43.6965 60.4341C43.5737 60.0062 43.3446 59.6171 43.0308 59.3039C43.0767 59.1571 43.07 58.9986 43.0119 58.8562C42.9539 58.7139 42.8481 58.5966 42.7131 58.525C42.5114 58.1357 42.4423 57.6902 42.5164 57.2574C42.6391 56.8699 42.6391 56.4535 42.5164 56.0661C42.6374 55.5926 43.7571 54.0654 43.9386 53.2406C44.3623 54.0043 45.5273 54.2333 45.9358 54.325C46.1479 54.6445 46.4304 54.91 46.7611 55.1008C47.0919 55.2916 47.462 55.4024 47.8423 55.4246C48.3562 55.4409 48.8688 55.3633 49.3553 55.1955C50.0206 54.7414 50.7185 54.3381 51.4433 53.989C51.6854 53.989 52.3663 54.7221 52.9564 54.7221C52.9564 55.2872 53.6675 55.501 53.6675 55.501C53.6675 55.501 53.1682 56.3868 53.7734 56.6006C54.3786 56.8144 54.4694 56.1272 54.4694 56.1272C54.4986 56.174 54.5368 56.2145 54.5817 56.2461C54.6267 56.2778 54.6776 56.3 54.7312 56.3114C54.7849 56.3228 54.8402 56.3232 54.894 56.3125C54.9478 56.3018 54.999 56.2804 55.0444 56.2494C55.3924 56.005 55.9219 56.0661 55.7706 55.5926C55.5289 54.7751 55.1502 54.0054 54.651 53.317C54.0306 52.4159 54.4089 51.4384 53.5767 50.8581C52.7445 50.2777 52.3511 50.4152 51.6703 51.1788C51.608 51.1438 51.5387 51.1236 51.4676 51.1198C51.3965 51.1159 51.3254 51.1284 51.2598 51.1563C51.1941 51.1843 51.1357 51.227 51.0888 51.2812C51.042 51.3353 51.008 51.3996 50.9894 51.469C50.4704 51.2559 49.8895 51.2559 49.3704 51.469C49.0527 51.2399 48.6593 50.9803 48.4626 51.133C48.2659 51.2857 48.4626 50.3846 46.9496 49.2544C47.144 48.87 47.2415 48.4432 47.2336 48.0116C47.2257 47.5801 47.1125 47.1572 46.9042 46.7803C46.1174 45.5584 44.0445 45.253 42.5769 42.9621C41.1092 40.6712 41.1849 39.4341 39.6567 38.4872C39.5851 38.1393 39.5345 37.7874 39.5054 37.4334C39.5054 37.1584 43.4242 33.5541 41.3967 29.7054C39.3692 25.8566 31.683 25.3526 30.9416 31.7977Z" fill="white"/>
<path d="M31.4711 32.5616C31.4711 32.5616 29.958 32.2409 30.5178 30.8358C30.5178 30.8358 29.958 30.683 30.2001 29.8583C29.8067 29.7209 29.6403 29.1252 30.0185 28.331C30.3968 27.5369 30.533 27.7354 30.533 27.7354C30.4297 27.5938 30.3741 27.4225 30.3741 27.2467C30.3741 27.0708 30.4297 26.8996 30.533 26.7579C30.8961 26.2539 30.4573 27.0787 30.9264 27.2161C30.9264 27.2161 30.7297 26.147 32.046 26.1623C31.9098 25.7652 32.6512 24.8947 33.6498 24.8947C33.7558 24.8947 33.9373 24.5281 34.1189 24.5281C34.3005 24.5281 33.9373 24.8489 34.1189 24.9099C34.3005 24.971 34.4366 24.0699 35.3142 24.4976C36.1615 24.131 36.4187 24.131 36.8272 24.4976C37.5384 24.1616 38.3403 23.8409 39.0211 24.9405C39.6566 24.5129 40.3072 25.3987 40.2165 25.7652C40.3573 25.695 40.514 25.6635 40.6707 25.6739C40.8275 25.6843 40.9787 25.7363 41.1092 25.8246C41.2397 25.9129 41.3447 26.0344 41.4138 26.1769C41.4829 26.3193 41.5135 26.4776 41.5025 26.6358C42.1683 26.6358 42.6071 27.155 42.4255 27.6438C42.9853 27.9798 43.3636 28.4838 42.9551 29.0794C43.0575 29.1111 43.1498 29.1697 43.2224 29.2492C43.2951 29.3287 43.3455 29.4262 43.3686 29.5319C43.3917 29.6375 43.3866 29.7474 43.3538 29.8504C43.321 29.9533 43.2617 30.0457 43.182 30.1179C42.7584 30.4998 43.4846 30.3776 43.6662 30.1179C43.8478 29.8583 43.6662 30.4539 43.1669 30.7747C43.2639 30.8615 43.3371 30.9719 43.3797 31.0955C43.4222 31.2191 43.4326 31.3516 43.4098 31.4804C43.387 31.6092 43.3319 31.7299 43.2496 31.8309C43.1673 31.932 43.0607 32.0101 42.9399 32.0576C43.2274 32.3172 43.2425 32.9587 42.4104 33.3863C42.4104 33.7529 42.5163 34.0736 42.0321 34.3027C41.8051 34.5929 42.2742 34.7303 42.5465 34.5318C42.8189 34.3332 42.5465 35.1427 41.8354 35.1274C41.8354 35.1274 41.8354 35.7689 41.2302 35.7536C41.0486 35.7536 40.9881 36.227 41.3815 36.3645C41.7749 36.5019 40.973 36.8379 40.5493 36.4714H40.3829C40.3829 36.4714 39.7928 36.9907 39.354 36.1812C38.9152 35.3718 31.4711 32.5616 31.4711 32.5616Z" fill="white"/>
<path d="M17.854 39.7093C17.9134 39.7726 17.985 39.823 18.0643 39.8575C18.1436 39.8919 18.2291 39.9097 18.3155 39.9097C18.4019 39.9097 18.4874 39.8919 18.5667 39.8575C18.646 39.823 18.7176 39.7726 18.777 39.7093C18.8473 39.6087 18.8851 39.4887 18.8851 39.3656C18.8851 39.2426 18.8473 39.1225 18.777 39.022V39.022H33.3476H33.9225L34.3008 39.4344L37.7203 39.7093L37.1302 38.9456V38.7165L37.7203 37.9529L34.3008 38.182L33.9225 38.5944H33.2871H18.6711C18.7085 38.5656 18.7394 38.5292 18.7618 38.4875C18.8561 38.3599 18.8964 38.1997 18.8737 38.0421C18.851 37.8846 18.7672 37.7426 18.6408 37.6475C18.5144 37.5523 18.3557 37.5117 18.1996 37.5346C18.0436 37.5575 17.9029 37.642 17.8086 37.7696C17.3698 38.0751 17.0824 38.5638 16.7192 38.7471C17.1278 38.9304 17.4152 39.4344 17.854 39.7093Z" fill="white"/>
<path d="M24.7233 38.5479C25.0107 38.5479 25.0259 39.1435 25.041 39.3726C25.041 39.5864 25.2528 40.1515 25.041 40.2584C24.8292 40.3653 24.8292 40.6097 24.8594 40.8082C25.2903 42.6573 26.4267 44.2599 28.0217 45.2679C29.2934 46.0276 30.4206 47.0103 31.3504 48.1697C32.3036 49.3151 30.8359 49.9413 30.5485 49.2693C30.5485 49.2693 31.1234 48.9791 30.5485 48.5057C30.4311 48.4357 30.2926 48.4114 30.1587 48.4372C30.0249 48.463 29.905 48.5372 29.8215 48.6459C29.738 48.7545 29.6966 48.8902 29.705 49.0275C29.7135 49.1647 29.7713 49.2942 29.8676 49.3915C30.1217 49.6819 30.4756 49.8639 30.8576 49.9008C31.2397 49.9376 31.6214 49.8266 31.9253 49.59C32.7424 48.8264 32.0918 47.6962 29.4893 45.6039C26.1606 42.9006 26.781 42.4577 26.1758 40.289C26.0889 40.1912 25.9867 40.1087 25.8732 40.0446C25.7521 40.0446 25.7067 39.2504 25.7067 39.2504C25.7067 39.2504 25.51 38.5173 25.6159 38.441C25.6634 38.36 25.6991 38.2726 25.7219 38.1813C25.6462 35.9362 24.9199 35.6919 27.2349 32.0722C29.0657 29.2773 29.3532 27.9944 28.3546 27.4904C27.9925 27.3514 27.5914 27.3578 27.2339 27.5084C26.8764 27.659 26.5897 27.9423 26.433 28.2999C26.3702 28.423 26.3544 28.5651 26.3886 28.6993C26.4228 28.8334 26.5046 28.9502 26.6185 29.0274C26.7324 29.1047 26.8704 29.1371 27.0063 29.1184C27.1423 29.0997 27.2667 29.0312 27.3559 28.926C27.8099 28.2846 27.1744 28.254 27.1895 28.193C27.1895 27.4446 28.8387 27.5973 28.2789 28.9871C27.748 30.3809 26.9685 31.6647 25.9791 32.7748C24.7679 34.2279 24.175 36.1055 24.3299 37.998C24.4206 38.273 24.4963 38.5173 24.7233 38.5479Z" fill="white"/>
<path d="M35.9193 38.8381L31.1533 48.0781L31.002 47.9864L35.768 38.7617L35.9193 38.8381Z" fill="white"/>
<path d="M35.9046 38.7467L35.7835 38.8536L28.2939 30.2856L28.415 30.1787L35.9046 38.7467Z" fill="white"/>
<path d="M39.1271 40.366C39.7928 39.5413 41.79 38.9456 42.3499 37.8155C42.9097 36.6853 43.0761 35.1427 43.9386 34.7609C45.222 34.0957 46.3433 33.1516 47.2219 31.9965C47.6455 31.0802 48.0389 30.3929 47.9027 29.8584C47.7666 29.3238 48.2961 28.8045 49.0072 29.5224C49.3175 29.9161 49.5106 30.3907 49.5642 30.8908C49.6177 31.391 49.5295 31.8962 49.3099 32.3478C48.9316 33.2947 49.3099 33.2947 49.6276 32.806C49.8267 32.5794 49.967 32.3066 50.0361 32.0118C50.0361 31.7369 51.0347 31.9355 50.5959 33.7987C50.4485 34.3797 50.1448 34.9083 49.7184 35.326C49.7184 35.326 49.7184 35.662 50.021 35.4176C50.3236 35.1733 50.5808 34.9442 50.838 35.3107C51.0952 35.6773 50.142 37.006 49.7789 37.0824C49.4158 37.1587 49.5671 37.2962 49.8546 37.2351C50.142 37.174 50.5808 36.9449 50.7926 37.2351C51.0045 37.5253 50.1723 38.2736 49.6125 38.4569C49.0526 38.6402 49.9453 38.4569 50.1572 38.7624C50.369 39.0678 49.7789 39.7856 48.6441 39.6635C48.6441 39.6635 49.6881 39.862 49.2947 40.366C48.9013 40.87 47.9633 40.7784 47.9633 40.7784C47.9633 40.7784 48.5685 41.0685 47.9633 41.4504C47.75 41.5538 47.5186 41.6138 47.2823 41.6269C47.0461 41.64 46.8096 41.6059 46.5864 41.5267C46.5864 41.5267 47.1311 41.8322 46.5864 42.1987C46.0417 42.5653 45.0733 42.1987 44.7859 42.1987C43.7291 41.7315 42.5517 41.6191 41.4269 41.878C40.0803 42.3362 38.7337 40.8547 39.1271 40.366Z" fill="white"/>
<path d="M41.4119 40.0293C42.3954 39.6627 44.438 40.1973 45.482 39.5406C46.526 38.8838 47.4792 37.6467 48.5081 37.7231C49.949 37.8398 51.3973 37.6257 52.7446 37.0969C53.5768 36.5471 54.2577 36.1653 54.4241 35.5697C54.5905 34.974 55.3168 34.8824 55.5286 35.8751C55.5987 36.3722 55.5246 36.8791 55.3151 37.3345C55.1056 37.7899 54.7699 38.1742 54.3484 38.4409C53.5314 39.0366 53.8491 39.2351 54.3484 39.006C54.8477 38.7769 54.9234 38.7464 55.1201 38.5326C55.3168 38.3187 56.0128 38.9907 54.6813 40.35C54.2497 40.7998 53.6977 41.1129 53.0926 41.2511C53.0926 41.2511 52.8959 41.526 53.3044 41.4955C53.713 41.4649 54.0307 41.4038 54.061 41.8467C54.0912 42.2897 52.5479 42.9158 52.2453 42.8089C51.9427 42.702 51.9578 42.8089 52.2453 42.9617C52.5328 43.1144 53.017 43.0838 53.017 43.4809C53.017 43.878 51.9578 44.0307 51.3829 43.8933C50.8079 43.7558 51.6552 44.1224 51.6855 44.4431C51.7157 44.7638 50.8533 45.1304 49.9606 44.4431C49.9606 44.4431 50.7474 45.1762 50.1573 45.39C49.5672 45.6038 48.8107 45.0387 48.8107 45.0387C48.8107 45.0387 49.1738 45.6191 48.493 45.6344C48.2576 45.6136 48.0289 45.5447 47.8208 45.4317C47.6127 45.3188 47.4295 45.1643 47.2825 44.9777C47.2825 44.9777 47.6003 45.5427 46.9799 45.5733C46.3596 45.6038 45.6182 44.8249 45.4669 44.6111C44.8061 43.6586 43.8632 42.9421 42.7736 42.5646C41.2001 42.198 40.8521 40.2278 41.4119 40.0293Z" fill="white"/>
</g>
<defs>
<clipPath id="clip0">
<rect width="348" height="84" fill="white"/>
</clipPath>
</defs>
</svg>
