<svg width="300" height="73" viewBox="0 0 300 73" fill="none" xmlns="http://www.w3.org/2000/svg">
<g clip-path="url(#clip0)">
<path d="M99.0523 35.4702H90.4436V28.268H99.0523V26.54H88.6958V47.8563H90.4436V37.1982H99.0523V35.4702Z" fill="#5BC2C3"/>
<path d="M119.804 32.6073C118.742 32.0467 117.558 31.7655 116.361 31.7895C115.304 31.7723 114.256 31.9767 113.282 32.3899C112.307 32.8031 111.428 33.4161 110.7 34.1902C109.94 34.9433 109.34 35.8453 108.936 36.8409C108.532 37.8366 108.334 38.905 108.352 39.9809C108.332 41.0697 108.528 42.1516 108.929 43.1622C109.33 44.1729 109.928 45.0917 110.687 45.864C111.405 46.6378 112.275 47.2519 113.24 47.6675C114.206 48.0831 115.246 48.2909 116.296 48.2779C117.48 48.284 118.649 48.0131 119.713 47.4865C120.808 46.9242 121.77 46.1275 122.53 45.1517L122.869 44.7296V47.8426H124.5V32.1984H122.869V35.6148L122.517 35.1004C121.821 34.0639 120.891 33.2094 119.804 32.6073V32.6073ZM123 40.1129C123.023 41.3044 122.74 42.4816 122.178 43.5293C121.619 44.5386 120.792 45.3701 119.791 45.93C118.793 46.5014 117.665 46.8013 116.517 46.8006C115.384 46.8063 114.271 46.5008 113.296 45.9168C112.272 45.3141 111.433 44.4378 110.869 43.3842C110.292 42.3686 109.986 41.2184 109.982 40.0469C109.99 38.876 110.296 37.7268 110.869 36.7096C111.425 35.6954 112.24 34.8506 113.229 34.2636C114.218 33.6765 115.345 33.3688 116.491 33.3724C117.349 33.3577 118.201 33.5224 118.993 33.856C119.786 34.1897 120.501 34.6851 121.096 35.3114C121.717 35.9406 122.205 36.6903 122.533 37.5154C122.86 38.3405 123.019 39.2241 123 40.1129V40.1129Z" fill="#5BC2C3"/>
<path d="M157.709 32.5938C156.875 32.0482 155.898 31.7679 154.904 31.7892C153.774 31.782 152.667 32.1124 151.722 32.7389C150.67 33.4378 149.816 34.4015 149.244 35.5354L149.022 35.9311L148.878 35.509C148.646 34.7361 148.27 34.0152 147.77 33.3853C147.322 32.8825 146.769 32.4861 146.152 32.2245C145.486 31.9322 144.766 31.7839 144.039 31.7892C142.924 31.7921 141.832 32.1071 140.883 32.6994C140.036 33.2782 139.313 34.0228 138.757 34.889L138.391 35.4035V32.1981H136.735V47.8555H138.391V41.2602C138.32 39.7234 138.523 38.1862 138.991 36.7225C139.37 35.7456 140.023 34.902 140.87 34.2955C141.673 33.7151 142.635 33.4017 143.622 33.3985C144.415 33.3762 145.196 33.6069 145.852 34.058C146.462 34.4915 146.919 35.1108 147.157 35.8256C147.453 37.1221 147.576 38.4531 147.522 39.7828V47.8028H149.165V41.7746C149.084 40.0824 149.282 38.3883 149.752 36.7621C150.134 35.7652 150.802 34.9062 151.67 34.2955C152.486 33.6999 153.468 33.3813 154.474 33.3853V33.3853C155.253 33.3652 156.021 33.5811 156.678 34.0053C157.276 34.4004 157.733 34.9781 157.983 35.6541C158.299 36.8352 158.426 38.0598 158.361 39.2816V47.8423H160.057V39.2947C160.126 37.7884 159.922 36.282 159.457 34.8495C159.11 33.9377 158.501 33.1519 157.709 32.5938Z" fill="#5BC2C3"/>
<path d="M167.778 29.8771C167.735 30.4434 167.639 31.0042 167.491 31.5523C167.308 32.1105 167.081 32.653 166.813 33.1748L167.609 33.6233C167.985 32.8741 168.282 32.0872 168.495 31.2753C168.681 30.3065 168.764 29.3204 168.743 28.3338V25.999H166.487V29.6529H167.791L167.778 29.8771Z" fill="#5BC2C3"/>
<path d="M182.439 33.7553C181.359 32.5914 179.88 31.8884 178.304 31.7898C177.756 31.7697 177.209 31.8609 176.696 32.058C176.183 32.2551 175.714 32.5541 175.317 32.9374C174.931 33.3109 174.627 33.7622 174.425 34.2622C174.223 34.7621 174.127 35.2995 174.143 35.8394C174.133 36.689 174.388 37.5201 174.874 38.2137C175.661 39.1314 176.635 39.865 177.73 40.3638C178.692 40.7997 179.574 41.3973 180.339 42.1314C180.74 42.6041 180.954 43.2103 180.939 43.833C180.939 44.2173 180.857 44.597 180.697 44.9456C180.537 45.2942 180.303 45.6033 180.013 45.8512C179.412 46.4179 178.617 46.7254 177.795 46.7086C177.157 46.6798 176.531 46.5144 175.96 46.2234C175.389 45.9324 174.885 45.5223 174.482 45.0202L173.439 46.2073C173.991 46.854 174.674 47.3734 175.441 47.7307C176.208 48.0879 177.042 48.2746 177.887 48.2783C178.496 48.2908 179.101 48.1806 179.668 47.9542C180.234 47.7277 180.751 47.3895 181.187 46.9592C181.611 46.5422 181.946 46.0412 182.171 45.4874C182.395 44.9336 182.504 44.339 182.491 43.7407C182.504 42.8784 182.239 42.0354 181.735 41.3399C180.886 40.3872 179.851 39.6235 178.695 39.0975C177.76 38.6745 176.907 38.0847 176.178 37.3563C175.794 36.9028 175.573 36.3308 175.552 35.7339C175.553 35.4112 175.623 35.0925 175.755 34.7991C175.888 34.5057 176.081 34.2442 176.322 34.0323C176.819 33.561 177.479 33.3053 178.161 33.32C179.379 33.4015 180.522 33.9485 181.356 34.8501L182.439 33.7553Z" fill="#5BC2C3"/>
<path d="M220.174 37.7259C219.427 37.1335 218.578 36.6863 217.67 36.4069L217.239 36.2618L217.631 36.0507C218.45 35.6292 219.136 34.9851 219.613 34.1908C220.059 33.4237 220.289 32.5479 220.278 31.6582C220.274 30.7247 220.012 29.811 219.522 29.02C219.02 28.2174 218.294 27.5838 217.435 27.1997C216.203 26.7507 214.896 26.549 213.587 26.6061H209.557V47.8564H215.218C216.115 47.9196 217.016 47.803 217.869 47.5132C218.722 47.2235 219.509 46.7663 220.187 46.168C220.776 45.629 221.243 44.9686 221.558 44.2314C221.873 43.4941 222.028 42.6972 222.013 41.8942C222.025 41.1022 221.86 40.3177 221.531 39.599C221.225 38.8783 220.761 38.2376 220.174 37.7259V37.7259ZM211.252 28.4924V28.2946H213.913C215.115 28.1978 216.315 28.5138 217.318 29.1915C217.683 29.4897 217.974 29.8708 218.167 30.304C218.359 30.7371 218.448 31.2101 218.426 31.6846C218.437 32.4445 218.208 33.1881 217.774 33.8083C217.353 34.4502 216.741 34.9399 216.026 35.2065C214.939 35.5517 213.799 35.699 212.661 35.6418H211.304L211.252 28.4924ZM219.496 44.1498C219.039 44.8311 218.395 45.3629 217.644 45.6799C216.509 46.0581 215.315 46.2192 214.122 46.1548H211.304V37.4094H212.726C214.036 37.3678 215.347 37.4562 216.639 37.6732C217.668 37.8935 218.603 38.433 219.313 39.2165C219.953 39.9428 220.306 40.8819 220.304 41.8546C220.28 42.6786 219.997 43.4733 219.496 44.1234V44.1498Z" fill="#5BC2C3"/>
<path d="M243.157 32.6071C242.094 32.0482 240.91 31.767 239.713 31.7893C238.657 31.7721 237.608 31.9765 236.634 32.3897C235.66 32.8029 234.781 33.4159 234.052 34.19C233.292 34.9431 232.692 35.8451 232.288 36.8407C231.885 37.8364 231.686 38.9048 231.704 39.9808C231.681 41.0687 231.875 42.1502 232.274 43.1609C232.673 44.1716 233.269 45.0908 234.026 45.8638C234.747 46.6379 235.619 47.2522 236.586 47.6677C237.554 48.0833 238.597 48.291 239.648 48.2777C240.831 48.2879 242.001 48.0216 243.065 47.4995C244.159 46.9337 245.119 46.1376 245.883 45.1647L246.222 44.7426V47.8556H247.826V32.1982H246.209V35.6146L245.857 35.1002C245.164 34.0652 244.239 33.2109 243.157 32.6071V32.6071ZM246.352 40.1127C246.369 41.2908 246.086 42.4535 245.531 43.4895C244.968 44.4959 244.142 45.3264 243.144 45.8902C242.145 46.4616 241.017 46.7616 239.87 46.7608C238.736 46.7665 237.623 46.461 236.648 45.877C235.649 45.2828 234.829 44.4257 234.274 43.3972C233.697 42.3792 233.394 41.2265 233.394 40.0533C233.394 38.8802 233.697 37.7274 234.274 36.7095C234.829 35.6971 235.642 34.8537 236.628 34.2667C237.614 33.6798 238.738 33.3709 239.883 33.3722C240.743 33.3573 241.597 33.5218 242.391 33.8554C243.186 34.189 243.903 34.6846 244.5 35.3112C245.115 35.9421 245.597 36.6933 245.916 37.5189C246.234 38.3445 246.383 39.227 246.352 40.1127V40.1127Z" fill="#5BC2C3"/>
<path d="M268.37 31.7898C267.191 31.7737 266.026 32.0356 264.965 32.5548C263.881 33.1227 262.929 33.9188 262.174 34.8896L261.822 35.3117V25.999H260.178V47.8693H261.822V44.5056L262.174 44.9937C262.877 46.0244 263.805 46.8774 264.887 47.4867C265.939 48.0497 267.114 48.3355 268.304 48.3177C269.355 48.3186 270.396 48.1012 271.36 47.6792C272.325 47.2572 273.194 46.6395 273.913 45.8643C274.675 45.1096 275.276 44.2055 275.68 43.2075C276.083 42.2094 276.281 41.1385 276.261 40.0603C276.283 38.9745 276.089 37.8953 275.69 36.8868C275.291 35.8784 274.696 34.9615 273.939 34.1905C273.225 33.4234 272.361 32.8141 271.403 32.401C270.444 31.9878 269.411 31.7797 268.37 31.7898V31.7898ZM273.743 43.3448C273.193 44.358 272.383 45.2025 271.398 45.7897C270.414 46.3769 269.291 46.6852 268.148 46.6821C267.279 46.7068 266.414 46.547 265.61 46.213C264.806 45.879 264.079 45.3783 263.478 44.7431C262.864 44.1105 262.383 43.3594 262.062 42.5344C261.742 41.7094 261.589 40.8276 261.613 39.9416C261.593 38.7572 261.881 37.5882 262.448 36.5516C263.011 35.5452 263.836 34.7147 264.835 34.1509C265.83 33.5697 266.959 33.2648 268.109 33.2671C269.234 33.2616 270.339 33.5672 271.304 34.1509C272.31 34.7458 273.136 35.608 273.691 36.6439C274.264 37.6656 274.565 38.82 274.565 39.9944C274.565 41.1688 274.264 42.3232 273.691 43.3448H273.743Z" fill="#5BC2C3"/>
<path d="M297.965 32.1982L292.539 44.8613L286.943 32.1982H285.222L291.652 46.84L288.678 53.7255H290.413L299.713 32.1982H297.965Z" fill="#5BC2C3"/>
<path d="M32.4521 13.0588C27.8816 13.0978 23.4248 14.5041 19.6432 17.1005C15.8617 19.6968 12.9247 23.367 11.2023 27.6486C9.47995 31.9302 9.04928 36.6315 9.96459 41.1602C10.8799 45.6888 13.1002 49.8422 16.3458 53.0969C19.5913 56.3516 23.7168 58.5619 28.2025 59.4494C32.6882 60.3369 37.3332 59.8618 41.5523 58.084C45.7715 56.3063 49.3758 53.3053 51.9113 49.4594C54.4467 45.6135 55.7998 41.0946 55.8 36.4723C55.7723 30.237 53.2974 24.2679 48.9192 19.8773C44.541 15.4868 38.6179 13.0342 32.4521 13.0588V13.0588ZM32.4521 58.9625C28.0585 58.9261 23.7738 57.575 20.1383 55.0796C16.5028 52.5843 13.6791 49.0564 12.0232 44.9406C10.3674 40.8248 9.95345 36.3053 10.8336 31.952C11.7138 27.5986 13.8487 23.6062 16.9691 20.4781C20.0896 17.3499 24.056 15.2259 28.3683 14.374C32.6806 13.5221 37.1458 13.9802 41.201 15.6908C45.2562 17.4013 48.7198 20.2876 51.1554 23.9859C53.5909 27.6842 54.8894 32.0289 54.8869 36.4723C54.8593 42.4628 52.4805 48.197 48.2736 52.4144C44.0666 56.6318 38.3758 58.9871 32.4521 58.9625V58.9625Z" fill="#5BC2C3"/>
<path d="M32.4523 14.7863C28.2191 14.8228 24.0913 16.1255 20.5891 18.5304C17.0868 20.9353 14.3668 24.3348 12.7718 28.3003C11.1767 32.2659 10.778 36.6203 11.626 40.8146C12.4739 45.0089 14.5304 48.8557 17.5365 51.87C20.5426 54.8843 24.3636 56.9314 28.5182 57.7533C32.6728 58.5752 36.9749 58.1351 40.8826 56.4885C44.7902 54.8418 48.1285 52.0624 50.4768 48.5003C52.8251 44.9383 54.0782 40.753 54.0784 36.4719C54.0664 33.612 53.4975 30.7824 52.4042 28.1448C51.311 25.5073 49.7146 23.1133 47.7065 21.0996C45.6983 19.0859 43.3176 17.4919 40.7003 16.4087C38.083 15.3255 35.2803 14.7742 32.4523 14.7863V14.7863ZM32.4523 57.8673C28.2728 57.8308 24.1974 56.544 20.7399 54.1689C17.2824 51.7939 14.5975 48.4369 13.0236 44.5212C11.4497 40.6055 11.0572 36.3062 11.8956 32.1652C12.734 28.0242 14.7658 24.2269 17.7348 21.2518C20.7039 18.2768 24.4773 16.2571 28.5796 15.4474C32.6819 14.6377 36.9294 15.0742 40.7868 16.7019C44.6442 18.3295 47.9388 21.0755 50.2554 24.5938C52.572 28.112 53.8069 32.245 53.8045 36.4719C53.7768 42.172 51.5121 47.6278 47.5082 51.6398C43.5043 55.6519 38.0888 57.8918 32.4523 57.8673Z" fill="#5BC2C3"/>
<path fill-rule="evenodd" clip-rule="evenodd" d="M35.6087 69.5411L36.7956 70.7018C37.9043 71.7043 39.2739 72.2188 40.5261 71.058C40.9489 70.6645 41.2053 70.1212 41.2417 69.5412C41.2782 68.9612 41.0919 68.3894 40.7217 67.945C41.3092 67.6225 41.7634 67.0984 42.0026 66.4672C42.2417 65.8359 42.25 65.1391 42.0261 64.5022C41.9865 64.3861 41.9724 64.2628 41.9848 64.1406C41.9972 64.0185 42.0358 63.9006 42.0979 63.7951C42.16 63.6897 42.2441 63.5991 42.3443 63.5299C42.4445 63.4606 42.5585 63.4143 42.6782 63.3942C43.813 63.2755 43.9826 64.7132 43.2391 64.8715C43.1739 64.8875 43.106 64.8883 43.0405 64.8739C42.9749 64.8595 42.9135 64.8302 42.8608 64.7883C42.808 64.7464 42.7654 64.6929 42.736 64.632C42.7067 64.571 42.6914 64.5041 42.6913 64.4362C43.1478 64.9111 43.5261 64.1329 43.0826 63.935C42.1695 63.5393 41.9869 64.9903 42.7956 65.3464C44.9087 66.2829 47.1782 62.5632 44.8304 61.3892C44.8689 61.5487 44.8753 61.7143 44.8493 61.8764C44.8233 62.0384 44.7654 62.1935 44.679 62.3325C44.5927 62.4715 44.4796 62.5915 44.3465 62.6855C44.2135 62.7795 44.0631 62.8456 43.9043 62.8797C42.5883 63.2022 41.2208 63.2471 39.8869 63.0116H39.6261C39.1624 63.0377 38.714 63.1885 38.3273 63.4484C37.9405 63.7084 37.6293 64.068 37.4259 64.4901C37.2225 64.9123 37.1342 65.3817 37.1702 65.8499C37.2061 66.3182 37.365 66.7682 37.6304 67.1535C37.083 67.2479 36.5426 67.3801 36.013 67.5493L30.5608 61.996C24.1985 61.544 18.2355 58.6936 13.8517 54.0087C9.46782 49.3237 6.98234 43.1455 6.88692 36.6961C6.82941 37.2648 6.61216 37.8049 6.26084 38.2526C6.69345 44.6012 9.40199 50.5719 13.8782 55.0444C18.1921 59.3756 23.8571 62.0606 29.9087 62.6423H30.2739L35.8434 68.3407C36.8866 68.0189 37.9499 67.7677 39.0261 67.5888C38.605 67.2914 38.2801 66.8749 38.0922 66.3915C37.9042 65.9081 37.8616 65.3793 37.9695 64.8715C38.124 64.4783 38.4073 64.1506 38.772 63.9433C39.1368 63.7359 39.5609 63.6616 39.9734 63.7327C40.3859 63.8037 40.7617 64.0159 41.038 64.3337C41.3143 64.6514 41.4743 65.0555 41.4913 65.4783C41.4396 66.003 41.229 66.4988 40.8881 66.8978C40.5472 67.2969 40.0928 67.5797 39.5869 67.7075C40.4348 68.5386 40.8913 69.673 40.0304 70.5304C38.7261 71.7043 37.4217 70.4116 36.5739 69.4751L35.7782 68.6837C35.086 68.9192 34.4481 69.2943 33.9033 69.7863C33.3585 70.2783 32.9181 70.877 32.6087 71.546C32.5951 71.5708 32.5753 71.5914 32.5512 71.6058C32.5271 71.6201 32.4997 71.6277 32.4717 71.6277C32.4437 71.6277 32.4163 71.6201 32.3922 71.6058C32.3681 71.5914 32.3483 71.5708 32.3348 71.546C32.0205 70.8756 31.5754 70.2765 31.0262 69.7845C30.477 69.2926 29.8351 68.9182 29.1391 68.6837L28.3434 69.4751C27.4304 70.4116 26.1652 71.7043 24.8739 70.5304C23.9608 69.673 24.4695 68.5386 25.3174 67.7075C24.8139 67.5773 24.3623 67.2935 24.0239 66.8947C23.6856 66.4958 23.4768 66.0013 23.4261 65.4783C23.4355 65.0528 23.591 64.6438 23.866 64.3216C24.1409 63.9993 24.5182 63.7838 24.933 63.7121C25.3479 63.6403 25.7745 63.7168 26.1398 63.9283C26.505 64.1399 26.786 64.4734 26.9347 64.8715C27.0441 65.378 27.0034 65.9059 26.8178 66.3892C26.6322 66.8724 26.31 67.2897 25.8913 67.5888C26.9669 67.7706 28.0299 68.0217 29.0739 68.3407L31.6174 65.7026L31.1348 65.2013L28.8782 67.5097C28.349 67.3393 27.8085 67.207 27.2608 67.114C27.5692 66.7184 27.7552 66.2396 27.7957 65.7376C27.8361 65.2356 27.7292 64.7327 27.4883 64.2918C27.2473 63.851 26.8831 63.4919 26.4413 63.2595C25.9994 63.027 25.4995 62.9317 25.0043 62.9853V62.9853C23.6748 63.2204 22.3116 63.1755 21 62.8534C20.8412 62.8192 20.6908 62.7532 20.5578 62.6592C20.4247 62.5652 20.3116 62.4451 20.2253 62.3061C20.1389 62.1671 20.081 62.012 20.055 61.85C20.029 61.6879 20.0354 61.5223 20.0739 61.3628C17.713 62.5632 19.9956 66.2829 22.1087 65.32C22.9043 64.9639 22.7347 63.5129 21.8217 63.9086C21.3782 64.1065 21.7565 64.8847 22.213 64.4099C22.2109 64.4783 22.1939 64.5453 22.163 64.6062C22.1322 64.6671 22.0883 64.7203 22.0346 64.762C21.981 64.8037 21.9188 64.8327 21.8526 64.8471C21.7865 64.8615 21.718 64.8608 21.6521 64.8452C20.9347 64.7132 21.0913 63.2491 22.2261 63.3678C22.3457 63.3875 22.4596 63.4337 22.5596 63.5031C22.6595 63.5725 22.743 63.6634 22.8041 63.7693C22.8652 63.8752 22.9023 63.9935 22.9129 64.1157C22.9235 64.2378 22.9072 64.3608 22.8652 64.4758C22.6439 65.1129 22.6536 65.8088 22.8925 66.4393C23.1314 67.0699 23.584 67.5941 24.1695 67.9186C23.8009 68.3647 23.6169 68.9375 23.6558 69.5175C23.6947 70.0975 23.9535 70.6399 24.3782 71.0316C25.6826 72.1924 26.9869 71.678 28.1087 70.6755L29.2826 69.5147C30.3309 69.9559 31.1809 70.7733 31.6695 71.8099L32.0087 72.6145C32.0483 72.7014 32.1118 72.775 32.1916 72.8266C32.2713 72.8782 32.364 72.9056 32.4587 72.9056C32.5533 72.9056 32.646 72.8782 32.7258 72.8266C32.8055 72.775 32.869 72.7014 32.9087 72.6145L33.2478 71.8099C33.7312 70.7742 34.5769 69.9565 35.6217 69.5147L35.6087 69.5411ZM35.6087 3.38954L36.7956 2.22876C37.9043 1.22626 39.2739 0.711824 40.5261 1.87261C40.9498 2.26835 41.2065 2.81394 41.243 3.39608C41.2794 3.97823 41.0927 4.5522 40.7217 4.99881C41.3081 5.31889 41.762 5.84059 42.0012 6.46959C42.2405 7.0986 42.2493 7.7934 42.0261 8.4284C41.9865 8.54529 41.9725 8.66944 41.9848 8.79234C41.9971 8.91524 42.0356 9.03399 42.0975 9.14047C42.1595 9.24695 42.2434 9.33863 42.3436 9.40925C42.4439 9.47987 42.558 9.52775 42.6782 9.54961C43.813 9.65514 43.9826 8.23054 43.2391 8.05906C43.1739 8.0431 43.106 8.0423 43.0405 8.05672C42.9749 8.07114 42.9135 8.1004 42.8608 8.1423C42.808 8.1842 42.7654 8.23766 42.736 8.29863C42.7067 8.35961 42.6914 8.42653 42.6913 8.49435C43.1478 8.03268 43.5261 8.81093 43.0826 8.9956C42.1695 9.39132 41.9869 7.94034 42.7956 7.58419C44.9087 6.64765 47.1782 10.3674 44.8304 11.5414C44.8688 11.3828 44.8751 11.2179 44.8489 11.0567C44.8228 10.8956 44.7647 10.7414 44.6783 10.6034C44.5918 10.4655 44.4787 10.3466 44.3457 10.2539C44.2127 10.1612 44.0626 10.0967 43.9043 10.0641C42.5902 9.73069 41.2213 9.68125 39.8869 9.91895H39.6261C39.1624 9.89286 38.714 9.74207 38.3273 9.48216C37.9405 9.22225 37.6293 8.86264 37.4259 8.44047C37.2225 8.0183 37.1342 7.54887 37.1702 7.08065C37.2061 6.61244 37.365 6.16242 37.6304 5.77706C37.083 5.68271 36.5426 5.55049 36.013 5.38134L30.5608 10.9478C24.1985 11.3937 18.234 14.2404 13.8493 18.9238C9.46452 23.6072 6.9796 29.7856 6.88692 36.2345C6.83928 35.6474 6.6215 35.0877 6.26084 34.6252C6.70586 28.2952 9.41346 22.3453 13.8782 17.8862C18.1921 13.555 23.8571 10.87 29.9087 10.2883H30.2739L35.8434 4.5899C36.8866 4.91171 37.9499 5.16289 39.0261 5.34177C38.605 5.63922 38.2801 6.05574 38.0922 6.53913C37.9042 7.02251 37.8616 7.55125 37.9695 8.05906C38.124 8.45233 38.4073 8.78003 38.772 8.98734C39.1368 9.19465 39.5609 9.269 39.9734 9.19793C40.3859 9.12686 40.7617 8.9147 41.038 8.59693C41.3143 8.27917 41.4743 7.87508 41.4913 7.45229C41.4313 6.93635 41.2168 6.4513 40.8764 6.06225C40.536 5.6732 40.086 5.39878 39.5869 5.27582C40.4348 4.4448 40.8913 3.29721 40.0304 2.453C38.7261 1.25264 37.4217 2.55853 36.5739 3.49507L35.7782 4.28651C35.0824 4.04648 34.4424 3.66528 33.8973 3.16628C33.3523 2.66728 32.9138 2.06098 32.6087 1.38455C32.5951 1.35981 32.5753 1.33919 32.5512 1.32483C32.5271 1.31047 32.4997 1.30289 32.4717 1.30289C32.4437 1.30289 32.4163 1.31047 32.3922 1.32483C32.3681 1.33919 32.3483 1.35981 32.3348 1.38455C32.0205 2.05495 31.5754 2.65413 31.0262 3.14605C30.477 3.63796 29.8351 4.01243 29.1391 4.24694L28.3434 3.4555C27.3913 2.51895 26.0869 1.21307 24.8478 2.41343C23.9347 3.25764 24.4434 4.40523 25.2913 5.23624C24.7889 5.36394 24.3376 5.64528 23.9992 6.04187C23.6607 6.43846 23.4514 6.931 23.4 7.45229C23.4094 7.87782 23.5649 8.28678 23.8399 8.60904C24.1148 8.9313 24.4921 9.14678 24.907 9.21852C25.3218 9.29027 25.7484 9.21381 26.1137 9.00226C26.4789 8.79071 26.76 8.45725 26.9087 8.05906C27.018 7.55256 26.9773 7.0247 26.7917 6.54143C26.6062 6.05816 26.2839 5.6409 25.8652 5.34177C26.9408 5.16002 28.0039 4.90888 29.0478 4.5899L31.5913 7.22804L31.1087 7.7161L28.8521 5.42091C28.3229 5.59135 27.7825 5.72359 27.2347 5.81664C27.5431 6.21219 27.7291 6.69097 27.7696 7.19299C27.8101 7.69501 27.7031 8.19794 27.4622 8.63877C27.2213 9.07959 26.857 9.43871 26.4152 9.67114C25.9733 9.90356 25.4735 9.99894 24.9782 9.94534V9.94534C23.6483 9.70752 22.2836 9.75697 20.9739 10.0904C20.8156 10.123 20.6655 10.1876 20.5325 10.2803C20.3995 10.373 20.2864 10.4919 20.1999 10.6298C20.1135 10.7678 20.0554 10.9219 20.0293 11.0831C20.0031 11.2443 20.0094 11.4091 20.0478 11.5678C17.6869 10.3674 19.9695 6.64765 22.0826 7.61058C22.8782 7.96673 22.7087 9.41771 21.7956 9.02198C21.3521 8.83731 21.7304 8.05906 22.1869 8.52074C22.1849 8.45234 22.1678 8.38526 22.1369 8.32436C22.1061 8.26346 22.0622 8.21025 22.0086 8.16859C21.9549 8.12693 21.8927 8.09786 21.8266 8.08348C21.7604 8.0691 21.6919 8.06977 21.6261 8.08544C20.9087 8.21735 21.0652 9.68152 22.2 9.576C22.3201 9.55458 22.4342 9.50679 22.5341 9.43599C22.634 9.3652 22.7173 9.27311 22.7783 9.16623C22.8392 9.05934 22.8762 8.94025 22.8867 8.81733C22.8972 8.69441 22.881 8.57066 22.8391 8.45478C22.6186 7.81958 22.6288 7.12579 22.8678 6.49747C23.1067 5.86915 23.5589 5.34728 24.1434 5.02519C23.774 4.57695 23.5896 4.002 23.6285 3.41981C23.6673 2.83762 23.9265 2.29295 24.3521 1.89899C25.6565 0.738206 26.9608 1.25264 28.0826 2.25514L29.2565 3.41592C30.317 2.97534 31.1741 2.14625 31.6565 1.09436L31.9956 0.302911C32.0308 0.211122 32.0926 0.132235 32.1729 0.076607C32.2532 0.0209791 32.3483 -0.00878906 32.4456 -0.00878906C32.543 -0.00878906 32.638 0.0209791 32.7183 0.076607C32.7986 0.132235 32.8604 0.211122 32.8956 0.302911L33.2347 1.09436C33.714 2.13301 34.5611 2.95204 35.6087 3.38954V3.38954ZM3.4304 33.8206C5.30866 33.3853 4.57823 31.71 3.7304 31.776C3.637 31.776 3.54742 31.8135 3.48138 31.8803C3.41533 31.9471 3.37823 32.0377 3.37823 32.1321C3.37823 32.2266 3.41533 32.3172 3.48138 32.384C3.54742 32.4508 3.637 32.4883 3.7304 32.4883C3.81394 32.4835 3.89697 32.5042 3.96872 32.5477C4.04048 32.5913 4.09764 32.6556 4.13279 32.7324C4.16794 32.8092 4.17946 32.8949 4.16586 32.9784C4.15225 33.0618 4.11415 33.1393 4.05649 33.2006C3.92677 33.3213 3.76567 33.4021 3.59214 33.4334C3.4186 33.4647 3.23983 33.4453 3.07682 33.3774C2.91382 33.3095 2.77336 33.196 2.67195 33.0502C2.57053 32.9044 2.51238 32.7323 2.50431 32.5542C2.2304 30.1667 3.91301 28.7553 5.49127 29.1906C5.2213 29.2824 4.98845 29.461 4.82829 29.6992C4.66813 29.9374 4.58947 30.222 4.60431 30.5097C4.53372 30.5563 4.47685 30.6214 4.43969 30.6979C4.40252 30.7745 4.38643 30.8597 4.3931 30.9448C4.39977 31.0298 4.42896 31.1114 4.4776 31.1811C4.52625 31.2508 4.59254 31.3059 4.66953 31.3407C4.84599 31.6269 4.96047 31.9477 5.00544 32.2819C5.0504 32.6162 5.02483 32.9562 4.9304 33.2797C4.94886 33.3934 4.94078 33.5098 4.90681 33.6198C4.87284 33.7297 4.81391 33.8301 4.73475 33.9129C5.28704 34.0789 5.77153 34.421 6.11604 34.888C6.46056 35.3551 6.64668 35.9222 6.64668 36.5049C6.64668 37.0876 6.46056 37.6547 6.11604 38.1217C5.77153 38.5888 5.28704 38.9308 4.73475 39.0968C4.81391 39.1797 4.87284 39.28 4.90681 39.39C4.94078 39.4999 4.94886 39.6164 4.9304 39.73C5.02483 40.0535 5.0504 40.3936 5.00544 40.7278C4.96047 41.062 4.84599 41.3828 4.66953 41.669C4.59254 41.7039 4.52625 41.759 4.4776 41.8287C4.42896 41.8983 4.39977 41.98 4.3931 42.065C4.38643 42.15 4.40252 42.2353 4.43969 42.3118C4.47685 42.3884 4.53372 42.4534 4.60431 42.5001C4.58947 42.7877 4.66813 43.0724 4.82829 43.3105C4.98845 43.5487 5.2213 43.7274 5.49127 43.8191C3.91301 44.1753 2.2304 42.7639 2.45214 40.3764C2.4602 40.1983 2.51836 40.0262 2.61977 39.8804C2.72119 39.7346 2.86165 39.6211 3.02465 39.5532C3.18765 39.4853 3.36642 39.4659 3.53996 39.4972C3.7135 39.5285 3.87459 39.6093 4.00431 39.73C4.06197 39.7913 4.10008 39.8688 4.11368 39.9522C4.12729 40.0357 4.11577 40.1214 4.08061 40.1982C4.04546 40.275 3.9883 40.3393 3.91655 40.3829C3.8448 40.4264 3.76176 40.4471 3.67823 40.4423C3.58482 40.4423 3.49525 40.4798 3.4292 40.5466C3.36316 40.6134 3.32605 40.704 3.32605 40.7985C3.32605 40.8929 3.36316 40.9835 3.4292 41.0503C3.49525 41.1171 3.58482 41.1546 3.67823 41.1546C4.52605 41.2337 5.25649 39.5453 3.37823 39.11C2.68636 39.11 2.02283 38.8321 1.5336 38.3373C1.04438 37.8426 0.769531 37.1716 0.769531 36.4719C0.769531 35.7722 1.04438 35.1012 1.5336 34.6064C2.02283 34.1117 2.68636 33.8337 3.37823 33.8337L3.4304 33.8206ZM1.99562 36.4587C1.99562 36.8553 2.1119 37.2429 2.32975 37.5726C2.5476 37.9023 2.85724 38.1593 3.21952 38.3111C3.58179 38.4628 3.98043 38.5025 4.36501 38.4252C4.7496 38.3478 5.10287 38.1568 5.38014 37.8764C5.65742 37.596 5.84624 37.2388 5.92274 36.8499C5.99924 36.4609 5.95998 36.0578 5.80992 35.6914C5.65986 35.3251 5.40574 35.0119 5.07971 34.7916C4.75367 34.5713 4.37035 34.4537 3.97823 34.4537C3.71677 34.4537 3.45789 34.506 3.21649 34.6076C2.9751 34.7092 2.75595 34.858 2.57168 35.0456C2.38741 35.2332 2.24164 35.4558 2.14278 35.7006C2.04391 35.9453 1.9939 36.2075 1.99562 36.4719V36.4587ZM3.97823 34.8231C3.65834 34.8231 3.34563 34.919 3.07965 35.0987C2.81367 35.2784 2.60637 35.5339 2.48395 35.8328C2.36154 36.1316 2.32951 36.4605 2.39191 36.7778C2.45432 37.0951 2.60836 37.3865 2.83456 37.6153C3.06075 37.844 3.34895 37.9998 3.66269 38.0629C3.97643 38.126 4.30164 38.0936 4.59718 37.9698C4.89272 37.846 5.14532 37.6364 5.32304 37.3674C5.50076 37.0984 5.59562 36.7822 5.59562 36.4587C5.59562 36.0249 5.42522 35.6089 5.1219 35.3021C4.81858 34.9954 4.40719 34.8231 3.97823 34.8231V34.8231ZM2.98692 36.4587C2.98692 36.7246 3.09136 36.9796 3.27727 37.1676C3.46317 37.3556 3.71532 37.4612 3.97823 37.4612C4.24114 37.4612 4.49328 37.3556 4.67919 37.1676C4.86509 36.9796 4.96953 36.7246 4.96953 36.4587C4.96953 36.1928 4.86509 35.9378 4.67919 35.7498C4.49328 35.5618 4.24114 35.4562 3.97823 35.4562C3.71532 35.4562 3.46317 35.5618 3.27727 35.7498C3.09136 35.9378 2.98692 36.1928 2.98692 36.4587V36.4587ZM61.4478 33.8206C62.1397 33.8206 62.8032 34.0985 63.2924 34.5933C63.7816 35.088 64.0565 35.759 64.0565 36.4587C64.0565 37.1584 63.7816 37.8294 63.2924 38.3242C62.8032 38.8189 62.1397 39.0968 61.4478 39.0968C59.5695 39.5321 60.3 41.2206 61.1608 41.1414C61.2542 41.1414 61.3438 41.1039 61.4099 41.0371C61.4759 40.9703 61.513 40.8797 61.513 40.7853C61.513 40.6908 61.4759 40.6002 61.4099 40.5334C61.3438 40.4666 61.2542 40.4291 61.1608 40.4291C61.0773 40.4339 60.9943 40.4132 60.9225 40.3697C60.8508 40.3261 60.7936 40.2618 60.7585 40.185C60.7233 40.1082 60.7118 40.0225 60.7254 39.939C60.739 39.8556 60.7771 39.7781 60.8347 39.7168C60.964 39.592 61.1262 39.5076 61.3019 39.4739C61.4775 39.4403 61.659 39.4587 61.8245 39.527C61.99 39.5954 62.1324 39.7107 62.2345 39.859C62.3366 40.0074 62.3941 40.1825 62.4 40.3632C62.6087 42.7507 60.9391 44.1621 59.3478 43.74C59.6178 43.6482 59.8506 43.4696 60.0108 43.2314C60.1709 42.9932 60.2496 42.7086 60.2348 42.4209C60.3095 42.3773 60.3704 42.3131 60.4106 42.2359C60.4507 42.1587 60.4684 42.0716 60.4615 41.9846C60.4547 41.8976 60.4237 41.8144 60.372 41.7445C60.3203 41.6747 60.2501 41.6211 60.1695 41.5899C59.999 41.3012 59.8879 40.9806 59.8431 40.6473C59.7983 40.3141 59.8206 39.9751 59.9087 39.6509C59.8931 39.5373 59.9026 39.4216 59.9364 39.3121C59.9703 39.2027 60.0276 39.1021 60.1043 39.0177C59.552 38.8517 59.0675 38.5096 58.723 38.0426C58.3785 37.5755 58.1924 37.0084 58.1924 36.4257C58.1924 35.843 58.3785 35.2759 58.723 34.8089C59.0675 34.3418 59.552 33.9998 60.1043 33.8337C60.0488 33.7468 60.0109 33.6495 59.993 33.5476C59.9751 33.4457 59.9774 33.3412 60 33.2402C59.9119 32.9159 59.8896 32.5769 59.9344 32.2437C59.9792 31.9104 60.0903 31.5898 60.2608 31.3011C60.3414 31.27 60.4116 31.2163 60.4633 31.1465C60.515 31.0766 60.546 30.9934 60.5528 30.9064C60.5597 30.8195 60.542 30.7323 60.5019 30.6551C60.4617 30.5779 60.4008 30.5137 60.3261 30.4701C60.3409 30.1825 60.2622 29.8978 60.1021 29.6596C59.9419 29.4214 59.7091 29.2428 59.4391 29.151C61.0304 28.7157 62.7 30.1272 62.4913 32.5147C62.4854 32.6953 62.4279 32.8704 62.3258 33.0188C62.2237 33.1672 62.0813 33.2825 61.9158 33.3508C61.7503 33.4191 61.5688 33.4376 61.3932 33.4039C61.2176 33.3702 61.0553 33.2859 60.9261 33.161C60.8684 33.0997 60.8303 33.0223 60.8167 32.9388C60.8031 32.8553 60.8146 32.7696 60.8498 32.6928C60.8849 32.616 60.9421 32.5517 61.0138 32.5082C61.0856 32.4646 61.1686 32.4439 61.2521 32.4487C61.3455 32.4487 61.4351 32.4112 61.5012 32.3444C61.5672 32.2776 61.6043 32.187 61.6043 32.0926C61.6043 31.9981 61.5672 31.9075 61.5012 31.8407C61.4351 31.7739 61.3455 31.7364 61.2521 31.7364C60.3913 31.6705 59.6608 33.3457 61.5391 33.781L61.4478 33.8206ZM62.8826 36.4587C62.8852 36.0616 62.7711 35.6727 62.5548 35.3412C62.3385 35.0098 62.0298 34.7507 61.6678 34.597C61.3057 34.4432 60.9067 34.4016 60.5212 34.4775C60.1358 34.5533 59.7813 34.7432 59.5027 35.0231C59.2241 35.303 59.034 35.6602 58.9565 36.0495C58.8789 36.4388 58.9174 36.8426 59.0671 37.2097C59.2167 37.5768 59.4708 37.8908 59.7971 38.1117C60.1235 38.3326 60.5073 38.4505 60.9 38.4505C61.4235 38.4505 61.9259 38.2411 62.2973 37.8679C62.6687 37.4948 62.8791 36.9882 62.8826 36.4587V36.4587ZM60.9 34.8231C60.5806 34.8257 60.2692 34.9238 60.005 35.1051C59.7407 35.2864 59.5354 35.5428 59.415 35.8419C59.2946 36.141 59.2644 36.4694 59.3283 36.7858C59.3922 37.1022 59.5472 37.3924 59.7739 37.6199C60.0007 37.8473 60.2889 38.0018 60.6022 38.0638C60.9156 38.1259 61.2402 38.0927 61.5349 37.9685C61.8297 37.8444 62.0816 37.6347 62.2587 37.366C62.4359 37.0973 62.5304 36.7816 62.5304 36.4587C62.5304 36.2428 62.4881 36.029 62.406 35.8297C62.324 35.6304 62.2037 35.4495 62.0521 35.2974C61.9005 35.1454 61.7207 35.0252 61.5229 34.9438C61.3252 34.8623 61.1135 34.8213 60.9 34.8231ZM61.9043 36.4587C61.8763 36.211 61.7591 35.9823 61.5751 35.8163C61.391 35.6503 61.1531 35.5586 60.9065 35.5586C60.6599 35.5586 60.4219 35.6503 60.2379 35.8163C60.0539 35.9823 59.9367 36.211 59.9087 36.4587C59.9367 36.7065 60.0539 36.9351 60.2379 37.1011C60.4219 37.2671 60.6599 37.3588 60.9065 37.3588C61.1531 37.3588 61.391 37.2671 61.5751 37.1011C61.7591 36.9351 61.8763 36.7065 61.9043 36.4587ZM32.9869 8.70541L32.5043 9.23304L34.3174 10.9478C40.682 11.3905 46.6497 14.2358 51.0372 18.9196C55.4246 23.6033 57.9114 29.7834 58.0043 36.2345C58.0581 35.6369 58.3004 35.0727 58.6956 34.6252C58.2284 28.2848 55.4925 22.3339 51 17.8862C46.6861 13.555 41.0211 10.87 34.9695 10.2883H34.6174L32.9869 8.70541ZM33.7434 7.91396L33.2739 8.38883L34.8391 9.91895H35.0869C41.1874 10.5192 46.896 13.231 51.2478 17.596C55.7093 22.0512 58.4442 27.9758 58.9565 34.2954C59.1478 34.1165 59.3629 33.9655 59.5956 33.8469C59.045 28.3167 56.8472 23.0859 53.2931 18.8463C49.739 14.6066 44.9959 11.558 39.6913 10.1036V10.1036C39.2355 10.1264 38.7828 10.0165 38.3869 9.78705C37.2999 9.53056 36.1976 9.3455 35.0869 9.23304L33.7826 7.91396H33.7434ZM32.3348 6.47617L30.5739 4.68223C31.2919 4.28298 31.9291 3.75045 32.4521 3.11254C32.9659 3.74944 33.5944 4.28208 34.3043 4.68223L29.8043 9.23304C28.7349 9.33903 27.6723 9.50638 26.6217 9.73428C26.2085 9.98359 25.733 10.1072 25.2521 10.0904H25.1869C19.8832 11.5465 15.1411 14.5956 11.5872 18.8349C8.03337 23.0742 5.83499 28.3042 5.28257 33.8337C5.51744 33.9554 5.7365 34.1061 5.93475 34.2822C6.46018 27.9842 9.18874 22.082 13.6304 17.6355C17.9893 13.2732 23.7009 10.5622 29.8043 9.95853H30L35.4913 4.48437C34.1766 4.01674 33.0768 3.07822 32.4 1.84623V1.84623C31.718 3.0791 30.614 4.01736 29.2956 4.48437L31.8 6.99061L32.2956 6.48936L32.3348 6.47617ZM28.813 4.36566C27.7043 3.28402 26.3087 1.4637 25.0434 2.62448C24.2087 3.38954 24.8478 4.41842 25.6043 5.11753C26.6087 4.80095 27.4043 4.8669 28.813 4.36566ZM24.7826 5.80345C24.3413 6.03478 23.9915 6.4118 23.7913 6.8719C23.7092 7.05268 23.6651 7.24873 23.6617 7.44765C23.6584 7.64656 23.6959 7.84401 23.7719 8.0275C23.848 8.21099 23.9608 8.37653 24.1033 8.51365C24.2458 8.65078 24.415 8.7565 24.6 8.82412C24.8645 8.9522 25.1605 8.99833 25.4509 8.9567C25.7412 8.91507 26.0129 8.78755 26.2318 8.59018C26.4506 8.3928 26.6069 8.13438 26.6809 7.84742C26.755 7.56046 26.7434 7.25777 26.6478 6.97742C26.4537 6.35846 26.0642 5.82095 25.5391 5.4473C25.2766 5.54227 25.0234 5.66149 24.7826 5.80345V5.80345ZM27.3913 3.95674C26.9347 3.49507 26.3478 2.92787 25.9174 2.92787C25.0043 2.92787 25.3826 3.94355 25.7739 4.24694C26.3217 4.11503 26.8043 4.07546 27.3913 3.94355V3.95674ZM25.4087 6.2915C25.0025 6.43771 24.6667 6.73486 24.4695 7.12252C24.2347 7.80844 24.613 8.19097 25.2913 8.21735C25.9695 8.24373 26.3608 7.22804 25.4087 6.2915ZM36.0782 4.36566C37.4869 4.8669 38.2826 4.80095 39.2869 5.11753C40.0304 4.41842 40.6826 3.38954 39.8348 2.62448C38.5304 1.4637 37.2261 3.28402 36.0782 4.36566V4.36566ZM40.1087 5.80345C39.8666 5.66398 39.6135 5.54486 39.3521 5.4473C38.8235 5.82026 38.4297 6.3575 38.2304 6.97742C38.1325 7.25932 38.1199 7.5643 38.1942 7.85348C38.2684 8.14265 38.4262 8.40291 38.6473 8.60104C38.8684 8.79918 39.1429 8.92621 39.4357 8.96595C39.7285 9.00568 40.0263 8.9563 40.2913 8.82412C40.4764 8.75683 40.6455 8.65108 40.7877 8.51368C40.9299 8.37629 41.0421 8.2103 41.1171 8.0264C41.192 7.8425 41.2281 7.64476 41.2229 7.44592C41.2177 7.24708 41.1714 7.05154 41.0869 6.8719C40.8918 6.41272 40.5464 6.03545 40.1087 5.80345V5.80345ZM37.4608 3.95674C38.0347 4.08865 38.5174 4.12822 39.0652 4.26013C39.4565 3.94355 39.8478 2.94106 38.9217 2.94106C38.5043 2.94106 37.9174 3.50826 37.4608 3.96993V3.95674ZM39.4826 6.25193C38.5304 7.18847 38.8434 8.19097 39.5869 8.17778C40.3304 8.16459 40.6565 7.76886 40.4087 7.08295C40.2167 6.69615 39.8852 6.39867 39.4826 6.25193V6.25193ZM32.9608 64.1856L32.4782 63.7108L34.3174 61.996C40.6821 61.5471 46.6482 58.6981 51.0348 54.0129C55.4213 49.3276 57.9086 43.1476 58.0043 36.6961C58.0688 37.2751 58.3105 37.8193 58.6956 38.2526C58.2408 44.6116 55.504 50.5834 51 55.0444C46.6861 59.3756 41.0211 62.0606 34.9695 62.6423H34.6174L32.9869 64.2252L32.9608 64.1856ZM33.7174 64.9507L33.2478 64.4758L34.813 62.9457H35.0608C41.1624 62.3397 46.8705 59.6235 51.2217 55.2555C55.6732 50.8278 58.4159 44.9389 58.9565 38.6484C59.1478 38.8273 59.3629 38.9783 59.5956 39.0968C59.045 44.627 56.8472 49.8579 53.2931 54.0975C49.739 58.3371 44.9959 61.3858 39.6913 62.8402C39.236 62.8231 38.7849 62.9326 38.3869 63.1567C37.3211 63.406 36.2406 63.5867 35.1521 63.6976L33.8478 65.0166L33.7174 64.9507ZM32.3087 66.4149L30.5478 68.222C31.268 68.6125 31.9059 69.1411 32.4261 69.7785C32.9366 69.1419 33.5659 68.613 34.2782 68.222L29.7782 63.6448C28.7088 63.5388 27.6462 63.3715 26.5956 63.1436C26.1824 62.8942 25.7069 62.7706 25.2261 62.7874H25.1608C19.8571 61.3314 15.115 58.2822 11.5611 54.0429C8.00728 49.8036 5.80891 44.5737 5.25649 39.0441C5.49136 38.9224 5.71042 38.7718 5.90866 38.5956C6.43409 44.8936 9.16266 50.7958 13.6043 55.2423C17.962 59.6086 23.6734 62.3242 29.7782 62.9325H30L35.4913 68.4067C34.179 68.8786 33.0806 69.8159 32.4 71.0448V71.0448C31.7143 69.8151 30.6116 68.8779 29.2956 68.4067L31.8391 65.9532L32.3348 66.4544L32.3087 66.4149ZM28.813 68.5913C27.7043 69.6862 26.3087 71.4933 25.0434 70.3325C24.2087 69.5674 24.8478 68.5386 25.6043 67.8395C26.6087 68.1692 27.4043 68.1033 28.813 68.5913ZM24.7826 67.1272C24.3413 66.8958 23.9915 66.5188 23.7913 66.0587C23.7092 65.8779 23.6651 65.6819 23.6617 65.483C23.6584 65.284 23.6959 65.0866 23.7719 64.9031C23.848 64.7196 23.9608 64.5541 24.1033 64.4169C24.2458 64.2798 24.415 64.1741 24.6 64.1065C24.8645 63.9784 25.1605 63.9323 25.4509 63.9739C25.7412 64.0155 26.0129 64.143 26.2318 64.3404C26.4506 64.5378 26.6069 64.7962 26.6809 65.0832C26.755 65.3701 26.7434 65.6728 26.6478 65.9532C26.4537 66.5721 26.0642 67.1096 25.5391 67.4833C25.2744 67.3939 25.0206 67.2744 24.7826 67.1272V67.1272ZM27.3913 68.9343C26.9347 69.396 26.3478 69.9632 25.9174 69.9763C25.0043 69.9763 25.3826 68.9475 25.7739 68.6573C26.3217 68.8024 26.8043 68.8288 27.3913 68.9607V68.9343ZM25.3695 66.6391C24.9613 66.4965 24.6244 66.1983 24.4304 65.8081C24.1956 65.1222 24.5739 64.7396 25.2521 64.7133C25.9304 64.6869 26.3217 65.7026 25.3695 66.6391ZM36.0782 68.5913C37.4869 68.1033 38.2826 68.1692 39.2869 67.8395C40.0304 68.5386 40.6826 69.5674 39.8348 70.3325C38.5304 71.4933 37.2261 69.6862 36.0782 68.5913V68.5913ZM40.1087 67.1535C39.8693 67.2983 39.6158 67.4177 39.3521 67.5097C38.8189 67.1299 38.4246 66.5828 38.2304 65.9532C38.1325 65.6713 38.1199 65.3663 38.1942 65.0771C38.2684 64.7879 38.4262 64.5277 38.6473 64.3296C38.8684 64.1314 39.1429 64.0044 39.4357 63.9647C39.7285 63.9249 40.0263 63.9743 40.2913 64.1065C40.4751 64.1754 40.6429 64.2821 40.784 64.4198C40.9251 64.5575 41.0366 64.7233 41.1113 64.9066C41.186 65.09 41.2224 65.287 41.2182 65.4852C41.214 65.6835 41.1693 65.8788 41.0869 66.0587C40.8918 66.5179 40.5464 66.8951 40.1087 67.1272V67.1535ZM37.5 68.9607C38.0739 68.8288 38.5565 68.8024 39.1043 68.6573C39.4956 68.9739 39.8869 69.9763 38.9608 69.9763C38.5434 69.9763 37.9565 69.396 37.5 68.9343V68.9607ZM39.5217 66.6655C38.5695 65.7289 38.8826 64.7264 39.6261 64.7396C40.3695 64.7528 40.6956 65.1485 40.4478 65.8345C40.3472 66.0262 40.2102 66.196 40.0445 66.3341C39.8789 66.4722 39.6879 66.5758 39.4826 66.6391L39.5217 66.6655Z" fill="#5BC2C3"/>
<path d="M31.1479 18.8231C29.087 18.8231 27.4175 19.2056 27.4175 19.5882C27.4175 19.9707 29.1131 20.2741 31.174 20.2345C33.2349 20.1949 34.9175 19.852 34.9044 19.4562C34.8914 19.0605 33.2218 18.7835 31.1479 18.8231ZM31.3436 19.6409C30.3569 19.7423 29.3605 19.6755 28.3957 19.4431C29.3442 19.1923 30.3258 19.0944 31.3044 19.1529C32.2909 19.0436 33.2887 19.1105 34.2523 19.3507C33.2912 19.6056 32.2961 19.7036 31.3044 19.6409H31.3436Z" fill="#5BC2C3"/>
<path d="M26.6737 27.4626C26.6085 28.0826 26.7911 29.5863 26.5303 29.7314C26.2694 29.8765 25.8781 29.8633 26.1911 30.2459C26.378 30.4749 26.6087 30.6633 26.8694 30.7999C26.9235 30.9444 26.9235 31.1039 26.8694 31.2484C26.7389 31.3407 26.765 31.4858 26.8694 31.5913C26.752 31.6837 26.8694 31.8683 26.9476 31.9475C27.0259 32.0266 26.9476 32.4751 27.7172 32.884C28.4868 33.2929 28.852 33.0027 28.852 33.0027C29.0745 33.1337 29.3206 33.2186 29.5758 33.2526C29.8311 33.2865 30.0905 33.2689 30.3389 33.2006C29.9752 33.4891 29.6309 33.802 29.3085 34.1371C28.8389 34.2163 27.7303 33.9525 27.1824 34.401C26.9277 34.3199 26.6545 34.3199 26.3998 34.401C26.1781 34.4933 25.7737 33.8865 24.4563 34.1371C24.2848 33.9775 24.0631 33.8841 23.8303 33.8733C23.7511 33.591 23.6153 33.3281 23.4313 33.1012C23.2473 32.8742 23.019 32.6881 22.7607 32.5542C22.6631 32.3944 22.509 32.2782 22.3297 32.2292C22.1504 32.1801 21.9594 32.2021 21.7955 32.2904C21.1172 32.5806 20.8694 32.2904 20.4911 32.6993C20.4911 32.6993 19.6694 32.9632 20.4129 33.5567C20.2563 34.0184 20.2694 34.1108 20.7781 34.2163C20.7781 34.612 20.7781 34.7967 21.1042 34.9418C20.9216 35.2188 21.1955 35.4034 21.4824 35.5881C21.6931 35.7173 21.9324 35.791 22.1785 35.8025C22.4246 35.814 22.6696 35.763 22.8911 35.6541C22.9809 35.7992 23.1092 35.9157 23.2615 35.9904C23.4138 36.065 23.5838 36.0948 23.752 36.0762C24.4055 36.5811 25.1497 36.953 25.9433 37.171C26.1091 37.2574 26.2905 37.3089 26.4766 37.3225C26.6627 37.3361 26.8495 37.3115 27.0259 37.2501C27.4183 37.4028 27.8379 37.4711 28.2578 37.4507C28.6778 37.4302 29.0889 37.3215 29.465 37.1314C29.6216 37.3821 29.7389 37.5535 30.0389 37.5931C29.9055 38.5174 30.1196 39.4588 30.6389 40.2313C31.1737 41.0095 30.6389 42.632 32.3998 43.6608C32.3679 43.9382 32.3996 44.2193 32.4923 44.4824C32.585 44.7454 32.7364 44.9834 32.9346 45.1778C32.9346 45.7582 32.3607 46.9981 33.0911 47.7368C32.9149 48.0073 32.8504 48.3368 32.9113 48.6548C32.9723 48.9728 33.1538 49.254 33.4172 49.4384C33.468 50.3343 33.7129 51.2079 34.1346 51.9974C34.0892 52.3607 34.0631 52.7261 34.0563 53.0922C33.7017 53.3119 33.4095 53.621 33.2085 53.9892L32.9998 54.1739C32.9998 54.1739 32.1389 54.2398 32.1259 54.6355C32.1129 55.0313 32.8172 54.9389 32.8172 54.9389C32.8908 55.0264 32.9879 55.0904 33.0967 55.1231C33.2055 55.1559 33.3214 55.1561 33.4302 55.1236C33.5216 55.3478 33.9259 55.2159 33.9259 55.2159C33.9259 55.2159 34.0694 55.7304 34.6824 55.3214C35.2955 54.9125 35.4129 54.5828 35.8824 54.253C36.352 53.9232 37.9563 52.9339 37.6694 52.1952C37.5635 51.8257 37.366 51.4897 37.0955 51.2191C37.135 51.0923 37.1293 50.9555 37.0792 50.8325C37.0291 50.7095 36.9379 50.6083 36.8216 50.5464C36.6477 50.2102 36.5881 49.8255 36.652 49.4516C36.7578 49.117 36.7578 48.7573 36.652 48.4227C36.7563 48.0138 37.7216 46.6947 37.8781 45.9824C38.2433 46.642 39.2476 46.8398 39.5998 46.919C39.7826 47.1949 40.0261 47.4242 40.3113 47.589C40.5964 47.7538 40.9154 47.8495 41.2433 47.8687C41.6863 47.8827 42.1282 47.8157 42.5476 47.6708C43.1211 47.2786 43.7228 46.9303 44.3476 46.6288C44.5563 46.6288 45.1433 47.2619 45.652 47.2619C45.652 47.75 46.265 47.9346 46.265 47.9346C46.265 47.9346 45.8346 48.6997 46.3563 48.8844C46.8781 49.069 46.9563 48.4755 46.9563 48.4755C46.9815 48.5159 47.0144 48.5509 47.0532 48.5782C47.092 48.6056 47.1358 48.6247 47.182 48.6346C47.2283 48.6444 47.276 48.6447 47.3224 48.6355C47.3688 48.6263 47.4128 48.6078 47.452 48.581C47.752 48.3699 48.2085 48.4227 48.0781 48.0138C47.8697 47.3077 47.5432 46.6429 47.1129 46.0484C46.5781 45.2701 46.9042 44.4259 46.1868 43.9247C45.4694 43.4234 45.1302 43.5421 44.5433 44.2017C44.4896 44.1715 44.4299 44.154 44.3686 44.1507C44.3072 44.1473 44.246 44.1581 44.1894 44.1823C44.1328 44.2064 44.0824 44.2433 44.0421 44.2901C44.0017 44.3369 43.9724 44.3923 43.9563 44.4523C43.5089 44.2683 43.0081 44.2683 42.5607 44.4523C42.2868 44.2544 41.9476 44.0302 41.7781 44.1621C41.6085 44.294 41.7781 43.5157 40.4737 42.5396C40.6413 42.2076 40.7254 41.8389 40.7186 41.4662C40.7117 41.0935 40.6142 40.7283 40.4346 40.4027C39.7563 39.3475 37.9694 39.0837 36.7042 37.1051C35.4389 35.1264 35.5042 34.058 34.1868 33.2402C34.125 32.9398 34.0814 32.6358 34.0563 32.33C34.0563 32.0926 37.4346 28.9796 35.6868 25.6555C33.9389 22.3314 27.3129 21.8961 26.6737 27.4626Z" fill="#5BC2C3"/>
<path d="M27.1305 28.1231C27.1305 28.1231 25.8262 27.8461 26.3088 26.6325C26.3088 26.6325 25.8262 26.5006 26.0349 25.7883C25.6957 25.6696 25.5522 25.1551 25.8783 24.4692C26.2044 23.7833 26.3218 23.9548 26.3218 23.9548C26.2328 23.8325 26.1848 23.6846 26.1848 23.5327C26.1848 23.3808 26.2328 23.2329 26.3218 23.1106C26.6349 22.6753 26.2566 23.3876 26.6609 23.5063C26.6609 23.5063 26.4914 22.5829 27.6262 22.5961C27.5088 22.2532 28.1479 21.5013 29.0088 21.5013C29.1001 21.5013 29.2566 21.1847 29.4131 21.1847C29.5696 21.1847 29.2566 21.4617 29.4131 21.5145C29.5696 21.5673 29.687 20.789 30.4436 21.1584C31.174 20.8418 31.3957 20.8418 31.7479 21.1584C32.3609 20.8682 33.0522 20.5911 33.6392 21.5409C34.187 21.1715 34.7479 21.9366 34.6696 22.2532C34.791 22.1925 34.9261 22.1653 35.0613 22.1743C35.1964 22.1833 35.3268 22.2282 35.4392 22.3045C35.5517 22.3808 35.6423 22.4857 35.7018 22.6087C35.7614 22.7317 35.7878 22.8684 35.7783 23.0051C36.3522 23.0051 36.7305 23.4535 36.574 23.8756C37.0566 24.1658 37.3827 24.6011 37.0305 25.1156C37.1188 25.143 37.1984 25.1936 37.261 25.2622C37.3236 25.3309 37.3671 25.4151 37.387 25.5064C37.4069 25.5976 37.4025 25.6925 37.3742 25.7814C37.346 25.8704 37.2949 25.9501 37.2262 26.0125C36.8609 26.3423 37.487 26.2368 37.6436 26.0125C37.8001 25.7883 37.6436 26.3027 37.2131 26.5797C37.2967 26.6547 37.3599 26.7501 37.3966 26.8568C37.4332 26.9635 37.4422 27.078 37.4225 27.1892C37.4029 27.3005 37.3553 27.4047 37.2844 27.492C37.2135 27.5793 37.1216 27.6467 37.0175 27.6878C37.2653 27.912 37.2783 28.466 36.5609 28.8354C36.5609 29.1519 36.6522 29.4289 36.2349 29.6268C36.0392 29.8774 36.4436 29.9961 36.6783 29.8247C36.9131 29.6532 36.6783 30.3523 36.0653 30.3391C36.0653 30.3391 36.0653 30.8931 35.5436 30.8799C35.387 30.8799 35.3349 31.2888 35.674 31.4076C36.0131 31.5263 35.3218 31.8165 34.9566 31.4999H34.8131C34.8131 31.4999 34.3044 31.9484 33.9262 31.2493C33.5479 30.5502 27.1305 28.1231 27.1305 28.1231Z" fill="#5BC2C3"/>
<path d="M15.3913 34.2957C15.4425 34.3504 15.5042 34.394 15.5726 34.4238C15.641 34.4535 15.7147 34.4689 15.7892 34.4689C15.8636 34.4689 15.9373 34.4535 16.0057 34.4238C16.0741 34.394 16.1358 34.3504 16.187 34.2957C16.2476 34.2089 16.2802 34.1052 16.2802 33.999C16.2802 33.8927 16.2476 33.789 16.187 33.7022V33.7022H28.7479H29.2435L29.5696 34.0583L32.5174 34.2957L32.0087 33.6362V33.4384L32.5174 32.7788L29.5696 32.9767L29.2435 33.3328H28.6957H16.0957C16.1279 33.308 16.1546 33.2765 16.174 33.2405C16.2552 33.1303 16.2899 32.9919 16.2704 32.8559C16.2508 32.7198 16.1786 32.5972 16.0696 32.515C15.9606 32.4328 15.8238 32.3977 15.6893 32.4175C15.5548 32.4373 15.4335 32.5103 15.3522 32.6205C14.974 32.8843 14.7261 33.3064 14.4131 33.4647C14.7653 33.623 15.0131 34.0583 15.3913 34.2957Z" fill="#5BC2C3"/>
<path d="M21.3131 33.2935C21.5609 33.2935 21.574 33.8079 21.587 34.0058C21.587 34.1905 21.7696 34.6785 21.587 34.7709C21.4044 34.8632 21.4044 35.0742 21.4305 35.2457C21.8019 36.8427 22.7816 38.2269 24.1566 39.0974C25.2529 39.7536 26.2247 40.6023 27.0262 41.6037C27.8479 42.593 26.5827 43.1338 26.3349 42.5534C26.3349 42.5534 26.8305 42.3028 26.3349 41.8939C26.2337 41.8334 26.1143 41.8124 25.9989 41.8347C25.8835 41.857 25.7801 41.9211 25.7081 42.0149C25.6361 42.1088 25.6004 42.226 25.6078 42.3445C25.6151 42.4631 25.6649 42.5749 25.7479 42.6589C25.9669 42.9097 26.272 43.0669 26.6014 43.0988C26.9307 43.1306 27.2598 43.0347 27.5218 42.8304C28.2262 42.1709 27.6653 41.1947 25.4218 39.3876C22.5522 37.0529 23.087 36.6703 22.5653 34.7972C22.4904 34.7128 22.4023 34.6415 22.3044 34.5862C22.2001 34.5862 22.1609 33.9003 22.1609 33.9003C22.1609 33.9003 21.9914 33.2671 22.0827 33.2012C22.1236 33.1312 22.1544 33.0557 22.174 32.9769C22.1088 31.0379 21.4827 30.8268 23.4783 27.7006C25.0566 25.2867 25.3044 24.1787 24.4435 23.7434C24.1314 23.6233 23.7856 23.6289 23.4775 23.759C23.1693 23.889 22.9222 24.1337 22.787 24.4425C22.7329 24.5489 22.7193 24.6716 22.7488 24.7875C22.7782 24.9033 22.8488 25.0042 22.9469 25.0709C23.0451 25.1376 23.1641 25.1656 23.2813 25.1494C23.3985 25.1333 23.5057 25.0742 23.5827 24.9833C23.974 24.4293 23.4262 24.4029 23.4392 24.3502C23.4392 23.7038 24.8609 23.8357 24.3783 25.0361C23.9207 26.2399 23.2487 27.3487 22.3957 28.3074C21.3516 29.5624 20.8405 31.1841 20.974 32.8186C21.0522 33.0561 21.1175 33.2671 21.3131 33.2935Z" fill="#5BC2C3"/>
<path d="M30.9652 33.5445L26.8565 41.5249L26.7261 41.4457L30.8348 33.4785L30.9652 33.5445Z" fill="#5BC2C3"/>
<path d="M30.952 33.4645L30.8476 33.5568L24.3911 26.1568L24.4955 26.0645L30.952 33.4645Z" fill="#5BC2C3"/>
<path d="M33.7303 34.8633C34.3042 34.151 36.0259 33.6366 36.5085 32.6605C36.9912 31.6843 37.1346 30.3521 37.8781 30.0223C38.9845 29.4478 39.9512 28.6324 40.7085 27.6348C41.0738 26.8433 41.4129 26.2498 41.2955 25.7881C41.1781 25.3264 41.6346 24.8779 42.2477 25.4979C42.5151 25.838 42.6816 26.2478 42.7278 26.6798C42.774 27.1118 42.6979 27.5482 42.5085 27.9382C42.1825 28.756 42.5085 28.756 42.7825 28.3339C42.9541 28.1382 43.0751 27.9025 43.1346 27.648C43.1346 27.4105 43.9955 27.582 43.6172 29.1913C43.4901 29.6931 43.2283 30.1496 42.8607 30.5104C42.8607 30.5104 42.8607 30.8006 43.1216 30.5895C43.3825 30.3785 43.6042 30.1806 43.8259 30.4972C44.0477 30.8138 43.2259 31.9614 42.9129 32.0273C42.5999 32.0933 42.7303 32.212 42.9781 32.1592C43.2259 32.1064 43.6042 31.9086 43.7868 32.1592C43.9694 32.4098 43.252 33.0562 42.7694 33.2145C42.2868 33.3728 43.0564 33.2145 43.239 33.4783C43.4216 33.7421 42.9129 34.3621 41.9346 34.2565C41.9346 34.2565 42.8346 34.428 42.4955 34.8633C42.1564 35.2986 41.3477 35.2195 41.3477 35.2195C41.3477 35.2195 41.8694 35.4701 41.3477 35.7999C41.1638 35.8892 40.9644 35.941 40.7607 35.9523C40.557 35.9636 40.3532 35.9342 40.1607 35.8658C40.1607 35.8658 40.6303 36.1296 40.1607 36.4462C39.6912 36.7628 38.8564 36.4462 38.6085 36.4462C37.6976 36.0426 36.6825 35.9455 35.7129 36.1692C34.552 36.5649 33.3912 35.2854 33.7303 34.8633Z" fill="#5BC2C3"/>
<path d="M35.7001 34.5725C36.548 34.2559 38.3088 34.7176 39.2088 34.1504C40.1088 33.5832 40.9306 32.5148 41.8175 32.5807C43.0597 32.6815 44.3083 32.4966 45.4697 32.0399C46.1871 31.565 46.7741 31.2353 46.9175 30.7208C47.061 30.2064 47.6871 30.1272 47.8697 30.9846C47.9302 31.4139 47.8662 31.8518 47.6857 32.2451C47.5051 32.6384 47.2156 32.9703 46.8523 33.2007C46.148 33.7151 46.4219 33.8866 46.8523 33.6887C47.2827 33.4909 47.348 33.4645 47.5175 33.2798C47.6871 33.0951 48.2871 33.6755 47.1393 34.8495C46.7672 35.238 46.2913 35.5084 45.7697 35.6278C45.7697 35.6278 45.6001 35.8652 45.9523 35.8388C46.3045 35.8124 46.5784 35.7597 46.6045 36.1422C46.6306 36.5247 45.3001 37.0656 45.0393 36.9732C44.7784 36.8809 44.7914 36.9732 45.0393 37.1051C45.2871 37.237 45.7045 37.2107 45.7045 37.5536C45.7045 37.8966 44.7914 38.0285 44.2958 37.9098C43.8001 37.791 44.5306 38.1076 44.5567 38.3846C44.5827 38.6616 43.8393 38.9782 43.0697 38.3846C43.0697 38.3846 43.748 39.0178 43.2393 39.2025C42.7306 39.3871 42.0784 38.8991 42.0784 38.8991C42.0784 38.8991 42.3914 39.4003 41.8045 39.4135C41.6016 39.3956 41.4044 39.336 41.225 39.2385C41.0456 39.141 40.8878 39.0075 40.761 38.8463C40.761 38.8463 41.0349 39.3344 40.5001 39.3607C39.9654 39.3871 39.3262 38.7144 39.1958 38.5297C38.6262 37.7071 37.8133 37.0883 36.8741 36.7622C35.5175 36.4456 35.2175 34.744 35.7001 34.5725Z" fill="#5BC2C3"/>
</g>
<defs>
<clipPath id="clip0">
<rect width="300" height="72.549" fill="white"/>
</clipPath>
</defs>
</svg>
