<svg width="250" height="233" viewBox="0 0 250 233" fill="none" xmlns="http://www.w3.org/2000/svg">
<path d="M189.304 197.97C196.062 194.026 221.402 178.741 231.815 148.561C243.445 114.88 229.997 80.512 209.116 60.5798C205.967 57.5827 202.568 54.8256 198.953 52.3319C194.671 49.3773 190.798 45.8624 187.319 41.9937C180.38 34.2786 166.745 22.4111 145.303 18.1205C118.344 12.7261 96.3162 22.7686 86.9452 28.1067C84.0088 29.7794 80.9682 31.2502 77.8087 32.4491C65.5266 37.11 35.2853 51.3089 25.1335 81.5635C22.235 90.2005 21.6149 98.2481 21.9451 104.961C22.2582 111.327 21.7438 117.741 20.4011 123.972C19.5318 128.006 19.0306 132.098 18.906 136.204C18.0832 166.576 38.0087 202.332 73.7244 212.723C88.8981 217.137 103.295 215.927 114.196 213.533C118.911 212.498 123.736 212.091 128.556 212.347C141.313 213.025 165.218 212.023 189.304 197.97Z" fill="white"/>
<path d="M45.545 111.077C45.8196 111.282 45.9857 111.546 46.0433 111.869C46.0515 111.915 46.0597 111.961 46.068 112.007C46.103 112.382 45.9977 112.726 45.7521 113.04L45.729 113.044C45.5366 113.3 45.2866 113.456 44.979 113.511C44.9328 113.519 44.8853 113.519 44.8364 113.512C44.4772 113.545 44.1498 113.444 43.8543 113.211C43.209 112.707 42.4867 112.217 41.6875 111.741C41.3877 111.572 41.2089 111.326 41.1513 111.003C41.0937 110.68 41.1702 110.396 41.3806 110.153C41.629 109.854 41.9378 109.672 42.307 109.607C42.3224 109.604 42.3378 109.601 42.3531 109.598C42.7069 109.535 43.0415 109.587 43.3568 109.753C44.1631 110.18 44.8925 110.622 45.545 111.077ZM45.515 114.915C45.6551 114.811 45.8021 114.745 45.9559 114.717C46.079 114.695 46.2138 114.695 46.3605 114.717C46.6566 114.775 46.8845 114.941 47.0443 115.214C47.1206 115.375 47.1725 115.532 47.1999 115.686C47.2301 115.855 47.2295 116.03 47.1981 116.21C47.148 116.552 46.9933 116.842 46.7339 117.078C45.8284 117.875 44.9965 118.594 44.2382 119.237C44.0448 119.399 43.8327 119.5 43.602 119.541C43.4789 119.563 43.3531 119.57 43.2245 119.561C42.8543 119.532 42.5404 119.373 42.2828 119.086C42.1241 118.908 42.0256 118.711 41.9872 118.496C41.9652 118.373 41.9664 118.246 41.9906 118.114C42.0379 117.757 42.208 117.465 42.5009 117.238C43.1762 116.752 44.1809 115.978 45.515 114.915ZM50.2351 114.55C50.1274 114.569 50.0832 114.632 50.1024 114.74L50.3286 116.009C50.3478 116.117 50.4112 116.161 50.5189 116.142L54.0492 115.512C54.1723 115.49 54.2242 115.426 54.205 115.318L53.9788 114.049C53.9596 113.941 53.8884 113.898 53.7654 113.92L50.2351 114.55ZM53.4075 111.913C53.5306 111.891 53.5811 111.818 53.5592 111.695L53.3453 110.496C53.3234 110.373 53.2509 110.322 53.1278 110.344L49.5975 110.973C49.4898 110.992 49.447 111.064 49.4689 111.187L49.6828 112.386C49.7047 112.51 49.7696 112.561 49.8772 112.542L53.4075 111.913ZM63.2453 118.087C63.5326 118.274 63.7064 118.536 63.7667 118.875C63.827 119.213 63.7561 119.527 63.5538 119.817C63.3642 120.089 63.1002 120.255 62.7618 120.316L57.3395 121.282C57.3087 121.288 57.2884 121.307 57.2785 121.341C57.2812 121.356 57.2994 121.369 57.3329 121.379C59.1828 122.319 61.3454 122.965 63.8206 123.317C64.1321 123.373 64.3523 123.54 64.4813 123.818C64.5286 123.905 64.5604 123.995 64.5769 124.087C64.6098 124.272 64.5721 124.461 64.4638 124.655C64.416 124.743 64.3695 124.838 64.3245 124.941C64.1359 125.308 63.868 125.586 63.5208 125.775C63.3598 125.851 63.187 125.906 63.0024 125.939C62.8025 125.975 62.5956 125.972 62.382 125.93C59.7733 125.364 57.3902 124.416 55.2328 123.086C55.1993 123.076 55.1685 123.082 55.1405 123.103C55.1097 123.108 55.0984 123.134 55.1067 123.18L55.7113 126.572C55.7772 126.941 55.7026 127.28 55.4877 127.588C55.2756 127.912 54.9772 128.108 54.5927 128.176L54.5004 128.193C54.1158 128.261 53.7681 128.18 53.4573 127.95C53.1491 127.735 52.9622 127.443 52.8963 127.074L52.2752 123.59C52.2697 123.559 52.2516 123.546 52.2209 123.552C52.1873 123.542 52.1566 123.547 52.1286 123.568C50.6667 125.606 48.7871 127.394 46.4899 128.93C46.3036 129.043 46.1028 129.118 45.8875 129.157C45.7336 129.184 45.568 129.19 45.3906 129.174C45.0022 129.132 44.6562 128.971 44.3525 128.692C44.2591 128.614 44.1748 128.541 44.0995 128.475C43.9309 128.331 43.8288 128.159 43.7932 127.959C43.7794 127.882 43.7797 127.794 43.7941 127.697C43.8161 127.375 43.9651 127.142 44.2409 126.998C46.3595 125.795 48.1392 124.383 49.5801 122.761C49.6081 122.74 49.6131 122.723 49.5949 122.711C49.5895 122.68 49.5713 122.667 49.5406 122.673L44.1875 123.627C43.8491 123.687 43.5362 123.624 43.249 123.437C42.9744 123.232 42.8069 122.96 42.7466 122.622C42.6862 122.284 42.7509 121.979 42.9405 121.707C43.1427 121.417 43.413 121.241 43.7514 121.181L51.4119 119.816C51.535 119.794 51.5869 119.729 51.5677 119.621L51.3456 118.375C51.3264 118.267 51.2553 118.225 51.1322 118.246L49.494 118.539C49.1248 118.604 48.7785 118.531 48.455 118.319C48.1441 118.089 47.9558 117.789 47.8899 117.42L46.6888 110.682C46.623 110.313 46.6975 109.975 46.9124 109.666C47.1399 109.34 47.4383 109.144 47.8075 109.078L49.0765 108.852C49.1842 108.833 49.2438 108.767 49.2554 108.654C49.283 108.363 49.3028 108.074 49.315 107.786C49.3233 107.388 49.4608 107.046 49.7273 106.76C49.9559 106.529 50.224 106.386 50.5317 106.331C50.5932 106.32 50.647 106.31 50.6932 106.302L51.1167 106.274C51.4606 106.245 51.7509 106.36 51.9876 106.619C52.1255 106.769 52.2108 106.936 52.2437 107.121C52.2657 107.244 52.2659 107.379 52.2444 107.526C52.1861 107.822 52.1435 108.028 52.1165 108.143C52.1094 108.192 52.1162 108.231 52.1371 108.259C52.1734 108.284 52.2146 108.293 52.2607 108.284L54.3143 107.918C54.6834 107.853 55.0235 107.935 55.3343 108.165C55.6578 108.377 55.8525 108.668 55.9183 109.037L56.0664 109.868C56.0719 109.898 56.0914 109.919 56.1249 109.929C56.1584 109.939 56.1815 109.934 56.1941 109.916C56.8832 109.063 57.5405 108.121 58.166 107.089C58.3754 106.75 58.6669 106.515 59.0405 106.385C59.13 106.354 59.2286 106.328 59.3363 106.309C59.5978 106.262 59.8716 106.285 60.1578 106.377L60.2353 106.41C60.5758 106.54 60.7994 106.77 60.9058 107.1C60.9168 107.162 60.9264 107.216 60.9346 107.262C60.984 107.539 60.9279 107.803 60.7663 108.054C60.2354 108.815 59.6836 109.548 59.111 110.253C58.8527 110.585 58.525 110.794 58.1278 110.881C58.097 110.886 58.0663 110.892 58.0355 110.897C57.6663 110.963 57.301 110.917 56.9396 110.759L56.32 110.489C56.2865 110.479 56.2557 110.485 56.2277 110.505C56.1997 110.526 56.1884 110.552 56.1939 110.583L56.6546 113.167C56.6601 113.198 56.6719 113.22 56.69 113.232C56.7235 113.242 56.7529 113.229 56.7782 113.193L56.7972 113.166C57.0038 112.811 57.3003 112.56 57.6865 112.412C57.7914 112.377 57.8977 112.35 58.0054 112.331C58.2823 112.282 58.5548 112.297 58.8228 112.376C60.1043 112.798 61.2433 113.222 62.2397 113.648C62.5857 113.808 62.8147 114.069 62.9267 114.43C62.953 114.489 62.9717 114.549 62.9827 114.61C63.0348 114.903 62.9814 115.182 62.8226 115.448C62.6439 115.782 62.3664 116.006 61.9901 116.12C61.9439 116.129 61.8901 116.138 61.8286 116.149C61.5209 116.204 61.2199 116.162 60.9255 116.024C59.7605 115.454 58.4584 114.917 57.0193 114.412C56.9858 114.402 56.9564 114.415 56.9311 114.451C56.9031 114.472 56.8918 114.498 56.8973 114.529L57.1194 115.775C57.1852 116.144 57.1044 116.491 56.8769 116.818C56.662 117.126 56.3699 117.313 56.0008 117.379L54.3164 117.679C54.1933 117.701 54.1414 117.766 54.1606 117.873L54.3827 119.119C54.4019 119.227 54.473 119.27 54.5961 119.248L62.3258 117.87C62.6642 117.81 62.9707 117.882 63.2453 118.087ZM68.1658 105.758C68.1576 105.712 68.1494 105.666 68.1411 105.62C68.089 105.328 68.1424 105.048 68.3012 104.782C68.47 104.482 68.7236 104.302 69.062 104.242C69.0774 104.239 69.085 104.238 69.085 104.238L70.1464 104.048C70.503 104.001 70.8199 104.087 71.0973 104.307C71.3411 104.518 71.4891 104.769 71.5412 105.062C71.5494 105.108 71.559 105.162 71.57 105.223C71.6209 105.865 71.6867 106.456 71.7672 106.997C72.283 111.048 72.8165 114.619 73.3677 117.711C73.7379 119.787 74.9998 120.634 77.1533 120.25C80.0145 119.74 82.1961 118.089 83.6983 115.298C83.867 114.998 84.1192 114.81 84.4549 114.734C84.4703 114.732 84.4857 114.729 84.501 114.726C84.8241 114.668 85.1075 114.745 85.3514 114.955L85.8572 115.389C86.179 115.681 86.377 116.034 86.451 116.45C86.5168 116.819 86.4541 117.179 86.2628 117.531C85.8847 118.169 85.4458 118.779 84.9463 119.36C84.4594 119.923 83.8685 120.481 83.1734 121.034C82.481 121.601 81.6646 122.096 80.724 122.518C79.7834 122.939 78.7747 123.246 77.6979 123.438C75.6982 123.795 74.0623 123.61 72.7902 122.885C71.5181 122.159 70.7107 120.835 70.3679 118.912C70.1622 117.758 69.8401 115.729 69.4015 112.823C68.9601 109.902 68.6873 108.149 68.5831 107.565C68.4706 106.934 68.3316 106.332 68.1658 105.758ZM100.061 99.0487C100.261 98.7433 100.543 98.5423 100.906 98.4457C100.95 98.4221 100.987 98.4076 101.017 98.4021C101.34 98.3445 101.644 98.4015 101.929 98.5729L102.736 99.0956C103.036 99.2643 103.215 99.5102 103.272 99.8333C103.341 100.218 103.248 100.544 102.994 100.811C102.863 100.962 102.577 101.275 102.138 101.75C102.021 101.897 101.244 102.79 99.8061 104.427C98.3652 106.049 97.3837 107.176 96.8617 107.809C96.4995 108.27 96.2761 108.619 96.1914 108.857C96.1194 109.076 96.1641 109.282 96.3256 109.476C96.487 109.669 96.8251 109.918 97.3397 110.223C97.3732 110.233 98.5547 110.895 100.884 112.21C103.213 113.525 104.941 114.534 106.066 115.238C106.372 115.438 106.557 115.722 106.623 116.091C106.689 116.46 106.613 116.791 106.395 117.084L105.799 117.881C105.579 118.158 105.292 118.328 104.938 118.391C104.923 118.394 104.9 118.398 104.869 118.404C104.497 118.454 104.157 118.372 103.849 118.157C103.082 117.595 102.635 117.27 102.508 117.182C101.392 116.349 98.6912 114.688 94.4065 112.198C93.5222 111.689 92.923 111.177 92.6089 110.662C92.4601 110.45 92.3638 110.222 92.3199 109.975C92.2678 109.683 92.2912 109.369 92.3902 109.034C92.5738 108.462 93.0067 107.774 93.6886 106.97C96.6577 103.504 98.5292 101.226 99.303 100.136C99.5838 99.7528 99.8366 99.3903 100.061 99.0487ZM115.421 97.3342C115.413 97.2881 115.404 97.2419 115.396 97.1958C115.344 96.9035 115.397 96.6242 115.556 96.3578C115.725 96.0579 115.979 95.8778 116.317 95.8175C116.332 95.8147 116.34 95.8134 116.34 95.8134L117.401 95.6241C117.758 95.5764 118.075 95.6628 118.352 95.8832C118.596 96.0936 118.744 96.345 118.796 96.6373C118.804 96.6834 118.814 96.7372 118.825 96.7988C118.876 97.4404 118.942 98.0318 119.022 98.5729C119.538 102.623 120.071 106.195 120.623 109.286C120.993 111.363 122.255 112.209 124.408 111.826C127.269 111.315 129.451 109.665 130.953 106.873C131.122 106.574 131.374 106.386 131.71 106.31C131.725 106.307 131.741 106.305 131.756 106.302C132.079 106.244 132.362 106.321 132.606 106.531L133.112 106.965C133.434 107.257 133.632 107.61 133.706 108.025C133.772 108.395 133.709 108.755 133.518 109.106C133.14 109.745 132.701 110.355 132.201 110.936C131.714 111.499 131.123 112.057 130.428 112.609C129.736 113.177 128.92 113.672 127.979 114.093C127.038 114.515 126.03 114.822 124.953 115.014C122.953 115.37 121.317 115.186 120.045 114.46C118.773 113.735 117.966 112.411 117.623 110.488C117.417 109.334 117.095 107.305 116.656 104.399C116.215 101.478 115.942 99.7251 115.838 99.1406C115.726 98.5099 115.587 97.9078 115.421 97.3342ZM141.501 102.874C141.346 102.981 141.183 103.05 141.014 103.08C140.845 103.11 140.661 103.103 140.463 103.059C140.1 102.981 139.817 102.778 139.616 102.449L139.314 101.955C139.227 101.827 139.172 101.694 139.147 101.556C139.114 101.371 139.135 101.177 139.21 100.973C139.324 100.636 139.543 100.39 139.864 100.238C140.291 100.051 140.657 99.8743 140.961 99.709C141.035 99.6799 141.334 99.5314 141.857 99.2635C142.381 98.9956 142.796 98.7867 143.102 98.6368C143.422 98.4688 143.875 98.253 144.463 97.9895C145.064 97.7079 145.586 97.4798 146.031 97.3052C146.476 97.1306 146.969 96.9555 147.509 96.7799C148.065 96.6015 148.573 96.4712 149.034 96.3889C150.88 96.0599 152.458 96.3182 153.767 97.1641C155.089 97.9918 155.907 99.2824 156.219 101.036C156.581 103.066 156.048 104.884 154.62 106.487C153.189 108.076 150.898 109.333 147.746 110.26C147.684 110.271 147.623 110.282 147.561 110.293C147.223 110.353 146.9 110.324 146.593 110.204C146.201 110.051 145.895 109.804 145.675 109.463L145.417 109.08C145.349 108.965 145.304 108.846 145.282 108.723C145.251 108.554 145.269 108.384 145.334 108.214C145.469 107.904 145.695 107.705 146.013 107.617C147.593 107.224 148.929 106.748 150.02 106.188C151.11 105.629 151.941 104.949 152.513 104.149C153.084 103.349 153.287 102.479 153.119 101.541C152.963 100.664 152.528 100.004 151.814 99.5597C151.1 99.1157 150.235 98.9841 149.22 99.1651C147.512 99.4695 144.939 100.706 141.501 102.874ZM164.808 88.3156C164.773 87.941 164.864 87.6073 165.082 87.3145C165.289 87.0553 165.539 86.8996 165.832 86.8475C165.878 86.8393 165.925 86.8388 165.974 86.8459L166.748 86.7794C167.125 86.7597 167.44 86.8782 167.692 87.1348C167.884 87.3228 168.002 87.5398 168.046 87.7859C168.063 87.8782 168.071 87.9719 168.072 88.0669C168.065 88.2905 168.062 88.4973 168.064 88.6874C168.062 88.7671 168.049 89.5392 168.025 91.0037C168.018 91.0526 168.032 91.0897 168.068 91.115C168.105 91.1402 168.146 91.1488 168.192 91.1405C169.089 90.9172 169.675 90.7809 169.952 90.7315C172.767 90.2297 174.441 91.4709 174.973 94.4551C175.258 96.0548 175.434 97.6661 175.501 99.2889C175.581 100.894 175.474 102.206 175.179 103.227C174.947 104.062 174.545 104.697 173.972 105.132C173.401 105.583 172.647 105.892 171.709 106.06C171.263 106.139 170.772 106.195 170.239 106.226C169.828 106.236 169.45 106.121 169.106 105.881C168.777 105.638 168.544 105.314 168.409 104.91L168.27 104.53C168.243 104.471 168.225 104.411 168.214 104.35C168.172 104.119 168.228 103.895 168.379 103.677C168.534 103.475 168.734 103.352 168.98 103.308C169.042 103.297 169.105 103.294 169.169 103.298C169.868 103.301 170.394 103.27 170.748 103.207C171.609 103.054 172.133 102.611 172.32 101.88C172.518 101.209 172.595 100.259 172.55 99.0293C172.506 97.7993 172.371 96.5536 172.146 95.2923C171.992 94.4308 171.714 93.8932 171.311 93.6794C170.908 93.4656 170.291 93.4327 169.46 93.5808C169.26 93.6165 168.789 93.7322 168.046 93.9281C167.938 93.9473 167.88 94.0212 167.871 94.1498C167.507 98.9603 166.823 102.915 165.82 106.014C165.696 106.386 165.46 106.666 165.113 106.855C164.955 106.946 164.791 107.007 164.622 107.037C164.422 107.073 164.215 107.07 164.001 107.029L163.411 106.92C163.078 106.836 162.829 106.643 162.664 106.339C162.611 106.221 162.575 106.109 162.556 106.001C162.518 105.786 162.544 105.575 162.634 105.368C163.733 102.633 164.46 99.186 164.814 95.0281C164.821 94.9792 164.807 94.9421 164.77 94.9168C164.749 94.8888 164.716 94.8789 164.67 94.8872C163.886 95.122 163.286 95.3163 162.869 95.47C162.567 95.5556 162.161 95.6835 161.652 95.8537C161.59 95.8646 161.529 95.8756 161.467 95.8866C161.175 95.9387 160.897 95.893 160.634 95.7496C160.3 95.5709 160.085 95.2998 159.989 94.9361L159.864 94.5059C159.77 94.1576 159.823 93.8307 160.023 93.5254C160.238 93.2172 160.521 93.0239 160.872 92.9455C161.025 92.9181 161.233 92.881 161.495 92.8344C161.753 92.7724 161.921 92.7346 161.998 92.7209C162.688 92.5821 163.63 92.3505 164.826 92.0262C164.934 92.007 164.985 91.9345 164.978 91.8087C164.987 90.5216 164.93 89.3572 164.808 88.3156ZM174.958 90.1009C174.8 89.9229 174.701 89.7262 174.663 89.5109C174.643 89.4032 174.64 89.2928 174.651 89.1796C174.683 88.8247 174.85 88.557 175.151 88.3763L175.449 88.1803C175.633 88.0523 175.832 87.9692 176.047 87.9308C176.217 87.9006 176.384 87.9026 176.548 87.9367C176.952 87.9758 177.284 88.1468 177.544 88.4495C178.896 90.0655 180.237 91.9771 181.567 94.1842C181.661 94.3578 181.723 94.5293 181.753 94.6985C181.786 94.883 181.781 95.0745 181.737 95.2728C181.649 95.6694 181.442 95.9761 181.115 96.193L180.672 96.5102C180.516 96.6172 180.362 96.6845 180.208 96.7119C180.054 96.7393 179.886 96.7297 179.703 96.6829C179.37 96.5993 179.12 96.3979 178.952 96.0787C177.733 93.6931 176.402 91.7005 174.958 90.1009ZM186.296 84.3897C186.258 83.9996 186.356 83.6568 186.589 83.3614C186.806 83.0686 187.084 82.8921 187.423 82.8318C187.454 82.8263 187.477 82.8222 187.492 82.8194L188.004 82.752C188.345 82.7071 188.648 82.8038 188.913 83.0423C189.105 83.2302 189.221 83.4396 189.263 83.6703C189.279 83.7626 189.288 83.8563 189.289 83.9513C189.227 85.2955 189.226 86.4464 189.285 87.404C189.276 87.4375 189.278 87.4528 189.294 87.4501C189.324 87.4446 189.346 87.4328 189.359 87.4147C189.824 86.2843 190.487 85.2852 191.348 84.4175C192.206 83.5344 193.228 82.9873 194.412 82.7761C196.073 82.4799 197.586 82.9959 198.95 84.3241C200.326 85.6341 201.239 87.5505 201.689 90.0732C202.215 93.0267 201.855 95.5033 200.609 97.5031C199.362 99.5029 197.378 101.103 194.655 102.302C194.51 102.376 194.36 102.426 194.206 102.454C193.975 102.495 193.727 102.483 193.462 102.42C193.066 102.332 192.72 102.131 192.427 101.819L192.071 101.43C191.936 101.295 191.854 101.143 191.824 100.974C191.804 100.866 191.815 100.745 191.854 100.611C191.925 100.297 192.108 100.074 192.402 99.9423C193.56 99.4977 194.539 99.0217 195.337 98.5143C196.133 97.9916 196.823 97.3685 197.408 96.6452C197.991 95.9065 198.369 95.0455 198.543 94.0622C198.729 93.0608 198.71 91.9295 198.485 90.6681C198.167 88.8837 197.645 87.5563 196.918 86.686C196.189 85.8002 195.332 85.4451 194.348 85.6206C193.471 85.7769 192.687 86.3214 191.996 87.2539C191.318 88.1684 190.833 89.231 190.541 90.4417C190.262 91.6342 190.199 92.7485 190.351 93.7846C190.372 93.9874 190.4 94.1887 190.435 94.3887L190.565 94.9845C190.626 95.3229 190.564 95.6434 190.38 95.9461C190.201 96.2795 189.929 96.4868 189.562 96.5679L189.382 96.6239C189.335 96.6322 189.297 96.639 189.266 96.6445C188.928 96.7048 188.609 96.6506 188.309 96.4819C187.973 96.2879 187.747 96.0027 187.633 95.6264C187.394 94.7325 187.205 93.8933 187.065 93.1088C186.708 91.1091 186.478 88.5711 186.374 85.4947C186.362 85.1634 186.336 84.7951 186.296 84.3897ZM74.0513 141.443C74.1997 141.385 74.3508 141.343 74.5046 141.315C75.166 141.197 75.7577 141.266 76.2795 141.522C76.5766 141.676 76.7938 141.915 76.9311 142.24C76.9656 142.344 76.9911 142.443 77.0076 142.535C77.0487 142.766 77.027 143 76.9423 143.237C76.8928 143.405 76.8483 143.556 76.8087 143.69C76.2004 146.242 75.379 148.579 74.3445 150.7C74.284 150.806 74.3068 150.889 74.4128 150.949C76.5466 152.236 78.7411 153.773 80.9962 155.561C81.2554 155.769 81.4152 156.042 81.4755 156.38C81.481 156.411 81.4879 156.449 81.4961 156.496C81.5312 156.87 81.4322 157.205 81.1992 157.501L80.6518 158.17C80.4441 158.429 80.1941 158.585 79.9018 158.637C79.8557 158.645 79.8005 158.647 79.7362 158.642C79.3769 158.675 79.0559 158.565 78.773 158.314C77.0941 156.82 75.1001 155.295 72.7911 153.738C72.6824 153.662 72.5978 153.678 72.5373 153.784C70.6226 156.664 68.4572 159.074 66.0411 161.012C65.8043 161.198 65.5398 161.316 65.2475 161.368C65.1552 161.385 65.0539 161.395 64.9434 161.399C64.5325 161.408 64.1612 161.284 63.8295 161.026L63.1729 160.548C62.9554 160.396 62.8261 160.205 62.7849 159.974C62.774 159.913 62.7693 159.842 62.771 159.762C62.7903 159.426 62.9351 159.17 63.2055 158.994C64.6736 157.971 66.046 156.766 67.3225 155.38C68.6117 153.976 69.6827 152.594 70.5357 151.236C71.1331 150.225 71.6553 149.148 72.1023 148.005C72.5646 146.859 72.8615 145.854 72.9931 144.989C73.0002 144.94 72.9857 144.903 72.9495 144.878C72.9286 144.85 72.8951 144.84 72.8489 144.848L65.0039 146.247C64.6347 146.312 64.1606 146.413 63.5815 146.548C63.5535 146.569 63.5241 146.582 63.4933 146.587C63.1703 146.645 62.8652 146.58 62.5779 146.393C62.2572 146.197 62.0639 145.914 61.9981 145.544L61.8829 144.898C61.8198 144.545 61.9048 144.22 62.1378 143.924C62.3428 143.65 62.6068 143.484 62.9298 143.426C62.9606 143.421 62.9913 143.415 63.0221 143.41C63.5995 143.354 64.0804 143.292 64.465 143.224L72.7946 141.739C73.2253 141.662 73.6442 141.564 74.0513 141.443ZM102.019 144.219C102.124 144.184 102.231 144.157 102.338 144.138C102.569 144.097 102.812 144.125 103.068 144.222C103.408 144.352 103.65 144.595 103.792 144.95L103.94 145.376C103.987 145.463 104.018 145.545 104.031 145.622C104.078 145.883 104.037 146.144 103.909 146.405C103.746 146.736 103.485 146.965 103.127 147.092C102.991 147.132 102.797 147.199 102.543 147.292C102.287 147.369 102.115 147.424 102.025 147.455C101.101 147.795 99.5035 148.357 97.2312 149.143C97.1109 149.181 97.0771 149.258 97.1298 149.376C97.3763 150.046 97.6741 150.826 98.0232 151.716C98.3877 152.603 98.6018 153.137 98.6655 153.316C98.7763 153.582 98.9199 153.897 99.0961 154.263C99.1461 154.365 99.1821 154.477 99.204 154.6C99.2424 154.816 99.2116 155.044 99.1115 155.284C98.9818 155.624 98.7455 155.857 98.4026 155.981L97.689 156.251C97.6148 156.28 97.5393 156.302 97.4623 156.316C97.1855 156.365 96.9166 156.326 96.6557 156.198C96.325 156.034 96.1037 155.772 95.9917 155.411C95.8534 154.991 95.7379 154.655 95.6451 154.402C95.436 153.852 94.929 152.522 94.1243 150.411C94.0897 150.306 94.02 150.271 93.915 150.306C91.2565 151.24 89.4822 151.882 88.5921 152.231C88.2185 152.361 87.8834 152.484 87.5867 152.601C87.4999 152.648 87.4104 152.68 87.3181 152.696C87.0566 152.743 86.7967 152.71 86.5386 152.597C86.1953 152.452 85.9523 152.201 85.8095 151.846L85.6078 151.382C85.576 151.292 85.5518 151.202 85.5354 151.109C85.4915 150.863 85.5349 150.617 85.6658 150.372C85.829 150.041 86.0848 149.829 86.4331 149.735C86.538 149.7 86.899 149.589 87.516 149.399C87.6363 149.362 89.4147 148.743 92.8512 147.543C92.9561 147.509 92.9899 147.431 92.9526 147.311L91.6937 143.988C91.6591 143.883 91.5816 143.849 91.4613 143.887C90.6988 144.15 89.7955 144.469 88.7517 144.846C87.7204 145.204 87.1831 145.395 87.1397 145.419C86.8277 145.538 86.5527 145.643 86.3148 145.733C86.2126 145.783 86.1154 145.816 86.0231 145.832C85.7769 145.876 85.5262 145.85 85.2708 145.752C84.9275 145.607 84.6921 145.355 84.5648 144.997L84.3466 144.441C84.2994 144.354 84.2689 144.272 84.2552 144.195C84.2113 143.949 84.2548 143.703 84.3856 143.458C84.567 143.14 84.8318 142.934 85.1801 142.84C85.4669 142.757 85.7383 142.677 85.9943 142.6C86.9876 142.296 88.4554 141.804 90.3975 141.124C90.5024 141.09 90.5376 141.02 90.503 140.915C90.3812 140.588 90.2343 140.209 90.0625 139.779C89.8907 139.35 89.7889 139.09 89.757 139.001C89.6988 138.852 89.6316 138.698 89.5553 138.537C89.5053 138.435 89.4707 138.33 89.4515 138.222C89.4104 137.991 89.4399 137.756 89.5399 137.516C89.6696 137.175 89.9073 136.95 90.2529 136.841L90.8784 136.611C90.9525 136.581 91.0281 136.56 91.105 136.546C91.3819 136.497 91.6521 136.544 91.9158 136.687C92.2618 136.848 92.4908 137.109 92.6028 137.47C92.6665 137.649 92.726 137.805 92.7815 137.938C92.8298 138.12 93.0644 138.768 93.4854 139.883C93.5228 140.004 93.6002 140.038 93.7178 139.985C96.3022 139.08 97.7504 138.568 98.0625 138.449C98.3591 138.332 98.6481 138.217 98.9294 138.104C99.0344 138.069 99.133 138.043 99.2253 138.027C99.4714 137.983 99.7222 138.01 99.9776 138.107C100.321 138.252 100.555 138.496 100.679 138.839L100.823 139.242C100.855 139.332 100.877 139.415 100.891 139.492C100.938 139.753 100.897 140.014 100.769 140.275C100.606 140.606 100.345 140.835 99.9866 140.962C99.5669 141.101 99.3046 141.187 99.1996 141.222L94.7585 142.751C94.6536 142.786 94.6198 142.863 94.6571 142.984L95.935 146.279C95.985 146.382 96.0625 146.415 96.1674 146.381C98.9589 145.391 100.562 144.812 100.976 144.643C101.393 144.489 101.741 144.348 102.019 144.219ZM109.717 137.585C109.386 137.422 109.174 137.166 109.08 136.818C109.072 136.772 109.064 136.725 109.055 136.679C109.001 136.372 109.06 136.083 109.234 135.814L109.515 135.383C109.74 135.042 110.04 134.813 110.416 134.699C110.478 134.688 110.539 134.677 110.601 134.666C110.909 134.611 111.219 134.659 111.531 134.809C113.185 135.626 114.708 136.473 116.103 137.351C116.442 137.561 116.646 137.858 116.714 138.242C116.78 138.611 116.705 138.95 116.491 139.258L116.078 139.879C115.863 140.187 115.563 140.376 115.178 140.444C114.809 140.51 114.472 140.443 114.167 140.244C112.728 139.294 111.244 138.408 109.717 137.585ZM113.964 152.731C113.816 152.789 113.673 152.831 113.534 152.855C113.288 152.899 113.034 152.897 112.771 152.848C112.372 152.745 112.025 152.537 111.731 152.224L111.057 151.511C110.937 151.374 110.862 151.221 110.832 151.051C110.81 150.928 110.819 150.8 110.858 150.666C110.929 150.352 111.121 150.135 111.433 150.016C114.195 148.952 116.594 147.54 118.629 145.781C120.141 144.464 121.464 142.982 122.598 141.336C123.731 139.674 124.587 138.021 125.167 136.378C125.274 136.089 125.466 135.92 125.743 135.871C125.758 135.868 125.766 135.867 125.766 135.867C126.043 135.817 126.272 135.903 126.455 136.125L127.154 136.976C127.417 137.294 127.586 137.661 127.66 138.076C127.739 138.523 127.695 138.943 127.527 139.338C126.829 140.939 125.905 142.524 124.757 144.093C123.605 145.648 122.303 147.07 120.851 148.361C118.722 150.216 116.426 151.673 113.964 152.731ZM137.964 132.311C137.957 132.36 137.964 132.399 137.985 132.427C138.021 132.452 138.062 132.46 138.108 132.452L148.122 130.667C148.507 130.598 148.875 130.525 149.226 130.446C149.241 130.444 149.264 130.44 149.295 130.434C149.618 130.377 149.929 130.432 150.229 130.601C150.535 130.8 150.719 131.077 150.782 131.431L150.872 131.938C150.938 132.308 150.862 132.639 150.645 132.931C150.424 133.209 150.137 133.379 149.783 133.442C149.768 133.445 149.753 133.447 149.737 133.45C149.445 133.502 149.084 133.567 148.653 133.644L145.515 134.203C145.392 134.225 145.34 134.29 145.359 134.397C145.93 139.914 144.65 144.356 141.521 147.723C141.226 148.03 140.872 148.22 140.456 148.294C140.056 148.365 139.659 148.317 139.264 148.149L138.23 147.691C137.972 147.578 137.819 147.391 137.773 147.13C137.715 146.807 137.817 146.534 138.079 146.313C138.436 145.996 138.731 145.697 138.967 145.417C141.426 142.741 142.457 139.263 142.059 134.986C142.056 134.875 141.992 134.831 141.869 134.853L137.231 135.68C137.124 135.699 137.049 135.768 137.006 135.886C136.452 137.493 135.765 138.941 134.947 140.229C134.738 140.568 134.43 140.798 134.023 140.918C133.961 140.929 133.892 140.941 133.815 140.955C133.492 141.012 133.176 140.974 132.866 140.838L132.154 140.584C131.813 140.455 131.609 140.198 131.54 139.813C131.488 139.521 131.552 139.255 131.732 139.017C132.607 137.782 133.385 136.27 134.066 134.482C134.415 133.595 134.686 132.443 134.878 131.028C134.926 130.671 134.961 130.291 134.985 129.89C134.996 129.507 135.129 129.182 135.383 128.915C135.57 128.723 135.795 128.603 136.057 128.557C136.134 128.543 136.22 128.535 136.315 128.534L137.321 128.569C137.67 128.57 137.957 128.71 138.181 128.987C138.306 129.155 138.385 129.332 138.418 129.516C138.443 129.655 138.444 129.797 138.423 129.944C138.393 130.045 138.361 130.177 138.327 130.342C138.308 130.504 138.294 130.602 138.284 130.635C138.273 130.748 138.246 130.912 138.205 131.126C138.164 131.339 138.121 131.545 138.077 131.744C138.048 131.939 138.011 132.128 137.964 132.311ZM162.628 131.509C162.57 131.186 162.626 130.875 162.795 130.575C162.994 130.269 163.271 130.085 163.625 130.022L164.317 129.899C164.701 129.83 165.048 129.903 165.356 130.118C165.664 130.333 165.851 130.625 165.917 130.994C165.92 131.01 165.921 131.017 165.921 131.017C166.07 131.943 166.182 132.749 166.256 133.434C166.328 134.103 166.374 134.849 166.393 135.671C166.413 136.493 166.356 137.241 166.222 137.915C166.086 138.575 165.883 139.261 165.613 139.976C165.344 140.691 164.961 141.394 164.466 142.085C163.983 142.759 163.386 143.42 162.677 144.071C162.418 144.307 162.119 144.456 161.78 144.516C161.719 144.527 161.656 144.53 161.592 144.526C161.186 144.567 160.799 144.485 160.429 144.281L159.688 143.865C159.476 143.744 159.35 143.569 159.309 143.338C159.3 143.292 159.291 143.238 159.28 143.176C159.274 142.876 159.397 142.632 159.649 142.444C160.026 142.155 160.389 141.828 160.736 141.464C161.976 140.228 162.721 138.928 162.97 137.567C163.234 136.202 163.179 134.466 162.803 132.359L162.628 131.509ZM171.31 123.724C171.403 123.708 171.495 123.691 171.587 123.675C172.372 123.535 173.06 123.658 173.653 124.044C173.958 124.244 174.158 124.518 174.252 124.866C174.26 124.912 174.267 124.951 174.272 124.981C174.33 125.304 174.29 125.613 174.152 125.908C174.104 125.995 174.07 126.073 174.05 126.14C173.671 127.128 173.159 128.219 172.515 129.413C171.868 130.592 171.169 131.653 170.416 132.597C170.171 132.91 169.856 133.101 169.471 133.17C169.456 133.173 169.448 133.174 169.448 133.174C169.045 133.23 168.66 133.164 168.294 132.975L167.948 132.775C167.664 132.603 167.494 132.364 167.439 132.056C167.376 131.702 167.464 131.393 167.702 131.128C168.268 130.472 168.779 129.778 169.236 129.046C169.705 128.295 170.034 127.649 170.223 127.108C170.246 127.056 170.239 127.018 170.203 126.993C170.182 126.965 170.156 126.953 170.125 126.959L157.989 129.122C157.512 129.207 157.001 129.322 156.455 129.467C156.424 129.473 156.393 129.478 156.363 129.484C156.04 129.541 155.735 129.477 155.447 129.29C155.142 129.09 154.956 128.806 154.891 128.437L154.792 127.883C154.729 127.529 154.806 127.206 155.024 126.913C155.234 126.669 155.493 126.52 155.801 126.465C155.832 126.46 155.87 126.453 155.916 126.445C156.447 126.397 156.967 126.329 157.474 126.238L170.211 123.968C170.534 123.91 170.901 123.829 171.31 123.724ZM190.237 131.872C190.032 132.147 189.753 132.316 189.399 132.379C189.061 132.439 188.74 132.377 188.438 132.193C188.15 132.006 187.952 131.74 187.843 131.395L185.906 124.669L185.45 122.513C185.384 122.143 185.459 121.805 185.674 121.497C185.886 121.173 186.177 120.979 186.546 120.913L188.138 120.629C188.507 120.563 188.847 120.645 189.158 120.876C189.466 121.09 189.645 121.384 189.696 121.756L190.013 123.937L190.543 130.913C190.56 131.275 190.458 131.595 190.237 131.872ZM192.157 137.696C191.772 138.209 191.226 138.529 190.518 138.655C189.811 138.781 189.188 138.67 188.649 138.322C188.111 137.973 187.782 137.46 187.661 136.784C187.54 136.107 187.671 135.504 188.053 134.976C188.45 134.445 188.995 134.117 189.687 133.994C190.379 133.871 190.996 133.991 191.537 134.355C192.093 134.716 192.432 135.235 192.553 135.912C192.673 136.588 192.541 137.183 192.157 137.696Z" fill="#5BC2C3"/>
</svg>
