<svg width="1044" height="453" viewBox="0 0 1044 453" fill="none" xmlns="http://www.w3.org/2000/svg">
<g filter="url(#filter0_d)">
<path d="M258.985 405.923C268.202 400.543 302.768 379.694 316.971 338.528C332.835 292.585 314.491 245.706 286.009 218.518C281.026 213.776 275.586 209.475 269.759 205.663C265.404 202.815 261.532 199.299 258.167 195.331C249.417 185.01 230.304 166.873 198.965 160.602C160.546 152.914 129.468 168.211 117.751 175.161C114.844 176.885 111.817 178.344 108.642 179.5C93.2081 185.114 49.4049 204.36 35.0499 247.14C30.5729 260.481 30.081 272.792 30.9437 282.594C31.5026 288.944 30.9843 295.359 29.4073 301.535C27.7186 308.148 26.7611 314.896 26.5555 321.672C25.4332 363.1 52.6122 411.872 101.33 426.047C123.257 432.425 143.995 430.193 159.134 426.554C163.827 425.426 168.664 425.025 173.479 425.369C190.056 426.554 224.384 426.111 258.985 405.923Z" fill="white"/>
</g>
<path d="M52.6326 290.185C53.0446 290.493 53.2937 290.889 53.3801 291.373C53.3924 291.443 53.4048 291.512 53.4171 291.581C53.4697 292.143 53.3117 292.659 52.9433 293.13L52.9087 293.136C52.6201 293.521 52.2451 293.754 51.7837 293.836C51.7144 293.849 51.6432 293.849 51.5698 293.839C51.0309 293.887 50.5398 293.737 50.0966 293.387C49.1286 292.631 48.0452 291.896 46.8465 291.181C46.3967 290.928 46.1285 290.559 46.0422 290.075C45.9558 289.59 46.0704 289.165 46.3862 288.799C46.7587 288.352 47.2219 288.079 47.7757 287.98C47.7988 287.976 47.8218 287.972 47.8449 287.968C48.3756 287.873 48.8774 287.95 49.3503 288.199C50.5598 288.841 51.6539 289.503 52.6326 290.185ZM52.5877 295.943C52.7979 295.786 53.0183 295.687 53.2491 295.646C53.4337 295.613 53.636 295.613 53.856 295.645C54.3001 295.733 54.642 295.981 54.8816 296.391C54.9961 296.632 55.0739 296.868 55.115 297.099C55.1603 297.353 55.1594 297.615 55.1123 297.885C55.0372 298.399 54.8051 298.833 54.4161 299.188C53.0578 300.382 51.8099 301.462 50.6725 302.426C50.3823 302.669 50.0642 302.82 49.7181 302.882C49.5335 302.915 49.3448 302.925 49.152 302.912C48.5966 302.868 48.1258 302.63 47.7394 302.199C47.5014 301.932 47.3535 301.637 47.2959 301.314C47.263 301.13 47.2647 300.939 47.3011 300.742C47.3721 300.206 47.6272 299.767 48.0665 299.427C49.0795 298.699 50.5865 297.537 52.5877 295.943ZM59.6678 295.395C59.5063 295.424 59.44 295.519 59.4687 295.68L59.8081 297.584C59.8369 297.745 59.9321 297.812 60.0936 297.783L65.389 296.839C65.5736 296.806 65.6515 296.709 65.6227 296.547L65.2833 294.644C65.2545 294.482 65.1478 294.418 64.9633 294.451L59.6678 295.395ZM64.4265 291.44C64.611 291.407 64.6869 291.298 64.654 291.113L64.3331 289.314C64.3002 289.129 64.1915 289.053 64.0069 289.086L58.7115 290.03C58.5499 290.059 58.4856 290.166 58.5186 290.35L58.8394 292.15C58.8723 292.335 58.9695 292.412 59.131 292.384L64.4265 291.44ZM79.1832 300.7C79.6141 300.981 79.8747 301.375 79.9652 301.882C80.0557 302.39 79.9493 302.861 79.6459 303.296C79.3615 303.704 78.9655 303.953 78.4579 304.044L70.3244 305.494C70.2783 305.502 70.2478 305.531 70.2329 305.581C70.237 305.605 70.2642 305.623 70.3145 305.638C73.0894 307.048 76.3332 308.017 80.0461 308.546C80.5133 308.629 80.8437 308.88 81.0372 309.298C81.108 309.428 81.1558 309.562 81.1805 309.701C81.2298 309.977 81.1733 310.261 81.0109 310.552C80.9392 310.684 80.8695 310.827 80.8019 310.982C80.5191 311.533 80.1172 311.949 79.5964 312.233C79.3549 312.347 79.0957 312.429 78.8188 312.478C78.5189 312.532 78.2086 312.528 77.8881 312.466C73.9751 311.616 70.4005 310.194 67.1643 308.2C67.1141 308.185 67.0679 308.193 67.0259 308.224C66.9798 308.233 66.9628 308.271 66.9752 308.341L67.8822 313.428C67.9809 313.982 67.8691 314.49 67.5468 314.952C67.2286 315.437 66.781 315.732 66.2042 315.834L66.0658 315.859C65.4889 315.962 64.9674 315.841 64.5011 315.495C64.0389 315.173 63.7584 314.735 63.6597 314.181L62.728 308.955C62.7198 308.909 62.6926 308.89 62.6465 308.898C62.5962 308.883 62.55 308.891 62.508 308.923C60.3152 311.98 57.4959 314.661 54.05 316.966C53.7706 317.134 53.4694 317.248 53.1464 317.305C52.9156 317.346 52.6672 317.355 52.401 317.331C51.8185 317.268 51.2994 317.027 50.8439 316.609C50.7038 316.491 50.5774 316.382 50.4645 316.283C50.2116 316.067 50.0584 315.808 50.0049 315.508C49.9844 315.393 49.9848 315.262 50.0063 315.115C50.0394 314.633 50.2628 314.284 50.6765 314.067C53.8544 312.263 56.524 310.144 58.6853 307.711C58.7274 307.68 58.7348 307.655 58.7076 307.636C58.6994 307.59 58.6722 307.571 58.626 307.579L50.5964 309.011C50.0888 309.101 49.6195 309.006 49.1886 308.726C48.7767 308.419 48.5255 308.011 48.435 307.503C48.3445 306.996 48.4415 306.538 48.7259 306.13C49.0292 305.695 49.4347 305.432 49.9424 305.342L61.4331 303.293C61.6177 303.261 61.6956 303.163 61.6668 303.002L61.3336 301.133C61.3048 300.971 61.1981 300.907 61.0135 300.94L58.5561 301.378C58.0024 301.477 57.4829 301.367 56.9976 301.049C56.5313 300.703 56.2488 300.254 56.1501 299.7L54.3484 289.594C54.2497 289.04 54.3615 288.532 54.6838 288.07C55.0251 287.58 55.4726 287.286 56.0264 287.188L57.93 286.848C58.0915 286.82 58.1809 286.72 58.1983 286.551C58.2396 286.115 58.2694 285.681 58.2877 285.249C58.3002 284.652 58.5063 284.139 58.9061 283.71C59.249 283.364 59.6512 283.149 60.1127 283.067C60.205 283.05 60.2857 283.036 60.3549 283.024L60.9903 282.982C61.5061 282.937 61.9416 283.11 62.2966 283.499C62.5034 283.724 62.6314 283.975 62.6808 284.252C62.7137 284.436 62.7141 284.638 62.6818 284.858C62.5944 285.303 62.5304 285.612 62.49 285.785C62.4793 285.859 62.4895 285.916 62.5208 285.959C62.5752 285.996 62.637 286.009 62.7062 285.997L65.7866 285.448C66.3404 285.349 66.8504 285.472 67.3167 285.818C67.8019 286.136 68.0939 286.572 68.1926 287.126L68.4148 288.372C68.423 288.418 68.4522 288.448 68.5025 288.463C68.5528 288.478 68.5874 288.472 68.6063 288.445C69.64 287.165 70.626 285.752 71.5641 284.203C71.8782 283.695 72.3155 283.343 72.8759 283.148C73.0102 283.101 73.1581 283.062 73.3196 283.033C73.7119 282.964 74.1227 282.997 74.5519 283.135L74.6681 283.186C75.1789 283.381 75.5142 283.725 75.6739 284.221C75.6904 284.313 75.7048 284.394 75.7171 284.463C75.7912 284.878 75.707 285.274 75.4646 285.651C74.6683 286.793 73.8407 287.892 72.9817 288.95C72.5943 289.448 72.1027 289.762 71.5069 289.892C71.4607 289.9 71.4146 289.908 71.3684 289.916C70.8147 290.015 70.2667 289.946 69.7246 289.709L68.7952 289.304C68.7449 289.289 68.6988 289.297 68.6567 289.328C68.6147 289.36 68.5978 289.398 68.606 289.445L69.2971 293.321C69.3053 293.367 69.323 293.4 69.3502 293.419C69.4005 293.434 69.4446 293.414 69.4825 293.359L69.5109 293.319C69.8209 292.787 70.2656 292.41 70.8449 292.188C71.0023 292.136 71.1618 292.096 71.3233 292.067C71.7386 291.993 72.1473 292.015 72.5494 292.134C74.4717 292.768 76.1801 293.403 77.6747 294.042C78.1937 294.282 78.5372 294.673 78.7052 295.215C78.7447 295.303 78.7727 295.393 78.7892 295.486C78.8673 295.924 78.7873 296.343 78.549 296.743C78.2811 297.243 77.8648 297.579 77.3003 297.751C77.2311 297.763 77.1503 297.778 77.0581 297.794C76.5966 297.876 76.145 297.814 75.7034 297.607C73.9559 296.752 72.0028 295.945 69.8441 295.188C69.7939 295.173 69.7498 295.192 69.7118 295.247C69.6698 295.278 69.6529 295.317 69.6611 295.363L69.9943 297.232C70.093 297.786 69.9718 298.307 69.6305 298.797C69.3081 299.259 68.8701 299.539 68.3163 299.638L65.7898 300.088C65.6052 300.121 65.5273 300.219 65.5561 300.38L65.8892 302.249C65.918 302.411 66.0247 302.475 66.2093 302.442L77.8039 300.375C78.3115 300.285 78.7713 300.393 79.1832 300.7ZM86.5639 282.208C86.5516 282.139 86.5392 282.07 86.5269 282C86.4487 281.562 86.5288 281.143 86.767 280.743C87.0202 280.293 87.4005 280.023 87.9081 279.933C87.9312 279.929 87.9427 279.927 87.9427 279.927L89.5348 279.643C90.0696 279.571 90.5451 279.701 90.9611 280.031C91.3269 280.347 91.5488 280.724 91.627 281.162C91.6393 281.232 91.6537 281.312 91.6702 281.405C91.7465 282.367 91.8452 283.254 91.9661 284.066C92.7397 290.142 93.5399 295.499 94.3667 300.136C94.922 303.251 96.8148 304.521 100.045 303.945C104.337 303.18 107.609 300.704 109.863 296.517C110.116 296.067 110.494 295.785 110.998 295.672C111.021 295.668 111.044 295.663 111.067 295.659C111.551 295.573 111.976 295.688 112.342 296.003L113.101 296.654C113.584 297.091 113.881 297.622 113.992 298.245C114.09 298.798 113.996 299.339 113.709 299.866C113.142 300.824 112.484 301.739 111.735 302.611C111.004 303.455 110.118 304.292 109.075 305.121C108.037 305.972 106.812 306.714 105.401 307.347C103.99 307.979 102.477 308.439 100.862 308.727C97.8624 309.262 95.4086 308.985 93.5005 307.897C91.5924 306.809 90.3812 304.823 89.867 301.938C89.5585 300.208 89.0753 297.163 88.4174 292.805C87.7553 288.423 87.3461 285.794 87.1898 284.917C87.0211 283.971 86.8125 283.068 86.5639 282.208ZM134.407 272.143C134.707 271.685 135.129 271.384 135.674 271.239C135.74 271.203 135.795 271.182 135.841 271.173C136.326 271.087 136.782 271.172 137.208 271.43L138.419 272.214C138.869 272.467 139.137 272.836 139.224 273.32C139.327 273.897 139.188 274.386 138.807 274.787C138.609 275.013 138.181 275.482 137.522 276.195C137.347 276.416 136.181 277.755 134.024 280.211C131.863 282.643 130.391 284.334 129.608 285.283C129.064 285.975 128.729 286.499 128.602 286.855C128.494 287.184 128.561 287.493 128.804 287.784C129.046 288.074 129.553 288.448 130.325 288.905C130.375 288.92 132.147 289.913 135.641 291.885C139.135 293.857 141.727 295.372 143.415 296.428C143.873 296.727 144.151 297.153 144.25 297.707C144.349 298.261 144.235 298.757 143.908 299.196L143.014 300.391C142.684 300.807 142.253 301.063 141.722 301.157C141.699 301.162 141.665 301.168 141.619 301.176C141.061 301.252 140.551 301.128 140.088 300.806C138.938 299.963 138.268 299.476 138.078 299.343C136.403 298.094 132.352 295.602 125.925 291.868C124.598 291.104 123.7 290.336 123.229 289.563C123.005 289.246 122.861 288.902 122.795 288.533C122.717 288.095 122.752 287.624 122.9 287.122C123.176 286.263 123.825 285.231 124.848 284.025C129.302 278.827 132.109 275.41 133.27 273.774C133.691 273.199 134.07 272.656 134.407 272.143ZM157.446 269.572C157.434 269.502 157.422 269.433 157.409 269.364C157.331 268.925 157.411 268.507 157.649 268.107C157.903 267.657 158.283 267.387 158.791 267.296C158.814 267.292 158.825 267.29 158.825 267.29L160.417 267.006C160.952 266.935 161.428 267.064 161.844 267.395C162.209 267.711 162.431 268.088 162.509 268.526C162.522 268.595 162.536 268.676 162.553 268.768C162.629 269.731 162.728 270.618 162.849 271.43C163.622 277.505 164.422 282.862 165.249 287.5C165.804 290.615 167.697 291.884 170.928 291.309C175.219 290.543 178.492 288.067 180.745 283.88C180.998 283.431 181.376 283.149 181.88 283.035C181.903 283.031 181.926 283.027 181.949 283.023C182.434 282.937 182.859 283.051 183.225 283.367L183.983 284.017C184.466 284.455 184.763 284.985 184.874 285.608C184.973 286.162 184.879 286.703 184.592 287.23C184.025 288.188 183.366 289.103 182.617 289.975C181.887 290.819 181 291.655 179.958 292.484C178.919 293.336 177.694 294.078 176.284 294.71C174.873 295.343 173.36 295.803 171.744 296.091C168.745 296.626 166.291 296.349 164.383 295.261C162.475 294.172 161.264 292.186 160.749 289.302C160.441 287.571 159.958 284.527 159.3 280.169C158.638 275.787 158.229 273.158 158.072 272.281C157.904 271.335 157.695 270.432 157.446 269.572ZM196.567 277.882C196.333 278.042 196.09 278.145 195.836 278.19C195.582 278.236 195.307 278.225 195.009 278.159C194.465 278.042 194.041 277.737 193.739 277.243L193.285 276.502C193.156 276.311 193.073 276.112 193.036 275.904C192.987 275.627 193.018 275.336 193.13 275.03C193.302 274.524 193.629 274.156 194.112 273.927C194.752 273.646 195.3 273.382 195.756 273.134C195.867 273.09 196.316 272.867 197.101 272.465C197.886 272.064 198.509 271.75 198.969 271.525C199.448 271.273 200.128 270.95 201.01 270.554C201.911 270.132 202.695 269.79 203.362 269.528C204.03 269.266 204.769 269.004 205.579 268.74C206.412 268.472 207.175 268.277 207.867 268.154C210.636 267.66 213.002 268.048 214.966 269.316C216.949 270.558 218.175 272.494 218.644 275.124C219.187 278.17 218.388 280.896 216.245 283.301C214.099 285.684 210.662 287.57 205.934 288.96C205.842 288.977 205.749 288.993 205.657 289.01C205.149 289.1 204.665 289.056 204.205 288.876C203.616 288.647 203.157 288.277 202.828 287.764L202.44 287.191C202.338 287.018 202.27 286.84 202.238 286.655C202.192 286.402 202.218 286.147 202.316 285.891C202.518 285.427 202.858 285.128 203.334 284.996C205.705 284.406 207.709 283.692 209.345 282.853C210.98 282.014 212.227 280.994 213.084 279.794C213.942 278.593 214.245 277.289 213.994 275.882C213.76 274.567 213.107 273.576 212.036 272.91C210.965 272.244 209.668 272.046 208.145 272.318C205.584 272.774 201.724 274.629 196.567 277.882ZM231.527 256.044C231.474 255.482 231.611 254.981 231.937 254.542C232.249 254.153 232.624 253.92 233.062 253.842C233.132 253.829 233.203 253.828 233.276 253.839L234.437 253.739C235.003 253.71 235.475 253.888 235.853 254.272C236.142 254.554 236.319 254.88 236.384 255.249C236.409 255.388 236.422 255.528 236.424 255.671C236.412 256.006 236.408 256.316 236.411 256.601C236.409 256.721 236.389 257.879 236.352 260.076C236.341 260.149 236.363 260.205 236.418 260.243C236.472 260.281 236.534 260.293 236.603 260.281C237.948 259.946 238.828 259.742 239.243 259.667C243.466 258.915 245.976 260.776 246.774 265.253C247.202 267.652 247.466 270.069 247.567 272.504C247.686 274.911 247.526 276.88 247.084 278.41C246.736 279.663 246.132 280.616 245.273 281.269C244.417 281.945 243.286 282.409 241.878 282.66C241.209 282.779 240.474 282.862 239.673 282.91C239.057 282.925 238.49 282.752 237.974 282.391C237.48 282.027 237.132 281.542 236.928 280.935L236.72 280.365C236.68 280.277 236.652 280.187 236.636 280.095C236.574 279.748 236.657 279.412 236.884 279.086C237.116 278.783 237.416 278.598 237.786 278.533C237.878 278.516 237.972 278.511 238.069 278.518C239.117 278.521 239.906 278.476 240.437 278.381C241.729 278.151 242.515 277.487 242.796 276.389C243.093 275.384 243.208 273.959 243.141 272.114C243.074 270.269 242.871 268.401 242.534 266.509C242.304 265.216 241.886 264.41 241.282 264.089C240.677 263.769 239.751 263.719 238.505 263.941C238.206 263.995 237.498 264.169 236.384 264.462C236.223 264.491 236.135 264.602 236.122 264.795C235.575 272.011 234.55 277.943 233.045 282.592C232.859 283.149 232.505 283.569 231.985 283.852C231.747 283.99 231.502 284.081 231.248 284.126C230.948 284.18 230.638 284.175 230.317 284.114L229.431 283.95C228.932 283.825 228.559 283.534 228.311 283.078C228.232 282.902 228.178 282.733 228.15 282.572C228.092 282.249 228.131 281.932 228.266 281.622C229.915 277.519 231.005 272.349 231.536 266.112C231.547 266.039 231.525 265.983 231.471 265.945C231.439 265.903 231.389 265.889 231.32 265.901C230.145 266.253 229.244 266.545 228.619 266.775C228.166 266.904 227.557 267.096 226.793 267.351C226.701 267.367 226.609 267.384 226.516 267.4C226.078 267.478 225.661 267.41 225.265 267.195C224.765 266.927 224.443 266.52 224.298 265.974L224.112 265.329C223.971 264.807 224.05 264.316 224.349 263.858C224.672 263.396 225.096 263.106 225.623 262.988C225.853 262.947 226.165 262.892 226.557 262.822C226.945 262.729 227.197 262.672 227.312 262.652C228.347 262.443 229.761 262.096 231.555 261.61C231.716 261.581 231.792 261.472 231.782 261.283C231.795 259.353 231.71 257.606 231.527 256.044ZM246.753 258.722C246.514 258.455 246.367 258.16 246.309 257.836C246.28 257.675 246.275 257.509 246.292 257.34C246.34 256.807 246.59 256.406 247.041 256.135L247.489 255.841C247.764 255.649 248.063 255.524 248.386 255.466C248.64 255.421 248.891 255.424 249.138 255.475C249.743 255.534 250.241 255.79 250.632 256.245C252.659 258.669 254.67 261.536 256.665 264.847C256.807 265.107 256.9 265.364 256.945 265.618C256.995 265.895 256.986 266.182 256.92 266.479C256.788 267.074 256.478 267.534 255.988 267.86L255.323 268.335C255.09 268.496 254.858 268.597 254.627 268.638C254.396 268.679 254.144 268.665 253.869 268.595C253.371 268.469 252.995 268.167 252.743 267.688C250.915 264.11 248.918 261.121 246.753 258.722ZM263.759 250.155C263.702 249.57 263.849 249.055 264.198 248.612C264.525 248.173 264.942 247.908 265.449 247.818C265.496 247.81 265.53 247.803 265.553 247.799L266.321 247.698C266.833 247.631 267.287 247.776 267.684 248.134C267.972 248.416 268.147 248.73 268.209 249.076C268.234 249.214 268.247 249.355 268.248 249.497C268.156 251.514 268.154 253.24 268.243 254.676C268.228 254.726 268.233 254.749 268.256 254.745C268.302 254.737 268.334 254.719 268.353 254.692C269.051 252.997 270.046 251.498 271.337 250.196C272.625 248.872 274.157 248.051 275.933 247.734C278.425 247.29 280.694 248.064 282.74 250.056C284.804 252.021 286.173 254.896 286.848 258.68C287.638 263.11 287.098 266.825 285.228 269.825C283.358 272.825 280.382 275.224 276.298 277.023C276.08 277.134 275.855 277.209 275.624 277.251C275.278 277.312 274.906 277.295 274.508 277.2C273.913 277.068 273.396 276.767 272.955 276.298L272.422 275.715C272.22 275.513 272.096 275.285 272.051 275.031C272.022 274.869 272.037 274.688 272.096 274.487C272.203 274.016 272.477 273.681 272.917 273.484C274.655 272.817 276.123 272.103 277.321 271.342C278.514 270.558 279.55 269.623 280.428 268.538C281.302 267.43 281.869 266.138 282.13 264.664C282.409 263.161 282.381 261.464 282.043 259.572C281.566 256.896 280.783 254.905 279.693 253.599C278.599 252.271 277.314 251.738 275.837 252.001C274.522 252.236 273.346 253.052 272.31 254.451C271.293 255.823 270.565 257.417 270.127 259.233C269.708 261.022 269.613 262.693 269.842 264.247C269.873 264.551 269.915 264.853 269.968 265.153L270.163 266.047C270.254 266.555 270.161 267.035 269.885 267.489C269.617 267.989 269.208 268.3 268.658 268.422L268.388 268.506C268.318 268.518 268.261 268.529 268.215 268.537C267.707 268.627 267.228 268.546 266.778 268.293C266.274 268.002 265.936 267.574 265.764 267.01C265.406 265.669 265.122 264.41 264.912 263.233C264.377 260.234 264.032 256.427 263.876 251.812C263.859 251.315 263.82 250.763 263.759 250.155ZM95.2167 334.751C95.4392 334.664 95.6658 334.599 95.8966 334.558C96.8887 334.381 97.7762 334.485 98.5589 334.869C99.0046 335.099 99.3304 335.458 99.5363 335.945C99.5881 336.102 99.6264 336.25 99.6511 336.389C99.7128 336.735 99.6801 337.086 99.5531 337.442C99.4789 337.693 99.4121 337.919 99.3527 338.12C98.4402 341.949 97.2081 345.454 95.6564 348.635C95.5657 348.794 95.5999 348.919 95.7589 349.01C98.9596 350.939 102.251 353.245 105.634 355.927C106.023 356.239 106.262 356.648 106.353 357.156C106.361 357.202 106.371 357.26 106.384 357.329C106.436 357.891 106.288 358.394 105.938 358.837L105.117 359.84C104.806 360.229 104.431 360.463 103.992 360.541C103.923 360.553 103.84 360.556 103.744 360.549C103.205 360.598 102.723 360.434 102.299 360.057C99.7808 357.816 96.7899 355.528 93.3264 353.193C93.1633 353.079 93.0364 353.102 92.9457 353.261C90.0735 357.582 86.8255 361.197 83.2014 364.104C82.8462 364.382 82.4494 364.56 82.0109 364.638C81.8725 364.663 81.7205 364.678 81.5548 364.684C80.9385 364.698 80.3815 364.512 79.8839 364.124L78.899 363.407C78.5727 363.18 78.3788 362.893 78.3171 362.547C78.3006 362.455 78.2936 362.349 78.2961 362.229C78.3251 361.724 78.5424 361.34 78.9479 361.077C81.1501 359.542 83.2086 357.735 85.1234 355.655C87.0572 353.549 88.6638 351.477 89.9432 349.44C90.8394 347.923 91.6227 346.307 92.2931 344.593C92.9866 342.874 93.432 341.366 93.6293 340.069C93.64 339.996 93.6182 339.94 93.5639 339.902C93.5326 339.86 93.4823 339.845 93.4131 339.858L81.6455 341.956C81.0917 342.054 80.3805 342.205 79.512 342.407C79.4699 342.439 79.4258 342.458 79.3797 342.467C78.8951 342.553 78.4374 342.456 78.0065 342.176C77.5254 341.881 77.2355 341.456 77.1368 340.902L76.964 339.933C76.8694 339.403 76.9968 338.916 77.3463 338.472C77.6538 338.061 78.0498 337.811 78.5344 337.725C78.5805 337.717 78.6267 337.709 78.6728 337.7C79.5389 337.617 80.2603 337.524 80.8372 337.422L93.3316 335.194C93.9777 335.079 94.606 334.931 95.2167 334.751ZM137.169 338.914C137.326 338.862 137.486 338.822 137.647 338.793C137.993 338.731 138.358 338.773 138.741 338.919C139.252 339.114 139.614 339.478 139.828 340.011L140.049 340.65C140.12 340.78 140.166 340.903 140.187 341.018C140.256 341.411 140.195 341.802 140.003 342.194C139.758 342.69 139.367 343.033 138.83 343.224C138.626 343.284 138.335 343.384 137.955 343.523C137.571 343.639 137.312 343.721 137.177 343.769C135.792 344.278 133.395 345.122 129.987 346.301C129.806 346.357 129.755 346.473 129.834 346.649C130.204 347.655 130.651 348.825 131.174 350.16C131.721 351.491 132.042 352.291 132.138 352.559C132.304 352.958 132.52 353.432 132.784 353.98C132.859 354.133 132.913 354.302 132.946 354.486C133.003 354.809 132.957 355.151 132.807 355.511C132.612 356.022 132.258 356.371 131.744 356.558L130.673 356.963C130.562 357.006 130.449 357.039 130.333 357.059C129.918 357.133 129.515 357.074 129.123 356.882C128.627 356.637 128.295 356.244 128.127 355.703C127.92 355.073 127.746 354.568 127.607 354.188C127.294 353.363 126.533 351.368 125.326 348.203C125.274 348.045 125.17 347.993 125.012 348.044C121.024 349.446 118.363 350.408 117.028 350.932C116.467 351.127 115.965 351.312 115.52 351.487C115.39 351.557 115.255 351.605 115.117 351.63C114.725 351.7 114.335 351.65 113.948 351.481C113.433 351.263 113.068 350.888 112.854 350.355L112.551 349.659C112.504 349.524 112.467 349.388 112.443 349.25C112.377 348.88 112.442 348.512 112.638 348.143C112.883 347.647 113.267 347.329 113.789 347.188C113.947 347.136 114.488 346.969 115.414 346.685C115.594 346.629 118.262 345.701 123.416 343.901C123.574 343.849 123.625 343.733 123.569 343.552L121.68 338.568C121.628 338.411 121.512 338.36 121.332 338.416C120.188 338.81 118.833 339.29 117.267 339.855C115.72 340.392 114.914 340.679 114.849 340.714C114.381 340.893 113.969 341.05 113.612 341.185C113.459 341.26 113.313 341.31 113.174 341.334C112.805 341.4 112.429 341.36 112.046 341.214C111.531 340.996 111.178 340.619 110.987 340.082L110.66 339.247C110.589 339.117 110.543 338.994 110.522 338.879C110.457 338.51 110.522 338.141 110.718 337.773C110.99 337.296 111.387 336.987 111.91 336.846C112.34 336.722 112.747 336.601 113.131 336.485C114.621 336.029 116.823 335.292 119.736 334.272C119.893 334.22 119.946 334.116 119.894 333.958C119.711 333.467 119.491 332.899 119.233 332.255C118.976 331.611 118.823 331.221 118.775 331.087C118.688 330.864 118.587 330.632 118.473 330.391C118.398 330.238 118.346 330.08 118.317 329.919C118.255 329.573 118.299 329.219 118.45 328.859C118.644 328.349 119.001 328.011 119.519 327.847L120.457 327.502C120.568 327.458 120.682 327.426 120.797 327.405C121.212 327.331 121.618 327.402 122.013 327.617C122.532 327.858 122.876 328.249 123.044 328.79C123.139 329.059 123.229 329.293 123.312 329.492C123.384 329.765 123.736 330.738 124.368 332.411C124.424 332.591 124.54 332.642 124.716 332.563C128.593 331.205 130.765 330.437 131.233 330.259C131.678 330.084 132.112 329.911 132.534 329.741C132.691 329.689 132.839 329.651 132.978 329.626C133.347 329.56 133.723 329.6 134.106 329.746C134.621 329.964 134.972 330.33 135.159 330.844L135.374 331.449C135.421 331.583 135.456 331.708 135.476 331.823C135.546 332.216 135.485 332.607 135.293 332.999C135.048 333.495 134.657 333.838 134.12 334.029C133.49 334.237 133.097 334.366 132.939 334.418L126.277 336.713C126.12 336.765 126.069 336.881 126.125 337.061L128.042 342.005C128.117 342.158 128.233 342.209 128.391 342.157C132.578 340.672 134.982 339.803 135.604 339.55C136.229 339.319 136.751 339.107 137.169 338.914ZM148.715 328.963C148.219 328.718 147.901 328.335 147.76 327.812C147.747 327.743 147.735 327.674 147.723 327.605C147.64 327.143 147.73 326.711 147.991 326.307L148.412 325.661C148.749 325.148 149.2 324.806 149.764 324.634C149.857 324.617 149.949 324.601 150.041 324.584C150.503 324.502 150.968 324.574 151.437 324.8C153.917 326.024 156.202 327.295 158.294 328.613C158.803 328.927 159.108 329.372 159.211 329.949C159.31 330.503 159.198 331.011 158.876 331.473L158.256 332.405C157.934 332.867 157.484 333.149 156.907 333.252C156.354 333.351 155.848 333.251 155.39 332.951C153.231 331.527 151.006 330.198 148.715 328.963ZM155.086 351.682C154.864 351.769 154.649 351.832 154.441 351.869C154.072 351.934 153.69 351.931 153.296 351.858C152.697 351.703 152.178 351.391 151.737 350.922L150.725 349.853C150.545 349.647 150.433 349.417 150.388 349.163C150.355 348.978 150.368 348.786 150.427 348.585C150.534 348.113 150.821 347.788 151.289 347.61C155.433 346.014 159.031 343.896 162.084 341.257C164.351 339.282 166.335 337.059 168.037 334.589C169.736 332.096 171.02 329.617 171.89 327.153C172.051 326.72 172.339 326.466 172.754 326.392C172.777 326.388 172.789 326.386 172.789 326.386C173.204 326.312 173.548 326.441 173.822 326.773L174.871 328.05C175.265 328.527 175.518 329.077 175.629 329.7C175.748 330.37 175.682 331 175.431 331.593C174.383 333.994 172.997 336.371 171.275 338.726C169.548 341.057 167.595 343.191 165.416 345.127C162.222 347.91 158.779 350.095 155.086 351.682ZM191.086 321.053C191.075 321.126 191.085 321.184 191.117 321.226C191.171 321.264 191.233 321.276 191.302 321.264L206.323 318.586C206.9 318.483 207.452 318.373 207.978 318.255C208.001 318.251 208.036 318.245 208.082 318.237C208.566 318.151 209.034 318.234 209.484 318.487C209.942 318.786 210.218 319.201 210.313 319.732L210.448 320.493C210.547 321.047 210.433 321.544 210.107 321.983C209.776 322.399 209.346 322.654 208.815 322.749C208.792 322.753 208.769 322.757 208.746 322.761C208.307 322.839 207.765 322.936 207.119 323.051L202.412 323.89C202.227 323.923 202.149 324.02 202.178 324.182C203.034 332.457 201.115 339.12 196.421 344.17C195.979 344.63 195.447 344.915 194.824 345.027C194.224 345.133 193.628 345.061 193.035 344.81L191.484 344.122C191.097 343.953 190.869 343.672 190.799 343.28C190.712 342.796 190.866 342.387 191.259 342.055C191.793 341.579 192.237 341.131 192.59 340.711C196.279 336.697 197.825 331.481 197.229 325.064C197.223 324.898 197.128 324.832 196.943 324.865L189.987 326.105C189.825 326.134 189.713 326.237 189.649 326.415C188.817 328.825 187.788 330.997 186.561 332.93C186.247 333.438 185.784 333.782 185.174 333.963C185.081 333.979 184.978 333.997 184.862 334.018C184.378 334.104 183.903 334.046 183.438 333.843L182.371 333.462C181.86 333.268 181.553 332.882 181.45 332.305C181.372 331.867 181.468 331.469 181.737 331.111C183.05 329.258 184.217 326.991 185.238 324.309C185.763 322.978 186.169 321.251 186.457 319.128C186.528 318.592 186.582 318.023 186.617 317.421C186.634 316.847 186.833 316.359 187.214 315.958C187.495 315.67 187.832 315.49 188.225 315.42C188.34 315.4 188.469 315.389 188.612 315.387L190.121 315.44C190.645 315.441 191.075 315.65 191.411 316.067C191.599 316.319 191.717 316.583 191.767 316.86C191.804 317.068 191.806 317.282 191.774 317.502C191.729 317.653 191.682 317.852 191.63 318.099C191.602 318.342 191.581 318.488 191.566 318.539C191.549 318.708 191.509 318.954 191.447 319.274C191.385 319.595 191.321 319.904 191.255 320.201C191.212 320.494 191.156 320.778 191.086 321.053ZM228.082 319.85C227.995 319.365 228.079 318.898 228.332 318.448C228.631 317.99 229.046 317.714 229.577 317.619L230.615 317.434C231.192 317.331 231.711 317.441 232.174 317.763C232.636 318.085 232.916 318.524 233.015 319.077C233.019 319.1 233.021 319.112 233.021 319.112C233.245 320.5 233.413 321.708 233.524 322.736C233.632 323.741 233.7 324.859 233.73 326.092C233.759 327.325 233.673 328.447 233.473 329.459C233.268 330.448 232.964 331.478 232.56 332.55C232.156 333.622 231.582 334.676 230.838 335.714C230.114 336.724 229.219 337.716 228.155 338.692C227.766 339.047 227.318 339.269 226.81 339.36C226.718 339.376 226.624 339.381 226.527 339.375C225.919 339.435 225.338 339.313 224.783 339.007L223.672 338.384C223.354 338.202 223.164 337.939 223.103 337.593C223.09 337.523 223.076 337.443 223.06 337.35C223.051 336.9 223.235 336.533 223.614 336.252C224.179 335.818 224.723 335.328 225.244 334.782C227.104 332.927 228.221 330.978 228.594 328.936C228.991 326.889 228.908 324.285 228.345 321.124L228.082 319.85ZM241.105 308.172C241.244 308.147 241.382 308.122 241.521 308.098C242.697 307.888 243.73 308.073 244.619 308.652C245.077 308.952 245.377 309.362 245.517 309.885C245.53 309.954 245.54 310.012 245.548 310.058C245.635 310.542 245.574 311.006 245.367 311.447C245.296 311.579 245.245 311.695 245.215 311.796C244.646 313.278 243.879 314.915 242.912 316.706C241.942 318.474 240.893 320.066 239.764 321.481C239.396 321.951 238.923 322.238 238.346 322.341C238.323 322.345 238.312 322.347 238.312 322.347C237.707 322.431 237.13 322.331 236.58 322.048L236.062 321.748C235.635 321.491 235.381 321.131 235.299 320.67C235.204 320.139 235.336 319.675 235.693 319.278C236.541 318.294 237.308 317.253 237.993 316.154C238.697 315.029 239.191 314.06 239.475 313.248C239.509 313.17 239.498 313.112 239.444 313.075C239.413 313.032 239.374 313.016 239.328 313.024L221.123 316.269C220.407 316.397 219.641 316.569 218.822 316.787C218.776 316.795 218.73 316.803 218.684 316.811C218.199 316.898 217.742 316.801 217.311 316.52C216.853 316.221 216.574 315.795 216.475 315.241L216.327 314.41C216.233 313.879 216.349 313.395 216.675 312.955C216.991 312.59 217.379 312.366 217.841 312.283C217.887 312.275 217.945 312.265 218.014 312.253C218.811 312.182 219.59 312.079 220.351 311.943L239.456 308.537C239.941 308.451 240.491 308.329 241.105 308.172ZM269.496 320.394C269.188 320.806 268.769 321.06 268.239 321.154C267.731 321.245 267.25 321.152 266.796 320.876C266.365 320.595 266.068 320.196 265.904 319.678L262.999 309.59L262.315 306.355C262.216 305.801 262.328 305.293 262.65 304.831C262.968 304.346 263.404 304.054 263.958 303.955L266.346 303.529C266.9 303.43 267.41 303.554 267.876 303.899C268.339 304.221 268.608 304.661 268.683 305.219L269.159 308.491L269.954 318.956C269.979 319.499 269.826 319.978 269.496 320.394ZM272.374 329.13C271.797 329.9 270.978 330.379 269.917 330.568C268.855 330.757 267.921 330.591 267.114 330.068C266.306 329.545 265.812 328.776 265.631 327.761C265.45 326.746 265.646 325.842 266.219 325.05C266.815 324.253 267.632 323.762 268.67 323.577C269.709 323.392 270.634 323.572 271.445 324.118C272.28 324.659 272.788 325.438 272.969 326.453C273.15 327.468 272.952 328.361 272.374 329.13Z" fill="#5BC2C3"/>
<g filter="url(#filter1_d)">
<path d="M543.472 37.8097C541.863 32.9232 504.362 35.6423 470.785 53.7481C455.574 62.0229 441.932 72.9136 430.479 85.9161C429.188 87.3819 427.809 88.7611 426.339 90.0467C413.611 101.173 393.506 122.122 381.548 154.236C374.44 173.348 357.193 219.906 382.693 257.597C397.138 278.943 419.358 288.217 433.871 292.27C440.902 294.234 447.493 297.626 453.121 302.274C470.063 316.267 510.708 343.382 561.163 332.614C613.817 321.389 655.823 273.214 657.372 225.091C657.595 216.86 656.709 208.655 654.749 200.698C653.076 193.908 652.6 186.842 653.618 179.924C655.644 166.144 655.827 147.621 648.1 128.458C633.041 91.1302 597.301 74.3623 588.811 70.6796C560.293 58.2984 532.859 59.3368 532.123 50.6534C531.618 44.6662 544.441 40.7657 543.472 37.8097Z" fill="white"/>
</g>
<path d="M433.994 148.23C434.029 148.07 433.956 147.969 433.773 147.928L427.631 146.556C427.448 146.516 427.339 146.575 427.303 146.735L426.161 151.848C426.125 152.008 426.199 152.108 426.382 152.149L432.523 153.521C432.706 153.562 432.816 153.502 432.851 153.342L433.994 148.23ZM436.505 156.5C436.377 157.072 436.064 157.506 435.565 157.803C435.09 158.105 434.577 158.195 434.028 158.072L425.485 156.163C425.302 156.122 425.19 156.194 425.149 156.377L425.065 156.754C424.942 157.303 424.64 157.74 424.16 158.065C423.684 158.367 423.16 158.454 422.588 158.326L422.554 158.318C422.005 158.196 421.568 157.894 421.243 157.413C420.946 156.915 420.859 156.391 420.982 155.842L423.711 143.627C423.838 143.055 424.14 142.619 424.616 142.317C425.114 142.02 425.638 141.933 426.187 142.055L437.064 144.485C437.613 144.608 438.038 144.907 438.34 145.382C438.665 145.863 438.763 146.39 438.636 146.962L436.505 156.5ZM452.406 139.339C452.955 139.462 453.378 139.772 453.675 140.271C454 140.752 454.101 141.267 453.978 141.816L453.94 141.987C453.812 142.559 453.499 142.993 453 143.29C452.525 143.592 452.012 143.682 451.463 143.559L449.714 143.168C449.531 143.127 449.419 143.198 449.378 143.381L444.763 164.036C444.477 165.317 444.089 166.251 443.597 166.838C443.101 167.447 442.412 167.846 441.529 168.033C440.26 168.23 438.226 168.039 435.425 167.462C435.425 167.462 435.413 167.459 435.391 167.454C434.819 167.326 434.345 167.028 433.969 166.56C433.566 166.11 433.325 165.576 433.246 164.958C433.206 164.709 433.166 164.459 433.125 164.21C433.092 164.035 433.096 163.856 433.137 163.673C433.188 163.444 433.308 163.23 433.497 163.032C433.83 162.723 434.214 162.616 434.648 162.713C434.648 162.713 434.66 162.716 434.683 162.721C435.433 162.912 436.882 163.248 439.033 163.729C439.444 163.821 439.746 163.816 439.936 163.714C440.155 163.595 440.305 163.353 440.387 162.987L444.986 142.4C445.027 142.217 444.967 142.108 444.807 142.072L423.843 137.389C423.294 137.266 422.858 136.965 422.533 136.484C422.231 136.008 422.144 135.484 422.271 134.912L422.31 134.741C422.432 134.192 422.731 133.766 423.207 133.464C423.711 133.145 424.237 133.046 424.786 133.169L452.406 139.339ZM466.36 148.472C466.36 148.472 466.357 148.484 466.352 148.506C466.352 148.506 466.364 148.509 466.387 148.514L470.744 149.488C470.79 149.498 470.841 149.485 470.897 149.45C470.953 149.414 470.977 149.359 470.969 149.286C470.864 148.253 470.622 147.131 470.245 145.918C470.184 145.76 470.062 145.661 469.879 145.62L466.779 145.144C466.734 145.133 466.683 145.146 466.627 145.182C466.594 145.222 466.595 145.271 466.63 145.326C466.904 146.036 467.111 146.671 467.25 147.23C467.303 147.53 467.242 147.805 467.066 148.053C466.895 148.279 466.66 148.419 466.36 148.472ZM473.058 149.932C473.058 149.932 473.056 149.944 473.051 149.967C473.045 149.99 473.054 150.004 473.077 150.009L477.4 150.975C477.583 151.015 477.736 150.977 477.858 150.861C478.912 149.799 479.931 148.622 480.916 147.329C480.95 147.289 480.948 147.24 480.913 147.184C480.9 147.133 480.871 147.103 480.825 147.093C479.32 146.949 477.179 146.698 474.401 146.342C474.355 146.332 474.302 146.356 474.24 146.414C474.207 146.455 474.197 146.501 474.21 146.551C474.369 147.019 474.497 147.468 474.593 147.898C474.657 148.152 474.663 148.394 474.612 148.622C474.566 148.828 474.46 149.033 474.295 149.236C473.992 149.625 473.579 149.857 473.058 149.932ZM460.905 150.64C460.722 150.599 460.61 150.67 460.569 150.853L460.354 151.813C460.232 152.362 459.932 152.788 459.457 153.09C459.004 153.397 458.503 153.489 457.954 153.367C457.405 153.244 456.98 152.945 456.678 152.469C456.376 151.993 456.286 151.481 456.409 150.932L456.945 148.53C457.068 147.981 457.367 147.556 457.843 147.254C458.323 146.929 458.85 146.83 459.422 146.958L463.161 147.794C463.23 147.809 463.281 147.796 463.314 147.756C463.37 147.72 463.394 147.665 463.387 147.592C463.159 146.676 462.851 145.743 462.463 144.792C462.372 144.555 462.451 144.417 462.7 144.376L462.708 144.342C462.154 144.242 461.739 144.162 461.465 144.1C461.442 144.095 461.419 144.09 461.396 144.085C460.985 143.993 460.649 143.774 460.39 143.428C460.109 143.077 459.95 142.657 459.915 142.169C459.905 141.783 460.039 141.452 460.317 141.178C460.617 140.909 460.95 140.815 461.316 140.897C470.128 142.626 477.281 143.659 482.777 143.999C483.039 144.009 483.284 144.04 483.513 144.091C484.519 144.316 485.307 144.876 485.875 145.771C486.035 146.023 486.085 146.286 486.023 146.561C486.003 146.652 485.957 146.75 485.886 146.854C485.679 147.24 485.363 147.422 484.935 147.399C484.224 147.36 483.429 147.314 482.552 147.262C482.507 147.252 482.479 147.27 482.468 147.316C482.463 147.339 482.472 147.353 482.495 147.358L483.421 147.889C483.866 148.156 484.117 148.536 484.175 149.03C484.18 149.223 484.164 149.4 484.128 149.56C484.067 149.834 483.914 150.088 483.67 150.322C483.069 150.86 482.505 151.346 481.975 151.78C481.942 151.821 481.932 151.867 481.945 151.918C481.957 151.969 481.987 151.999 482.032 152.009L485.395 152.76C485.967 152.888 486.401 153.201 486.698 153.7C487 154.176 487.089 154.688 486.967 155.237L486.331 158.085C486.208 158.634 485.906 159.071 485.425 159.395C484.95 159.697 484.426 159.785 483.854 159.657L482.756 159.412C482.71 159.401 482.671 159.417 482.638 159.457C482.628 159.503 482.631 159.54 482.649 159.568C482.903 159.937 483.134 160.3 483.342 160.659C483.568 161.046 483.635 161.445 483.543 161.857C483.522 161.948 483.493 162.026 483.455 162.089C483.269 162.6 482.936 162.958 482.458 163.163C482.082 163.344 481.699 163.39 481.31 163.303C481.219 163.283 481.118 163.248 481.009 163.2C480.544 163.024 480.186 162.692 479.935 162.204C479.331 161.036 478.57 159.821 477.651 158.559C477.415 158.218 477.343 157.842 477.435 157.43C477.537 156.973 477.799 156.659 478.222 156.489C478.677 156.279 479.156 156.23 479.659 156.342C479.682 156.347 479.694 156.35 479.694 156.35C480.215 156.49 480.634 156.764 480.951 157.171C481.192 157.489 481.46 157.849 481.755 158.251C481.772 158.279 481.807 158.287 481.857 158.274C481.908 158.262 481.939 158.232 481.949 158.187L482.493 155.751C482.534 155.568 482.475 155.458 482.314 155.422L473.256 153.399C473.234 153.394 473.206 153.412 473.173 153.452C473.167 153.475 473.174 153.5 473.191 153.528C473.476 153.76 473.735 153.998 473.969 154.242C474.324 154.586 474.446 155.009 474.333 155.513C474.257 155.856 474.062 156.136 473.749 156.355C473.38 156.609 472.973 156.71 472.528 156.658C472.483 156.648 472.425 156.635 472.357 156.62C471.991 156.538 471.673 156.347 471.404 156.047C470.685 155.286 469.856 154.537 468.917 153.798C468.736 153.638 468.64 153.424 468.627 153.157C468.638 152.895 468.755 152.693 468.979 152.551C468.979 152.551 468.97 152.537 468.952 152.509C468.963 152.464 468.956 152.438 468.933 152.433L460.905 150.64ZM460.286 158.57C459.82 158.827 459.324 158.896 458.798 158.778C458.775 158.773 458.753 158.768 458.73 158.763C458.204 158.646 457.753 158.353 457.377 157.885C457.118 157.539 457.035 157.16 457.127 156.748C457.234 156.268 457.518 155.911 457.978 155.677C458.932 155.17 459.808 154.525 460.608 153.743C460.974 153.393 461.392 153.186 461.863 153.123C462.084 153.1 462.309 153.115 462.538 153.166C462.766 153.217 462.985 153.314 463.193 153.456C463.587 153.736 463.815 154.112 463.878 154.582C463.906 154.78 463.9 154.971 463.859 155.154C463.802 155.406 463.692 155.633 463.526 155.836C462.503 156.976 461.423 157.888 460.286 158.57ZM472.712 166.318C472.768 166.282 472.787 166.25 472.769 166.222C472.757 166.171 472.727 166.141 472.682 166.131L464.825 164.375C464.779 164.365 464.739 164.38 464.706 164.421C464.678 164.439 464.685 164.464 464.725 164.497C465.588 165.579 466.73 166.65 468.15 167.712C468.295 167.816 468.457 167.841 468.638 167.785C470.158 167.428 471.516 166.939 472.712 166.318ZM475.521 163.739C476.665 163.995 477.561 164.447 478.208 165.096C478.523 165.406 478.669 165.775 478.645 166.202C478.648 166.299 478.639 166.393 478.618 166.484C478.552 166.782 478.399 167.036 478.16 167.246C476.633 168.49 474.85 169.485 472.811 170.23C472.777 170.271 472.756 170.314 472.746 170.36C472.735 170.405 472.753 170.433 472.799 170.444C475.373 171.715 478.358 172.862 481.756 173.885C482.163 174 482.414 174.273 482.51 174.702C482.538 174.901 482.534 175.08 482.498 175.24C482.452 175.446 482.349 175.639 482.189 175.819C482.094 175.918 482.003 176.006 481.914 176.082C481.448 176.554 480.921 176.869 480.334 177.026C479.843 177.181 479.358 177.204 478.877 177.097C478.786 177.076 478.685 177.042 478.576 176.994C474.279 175.481 470.647 173.733 467.68 171.75C467.535 171.645 467.375 171.609 467.2 171.642C463.732 172.116 459.77 172.168 455.314 171.797C455.194 171.794 455.066 171.777 454.929 171.747C454.494 171.65 454.085 171.438 453.701 171.112C453.242 170.697 452.911 170.191 452.708 169.594L452.674 169.586C452.605 169.354 452.597 169.124 452.648 168.896C452.683 168.736 452.756 168.572 452.866 168.404C453.135 168.056 453.493 167.908 453.938 167.959C457.463 168.41 460.632 168.578 463.443 168.462C463.494 168.449 463.525 168.42 463.535 168.374C463.568 168.333 463.564 168.297 463.524 168.263C462.648 167.347 461.882 166.42 461.227 165.481C461.139 165.341 461.006 165.288 460.831 165.32C459.804 165.619 458.835 165.871 457.924 166.076C457.523 166.154 457.139 166.153 456.773 166.071C456.567 166.025 456.378 165.959 456.205 165.872C455.641 165.602 455.19 165.201 454.853 164.669C454.675 164.389 454.622 164.089 454.693 163.769C454.714 163.678 454.734 163.586 454.755 163.495C454.938 163.103 455.254 162.874 455.701 162.806C459.64 162.268 462.874 161.226 465.406 159.678C465.439 159.637 465.449 159.592 465.436 159.541C465.452 159.472 465.439 159.421 465.398 159.388C464.786 159.011 464.413 158.532 464.279 157.949C464.168 157.372 464.222 156.592 464.442 155.608L464.557 155.094C464.674 154.568 464.957 154.162 465.404 153.878C465.857 153.571 466.347 153.476 466.873 153.594C467.422 153.716 467.836 154.013 468.115 154.484C468.399 154.931 468.483 155.418 468.365 155.944L468.25 156.459C468.163 156.848 468.187 157.117 468.322 157.268C468.484 157.4 468.863 157.533 469.458 157.665L473.163 158.493C473.643 158.601 473.978 158.555 474.166 158.357C474.655 157.89 475.116 157.705 475.551 157.802C475.665 157.827 475.775 157.876 475.879 157.947C475.965 157.991 476.06 158.048 476.164 158.119C476.609 158.387 476.914 158.743 477.078 159.188C477.182 159.475 477.206 159.745 477.15 159.996C477.114 160.156 477.044 160.309 476.94 160.454C476.512 161.079 475.993 161.467 475.383 161.619C474.777 161.748 473.972 161.7 472.965 161.475L469.774 160.762C469.878 160.833 469.875 160.905 469.763 160.976C469.294 161.351 468.848 161.684 468.423 161.973C468.395 161.991 468.376 162.023 468.366 162.069C468.378 162.119 468.408 162.15 468.453 162.16L475.521 163.739ZM494.386 153.148C494.493 152.668 494.748 152.28 495.15 151.986C495.58 151.674 496.058 151.576 496.584 151.694C496.584 151.694 496.595 151.696 496.618 151.701L497.888 151.985C498.414 152.103 498.802 152.406 499.054 152.894C499.274 153.303 499.334 153.737 499.231 154.194C499.216 154.263 499.201 154.332 499.185 154.4C498.889 155.295 498.678 156.028 498.55 156.6C498.432 157.126 498.32 157.629 498.213 158.11C497.732 160.26 497.364 162.231 497.108 164.023C496.4 169.772 497.018 172.864 498.962 173.298C500.037 173.539 501.441 172.147 503.173 169.124C503.402 168.743 503.733 168.553 504.165 168.553C504.261 168.551 504.355 168.56 504.447 168.58C504.744 168.646 504.968 168.828 505.117 169.126L505.799 170.431C506.075 171.021 506.204 171.626 506.185 172.246C506.167 172.435 506.141 172.609 506.105 172.769C506.008 173.203 505.822 173.606 505.547 173.977C504.057 176.022 502.677 177.418 501.405 178.167C500.161 178.898 498.898 179.12 497.617 178.834C495.559 178.374 494.025 176.963 493.016 174.6C492.035 172.219 491.808 168.77 492.337 164.254C492.668 161.59 493.242 158.428 494.06 154.768L494.386 153.148ZM513.258 159.453C513.131 159.161 513.101 158.866 513.168 158.569C513.203 158.408 513.262 158.253 513.344 158.104C513.588 157.654 513.954 157.412 514.443 157.376L515.072 157.301C515.39 157.276 515.697 157.297 515.995 157.363C516.269 157.424 516.547 157.522 516.829 157.658C517.36 157.968 517.727 158.422 517.93 159.02C518.688 161.111 519.221 163.559 519.531 166.366C519.84 169.173 519.915 171.795 519.755 174.233C519.747 174.375 519.73 174.504 519.705 174.618C519.607 175.053 519.387 175.448 519.044 175.803C518.611 176.235 518.083 176.501 517.46 176.602L516.568 176.727C516.369 176.755 516.179 176.748 515.996 176.708C515.721 176.646 515.476 176.507 515.26 176.291C514.887 175.919 514.722 175.474 514.766 174.956C514.993 172.221 514.992 169.483 514.764 166.742C514.541 163.979 514.039 161.549 513.258 159.453ZM555.658 176.058C555.535 176.607 555.222 177.041 554.718 177.361C554.243 177.663 553.73 177.753 553.181 177.63L543.746 175.522C543.7 175.512 543.649 175.525 543.593 175.56C543.56 175.601 543.55 175.647 543.563 175.697C544.553 181.586 547.658 186.014 552.879 188.982C553.283 189.216 553.505 189.566 553.545 190.031C553.555 190.201 553.545 190.355 553.514 190.492C553.453 190.767 553.302 191.01 553.063 191.22C552.824 191.431 552.594 191.656 552.372 191.894C551.917 192.321 551.391 192.576 550.797 192.659C550.474 192.707 550.175 192.7 549.9 192.639C549.626 192.578 549.373 192.473 549.142 192.326C546.657 190.762 544.669 188.913 543.177 186.778C541.707 184.649 540.624 182.185 539.928 179.388C539.916 179.337 539.887 179.307 539.841 179.297C539.795 179.286 539.756 179.302 539.723 179.342C536.639 183.577 531.819 186.126 525.262 186.991C524.99 187.026 524.728 187.016 524.476 186.959C524.202 186.898 523.94 186.78 523.691 186.604C523.188 186.275 522.821 185.821 522.591 185.241C522.53 185.084 522.469 184.926 522.408 184.768C522.287 184.453 522.259 184.147 522.325 183.849C522.356 183.712 522.401 183.566 522.459 183.411C522.699 182.984 523.065 182.742 523.558 182.684C530.298 181.86 534.894 179.08 537.345 174.344C537.383 174.281 537.384 174.221 537.349 174.165C537.313 174.109 537.261 174.074 537.193 174.058L528.135 172.035C527.586 171.912 527.149 171.61 526.824 171.129C526.527 170.631 526.44 170.107 526.563 169.558L526.616 169.318C526.744 168.746 527.046 168.309 527.521 168.007C528.02 167.71 528.544 167.623 529.093 167.746L538.768 169.907C538.928 169.943 539.029 169.869 539.07 169.687L539.238 168.932L540.388 163.785C540.429 163.602 540.369 163.493 540.209 163.457L529.436 161.05C528.887 160.928 528.45 160.626 528.125 160.145C527.823 159.669 527.736 159.145 527.864 158.574L527.925 158.299C528.048 157.75 528.347 157.325 528.823 157.023C529.326 156.703 529.853 156.604 530.402 156.727L557.507 162.782C558.056 162.905 558.479 163.216 558.776 163.714C559.101 164.195 559.202 164.71 559.079 165.259L559.018 165.533C558.89 166.105 558.577 166.54 558.078 166.836C557.602 167.138 557.09 167.228 556.541 167.105L545.15 164.561C544.967 164.52 544.855 164.591 544.814 164.774L543.665 169.92L543.496 170.675C543.455 170.858 543.526 170.97 543.709 171.011L554.139 173.341C554.688 173.464 555.114 173.763 555.416 174.239C555.741 174.72 555.839 175.246 555.712 175.818L555.658 176.058ZM574.589 181.296C574.548 181.479 574.619 181.591 574.802 181.631L578.61 182.482C578.77 182.518 578.871 182.444 578.912 182.261L578.95 182.09L579.571 179.311C579.607 179.151 579.544 179.053 579.384 179.017L575.576 178.166C575.393 178.125 575.284 178.185 575.248 178.345L574.589 181.296ZM588.08 181.212C588.116 181.051 588.042 180.951 587.859 180.91L584.016 180.052C583.856 180.016 583.758 180.078 583.722 180.238L583.094 183.052L583.063 183.189C583.022 183.372 583.082 183.481 583.242 183.517L587.085 184.375C587.268 184.416 587.38 184.345 587.421 184.162L588.08 181.212ZM591.075 186.672C590.947 187.244 590.634 187.678 590.135 187.975C589.66 188.277 589.147 188.366 588.598 188.244L582.285 186.833C582.125 186.798 582.013 186.869 581.949 187.047C581.177 189.107 580.163 190.85 578.908 192.275C578.781 192.415 578.79 192.537 578.934 192.641C581.375 194.507 584.441 196.105 588.13 197.433C588.55 197.599 588.796 197.894 588.869 198.319C588.902 198.494 588.901 198.662 588.865 198.822C588.814 199.051 588.685 199.25 588.479 199.42C588.385 199.519 588.277 199.627 588.154 199.744C587.694 200.193 587.17 200.497 586.582 200.654C586.125 200.767 585.69 200.778 585.278 200.686C585.118 200.651 584.963 200.592 584.813 200.511C581.182 199.027 578.165 197.212 575.763 195.067C575.641 194.967 575.499 194.959 575.336 195.043C573.726 195.908 571.816 196.502 569.606 196.825C569.283 196.873 568.985 196.866 568.71 196.805C568.436 196.744 568.174 196.625 567.925 196.45C567.417 196.144 567.036 195.699 566.783 195.114C566.734 195.007 566.695 194.914 566.665 194.835C566.538 194.543 566.505 194.259 566.567 193.985C566.597 193.847 566.651 193.715 566.727 193.588C566.961 193.184 567.314 192.951 567.784 192.888C569.594 192.74 571.152 192.379 572.457 191.806C572.614 191.746 572.649 191.645 572.56 191.505C571.636 190.266 570.849 188.842 570.201 187.232C570.091 186.967 570.065 186.709 570.121 186.458C570.157 186.297 570.216 186.142 570.297 185.993C570.549 185.617 570.908 185.409 571.373 185.368C571.617 185.351 571.854 185.368 572.082 185.419C572.357 185.48 572.61 185.585 572.841 185.732C573.303 186.028 573.66 186.42 573.911 186.908C574.33 187.722 574.856 188.536 575.491 189.35C575.603 189.495 575.722 189.498 575.849 189.358C576.605 188.446 577.243 187.364 577.763 186.111C577.827 185.934 577.768 185.824 577.585 185.783L572.026 184.542C571.477 184.419 571.04 184.117 570.716 183.636C570.414 183.161 570.326 182.637 570.454 182.065L571.842 175.855C571.964 175.306 572.263 174.88 572.739 174.578C573.243 174.259 573.769 174.16 574.318 174.283L580.151 175.586C580.311 175.622 580.409 175.559 580.445 175.399L580.882 173.444C580.917 173.284 580.855 173.186 580.695 173.15L574.142 171.686C573.593 171.563 573.156 171.261 572.831 170.781C572.534 170.282 572.447 169.758 572.57 169.209L572.784 168.249C572.789 168.226 572.769 168.209 572.723 168.199C572.706 168.171 572.694 168.168 572.689 168.191C571.78 169.357 570.883 170.417 569.997 171.372C569.898 171.494 569.828 171.647 569.787 171.83L564.743 194.406C564.621 194.955 564.322 195.38 563.846 195.682C563.37 195.984 562.858 196.074 562.309 195.951C561.76 195.829 561.334 195.53 561.032 195.054C560.73 194.578 560.641 194.066 560.763 193.517L564.473 176.911C564.483 176.865 564.466 176.837 564.42 176.827C564.379 176.793 564.345 176.786 564.317 176.804C563.699 177.314 563.132 177.752 562.619 178.117C562.301 178.358 561.959 178.438 561.593 178.356C561.501 178.336 561.424 178.307 561.36 178.268C560.895 178.092 560.608 177.764 560.499 177.284C560.413 177.024 560.339 176.767 560.275 176.513C560.166 176.032 560.161 175.575 560.258 175.14C560.288 175.003 560.316 174.877 560.342 174.763C560.543 174.183 560.899 173.722 561.407 173.38C564.575 171.134 567.408 168.344 569.905 165.012C570.251 164.537 570.702 164.241 571.256 164.125C571.584 164.054 571.908 164.054 572.228 164.126C572.434 164.172 572.644 164.255 572.857 164.374L572.892 164.382C573.354 164.677 573.646 165.091 573.767 165.622C573.825 165.899 573.824 166.175 573.762 166.45C573.711 166.679 573.612 166.908 573.464 167.14C573.431 167.18 573.398 167.221 573.365 167.262C573.327 167.325 573.314 167.382 573.327 167.433C573.362 167.489 573.414 167.525 573.483 167.54L581.546 169.341C581.706 169.377 581.804 169.315 581.84 169.155L582.047 168.228C582.174 167.657 582.476 167.22 582.952 166.918C583.45 166.621 583.974 166.534 584.523 166.656L584.626 166.679C585.175 166.802 585.601 167.101 585.903 167.577C586.227 168.058 586.326 168.584 586.198 169.156L585.991 170.082C585.955 170.242 586.018 170.34 586.178 170.376L593.349 171.978C593.875 172.096 594.28 172.378 594.564 172.826C594.848 173.274 594.932 173.761 594.814 174.287C594.697 174.813 594.411 175.229 593.959 175.536C593.511 175.821 593.024 175.904 592.498 175.787L585.327 174.185C585.167 174.149 585.069 174.211 585.033 174.371L584.596 176.327C584.56 176.487 584.623 176.585 584.783 176.621L590.89 177.985C591.439 178.108 591.862 178.418 592.159 178.917C592.484 179.398 592.585 179.913 592.462 180.462L591.075 186.672ZM613.95 196.825C613.833 197.351 613.536 197.765 613.061 198.067C612.58 198.392 612.065 198.493 611.516 198.371L611.379 198.34C610.83 198.217 610.418 197.909 610.144 197.416C609.865 196.945 609.782 196.458 609.894 195.955C609.899 195.932 609.904 195.909 609.909 195.887C610.001 195.475 610.153 194.848 610.365 194.007C610.376 193.961 610.36 193.922 610.32 193.889C610.284 193.833 610.241 193.811 610.19 193.824C608.774 194.252 607.666 194.749 606.867 195.315C606.096 195.863 605.619 196.549 605.435 197.372C605.225 198.31 605.483 199.04 606.206 199.562C606.93 200.084 608.184 200.544 609.969 200.943C612.439 201.495 615.118 201.865 618.006 202.054C618.097 202.074 618.189 202.095 618.28 202.115C618.669 202.202 618.995 202.407 619.259 202.73C619.595 203.165 619.692 203.643 619.551 204.164L619.41 204.637C619.282 205.209 618.964 205.666 618.455 206.009C617.969 206.357 617.435 206.489 616.853 206.407C613.988 206.008 611.355 205.539 608.954 205.003C607.513 204.681 606.263 204.306 605.206 203.878C604.149 203.449 603.223 202.918 602.428 202.284C601.633 201.65 601.08 200.902 600.768 200.04C600.462 199.155 600.431 198.164 600.676 197.066C600.906 196.037 601.341 195.113 601.98 194.295C602.647 193.46 603.465 192.754 604.434 192.178C605.426 191.607 606.407 191.141 607.376 190.782C608.35 190.399 609.452 190.033 610.683 189.683C610.858 189.65 610.916 189.555 610.855 189.397C610.477 188.617 609.785 188.114 608.778 187.889C607.84 187.679 606.829 187.694 605.743 187.931C604.657 188.169 603.683 188.552 602.821 189.08C602.126 189.501 601.297 190.096 600.332 190.865C599.892 191.223 599.376 191.384 598.784 191.348C598.692 191.327 598.601 191.307 598.509 191.286C598.052 191.184 597.671 190.955 597.366 190.599L596.962 190.148C596.622 189.736 596.488 189.262 596.56 188.726C596.57 188.68 596.578 188.645 596.583 188.623C596.69 188.142 596.954 187.769 597.373 187.502C600.721 185.417 603.347 183.229 605.251 180.941C605.289 180.878 605.291 180.818 605.255 180.762C605.243 180.711 605.213 180.68 605.168 180.67L604.996 180.632C603.784 180.361 602.51 180.041 601.176 179.67C600.61 179.52 600.178 179.195 599.881 178.697C599.589 178.175 599.507 177.629 599.635 177.057L599.642 177.022C599.76 176.496 600.054 176.094 600.525 175.815C600.962 175.576 601.41 175.508 601.867 175.61C601.936 175.625 601.99 175.65 602.031 175.683C603.337 176.071 604.699 176.423 606.118 176.74L607.559 177.062C607.719 177.098 607.84 177.04 607.921 176.891C608.214 176.332 608.468 175.788 608.682 175.259C608.919 174.736 609.296 174.34 609.812 174.071C610.249 173.832 610.708 173.767 611.189 173.874C611.257 173.889 611.312 173.914 611.353 173.947L611.894 174.104C612.41 174.267 612.779 174.602 613.002 175.108C613.165 175.456 613.205 175.814 613.123 176.18C613.093 176.317 613.05 176.451 612.997 176.584C612.785 176.993 612.579 177.379 612.378 177.742C612.34 177.806 612.338 177.865 612.374 177.921C612.409 177.977 612.461 178.013 612.53 178.028C615.539 178.532 618.118 178.868 620.266 179.036C620.363 179.034 620.445 179.04 620.514 179.055C620.948 179.152 621.293 179.385 621.546 179.754C621.882 180.189 621.981 180.656 621.846 181.154L621.838 181.188C621.706 181.783 621.396 182.254 620.91 182.602C620.424 182.95 619.888 183.094 619.301 183.035C616.649 182.755 613.582 182.298 610.097 181.663C609.914 181.622 609.77 181.674 609.666 181.819C608.861 182.84 608.051 183.728 607.234 184.482C607.206 184.5 607.198 184.534 607.211 184.585C607.229 184.613 607.263 184.621 607.314 184.608C608.384 184.439 609.651 184.518 611.115 184.845C612.145 185.075 613.011 185.496 613.715 186.11C614.423 186.7 614.882 187.439 615.092 188.327C615.148 188.507 615.255 188.567 615.413 188.506C615.967 188.39 616.519 188.285 617.068 188.192C617.645 188.081 618.248 187.963 618.876 187.839C619.527 187.72 620.016 187.626 620.344 187.555C620.972 187.431 621.705 187.27 622.541 187.073C622.841 187.02 623.128 187.024 623.403 187.085C623.632 187.137 623.864 187.224 624.1 187.349C624.558 187.668 624.844 188.104 624.961 188.658L625.021 189.032C625.085 189.286 625.091 189.528 625.04 189.757C624.983 190.008 624.859 190.244 624.665 190.465C624.347 190.923 623.904 191.184 623.337 191.249C622.595 191.348 621.799 191.47 620.95 191.617C618.616 191.96 616.643 192.299 615.03 192.636C614.855 192.669 614.747 192.777 614.706 192.96L613.95 196.825ZM412.58 197.645C412.308 197.68 412.035 197.667 411.76 197.605C411.508 197.549 411.267 197.447 411.036 197.3C410.579 196.981 410.306 196.536 410.218 195.964L409.99 194.724C409.973 194.48 409.987 194.255 410.033 194.05C410.089 193.798 410.216 193.55 410.415 193.306C410.769 192.905 411.213 192.692 411.747 192.667C412.542 192.653 413.343 192.616 414.149 192.556C414.319 192.546 415.04 192.49 416.311 192.39C417.588 192.267 418.652 192.181 419.503 192.131C420.378 192.086 421.477 192.055 422.802 192.039C424.131 192 425.374 192.025 426.531 192.116C427.711 192.211 428.781 192.366 429.741 192.581C431.869 193.056 433.68 193.869 435.176 195.02C436.7 196.153 437.792 197.609 438.451 199.389C439.115 201.147 439.214 203.066 438.749 205.148C437.927 208.83 435.674 211.497 431.991 213.148C428.331 214.804 423.672 215.288 418.014 214.6C417.899 214.575 417.808 214.554 417.739 214.539C417.236 214.427 416.798 214.185 416.425 213.813C415.97 213.375 415.678 212.854 415.549 212.249L415.379 211.238C415.328 211.035 415.323 210.841 415.364 210.658C415.42 210.407 415.554 210.184 415.765 209.992C416.109 209.636 416.526 209.489 417.017 209.551C419.197 209.894 421.214 210.056 423.068 210.038C424.926 209.997 426.609 209.772 428.117 209.365C429.625 208.957 430.865 208.298 431.837 207.386C432.837 206.457 433.488 205.317 433.79 203.968C434.168 202.275 433.905 200.763 433.002 199.433C432.121 198.107 430.663 197.217 428.627 196.763C425.242 196.006 419.893 196.3 412.58 197.645ZM464.88 196.54C465.332 196.233 465.838 196.118 466.398 196.195C466.471 196.187 466.531 196.189 466.577 196.199C467.057 196.306 467.445 196.561 467.739 196.963L468.554 198.153C468.871 198.56 468.976 199.004 468.869 199.485C468.741 200.056 468.424 200.454 467.918 200.677C467.648 200.809 467.072 201.076 466.19 201.48C465.943 201.617 464.351 202.402 461.413 203.835C458.48 205.245 456.469 206.237 455.381 206.81C454.613 207.239 454.101 207.593 453.847 207.872C453.62 208.134 453.563 208.445 453.674 208.806C453.785 209.167 454.109 209.708 454.645 210.428C454.685 210.461 455.937 212.061 458.399 215.229C460.861 218.397 462.667 220.794 463.817 222.419C464.124 222.872 464.217 223.373 464.094 223.922C463.971 224.471 463.675 224.885 463.204 225.164L461.918 225.922C461.453 226.178 460.957 226.247 460.431 226.13C460.408 226.124 460.374 226.117 460.328 226.107C459.784 225.961 459.361 225.65 459.059 225.175C458.323 223.954 457.893 223.245 457.769 223.049C456.706 221.251 453.93 217.389 449.442 211.463C448.513 210.247 447.98 209.191 447.844 208.296C447.761 207.917 447.76 207.545 447.842 207.179C447.939 206.744 448.153 206.324 448.484 205.917C449.069 205.232 450.066 204.53 451.476 203.812C457.59 200.735 461.499 198.667 463.201 197.606C463.811 197.238 464.371 196.883 464.88 196.54ZM487.295 202.628C487.468 202.067 487.802 201.649 488.295 201.375C488.766 201.096 489.253 201.012 489.756 201.125C489.802 201.135 489.836 201.143 489.859 201.148L490.606 201.351C491.104 201.486 491.467 201.795 491.695 202.279C491.853 202.65 491.893 203.007 491.816 203.35C491.786 203.487 491.744 203.622 491.69 203.754C490.826 205.579 490.158 207.17 489.686 208.53C489.653 208.571 489.648 208.593 489.671 208.599C489.717 208.609 489.754 208.605 489.782 208.587C491.08 207.292 492.576 206.294 494.269 205.591C495.968 204.866 497.699 204.7 499.46 205.094C501.93 205.646 503.724 207.235 504.843 209.863C505.989 212.472 506.143 215.652 505.305 219.404C504.324 223.795 502.392 227.014 499.509 229.06C496.627 231.106 492.955 232.171 488.493 232.255C488.249 232.272 488.013 232.255 487.784 232.204C487.441 232.128 487.104 231.968 486.774 231.726C486.276 231.375 485.914 230.898 485.689 230.295L485.423 229.551C485.314 229.287 485.287 229.029 485.343 228.777C485.379 228.617 485.463 228.456 485.596 228.293C485.876 227.899 486.257 227.697 486.74 227.684C488.601 227.74 490.231 227.648 491.629 227.408C493.033 227.145 494.349 226.682 495.577 226.02C496.811 225.335 497.833 224.363 498.643 223.103C499.481 221.825 500.109 220.248 500.528 218.373C501.121 215.719 501.166 213.58 500.665 211.955C500.168 210.307 499.188 209.32 497.724 208.993C496.42 208.701 495.021 209.001 493.525 209.892C492.057 210.765 490.771 211.954 489.666 213.46C488.589 214.949 487.856 216.454 487.468 217.977C487.379 218.269 487.301 218.564 487.234 218.861L487.069 219.761C486.957 220.264 486.686 220.672 486.256 220.984C485.816 221.342 485.319 221.471 484.764 221.371L484.482 221.344C484.414 221.329 484.357 221.316 484.311 221.306C483.808 221.193 483.397 220.934 483.08 220.527C482.727 220.064 482.58 219.538 482.639 218.951C482.827 217.576 483.05 216.305 483.311 215.139C483.975 212.165 485.126 208.52 486.763 204.202C486.939 203.737 487.116 203.213 487.295 202.628ZM532.444 226.115C532.398 226.105 532.341 226.092 532.272 226.077C531.815 225.974 531.439 225.722 531.144 225.32C530.837 224.867 530.742 224.378 530.86 223.852L530.875 223.783C531.003 223.211 531.307 222.763 531.788 222.438C532.274 222.091 532.808 221.958 533.39 222.04C535.154 222.314 536.711 222.601 538.06 222.903C539.41 223.204 540.772 223.557 542.147 223.96C542.709 224.133 543.124 224.478 543.393 224.995C543.69 225.493 543.763 226.026 543.612 226.593L543.581 226.73C543.436 227.274 543.119 227.671 542.631 227.922C542.216 228.166 541.78 228.237 541.322 228.134C541.254 228.119 541.185 228.104 541.117 228.088C539.683 227.624 538.372 227.259 537.183 226.993C535.467 226.61 533.887 226.317 532.444 226.115ZM533.562 215.306C533.704 215.313 533.832 215.33 533.947 215.356C534.313 215.437 534.616 215.637 534.857 215.955C535.198 216.368 535.311 216.825 535.199 217.329L535.122 217.672C534.99 218.266 534.678 218.749 534.187 219.12C533.718 219.495 533.186 219.676 532.588 219.663C531.086 219.616 529.525 219.507 527.906 219.338C527.741 219.325 527.629 219.396 527.57 219.551C526.836 221.116 526.179 222.446 525.598 223.541C523.155 228.351 520.527 232.747 517.716 236.73C517.393 237.21 516.943 237.505 516.366 237.617C516.038 237.688 515.713 237.687 515.393 237.616C515.164 237.565 514.943 237.479 514.73 237.359L513.743 236.779C513.304 236.488 513.035 236.08 512.936 235.554C512.896 235.305 512.898 235.077 512.944 234.871C513.006 234.597 513.133 234.349 513.327 234.128C514.627 232.497 516.041 230.472 517.566 228.051C519.114 225.635 520.417 223.404 521.474 221.359C521.767 220.8 522.19 219.982 522.743 218.905C522.781 218.841 522.783 218.781 522.747 218.725C522.712 218.669 522.66 218.634 522.591 218.619C521.694 218.442 521.017 218.303 520.559 218.201C519.827 218.037 519.098 217.862 518.371 217.676C517.804 217.525 517.372 217.2 517.075 216.702C516.779 216.203 516.683 215.666 516.787 215.089L516.856 214.78C516.951 214.249 517.234 213.843 517.704 213.564C518.142 213.326 518.601 213.26 519.081 213.368C519.127 213.378 519.173 213.388 519.218 213.398C519.963 213.613 520.747 213.812 521.57 213.996C522.508 214.205 523.463 214.394 524.434 214.563C524.599 214.576 524.722 214.508 524.804 214.358C525.066 213.72 525.288 213.157 525.469 212.669C525.622 212.199 525.778 211.718 525.936 211.225C526.081 210.681 526.389 210.269 526.86 209.99C527.303 209.729 527.753 209.649 528.21 209.751C528.256 209.762 528.313 209.774 528.382 209.79L529.628 210.176C530.144 210.34 530.502 210.672 530.702 211.173C530.86 211.544 530.897 211.913 530.816 212.279C530.79 212.393 530.751 212.516 530.697 212.648C530.363 213.39 530.175 213.805 530.131 213.891L529.646 214.935C529.636 214.981 529.637 215.029 529.649 215.08C529.685 215.136 529.737 215.172 529.806 215.187C531.087 215.257 532.339 215.297 533.562 215.306ZM526.508 231.561C526.704 231.005 527.081 230.609 527.638 230.373C528.093 230.162 528.561 230.111 529.041 230.218C529.133 230.238 529.213 230.256 529.282 230.272L529.411 230.337C529.927 230.5 530.297 230.835 530.52 231.341C530.695 231.74 530.736 232.146 530.644 232.557C530.624 232.649 530.589 232.749 530.541 232.858C530.419 233.191 530.327 233.495 530.265 233.769C530.076 234.616 530.262 235.342 530.823 235.947C531.385 236.553 532.534 237.05 534.273 237.438C535.943 237.811 537.72 238.077 539.607 238.234C539.703 238.231 539.786 238.238 539.854 238.253C540.266 238.345 540.599 238.576 540.853 238.944C541.188 239.38 541.288 239.846 541.152 240.344L541.026 240.748C540.87 241.338 540.538 241.804 540.029 242.147C539.543 242.494 539.009 242.627 538.427 242.545C536.625 242.335 534.912 242.048 533.288 241.685C530.383 241.036 528.283 240.063 526.988 238.765C525.716 237.472 525.279 235.934 525.678 234.149C525.851 233.372 526.128 232.509 526.508 231.561ZM553.099 220.571C553.206 220.09 553.46 219.703 553.862 219.409C554.292 219.096 554.77 218.999 555.297 219.117C555.297 219.117 555.308 219.119 555.331 219.124L556.6 219.408C557.126 219.525 557.515 219.828 557.766 220.317C557.987 220.726 558.046 221.16 557.944 221.617C557.929 221.686 557.913 221.754 557.898 221.823C557.602 222.718 557.39 223.451 557.263 224.023C557.145 224.549 557.033 225.052 556.925 225.532C556.445 227.682 556.077 229.653 555.82 231.445C555.112 237.195 555.73 240.287 557.675 240.721C558.75 240.961 560.153 239.57 561.885 236.547C562.115 236.166 562.445 235.975 562.877 235.976C562.974 235.973 563.068 235.982 563.16 236.003C563.457 236.069 563.68 236.251 563.83 236.549L564.511 237.854C564.788 238.444 564.917 239.049 564.898 239.669C564.88 239.857 564.853 240.031 564.817 240.192C564.72 240.626 564.534 241.029 564.259 241.4C562.77 243.444 561.389 244.841 560.117 245.59C558.873 246.32 557.611 246.543 556.33 246.256C554.271 245.797 552.738 244.385 551.728 242.022C550.747 239.642 550.521 236.193 551.05 231.676C551.381 229.013 551.955 225.851 552.773 222.191L553.099 220.571ZM571.971 226.876C571.844 226.584 571.814 226.289 571.88 225.991C571.916 225.831 571.975 225.676 572.056 225.526C572.301 225.077 572.667 224.834 573.155 224.799L573.784 224.724C574.102 224.699 574.41 224.719 574.707 224.786C574.982 224.847 575.26 224.945 575.542 225.08C576.073 225.391 576.44 225.845 576.642 226.443C577.4 228.533 577.934 230.982 578.243 233.789C578.553 236.596 578.628 239.218 578.467 241.656C578.459 241.798 578.443 241.927 578.417 242.041C578.32 242.476 578.1 242.871 577.756 243.226C577.324 243.658 576.796 243.924 576.173 244.025L575.28 244.15C575.082 244.178 574.891 244.171 574.708 244.13C574.434 244.069 574.189 243.93 573.973 243.714C573.6 243.342 573.435 242.897 573.479 242.379C573.705 239.643 573.705 236.906 573.476 234.165C573.253 231.401 572.751 228.972 571.971 226.876ZM600.004 245.386C599.561 245.648 599.077 245.72 598.551 245.602C598.048 245.49 597.64 245.219 597.328 244.789C597.038 244.364 596.918 243.881 596.967 243.339L598.18 232.911L598.798 229.663C598.92 229.114 599.219 228.689 599.695 228.387C600.176 228.062 600.691 227.961 601.24 228.083L603.607 228.612C604.156 228.735 604.579 229.046 604.876 229.544C605.178 230.02 605.256 230.53 605.111 231.073L604.287 234.276L600.981 244.236C600.795 244.747 600.469 245.13 600.004 245.386ZM599.288 254.556C598.459 255.044 597.518 255.17 596.466 254.935C595.414 254.7 594.616 254.185 594.073 253.391C593.53 252.598 593.371 251.698 593.596 250.691C593.82 249.685 594.35 248.926 595.184 248.416C596.042 247.911 596.985 247.774 598.014 248.004C599.044 248.234 599.827 248.757 600.365 249.574C600.926 250.396 601.094 251.31 600.869 252.316C600.645 253.322 600.118 254.069 599.288 254.556Z" fill="#5BC2C3"/>
<g filter="url(#filter2_d)">
<path d="M961.333 394.039C970.435 388.465 1004.55 366.887 1017.88 325.43C1032.76 279.161 1013.43 232.681 984.38 206.103C979.297 201.468 973.767 197.283 967.86 193.596C963.446 190.841 959.5 187.408 956.052 183.511C947.085 173.378 927.593 155.65 896.127 150.045C857.555 143.173 826.808 159.125 815.24 166.322C812.371 168.107 809.375 169.631 806.225 170.853C790.914 176.793 747.528 196.963 734.083 240.038C729.89 253.471 729.659 265.789 730.73 275.571C731.423 281.907 731.041 288.332 729.595 294.54C728.047 301.188 727.233 307.955 727.171 314.733C726.927 356.176 755.133 404.361 804.14 417.5C826.198 423.411 846.884 420.741 861.943 416.782C866.611 415.554 871.438 415.051 876.259 415.293C892.858 416.126 927.169 414.956 961.333 394.039Z" fill="white"/>
</g>
<path d="M785.448 289.027C785.595 288.448 785.894 287.969 786.344 287.592C786.652 287.34 786.99 287.176 787.358 287.103C787.519 287.07 787.696 287.059 787.889 287.068L788.247 287.068C788.78 287.105 789.219 287.327 789.564 287.736C789.73 287.966 789.838 288.208 789.889 288.46C789.935 288.69 789.923 288.931 789.854 289.184C789.239 291.722 788.396 293.958 787.325 295.893C787.063 296.376 786.638 296.7 786.05 296.866C786.004 296.875 785.958 296.884 785.912 296.893C785.384 296.999 784.88 296.933 784.402 296.694C784.379 296.698 784.365 296.689 784.361 296.666C783.892 296.473 783.572 296.131 783.402 295.639C783.384 295.547 783.368 295.467 783.354 295.398C783.271 294.984 783.333 294.577 783.54 294.177C783.939 293.428 784.312 292.601 784.656 291.695C784.973 290.771 785.237 289.882 785.448 289.027ZM811.942 276.3C812.411 276.613 812.703 277.056 812.818 277.631C812.928 278.182 812.827 278.692 812.515 279.161C812.202 279.63 811.77 279.92 811.219 280.03L803.98 281.48C803.819 281.512 803.757 281.62 803.794 281.804L806.327 294.455C806.548 295.558 806.592 296.434 806.458 297.082C806.33 297.753 805.962 298.305 805.356 298.737C804.648 299.261 803.441 299.742 801.736 300.179C801.695 300.211 801.651 300.232 801.605 300.241C801.1 300.342 800.594 300.264 800.088 300.007C799.578 299.726 799.174 299.317 798.875 298.78C798.801 298.651 798.73 298.534 798.661 298.428C798.583 298.277 798.527 298.12 798.495 297.959C798.44 297.684 798.468 297.403 798.578 297.118C798.757 296.7 799.076 296.445 799.536 296.353C799.559 296.348 799.57 296.346 799.57 296.346C799.777 296.304 799.973 296.265 800.156 296.228C800.639 296.132 801.039 296.04 801.356 295.952C801.793 295.865 801.974 295.637 801.901 295.27L799.381 282.687C799.344 282.504 799.246 282.428 799.085 282.46L796.258 283.026C796.074 283.063 796.001 283.173 796.037 283.357L796.307 284.701C796.601 286.172 796.792 287.544 796.88 288.817C796.963 290.068 796.915 291.499 796.736 293.113C796.557 294.726 796.066 296.33 795.262 297.926C794.752 298.96 794.113 299.948 793.346 300.891C793.038 301.263 792.654 301.495 792.194 301.587C792.102 301.606 792.01 301.624 791.918 301.643C791.353 301.684 790.822 301.539 790.326 301.209C790.266 301.149 790.197 301.103 790.119 301.071C790.064 301.034 790.006 300.986 789.946 300.926C789.514 300.678 789.25 300.313 789.153 299.83C789.052 299.324 789.174 298.858 789.518 298.43C790.116 297.713 790.624 296.966 791.042 296.189C791.758 294.874 792.202 293.567 792.371 292.266C792.537 290.942 792.589 289.772 792.529 288.756C792.469 287.74 792.32 286.635 792.08 285.44L791.832 284.199C791.795 284.015 791.685 283.942 791.501 283.978L783.572 285.566C783.021 285.676 782.511 285.575 782.042 285.263C781.573 284.95 781.283 284.518 781.173 283.967C781.058 283.392 781.156 282.871 781.469 282.402C781.781 281.933 782.213 281.643 782.765 281.533L794.003 279.283C794.164 279.25 794.228 279.154 794.196 278.993L793.574 275.89C793.538 275.707 793.439 275.631 793.278 275.663L785.556 277.209C785.005 277.32 784.494 277.219 784.025 276.906C783.557 276.594 783.267 276.162 783.156 275.61C783.041 275.036 783.14 274.514 783.453 274.045C783.765 273.576 784.197 273.286 784.749 273.176L792.47 271.63C792.631 271.598 792.696 271.501 792.663 271.34L792.401 270.03C792.291 269.479 792.392 268.968 792.704 268.5C793.035 268.003 793.476 267.7 794.028 267.589L794.234 267.548C794.786 267.437 795.299 267.55 795.772 267.885C796.264 268.193 796.565 268.623 796.676 269.174L796.938 270.484C796.97 270.645 797.067 270.71 797.227 270.677L805.845 268.952C806.42 268.837 806.942 268.935 807.411 269.248C807.88 269.56 808.172 270.004 808.287 270.578C808.397 271.13 808.296 271.64 807.984 272.109C807.671 272.578 807.228 272.87 806.653 272.985L798.035 274.711C797.874 274.743 797.812 274.851 797.849 275.035L798.47 278.137C798.502 278.298 798.599 278.362 798.76 278.33L810.411 275.997C810.963 275.887 811.473 275.988 811.942 276.3ZM807.145 285.83C806.879 285.572 806.713 285.283 806.649 284.961C806.617 284.8 806.619 284.632 806.656 284.458C806.692 283.925 806.929 283.495 807.365 283.168C807.66 282.966 807.979 282.83 808.324 282.761C808.554 282.715 808.79 282.704 809.034 282.727C809.641 282.772 810.153 283.004 810.572 283.423C812.374 285.141 813.836 286.713 814.958 288.138C815.178 288.404 815.319 288.687 815.378 288.986C815.42 289.192 815.42 289.431 815.379 289.703C815.278 290.273 814.997 290.723 814.538 291.054L814.227 291.296C813.998 291.461 813.745 291.572 813.469 291.627C813.239 291.673 813 291.673 812.752 291.627C812.205 291.521 811.766 291.239 811.435 290.779C810.327 289.304 808.897 287.654 807.145 285.83ZM838.974 264.828C839.084 264.782 839.197 264.748 839.311 264.725C839.702 264.647 840.084 264.702 840.456 264.89C840.934 265.129 841.226 265.513 841.332 266.041L841.366 266.214C841.481 266.788 841.401 267.342 841.125 267.875C840.845 268.386 840.425 268.733 839.864 268.917C835.755 270.361 831.961 271.527 828.482 272.415C828.325 272.47 828.24 272.583 828.227 272.753C828.181 275.033 828.069 276.979 827.89 278.593C827.876 278.643 827.883 278.678 827.911 278.696C827.961 278.71 828.007 278.701 828.049 278.668C830.346 276.774 833.024 275.521 836.08 274.909C838.907 274.343 841.322 274.588 843.327 275.645C845.326 276.679 846.549 278.31 846.996 280.54C847.474 282.93 847.155 285.037 846.039 286.862C844.945 288.683 843.229 290.138 840.889 291.228C839.184 292.023 837.171 292.653 834.85 293.118C833.977 293.293 833.062 293.44 832.106 293.56C831.476 293.638 830.881 293.53 830.32 293.236C829.782 292.938 829.373 292.506 829.093 291.94L828.837 291.382C828.764 291.253 828.716 291.132 828.693 291.017C828.628 290.695 828.685 290.385 828.865 290.086C829.081 289.732 829.384 289.516 829.775 289.438C829.844 289.424 829.913 289.41 829.981 289.396C831.186 289.322 832.351 289.173 833.477 288.947C834.006 288.841 834.518 288.715 835.014 288.568C836.605 288.154 837.986 287.65 839.158 287.057C840.325 286.441 841.198 285.668 841.777 284.74C842.375 283.783 842.561 282.742 842.335 281.616C842.114 280.513 841.459 279.688 840.37 279.141C839.303 278.59 837.954 278.478 836.322 278.804C834.346 279.2 832.588 279.911 831.048 280.936C829.527 281.934 828.367 283.182 827.567 284.681C827.292 285.214 826.899 285.639 826.389 285.956C826.131 286.104 825.865 286.205 825.589 286.26C825.313 286.315 825.028 286.324 824.734 286.288L824.437 286.24C823.872 286.162 823.447 285.888 823.162 285.419C822.996 285.19 822.89 284.96 822.844 284.73C822.794 284.477 822.798 284.201 822.858 283.903C823.455 281.034 823.836 277.624 824 273.671C824.014 273.501 823.929 273.434 823.745 273.471C822.5 273.696 821.236 273.89 819.953 274.051C819.369 274.12 818.841 273.987 818.367 273.651C817.912 273.288 817.627 272.819 817.512 272.245L817.457 271.969C817.351 271.44 817.457 270.953 817.774 270.507C818.063 270.162 818.426 269.946 818.863 269.859C818.932 269.845 819.012 269.829 819.104 269.811C820.823 269.682 822.377 269.502 823.765 269.272C823.926 269.24 824.002 269.141 823.992 268.975C823.965 268.24 823.944 267.838 823.93 267.769C823.884 267.18 823.842 266.675 823.806 266.252C823.718 265.696 823.842 265.181 824.178 264.707C824.472 264.266 824.871 263.995 825.377 263.894C825.4 263.889 825.423 263.884 825.446 263.88L826.349 263.735C826.859 263.657 827.319 263.804 827.728 264.176C828.018 264.428 828.199 264.739 828.273 265.106C828.301 265.244 828.315 265.373 828.315 265.493C828.296 265.64 828.289 265.904 828.294 266.285C828.299 266.667 828.297 266.954 828.287 267.147L828.315 268.002C828.306 268.076 828.329 268.131 828.384 268.168C828.439 268.204 828.501 268.216 828.57 268.202C832.275 267.245 835.743 266.121 838.974 264.828ZM868.455 262.367C868.864 262.62 869.112 262.965 869.2 263.401C869.315 263.976 869.177 264.481 868.786 264.918C868.451 265.272 868.042 265.498 867.559 265.594C867.49 265.608 867.421 265.622 867.352 265.636C866.792 265.7 866.265 265.578 865.773 265.271C865.419 265.055 865.068 264.85 864.718 264.657C864.291 264.432 864.031 264.09 863.939 263.63C863.838 263.124 863.955 262.695 864.29 262.341C864.681 261.904 865.152 261.63 865.704 261.52C866.278 261.405 866.832 261.485 867.365 261.761C867.715 261.954 868.078 262.156 868.455 262.367ZM857.211 268.885C856.967 268.623 856.816 268.343 856.756 268.044C856.724 267.883 856.714 267.718 856.728 267.548C856.769 267.038 857.001 266.645 857.424 266.369L857.969 266.044C858.222 265.874 858.486 265.762 858.762 265.706C859.037 265.651 859.325 265.653 859.623 265.713C860.193 265.814 860.667 266.09 861.044 266.54C861.085 266.628 861.136 266.701 861.196 266.761C861.2 266.784 861.426 267.073 861.872 267.629C862.318 268.185 862.669 268.629 862.927 268.96C863.028 269.107 863.152 269.13 863.299 269.029C867.408 266.27 870.45 264.693 872.427 264.297C874.794 263.823 876.734 264.08 878.246 265.068C879.777 266.028 880.712 267.359 881.053 269.059C881.495 271.265 881.196 273.118 880.158 274.617C879.138 276.088 877.364 277.076 874.836 277.582C874.1 277.73 873.266 277.801 872.333 277.797C871.731 277.774 871.209 277.556 870.768 277.142C870.349 276.724 870.083 276.228 869.968 275.653C869.862 275.124 869.988 274.681 870.347 274.322C870.581 274.06 870.859 273.897 871.181 273.833C871.319 273.805 871.473 273.798 871.643 273.812C872.415 273.848 873.111 273.805 873.732 273.68C874.904 273.446 875.747 273.002 876.262 272.349C876.772 271.673 876.935 270.876 876.751 269.957C876.622 269.313 876.224 268.819 875.558 268.474C874.914 268.125 874.075 268.054 873.041 268.261C871.364 268.597 868.889 269.905 865.616 272.186C865.469 272.287 865.444 272.4 865.541 272.524C865.872 272.983 866.244 273.53 866.658 274.165C868.157 276.279 870.095 279.452 872.472 283.685C872.56 283.882 872.622 284.073 872.659 284.257C872.723 284.579 872.705 284.905 872.604 285.236C872.42 285.751 872.078 286.13 871.577 286.374L871.149 286.567C870.974 286.65 870.807 286.707 870.646 286.74C870.301 286.809 869.936 286.774 869.55 286.636C869.012 286.457 868.607 286.108 868.336 285.589C866.795 282.551 865.062 279.563 863.135 276.627C862.896 276.268 862.542 275.753 862.073 275.083C861.972 274.935 861.859 274.91 861.735 275.007C861.046 275.503 860.074 276.26 858.819 277.276C858.548 277.473 858.263 277.602 857.965 277.662C857.758 277.703 857.53 277.701 857.282 277.655C856.717 277.577 856.268 277.308 855.937 276.849L855.551 276.353C855.39 276.146 855.287 275.927 855.241 275.698C855.19 275.445 855.197 275.181 855.261 274.905C855.394 274.376 855.698 273.981 856.171 273.719C856.667 273.452 857.021 273.25 857.233 273.112C857.697 272.804 858.382 272.344 859.287 271.732C859.434 271.631 859.459 271.519 859.363 271.394C858.875 270.751 858.372 270.147 857.852 269.581C857.636 269.338 857.423 269.106 857.211 268.885ZM898.024 250.853C898.175 250.297 898.495 249.863 898.982 249.55C899.212 249.385 899.453 249.277 899.706 249.226C899.981 249.171 900.257 249.175 900.533 249.24L901.836 249.481C902.356 249.568 902.746 249.848 903.008 250.321C903.087 250.473 903.142 250.629 903.174 250.79C903.238 251.112 903.195 251.431 903.043 251.749C902.818 252.296 902.572 252.919 902.306 253.617C902.063 254.311 901.785 255.132 901.472 256.079C901.155 257.003 900.891 257.773 900.68 258.389C900.487 258.977 900.207 259.846 899.839 260.995C899.467 262.121 899.24 262.836 899.157 263.14C899.139 263.167 899.143 263.19 899.171 263.209C899.199 263.227 899.235 263.232 899.281 263.222C900.325 262.344 901.513 261.772 902.845 261.505C904.155 261.242 905.27 261.438 906.19 262.09C907.109 262.743 907.75 263.797 908.114 265.254C908.151 265.438 908.326 266.311 908.638 267.874C908.974 269.432 909.246 270.489 909.453 271.046C909.798 272.291 910.66 272.776 912.039 272.5C913.234 272.26 914.164 271.477 914.83 270.148C915.52 268.815 915.96 267.137 916.153 265.115C916.199 264.627 916.438 264.269 916.87 264.039C916.999 263.965 917.132 263.915 917.27 263.887C917.569 263.827 917.851 263.866 918.118 264.004L918.842 264.397C919.403 264.691 919.835 265.118 920.138 265.679C920.258 265.918 920.343 266.164 920.394 266.417C920.458 266.739 920.465 267.072 920.415 267.417C919.423 273.208 916.698 276.551 912.24 277.443C910.424 277.807 908.928 277.616 907.751 276.872C906.579 276.151 905.82 275.107 905.475 273.742C905.296 273.085 905.033 272.014 904.688 270.53C904.362 269.017 904.145 268.057 904.04 267.648C903.662 266.361 902.842 265.844 901.578 266.097C900.452 266.322 899.505 267.026 898.738 268.207C897.989 269.361 897.437 270.786 897.084 272.482C896.749 273.792 896.448 275.872 896.182 278.722C896.104 279.288 895.849 279.745 895.417 280.095C895.146 280.292 894.861 280.421 894.562 280.481C894.355 280.522 894.142 280.529 893.921 280.502L892.749 280.378C892.184 280.3 891.735 280.031 891.404 279.571C891.239 279.342 891.128 279.089 891.073 278.813C891.023 278.56 891.02 278.31 891.066 278.062C891.736 274.485 892.788 269.948 894.221 264.451C895.672 258.925 896.756 255.027 897.473 252.757C897.546 252.527 897.647 252.196 897.776 251.764C897.9 251.309 897.982 251.005 898.024 250.853ZM943.734 245.107C944.015 244.836 944.35 244.661 944.741 244.583C944.879 244.555 945.019 244.539 945.161 244.534C945.713 244.544 946.173 244.75 946.541 245.155L946.996 245.637C947.267 245.918 947.439 246.242 947.513 246.609C947.545 246.77 947.557 246.947 947.548 247.14C947.497 247.724 947.256 248.19 946.824 248.54C946.374 248.917 945.868 249.317 945.307 249.74C945.248 249.8 944.68 250.248 943.605 251.085C942.525 251.899 941.707 252.528 941.151 252.974C940.613 253.393 939.885 253.993 938.965 254.774C938.046 255.556 937.256 256.264 936.594 256.899C935.234 258.223 934.232 259.487 933.589 260.691C932.969 261.891 932.773 263.066 933.004 264.215C933.519 266.789 936.201 267.59 941.05 266.619C943.992 266.03 947.08 265.101 950.316 263.832C950.431 263.809 950.534 263.788 950.626 263.769C951.017 263.691 951.399 263.746 951.771 263.935C952.226 264.178 952.506 264.564 952.612 265.093L952.806 266.058C952.902 266.66 952.799 267.219 952.496 267.734C952.22 268.267 951.79 268.628 951.207 268.816C948.431 269.755 945.399 270.553 942.113 271.211C933.978 272.84 929.381 271.011 928.322 265.726C927.963 263.933 928.122 262.216 928.797 260.575C929.491 258.906 930.589 257.229 932.092 255.541C932.206 255.399 932.204 255.268 932.085 255.148C930.471 253.177 928.593 250.661 926.45 247.6C926.284 247.37 926.174 247.117 926.119 246.841C926.068 246.589 926.066 246.338 926.112 246.09C926.236 245.515 926.53 245.074 926.994 244.766L927.594 244.359C927.828 244.217 928.072 244.12 928.324 244.069C928.577 244.019 928.842 244.026 929.117 244.09C929.687 244.191 930.129 244.485 930.441 244.972C931.885 247.169 933.561 249.451 935.469 251.817C935.57 251.964 935.692 251.976 935.835 251.852C936.809 250.987 938.107 249.891 939.729 248.562C941.37 247.206 942.252 246.479 942.376 246.383C943.02 245.776 943.472 245.351 943.734 245.107ZM802.308 341.89C802.345 342.074 802.443 342.15 802.604 342.118L803.914 341.855C804.098 341.818 804.172 341.708 804.135 341.524L803.665 339.18C803.633 339.019 803.525 338.957 803.341 338.994L802.031 339.256C801.87 339.289 801.806 339.385 801.838 339.546L802.308 341.89ZM797.55 340.154C797.366 340.19 797.29 340.289 797.323 340.45L797.405 340.864C797.571 341.691 797.7 342.335 797.792 342.794C797.806 342.983 797.905 343.059 798.088 343.022L799.329 342.773C799.513 342.736 799.587 342.626 799.55 342.442L799.081 340.098C799.048 339.937 798.94 339.875 798.757 339.912L797.55 340.154ZM798.278 328.391C798.287 328.318 798.264 328.262 798.209 328.226C798.177 328.184 798.127 328.171 798.058 328.184L796.265 328.543C796.081 328.58 795.971 328.686 795.934 328.86C795.714 329.909 795.539 330.708 795.411 331.26C795.397 331.311 795.408 331.368 795.445 331.432C795.477 331.474 795.528 331.487 795.597 331.474L797.458 331.101C797.642 331.064 797.753 330.958 797.789 330.784C797.968 330.126 798.131 329.329 798.278 328.391ZM800.906 333.637C800.745 333.67 800.681 333.766 800.713 333.927L801.141 336.064C801.178 336.248 801.277 336.324 801.438 336.292L802.748 336.029C802.932 335.993 803.005 335.882 802.968 335.698L802.54 333.561C802.508 333.4 802.4 333.338 802.216 333.375L800.906 333.637ZM796.425 334.535C796.241 334.572 796.165 334.67 796.197 334.831L796.625 336.969C796.662 337.152 796.773 337.226 796.956 337.189L798.163 336.947C798.347 336.911 798.42 336.8 798.383 336.616L797.956 334.479C797.923 334.318 797.815 334.256 797.631 334.293L796.425 334.535ZM803.215 329.948C803.79 329.833 804.311 329.932 804.78 330.244C805.249 330.557 805.541 331 805.656 331.575L809.259 349.569C809.43 350.42 809.462 351.118 809.356 351.665C809.278 352.231 809.016 352.713 808.571 353.113C807.996 353.587 807.121 353.989 805.944 354.32C805.898 354.33 805.852 354.339 805.806 354.348C805.346 354.44 804.891 354.376 804.441 354.155C803.958 353.893 803.572 353.517 803.282 353.025C803.209 352.896 803.156 352.751 803.124 352.59C803.078 352.361 803.112 352.115 803.227 351.853C803.388 351.462 803.675 351.225 804.089 351.142L805.399 350.88C805.628 350.834 805.771 350.77 805.826 350.687C805.899 350.577 805.913 350.407 805.867 350.177L804.853 345.109C804.82 344.948 804.712 344.886 804.528 344.923L798.496 346.131C798.312 346.168 798.236 346.267 798.268 346.428C798.554 349.526 798.451 352.176 797.96 354.377C797.854 354.805 797.592 355.108 797.174 355.288C797.068 355.357 796.947 355.405 796.809 355.432C796.51 355.492 796.204 355.458 795.892 355.329C795.45 355.155 795.129 354.861 794.926 354.447C794.82 354.277 794.749 354.1 794.712 353.916C794.662 353.663 794.669 353.399 794.733 353.123C795.298 350.333 795.085 346.467 794.096 341.526L793.019 336.149C792.982 335.965 792.895 335.827 792.757 335.735C792.491 335.597 792.222 335.448 791.95 335.287C791.468 335.025 791.125 334.628 790.923 334.095C790.904 334.003 790.884 333.899 790.861 333.784C790.778 333.371 790.815 332.957 790.971 332.543C791.88 330.282 792.45 327.634 792.679 324.6C792.739 324.062 792.957 323.6 793.334 323.214C793.619 322.966 793.933 322.807 794.278 322.738C794.416 322.711 794.556 322.695 794.699 322.69C795.227 322.704 795.673 322.901 796.036 323.283C796.275 323.522 796.425 323.79 796.485 324.089C796.517 324.25 796.528 324.427 796.519 324.62C796.492 324.721 796.478 324.832 796.478 324.951C796.464 325.002 796.487 325.057 796.547 325.117C796.602 325.153 796.653 325.167 796.699 325.158L799.25 324.647C799.296 324.638 799.339 324.617 799.381 324.585C799.509 324.511 799.643 324.461 799.78 324.433C800.033 324.383 800.279 324.417 800.518 324.536L801.221 324.826C801.585 324.968 801.863 325.223 802.056 325.591C802.134 325.743 802.187 325.887 802.215 326.025C802.261 326.255 802.258 326.483 802.208 326.708C801.928 327.935 801.627 329.059 801.305 330.08C801.296 330.153 801.308 330.211 801.34 330.252C801.372 330.293 801.423 330.307 801.492 330.293L803.215 329.948ZM811.856 337.11C811.893 337.294 812.003 337.367 812.187 337.33L813.669 337.034C813.853 336.997 813.926 336.887 813.89 336.703L812.537 329.946C812.505 329.785 812.397 329.723 812.213 329.76L810.73 330.057C810.547 330.094 810.471 330.193 810.503 330.353L811.856 337.11ZM818.604 328.731C818.572 328.571 818.464 328.508 818.28 328.545L816.625 328.877C816.441 328.913 816.365 329.012 816.398 329.173L817.751 335.93C817.787 336.113 817.898 336.187 818.082 336.15L819.736 335.819C819.92 335.782 819.994 335.672 819.957 335.488L818.604 328.731ZM827.268 346.932C827.323 347.088 827.367 347.246 827.399 347.407C827.468 347.752 827.443 348.104 827.323 348.462C827.139 348.977 826.813 349.377 826.344 349.662C826.174 349.768 825.997 349.839 825.814 349.876C825.561 349.926 825.28 349.899 824.972 349.793C824.508 349.623 824.17 349.309 823.959 348.849C823.908 348.716 823.86 348.594 823.814 348.484C823.731 348.309 823.6 348.251 823.421 348.311C821.068 349.093 817.551 350.216 812.873 351.678C812.808 351.715 812.73 351.743 812.638 351.761C812.179 351.853 811.723 351.789 811.273 351.568C810.763 351.288 810.418 350.879 810.238 350.341C810.197 350.254 810.167 350.164 810.149 350.072C810.061 349.636 810.121 349.217 810.328 348.817C810.585 348.312 810.987 347.992 811.534 347.859C812.844 347.477 814.198 347.075 815.595 346.651C815.774 346.592 815.848 346.481 815.815 346.32L814.697 340.736C814.66 340.552 814.55 340.479 814.366 340.515L811.16 341.157C810.609 341.268 810.087 341.169 809.595 340.861C809.126 340.549 808.834 340.105 808.719 339.531L806.683 329.361C806.573 328.81 806.674 328.3 806.986 327.831C807.317 327.334 807.758 327.031 808.31 326.92L811.516 326.278C811.699 326.242 811.775 326.143 811.743 325.982L810.763 321.087C810.657 320.558 810.751 320.073 811.045 319.632C811.358 319.163 811.778 318.876 812.307 318.77C812.835 318.664 813.323 318.77 813.769 319.087C814.233 319.376 814.518 319.785 814.624 320.314L815.604 325.209C815.636 325.37 815.744 325.432 815.928 325.395L819.479 324.684C820.053 324.569 820.577 324.679 821.051 325.015C821.52 325.327 821.809 325.759 821.92 326.311L823.956 336.48C824.071 337.054 823.972 337.576 823.66 338.045C823.347 338.514 822.904 338.806 822.329 338.921L818.779 339.632C818.595 339.669 818.521 339.779 818.558 339.963L819.607 345.203C819.639 345.363 819.745 345.414 819.924 345.354L821.655 344.864C821.811 344.809 821.839 344.708 821.738 344.561C821.411 344.005 821.094 343.495 820.786 343.031C820.675 342.837 820.6 342.638 820.558 342.431C820.512 342.201 820.514 341.973 820.565 341.748C820.684 341.27 820.948 340.918 821.358 340.693C821.551 340.583 821.739 340.509 821.923 340.472C822.199 340.417 822.474 340.422 822.75 340.486C823.251 340.601 823.637 340.858 823.909 341.258C825.288 343.252 826.408 345.144 827.268 346.932ZM859.401 334.617C859.599 334.41 859.813 334.284 860.042 334.238C860.18 334.21 860.323 334.206 860.47 334.224C860.916 334.302 861.203 334.543 861.332 334.948L861.608 335.789C861.668 335.968 861.714 336.138 861.746 336.299C861.842 336.782 861.854 337.258 861.781 337.726C861.67 338.37 861.383 338.905 860.919 339.333C859.609 340.551 858.047 341.342 856.231 341.706C854.898 341.973 853.738 341.727 852.749 340.969C851.779 340.183 851.128 338.963 850.797 337.308C850.53 335.975 850.316 333.831 850.155 330.876C849.993 327.92 849.813 325.948 849.615 324.96C849.445 324.11 849.11 323.508 848.608 323.154C848.107 322.8 847.489 322.697 846.754 322.844C845.559 323.083 844.265 323.964 842.873 325.486C841.476 326.984 840.159 328.766 838.923 330.83C838.831 330.968 838.804 331.129 838.84 331.312C839.025 332.471 839.172 333.326 839.282 333.877C840.055 337.738 840.729 340.746 841.304 342.902C841.337 343.063 841.392 343.279 841.47 343.55C841.507 343.614 841.532 343.681 841.546 343.75C841.638 344.21 841.56 344.655 841.312 345.088C841.022 345.552 840.602 345.839 840.05 345.95L839.326 346.095C838.775 346.205 838.276 346.102 837.83 345.785C837.384 345.468 837.108 345.045 837.002 344.516L836.878 343.896C836.717 342.972 836.492 341.726 836.202 340.159C835.907 338.569 835.684 337.335 835.532 336.457C835.523 336.411 835.495 336.392 835.449 336.401C835.422 336.383 835.399 336.388 835.38 336.415C835.169 336.912 834.813 337.76 834.312 338.96C833.812 340.159 833.439 341.047 833.196 341.621C833.003 342.09 832.654 342.375 832.148 342.476C831.643 342.578 831.21 342.449 830.852 342.091L830.328 341.622C829.914 341.227 829.65 340.742 829.535 340.167C829.41 339.547 829.493 338.945 829.782 338.361C831.565 334.849 833.04 331.709 834.207 328.942C834.271 328.785 834.299 328.625 834.289 328.459L834.006 326.508C833.992 326.439 833.958 326.386 833.903 326.349C833.848 326.313 833.786 326.301 833.717 326.315C833.606 326.361 832.287 326.816 829.759 327.681C829.644 327.704 829.552 327.722 829.484 327.736C829.024 327.828 828.592 327.759 828.187 327.53C827.682 327.272 827.339 326.875 827.16 326.337L827.042 325.93C827.029 325.861 827.015 325.792 827.001 325.723C826.909 325.264 826.989 324.829 827.242 324.42C827.532 323.956 827.95 323.657 828.497 323.524C828.795 323.464 829.126 323.386 829.489 323.289C830.441 323.027 831.666 322.638 833.164 322.123C833.32 322.068 833.392 321.946 833.378 321.758C833.166 320.222 833.051 319.409 833.032 319.317C833.014 319.225 832.98 319.053 832.929 318.8C832.92 318.754 832.881 318.559 832.812 318.214C832.706 317.685 832.786 317.191 833.053 316.731C833.342 316.267 833.74 315.984 834.245 315.883C834.268 315.878 834.28 315.876 834.28 315.876L835.355 315.697C835.888 315.614 836.369 315.745 836.796 316.089C837.113 316.36 837.313 316.703 837.396 317.117C837.415 317.208 837.435 317.312 837.458 317.427C837.482 318.259 837.525 319.194 837.59 320.233C837.599 320.398 837.675 320.539 837.818 320.653C838.25 321.021 838.526 321.504 838.645 322.101C838.751 322.63 838.698 323.142 838.487 323.639C838.372 323.901 838.237 324.239 838.081 324.652C838.016 324.809 838 324.967 838.032 325.128C838.046 325.197 838.051 325.28 838.046 325.376C838.055 325.422 838.074 325.454 838.101 325.473C838.152 325.487 838.198 325.477 838.239 325.445C841.451 321.312 844.436 318.97 847.194 318.417C848.987 318.059 850.451 318.267 851.586 319.044C852.717 319.798 853.437 320.944 853.745 322.484C853.984 323.679 854.201 325.775 854.394 328.772C854.588 331.769 854.807 333.876 855.051 335.094C855.143 335.554 855.331 335.898 855.616 336.128C855.901 336.358 856.262 336.429 856.699 336.342C857.572 336.167 858.473 335.592 859.401 334.617ZM886.923 327.206C886.891 327.046 886.783 326.983 886.599 327.02L873.19 329.705C873.006 329.742 872.93 329.841 872.962 330.002L874.011 335.242C874.048 335.425 874.158 335.499 874.342 335.462L887.752 332.777C887.936 332.74 888.009 332.63 887.972 332.446L886.923 327.206ZM872.964 340.937C872.413 341.047 871.891 340.949 871.399 340.641C870.93 340.328 870.638 339.885 870.523 339.31L868.439 328.9C868.328 328.348 868.429 327.838 868.742 327.369C869.073 326.872 869.514 326.569 870.066 326.459L888.405 322.787C888.956 322.676 889.469 322.789 889.942 323.124C890.434 323.432 890.735 323.862 890.846 324.413L892.93 334.824C893.045 335.398 892.935 335.922 892.6 336.396C892.287 336.865 891.855 337.154 891.304 337.265L890.166 337.493C889.844 337.557 889.545 337.497 889.27 337.314C889.017 337.125 888.858 336.87 888.794 336.548C888.775 336.456 888.72 336.42 888.628 336.438L874.977 339.171C874.862 339.194 874.814 339.252 874.833 339.344C874.897 339.665 874.837 339.964 874.654 340.24C874.493 340.511 874.251 340.679 873.93 340.744L872.964 340.937ZM870.698 318.695C870.68 318.723 870.675 318.759 870.684 318.805C870.712 318.824 870.749 318.828 870.795 318.819L884.515 316.072C884.56 316.063 884.581 316.047 884.577 316.024C884.59 315.973 884.583 315.939 884.556 315.92C881.149 314.188 878.398 312.385 876.302 310.51C876.265 310.445 876.212 310.42 876.143 310.434C876.074 310.448 876.035 310.491 876.026 310.565C874.827 313.171 873.051 315.881 870.698 318.695ZM872.109 308.553C872.716 307.284 873.662 306.521 874.949 306.263L875.225 306.208C876.535 305.945 877.735 306.267 878.824 307.172C880.838 308.872 883.058 310.352 885.486 311.611C887.913 312.87 890.349 313.816 892.795 314.45C893.273 314.569 893.62 314.87 893.836 315.353C893.887 315.486 893.923 315.61 893.946 315.725C894.015 316.07 893.974 316.401 893.823 316.718C893.74 316.902 893.659 317.097 893.581 317.304C893.352 317.828 892.977 318.226 892.458 318.497C892.283 318.58 892.104 318.64 891.92 318.677C891.575 318.746 891.224 318.72 890.865 318.601C889.633 318.178 888.348 317.671 887.011 317.078C886.955 317.041 886.907 317.039 886.866 317.071C886.824 317.103 886.811 317.154 886.825 317.223L886.852 317.361C886.963 317.912 886.852 318.436 886.522 318.933C886.209 319.402 885.777 319.691 885.226 319.802L871.712 322.508C871.161 322.618 870.639 322.519 870.147 322.211C869.674 321.876 869.382 321.432 869.271 320.881L869.237 320.709C869.223 320.64 869.191 320.598 869.14 320.584C869.09 320.571 869.046 320.591 869.009 320.647C868.086 321.644 867.077 322.635 865.983 323.619C865.68 323.895 865.356 324.067 865.011 324.136C864.827 324.173 864.639 324.187 864.446 324.178C863.89 324.146 863.393 323.934 862.956 323.544C862.874 323.489 862.8 323.42 862.736 323.337C862.423 323.089 862.23 322.781 862.156 322.413C862.133 322.298 862.122 322.181 862.122 322.062C862.117 321.56 862.308 321.14 862.694 320.8C864.67 319.089 866.481 317.149 868.126 314.979C869.789 312.782 871.117 310.64 872.109 308.553ZM920.76 316.057C920.521 314.862 919.884 313.95 918.85 313.32C917.797 312.718 916.512 312.569 914.995 312.873C914.949 312.882 914.915 312.889 914.892 312.894C914.363 313 913.839 313.128 913.32 313.28C912.801 313.432 912.274 313.609 911.741 313.811C911.208 314.014 910.753 314.189 910.376 314.336C910.018 314.455 909.567 314.653 909.025 314.929C908.501 315.177 908.143 315.357 907.95 315.467C907.752 315.554 907.405 315.731 906.909 315.998C906.412 316.265 906.152 316.4 906.13 316.405C905.785 316.594 905.325 316.865 904.751 317.219C904.539 317.357 904.33 317.447 904.123 317.488C903.848 317.543 903.544 317.52 903.213 317.419C902.68 317.263 902.292 316.934 902.048 316.434L901.599 315.448C901.521 315.296 901.466 315.14 901.434 314.979C901.369 314.657 901.408 314.315 901.551 313.952C901.762 313.455 902.123 313.108 902.633 312.91C903.258 312.689 903.833 312.455 904.357 312.207C904.513 312.151 904.943 311.97 905.646 311.662C906.367 311.326 906.894 311.089 907.225 310.951C907.578 310.809 908.121 310.592 908.852 310.303C909.578 309.99 910.198 309.746 910.713 309.571C911.251 309.392 911.871 309.208 912.574 309.019C913.273 308.808 913.944 308.638 914.588 308.509C917.414 307.943 919.844 308.257 921.875 309.452C923.926 310.619 925.22 312.547 925.758 315.236C926.435 318.614 925.679 321.705 923.492 324.509C921.3 327.291 918.063 329.564 913.779 331.33C913.6 331.39 913.418 331.438 913.234 331.475C912.821 331.558 912.4 331.547 911.973 331.441C911.37 331.299 910.865 330.982 910.456 330.49L909.766 329.732C909.61 329.548 909.508 329.341 909.462 329.111C909.421 328.904 909.428 328.7 909.483 328.498C909.602 328.02 909.897 327.698 910.365 327.532C918.243 324.616 921.708 320.791 920.76 316.057ZM905.934 306.297C905.364 306.316 904.872 306.128 904.459 305.732C904.114 305.443 903.9 305.091 903.817 304.678C903.794 304.563 903.78 304.434 903.776 304.292L903.769 304.078C903.75 303.508 903.939 303.016 904.334 302.602C904.656 302.299 905.023 302.106 905.437 302.023C905.552 302 905.669 301.988 905.788 301.988C909.585 301.85 913.556 301.449 917.702 300.786C918.235 300.703 918.716 300.834 919.143 301.179C919.484 301.445 919.695 301.785 919.778 302.199C919.796 302.291 919.806 302.397 919.806 302.516L919.826 302.799C919.849 303.392 919.668 303.918 919.282 304.378C918.956 304.778 918.54 305.028 918.034 305.13C917.965 305.143 917.894 305.146 917.82 305.137C913.059 305.708 909.097 306.095 905.934 306.297ZM951.399 312.038C951.101 312.456 950.687 312.718 950.158 312.824C949.653 312.925 949.17 312.842 948.71 312.576C948.274 312.305 947.968 311.912 947.793 311.397L944.675 301.373L943.922 298.153C943.812 297.602 943.913 297.092 944.225 296.623C944.533 296.131 944.963 295.83 945.514 295.719L947.893 295.243C948.445 295.132 948.957 295.245 949.431 295.58C949.899 295.893 950.178 296.327 950.265 296.883L950.811 300.144L951.826 310.59C951.863 311.132 951.721 311.615 951.399 312.038ZM954.462 320.71C953.902 321.492 953.093 321.989 952.036 322.2C950.979 322.412 950.041 322.265 949.223 321.76C948.404 321.254 947.894 320.496 947.691 319.485C947.489 318.474 947.666 317.566 948.222 316.761C948.801 315.952 949.607 315.444 950.641 315.237C951.676 315.03 952.604 315.191 953.427 315.719C954.273 316.243 954.797 317.01 955 318.021C955.202 319.033 955.023 319.929 954.462 320.71Z" fill="#5BC2C3"/>
<defs>
<filter id="filter0_d" x="26.522" y="158.494" width="301.311" height="279.59" filterUnits="userSpaceOnUse" color-interpolation-filters="sRGB">
<feFlood flood-opacity="0" result="BackgroundImageFix"/>
<feColorMatrix in="SourceAlpha" type="matrix" values="0 0 0 0 0 0 0 0 0 0 0 0 0 0 0 0 0 0 127 0"/>
<feOffset dx="5" dy="8"/>
<feColorMatrix type="matrix" values="0 0 0 0 0 0 0 0 0 0 0 0 0 0 0 0 0 0 0.1 0"/>
<feBlend mode="normal" in2="BackgroundImageFix" result="effect1_dropShadow"/>
<feBlend mode="normal" in="SourceGraphic" in2="effect1_dropShadow" result="shape"/>
</filter>
<filter id="filter1_d" x="369.225" y="35.6646" width="293.181" height="307.417" filterUnits="userSpaceOnUse" color-interpolation-filters="sRGB">
<feFlood flood-opacity="0" result="BackgroundImageFix"/>
<feColorMatrix in="SourceAlpha" type="matrix" values="0 0 0 0 0 0 0 0 0 0 0 0 0 0 0 0 0 0 127 0"/>
<feOffset dx="5" dy="8"/>
<feColorMatrix type="matrix" values="0 0 0 0 0 0 0 0 0 0 0 0 0 0 0 0 0 0 0.1 0"/>
<feBlend mode="normal" in2="BackgroundImageFix" result="effect1_dropShadow"/>
<feBlend mode="normal" in="SourceGraphic" in2="effect1_dropShadow" result="shape"/>
</filter>
<filter id="filter2_d" x="727.169" y="148.364" width="300.853" height="280.583" filterUnits="userSpaceOnUse" color-interpolation-filters="sRGB">
<feFlood flood-opacity="0" result="BackgroundImageFix"/>
<feColorMatrix in="SourceAlpha" type="matrix" values="0 0 0 0 0 0 0 0 0 0 0 0 0 0 0 0 0 0 127 0"/>
<feOffset dx="5" dy="8"/>
<feColorMatrix type="matrix" values="0 0 0 0 0 0 0 0 0 0 0 0 0 0 0 0 0 0 0.1 0"/>
<feBlend mode="normal" in2="BackgroundImageFix" result="effect1_dropShadow"/>
<feBlend mode="normal" in="SourceGraphic" in2="effect1_dropShadow" result="shape"/>
</filter>
</defs>
</svg>
