<svg width="250" height="253" viewBox="0 0 250 253" fill="none" xmlns="http://www.w3.org/2000/svg">
<path d="M139.981 25.5618C138.866 22.1743 112.869 24.0593 89.5923 36.6107C79.3111 42.2036 70.0641 49.5205 62.2492 58.2373C60.9452 59.6918 59.5679 61.0705 58.1071 62.3674C49.2616 70.2209 35.8121 84.568 27.7305 106.272C22.8033 119.521 10.8469 151.796 28.5247 177.925C37.4971 191.184 50.7978 197.724 60.7043 200.962C67.6432 203.23 74.2509 206.576 80.0294 211.037C93.0392 221.081 119.698 236.874 152.245 229.928C188.746 222.146 217.866 188.751 218.939 155.39C219.064 150.787 218.688 146.195 217.825 141.696C216.507 134.828 216.02 127.769 216.748 120.814C217.703 111.699 217.28 100.226 212.512 88.4013C202.072 62.525 177.297 50.901 171.411 48.3481C151.642 39.7651 132.624 40.4849 132.113 34.4653C131.764 30.3148 140.653 27.6109 139.981 25.5618Z" fill="white"/>
<path d="M66.1136 104.635C66.1375 104.528 66.0884 104.461 65.9664 104.434L61.872 103.519C61.75 103.492 61.6771 103.532 61.6533 103.638L60.8919 107.047C60.868 107.153 60.9171 107.22 61.0391 107.248L65.1335 108.162C65.2555 108.19 65.3284 108.15 65.3523 108.043L66.1136 104.635ZM67.7878 110.148C67.7027 110.529 67.4939 110.819 67.1615 111.017C66.8443 111.218 66.5028 111.278 66.1368 111.196L60.4412 109.924C60.3193 109.897 60.2446 109.944 60.2174 110.066L60.1612 110.318C60.0794 110.684 59.8782 110.975 59.5577 111.191C59.2405 111.393 58.8914 111.451 58.5101 111.366L58.4873 111.36C58.1213 111.279 57.83 111.078 57.6134 110.757C57.4155 110.425 57.3574 110.075 57.4392 109.709L59.2583 101.566C59.3435 101.185 59.5447 100.894 59.8618 100.693C60.1942 100.495 60.5434 100.437 60.9094 100.518L68.1603 102.138C68.5263 102.22 68.81 102.419 69.0113 102.737C69.2278 103.057 69.2935 103.408 69.2084 103.789L67.7878 110.148ZM78.3887 98.7076C78.7547 98.7894 79.0366 98.9964 79.2346 99.3288C79.4511 99.6494 79.5185 99.9927 79.4368 100.359L79.4112 100.473C79.3261 100.854 79.1173 101.144 78.7849 101.342C78.4677 101.543 78.1262 101.603 77.7602 101.521L76.5936 101.26C76.4716 101.233 76.397 101.281 76.3698 101.403L73.2936 115.173C73.1028 116.026 72.8437 116.649 72.5161 117.04C72.1852 117.447 71.7256 117.712 71.1374 117.837C70.2916 117.968 68.935 117.841 67.0678 117.456C67.0678 117.456 67.0602 117.454 67.045 117.451C66.6637 117.366 66.3479 117.167 66.0974 116.855C65.8283 116.555 65.6677 116.199 65.6156 115.787C65.5887 115.621 65.5617 115.455 65.5348 115.288C65.5129 115.171 65.5156 115.052 65.5428 114.93C65.5769 114.777 65.6567 114.635 65.7823 114.503C66.0045 114.297 66.2605 114.226 66.5502 114.29C66.5502 114.29 66.5579 114.292 66.5731 114.296C67.0729 114.423 68.0395 114.647 69.473 114.967C69.7474 115.029 69.9483 115.026 70.0755 114.958C70.2213 114.878 70.3215 114.717 70.376 114.473L73.4419 100.748C73.4692 100.627 73.4294 100.554 73.3227 100.53L59.3469 97.4076C58.9809 97.3258 58.6896 97.1246 58.4731 96.8041C58.2717 96.4869 58.2137 96.1378 58.2988 95.7565L58.3244 95.6422C58.4061 95.2762 58.6056 94.9925 58.9227 94.7912C59.2585 94.578 59.6094 94.5123 59.9754 94.5941L78.3887 98.7076ZM87.6913 104.796C87.6913 104.796 87.6896 104.804 87.6862 104.819C87.6862 104.819 87.6938 104.821 87.709 104.824L90.614 105.473C90.6445 105.48 90.6784 105.472 90.7157 105.448C90.753 105.424 90.7692 105.388 90.7641 105.339C90.6937 104.651 90.5327 103.902 90.2811 103.093C90.2405 102.988 90.1593 102.922 90.0373 102.895L87.9708 102.577C87.9404 102.571 87.9064 102.579 87.8691 102.603C87.8471 102.63 87.8479 102.662 87.8716 102.699C88.0541 103.172 88.1917 103.595 88.2845 103.968C88.3199 104.168 88.279 104.351 88.1619 104.517C88.0482 104.668 87.8913 104.761 87.6913 104.796ZM92.1567 105.77C92.1567 105.77 92.155 105.778 92.1516 105.793C92.1482 105.808 92.1541 105.817 92.1694 105.821L95.0515 106.465C95.1735 106.492 95.2752 106.467 95.3566 106.389C96.0591 105.681 96.7387 104.896 97.3955 104.034C97.4176 104.007 97.4168 103.975 97.3931 103.938C97.3847 103.904 97.3652 103.884 97.3347 103.877C96.3315 103.781 94.9038 103.614 93.0517 103.376C93.0212 103.369 92.9856 103.385 92.9449 103.424C92.9228 103.451 92.916 103.482 92.9245 103.516C93.0309 103.828 93.1161 104.127 93.1802 104.414C93.2224 104.583 93.2264 104.744 93.1924 104.897C93.1617 105.034 93.0912 105.17 92.9809 105.306C92.779 105.565 92.5042 105.719 92.1567 105.77ZM84.0544 106.241C83.9324 106.214 83.8578 106.261 83.8305 106.383L83.6874 107.024C83.6057 107.39 83.4062 107.673 83.0891 107.875C82.7872 108.08 82.4532 108.141 82.0872 108.059C81.7213 107.977 81.4376 107.778 81.2363 107.461C81.035 107.144 80.9752 106.802 81.0569 106.436L81.4146 104.835C81.4964 104.469 81.6959 104.185 82.013 103.984C82.3336 103.768 82.6844 103.702 83.0657 103.787L85.5589 104.344C85.6047 104.354 85.6386 104.346 85.6606 104.319C85.6979 104.295 85.7141 104.259 85.709 104.209C85.5572 103.599 85.352 102.977 85.0934 102.343C85.0326 102.185 85.0852 102.093 85.2513 102.066L85.2564 102.043C84.887 101.976 84.6109 101.923 84.4279 101.882C84.4126 101.878 84.3974 101.875 84.3821 101.872C84.1076 101.81 83.8841 101.664 83.7115 101.434C83.5236 101.2 83.418 100.92 83.3946 100.594C83.3882 100.337 83.4774 100.117 83.6623 99.9337C83.8625 99.7543 84.0846 99.6919 84.3286 99.7464C90.203 100.899 94.9722 101.588 98.636 101.814C98.8106 101.821 98.9741 101.841 99.1266 101.875C99.7976 102.025 100.323 102.399 100.701 102.996C100.808 103.164 100.841 103.339 100.8 103.522C100.786 103.583 100.756 103.648 100.708 103.718C100.571 103.975 100.36 104.096 100.075 104.081C99.6004 104.055 99.0708 104.024 98.4862 103.99C98.4557 103.983 98.437 103.995 98.4302 104.025C98.4268 104.041 98.4327 104.05 98.448 104.053L99.0653 104.407C99.3617 104.586 99.5292 104.839 99.5678 105.168C99.571 105.297 99.5607 105.415 99.5369 105.521C99.496 105.704 99.3941 105.874 99.2313 106.029C98.8309 106.388 98.4543 106.712 98.1015 107.002C98.0794 107.029 98.0726 107.059 98.081 107.093C98.0895 107.127 98.1089 107.148 98.1394 107.154L100.381 107.655C100.762 107.74 101.052 107.949 101.25 108.282C101.451 108.599 101.511 108.94 101.429 109.306L101.005 111.205C100.923 111.571 100.722 111.862 100.402 112.079C100.084 112.28 99.7352 112.338 99.354 112.253L98.622 112.089C98.5915 112.082 98.5652 112.093 98.5432 112.12C98.5363 112.15 98.5389 112.175 98.5507 112.193C98.7199 112.439 98.8738 112.682 99.0126 112.921C99.1631 113.179 99.2077 113.445 99.1464 113.719C99.1328 113.78 99.1132 113.832 99.0877 113.874C98.9636 114.215 98.7422 114.454 98.4234 114.591C98.1725 114.711 97.9174 114.742 97.6582 114.684C97.5972 114.67 97.5302 114.647 97.4574 114.615C97.1474 114.498 96.9087 114.276 96.7413 113.951C96.3388 113.172 95.8312 112.362 95.2187 111.521C95.0613 111.294 95.0133 111.043 95.0746 110.768C95.1428 110.464 95.3176 110.254 95.599 110.141C95.9025 110.001 96.222 109.968 96.5575 110.043C96.5728 110.046 96.5804 110.048 96.5804 110.048C96.9277 110.142 97.2071 110.324 97.4187 110.596C97.5795 110.808 97.758 111.048 97.9543 111.316C97.9661 111.334 97.989 111.339 98.0229 111.331C98.0568 111.323 98.0772 111.303 98.084 111.273L98.4468 109.649C98.474 109.527 98.4343 109.454 98.3275 109.43L92.2889 108.081C92.2736 108.077 92.255 108.089 92.2329 108.116C92.2295 108.132 92.2337 108.149 92.2456 108.167C92.4352 108.322 92.6079 108.48 92.7636 108.643C93.0007 108.872 93.0817 109.155 93.0067 109.49C92.9556 109.719 92.8258 109.906 92.6172 110.051C92.3712 110.221 92.1 110.288 91.8034 110.254C91.7729 110.247 91.7348 110.239 91.6891 110.228C91.4451 110.174 91.2334 110.046 91.054 109.846C90.5749 109.339 90.0221 108.839 89.3956 108.347C89.2754 108.24 89.2112 108.098 89.2029 107.92C89.2099 107.745 89.288 107.611 89.4372 107.516C89.4372 107.516 89.4313 107.507 89.4195 107.488C89.4263 107.457 89.4221 107.44 89.4068 107.437L84.0544 106.241ZM83.6417 111.528C83.3314 111.699 83.0008 111.746 82.6501 111.667C82.6349 111.664 82.6196 111.66 82.6044 111.657C82.2536 111.579 81.953 111.383 81.7025 111.071C81.5299 110.841 81.4743 110.588 81.5356 110.314C81.6072 109.993 81.7964 109.755 82.1033 109.6C82.7392 109.262 83.3236 108.832 83.8563 108.31C84.1006 108.077 84.3796 107.939 84.6931 107.897C84.8406 107.882 84.9906 107.891 85.1431 107.925C85.2956 107.959 85.4412 108.024 85.5801 108.119C85.8426 108.306 85.9948 108.556 86.0368 108.87C86.0553 109.002 86.051 109.129 86.0237 109.251C85.9862 109.419 85.9123 109.57 85.802 109.706C85.1199 110.466 84.3998 111.073 83.6417 111.528ZM91.9259 116.693C91.9632 116.67 91.9759 116.648 91.9641 116.63C91.9556 116.596 91.9362 116.575 91.9057 116.569L86.6676 115.399C86.6371 115.392 86.6108 115.402 86.5888 115.429C86.5701 115.441 86.5743 115.458 86.6014 115.48C87.1768 116.201 87.9378 116.915 88.8844 117.623C88.9809 117.692 89.0894 117.709 89.2098 117.671C90.2235 117.434 91.1289 117.108 91.9259 116.693ZM93.7988 114.974C94.5613 115.145 95.1584 115.446 95.59 115.879C95.8 116.086 95.8971 116.332 95.8816 116.616C95.8832 116.681 95.8772 116.743 95.8636 116.804C95.8193 117.003 95.7174 117.172 95.5579 117.313C94.5401 118.142 93.3514 118.805 91.9916 119.302C91.9695 119.329 91.9551 119.357 91.9483 119.388C91.9415 119.418 91.9533 119.437 91.9838 119.444C93.6997 120.292 95.6902 121.056 97.9553 121.739C98.2264 121.815 98.394 121.997 98.458 122.283C98.4765 122.415 98.4739 122.535 98.45 122.642C98.4194 122.779 98.3506 122.908 98.2437 123.028C98.1809 123.094 98.1198 123.152 98.0604 123.203C97.7499 123.518 97.3989 123.728 97.0073 123.832C96.6801 123.935 96.3564 123.951 96.0361 123.879C95.9751 123.866 95.9082 123.843 95.8354 123.811C92.9706 122.802 90.5493 121.637 88.5713 120.315C88.4747 120.245 88.368 120.221 88.251 120.243C85.939 120.559 83.2977 120.593 80.327 120.346C80.2474 120.344 80.1618 120.333 80.0703 120.313C79.7806 120.248 79.5079 120.107 79.2522 119.89C78.9458 119.613 78.725 119.276 78.5898 118.877L78.567 118.872C78.5214 118.718 78.5156 118.565 78.5497 118.412C78.5735 118.305 78.6219 118.196 78.6949 118.084C78.8749 117.852 79.1131 117.753 79.4096 117.788C81.7599 118.089 83.8723 118.2 85.7468 118.123C85.7807 118.114 85.8011 118.095 85.8079 118.064C85.83 118.037 85.8275 118.013 85.8004 117.991C85.2164 117.38 84.7061 116.761 84.2695 116.136C84.2103 116.042 84.1222 116.007 84.0053 116.029C83.3204 116.228 82.6745 116.396 82.0676 116.532C81.7998 116.584 81.5438 116.583 81.2999 116.529C81.1626 116.498 81.0364 116.454 80.9212 116.396C80.5452 116.216 80.2447 115.949 80.0197 115.594C79.9012 115.408 79.8659 115.208 79.9136 114.994C79.9272 114.933 79.9408 114.872 79.9544 114.811C80.0768 114.551 80.2871 114.397 80.5854 114.352C83.211 113.994 85.3675 113.299 87.055 112.267C87.077 112.24 87.0839 112.209 87.0754 112.176C87.0856 112.13 87.0772 112.096 87.0501 112.074C86.642 111.823 86.3932 111.503 86.3038 111.115C86.2297 110.73 86.2658 110.21 86.4123 109.554L86.489 109.211C86.5673 108.86 86.7557 108.59 87.0542 108.4C87.3561 108.196 87.6824 108.132 88.0332 108.211C88.3992 108.293 88.6752 108.49 88.8613 108.804C89.0507 109.103 89.1063 109.427 89.0279 109.778L88.9513 110.121C88.8934 110.38 88.9093 110.56 88.999 110.66C89.1074 110.748 89.3598 110.837 89.7563 110.925L92.2266 111.477C92.5468 111.549 92.7697 111.518 92.8953 111.386C93.221 111.075 93.5288 110.951 93.8185 111.016C93.8948 111.033 93.9676 111.066 94.037 111.113C94.0946 111.142 94.1581 111.18 94.2276 111.228C94.524 111.406 94.7271 111.643 94.8369 111.94C94.9062 112.132 94.9221 112.311 94.8846 112.479C94.8607 112.586 94.814 112.688 94.7444 112.784C94.4592 113.201 94.1132 113.46 93.7064 113.561C93.3029 113.647 92.7657 113.615 92.0947 113.465L89.9675 112.99C90.0369 113.037 90.0343 113.085 89.9597 113.132C89.6476 113.383 89.3499 113.604 89.0667 113.797C89.048 113.809 89.0353 113.83 89.0285 113.861C89.0369 113.895 89.0564 113.915 89.0869 113.922L93.7988 114.974ZM106.375 107.914C106.447 107.593 106.616 107.335 106.884 107.139C107.171 106.931 107.49 106.866 107.841 106.944C107.841 106.944 107.848 106.946 107.863 106.949L108.71 107.138C109.06 107.217 109.32 107.419 109.487 107.744C109.634 108.017 109.674 108.306 109.605 108.611C109.595 108.657 109.585 108.703 109.575 108.748C109.378 109.345 109.236 109.834 109.151 110.215C109.073 110.566 108.998 110.901 108.926 111.221C108.606 112.655 108.361 113.969 108.19 115.163C107.718 118.996 108.13 121.058 109.426 121.347C110.143 121.507 111.078 120.58 112.233 118.564C112.386 118.31 112.606 118.183 112.894 118.184C112.959 118.182 113.022 118.188 113.083 118.202C113.281 118.246 113.43 118.367 113.53 118.566L113.984 119.436C114.168 119.829 114.254 120.232 114.242 120.646C114.23 120.771 114.212 120.887 114.188 120.994C114.123 121.284 113.999 121.552 113.816 121.8C112.823 123.163 111.902 124.094 111.054 124.593C110.225 125.08 109.383 125.228 108.53 125.037C107.157 124.731 106.135 123.79 105.462 122.215C104.808 120.628 104.657 118.329 105.009 115.317C105.23 113.541 105.613 111.434 106.158 108.994L106.375 107.914ZM118.957 112.117C118.872 111.922 118.852 111.726 118.896 111.527C118.92 111.421 118.959 111.317 119.014 111.217C119.177 110.918 119.421 110.756 119.746 110.733L120.166 110.682C120.378 110.665 120.583 110.679 120.781 110.724C120.964 110.764 121.149 110.83 121.337 110.92C121.691 111.127 121.936 111.43 122.071 111.828C122.576 113.222 122.932 114.854 123.138 116.726C123.345 118.597 123.395 120.345 123.288 121.97C123.282 122.065 123.271 122.151 123.254 122.227C123.19 122.517 123.043 122.78 122.814 123.017C122.525 123.305 122.173 123.483 121.758 123.55L121.163 123.633C121.031 123.652 120.904 123.647 120.782 123.62C120.599 123.579 120.435 123.486 120.291 123.342C120.043 123.095 119.933 122.798 119.962 122.452C120.113 120.629 120.113 118.803 119.96 116.976C119.812 115.134 119.477 113.514 118.957 112.117ZM147.223 123.187C147.141 123.553 146.933 123.842 146.597 124.056C146.28 124.257 145.938 124.317 145.572 124.235L139.282 122.83C139.251 122.823 139.218 122.831 139.18 122.855C139.158 122.882 139.151 122.913 139.16 122.947C139.82 126.872 141.89 129.824 145.37 131.803C145.64 131.959 145.788 132.192 145.815 132.502C145.821 132.616 145.814 132.718 145.794 132.81C145.753 132.993 145.653 133.155 145.493 133.295C145.334 133.436 145.18 133.585 145.033 133.745C144.729 134.029 144.379 134.199 143.982 134.254C143.767 134.286 143.568 134.282 143.385 134.241C143.202 134.2 143.033 134.13 142.879 134.032C141.223 132.989 139.897 131.757 138.902 130.334C137.923 128.914 137.201 127.272 136.737 125.407C136.728 125.373 136.709 125.353 136.678 125.346C136.648 125.339 136.622 125.349 136.6 125.376C134.544 128.199 131.331 129.899 126.959 130.475C126.778 130.499 126.603 130.492 126.435 130.454C126.252 130.414 126.078 130.335 125.912 130.217C125.577 129.998 125.332 129.696 125.178 129.309C125.138 129.204 125.097 129.099 125.057 128.994C124.976 128.783 124.957 128.579 125.001 128.381C125.022 128.29 125.052 128.192 125.091 128.089C125.25 127.804 125.495 127.643 125.823 127.604C130.317 127.055 133.381 125.202 135.015 122.044C135.04 122.002 135.041 121.962 135.017 121.925C134.993 121.888 134.959 121.864 134.913 121.854L128.874 120.505C128.508 120.423 128.217 120.222 128.001 119.901C127.803 119.569 127.745 119.22 127.826 118.854L127.862 118.694C127.947 118.312 128.148 118.021 128.466 117.82C128.798 117.622 129.147 117.564 129.513 117.645L135.964 119.086C136.07 119.11 136.137 119.061 136.164 118.939L136.277 118.436L137.043 115.005C137.071 114.883 137.031 114.81 136.924 114.786L129.742 113.182C129.376 113.1 129.085 112.899 128.868 112.578C128.667 112.261 128.609 111.912 128.694 111.531L128.735 111.348C128.816 110.982 129.016 110.698 129.333 110.497C129.669 110.284 130.02 110.218 130.386 110.3L148.456 114.336C148.822 114.418 149.104 114.625 149.302 114.958C149.518 115.278 149.586 115.622 149.504 115.987L149.463 116.17C149.378 116.552 149.169 116.841 148.837 117.039C148.52 117.241 148.178 117.3 147.812 117.219L140.218 115.522C140.096 115.495 140.021 115.542 139.994 115.664L139.228 119.095L139.115 119.598C139.088 119.72 139.135 119.795 139.257 119.822L146.211 121.376C146.577 121.457 146.861 121.657 147.062 121.974C147.278 122.295 147.344 122.646 147.259 123.027L147.223 123.187ZM159.844 126.679C159.816 126.801 159.864 126.875 159.986 126.903L162.525 127.47C162.631 127.494 162.698 127.445 162.726 127.323L162.751 127.208L163.165 125.355C163.189 125.249 163.148 125.183 163.041 125.16L160.502 124.592C160.38 124.565 160.307 124.605 160.283 124.712L159.844 126.679ZM168.838 126.623C168.862 126.516 168.813 126.449 168.691 126.422L166.129 125.849C166.022 125.826 165.957 125.867 165.933 125.974L165.514 127.849L165.493 127.941C165.466 128.063 165.506 128.136 165.613 128.16L168.175 128.732C168.297 128.759 168.371 128.712 168.398 128.59L168.838 126.623ZM170.834 130.263C170.749 130.644 170.54 130.934 170.208 131.131C169.891 131.333 169.549 131.393 169.183 131.311L164.975 130.371C164.868 130.347 164.793 130.394 164.751 130.513C164.236 131.887 163.56 133.048 162.723 133.998C162.638 134.091 162.644 134.173 162.741 134.242C164.368 135.486 166.412 136.551 168.871 137.437C169.151 137.547 169.315 137.744 169.364 138.027C169.386 138.144 169.385 138.256 169.361 138.363C169.327 138.515 169.241 138.648 169.104 138.762C169.041 138.828 168.969 138.9 168.888 138.978C168.58 139.277 168.231 139.479 167.84 139.584C167.534 139.66 167.245 139.667 166.97 139.606C166.863 139.582 166.76 139.543 166.66 139.489C164.239 138.5 162.228 137.29 160.626 135.859C160.545 135.793 160.45 135.788 160.342 135.844C159.268 136.42 157.995 136.816 156.522 137.032C156.307 137.064 156.108 137.059 155.925 137.018C155.742 136.977 155.567 136.898 155.401 136.781C155.063 136.578 154.809 136.281 154.64 135.891C154.608 135.819 154.581 135.758 154.561 135.705C154.477 135.51 154.455 135.321 154.496 135.138C154.516 135.047 154.552 134.958 154.603 134.874C154.759 134.605 154.994 134.449 155.307 134.407C156.514 134.308 157.552 134.068 158.422 133.686C158.527 133.645 158.55 133.578 158.491 133.485C157.875 132.659 157.351 131.709 156.918 130.636C156.846 130.46 156.828 130.288 156.865 130.12C156.889 130.013 156.928 129.91 156.983 129.81C157.151 129.559 157.39 129.421 157.7 129.394C157.863 129.382 158.02 129.393 158.173 129.427C158.356 129.468 158.524 129.538 158.679 129.636C158.987 129.833 159.225 130.095 159.392 130.42C159.671 130.963 160.022 131.506 160.445 132.048C160.52 132.145 160.599 132.147 160.684 132.054C161.188 131.446 161.614 130.724 161.96 129.889C162.003 129.771 161.963 129.698 161.841 129.67L158.135 128.843C157.769 128.761 157.478 128.56 157.262 128.239C157.06 127.922 157.002 127.573 157.087 127.192L158.012 123.052C158.094 122.686 158.293 122.402 158.611 122.201C158.946 121.987 159.297 121.922 159.663 122.003L163.552 122.872C163.659 122.896 163.724 122.855 163.748 122.748L164.039 121.444C164.063 121.337 164.021 121.272 163.915 121.248L159.546 120.272C159.18 120.19 158.888 119.989 158.672 119.669C158.474 119.336 158.416 118.987 158.498 118.621L158.641 117.981C158.644 117.965 158.631 117.954 158.6 117.948C158.588 117.929 158.581 117.927 158.577 117.942C157.971 118.72 157.373 119.427 156.783 120.063C156.716 120.144 156.67 120.246 156.643 120.368L153.28 135.419C153.198 135.785 152.999 136.069 152.682 136.27C152.365 136.471 152.023 136.531 151.657 136.449C151.291 136.367 151.007 136.168 150.806 135.851C150.605 135.534 150.545 135.192 150.627 134.826L153.1 123.755C153.107 123.725 153.095 123.706 153.064 123.699C153.037 123.677 153.015 123.672 152.996 123.684C152.584 124.024 152.206 124.316 151.864 124.56C151.652 124.721 151.424 124.774 151.18 124.719C151.119 124.706 151.067 124.686 151.025 124.66C150.715 124.543 150.523 124.324 150.451 124.004C150.393 123.831 150.344 123.66 150.301 123.49C150.229 123.17 150.225 122.865 150.29 122.575C150.31 122.484 150.329 122.4 150.346 122.323C150.48 121.937 150.717 121.63 151.056 121.401C153.168 119.904 155.056 118.044 156.721 115.823C156.952 115.506 157.252 115.309 157.622 115.231C157.841 115.184 158.057 115.184 158.27 115.232C158.407 115.263 158.547 115.318 158.689 115.398L158.712 115.403C159.021 115.6 159.215 115.876 159.296 116.23C159.335 116.415 159.334 116.598 159.293 116.781C159.259 116.934 159.193 117.087 159.094 117.241C159.072 117.268 159.05 117.296 159.028 117.323C159.002 117.365 158.994 117.403 159.002 117.437C159.026 117.474 159.061 117.498 159.107 117.508L164.482 118.709C164.589 118.733 164.654 118.692 164.678 118.585L164.816 117.967C164.901 117.586 165.102 117.295 165.419 117.093C165.752 116.895 166.101 116.837 166.467 116.919L166.535 116.934C166.901 117.016 167.185 117.216 167.386 117.533C167.603 117.853 167.669 118.204 167.583 118.585L167.445 119.203C167.422 119.31 167.463 119.375 167.57 119.399L172.35 120.467C172.701 120.545 172.971 120.734 173.161 121.032C173.35 121.331 173.406 121.655 173.327 122.006C173.249 122.357 173.059 122.635 172.757 122.839C172.459 123.029 172.134 123.084 171.783 123.006L167.003 121.938C166.896 121.914 166.831 121.956 166.807 122.062L166.515 123.366C166.492 123.473 166.533 123.538 166.64 123.562L170.711 124.472C171.077 124.553 171.359 124.76 171.557 125.093C171.774 125.413 171.841 125.757 171.759 126.123L170.834 130.263ZM186.085 137.032C186.007 137.383 185.809 137.659 185.492 137.86C185.171 138.076 184.828 138.144 184.462 138.062L184.37 138.042C184.004 137.96 183.73 137.754 183.547 137.426C183.361 137.112 183.306 136.787 183.381 136.452C183.384 136.436 183.387 136.421 183.391 136.406C183.452 136.131 183.554 135.714 183.695 135.153C183.702 135.122 183.691 135.096 183.664 135.074C183.641 135.037 183.612 135.022 183.578 135.031C182.634 135.316 181.895 135.648 181.363 136.025C180.849 136.39 180.53 136.848 180.408 137.397C180.268 138.022 180.44 138.508 180.922 138.856C181.405 139.204 182.241 139.511 183.43 139.777C185.077 140.145 186.863 140.392 188.788 140.518C188.849 140.531 188.91 140.545 188.971 140.558C189.231 140.616 189.448 140.753 189.624 140.968C189.848 141.259 189.913 141.577 189.819 141.925L189.724 142.24C189.639 142.621 189.427 142.926 189.088 143.154C188.764 143.386 188.408 143.475 188.02 143.42C186.11 143.153 184.355 142.841 182.754 142.484C181.793 142.269 180.96 142.019 180.256 141.733C179.551 141.448 178.933 141.094 178.403 140.671C177.873 140.249 177.505 139.75 177.297 139.175C177.092 138.585 177.072 137.924 177.235 137.192C177.389 136.506 177.678 135.89 178.104 135.345C178.549 134.788 179.094 134.317 179.741 133.933C180.402 133.553 181.056 133.243 181.702 133.003C182.351 132.747 183.086 132.503 183.906 132.27C184.023 132.249 184.062 132.185 184.021 132.08C183.769 131.559 183.308 131.224 182.637 131.074C182.012 130.935 181.337 130.944 180.613 131.102C179.889 131.261 179.24 131.516 178.665 131.868C178.202 132.149 177.649 132.546 177.006 133.058C176.713 133.297 176.369 133.404 175.974 133.38C175.913 133.366 175.852 133.353 175.791 133.339C175.486 133.271 175.232 133.118 175.029 132.881L174.759 132.58C174.533 132.306 174.443 131.989 174.491 131.632C174.498 131.601 174.503 131.579 174.506 131.563C174.578 131.243 174.754 130.994 175.033 130.817C177.265 129.426 179.016 127.968 180.285 126.442C180.311 126.4 180.312 126.36 180.288 126.323C180.28 126.289 180.26 126.269 180.23 126.262L180.115 126.236C179.307 126.056 178.458 125.842 177.569 125.595C177.191 125.495 176.903 125.278 176.705 124.946C176.511 124.598 176.456 124.234 176.541 123.853L176.546 123.83C176.625 123.479 176.821 123.211 177.134 123.025C177.426 122.866 177.724 122.82 178.029 122.888C178.075 122.899 178.112 122.915 178.139 122.937C179.009 123.195 179.918 123.43 180.863 123.641L181.824 123.856C181.93 123.88 182.011 123.842 182.065 123.742C182.261 123.369 182.43 123.007 182.572 122.654C182.73 122.306 182.982 122.041 183.326 121.862C183.618 121.703 183.923 121.659 184.244 121.731C184.289 121.741 184.326 121.757 184.353 121.779L184.714 121.884C185.058 121.993 185.304 122.216 185.453 122.553C185.561 122.786 185.588 123.024 185.533 123.268C185.513 123.359 185.485 123.449 185.449 123.537C185.308 123.81 185.171 124.067 185.037 124.31C185.011 124.352 185.01 124.392 185.034 124.429C185.058 124.466 185.092 124.49 185.138 124.5C187.144 124.837 188.863 125.06 190.295 125.172C190.36 125.171 190.415 125.175 190.46 125.185C190.75 125.25 190.98 125.405 191.149 125.651C191.372 125.941 191.439 126.252 191.349 126.584L191.344 126.607C191.255 127.004 191.049 127.318 190.725 127.55C190.401 127.781 190.043 127.878 189.652 127.838C187.884 127.652 185.839 127.347 183.516 126.924C183.394 126.897 183.298 126.931 183.229 127.028C182.692 127.708 182.152 128.3 181.607 128.803C181.589 128.815 181.583 128.838 181.592 128.872C181.604 128.89 181.627 128.895 181.66 128.887C182.374 128.774 183.219 128.827 184.195 129.045C184.881 129.198 185.459 129.479 185.928 129.888C186.4 130.282 186.706 130.775 186.846 131.366C186.883 131.487 186.955 131.526 187.06 131.486C187.429 131.408 187.797 131.338 188.163 131.276C188.548 131.202 188.95 131.124 189.368 131.041C189.802 130.962 190.129 130.899 190.347 130.851C190.766 130.769 191.254 130.662 191.812 130.53C192.012 130.495 192.204 130.498 192.387 130.539C192.539 130.573 192.694 130.631 192.852 130.714C193.156 130.927 193.348 131.218 193.425 131.587L193.465 131.836C193.508 132.006 193.512 132.167 193.478 132.319C193.44 132.487 193.357 132.645 193.228 132.792C193.016 133.097 192.721 133.271 192.343 133.315C191.848 133.38 191.317 133.462 190.751 133.559C189.195 133.788 187.88 134.015 186.805 134.239C186.688 134.261 186.616 134.333 186.589 134.455L186.085 137.032ZM51.6925 138.229C51.5111 138.252 51.3289 138.243 51.1459 138.203C50.9782 138.165 50.8173 138.097 50.6632 137.999C50.3583 137.786 50.1765 137.49 50.1176 137.108L49.966 136.282C49.9543 136.119 49.9638 135.969 49.9945 135.832C50.0319 135.664 50.1169 135.499 50.2492 135.337C50.4851 135.069 50.781 134.927 51.1369 134.91C51.6674 134.901 52.2013 134.876 52.7386 134.836C52.8521 134.829 53.3326 134.793 54.1801 134.726C55.031 134.644 55.7403 134.586 56.3081 134.553C56.8911 134.523 57.6241 134.502 58.5071 134.492C59.3935 134.465 60.2222 134.482 60.9933 134.543C61.7796 134.606 62.493 134.71 63.1334 134.853C64.5516 135.169 65.7594 135.711 66.7567 136.479C67.7727 137.234 68.5004 138.205 68.9397 139.392C69.3824 140.563 69.4488 141.843 69.1388 143.231C68.5903 145.686 67.0884 147.464 64.6332 148.564C62.1932 149.668 59.0871 149.991 55.3151 149.532C55.2389 149.515 55.1779 149.502 55.1321 149.492C54.7966 149.417 54.5045 149.255 54.2556 149.008C53.9526 148.716 53.7581 148.368 53.6721 147.965L53.5584 147.291C53.5247 147.155 53.5215 147.026 53.5487 146.904C53.5862 146.737 53.6753 146.589 53.8161 146.46C54.0452 146.223 54.3232 146.125 54.6503 146.166C56.1041 146.395 57.4488 146.503 58.6843 146.491C59.9232 146.463 61.0453 146.314 62.0506 146.042C63.0559 145.77 63.8826 145.331 64.5307 144.723C65.1975 144.103 65.6313 143.344 65.8323 142.444C66.0844 141.316 65.9093 140.308 65.3069 139.421C64.7198 138.537 63.7477 137.944 62.3905 137.641C60.1337 137.136 56.5676 137.332 51.6925 138.229ZM86.559 137.492C86.8609 137.288 87.1982 137.211 87.571 137.262C87.6202 137.257 87.66 137.258 87.6905 137.265C88.0107 137.336 88.269 137.506 88.4653 137.774L89.0084 138.568C89.2199 138.839 89.2899 139.135 89.2184 139.455C89.1332 139.836 88.9219 140.101 88.5845 140.25C88.4048 140.338 88.0207 140.517 87.4323 140.785C87.2678 140.877 86.2063 141.4 84.2478 142.355C82.2927 143.295 80.9522 143.957 80.2264 144.339C79.7143 144.625 79.3734 144.861 79.2037 145.047C79.0526 145.221 79.0143 145.429 79.0886 145.67C79.1629 145.91 79.3786 146.271 79.7356 146.751C79.7627 146.773 80.597 147.84 82.2386 149.952C83.8802 152.063 85.0842 153.661 85.8507 154.745C86.0554 155.047 86.1169 155.381 86.0352 155.747C85.9534 156.113 85.7557 156.389 85.4419 156.575L84.5846 157.08C84.2743 157.251 83.9438 157.297 83.5931 157.219C83.5778 157.215 83.5549 157.21 83.5244 157.203C83.1619 157.106 82.8799 156.899 82.6786 156.582C82.188 155.768 81.9013 155.296 81.8184 155.165C81.1096 153.966 79.2593 151.391 76.2673 147.441C75.648 146.63 75.2929 145.926 75.202 145.33C75.1464 145.077 75.1458 144.829 75.2003 144.585C75.265 144.295 75.4077 144.015 75.6283 143.744C76.0186 143.287 76.6835 142.819 77.6229 142.34C81.6995 140.289 84.305 138.91 85.4396 138.203C85.8466 137.958 86.2198 137.721 86.559 137.492ZM101.502 141.551C101.618 141.177 101.84 140.898 102.169 140.715C102.483 140.529 102.808 140.474 103.143 140.549C103.174 140.556 103.196 140.561 103.212 140.564L103.71 140.699C104.042 140.79 104.284 140.996 104.436 141.318C104.541 141.565 104.568 141.804 104.517 142.032C104.496 142.124 104.468 142.214 104.433 142.302C103.857 143.518 103.411 144.579 103.097 145.486C103.075 145.513 103.071 145.528 103.087 145.531C103.117 145.538 103.142 145.536 103.16 145.524C104.026 144.66 105.023 143.995 106.152 143.526C107.285 143.043 108.438 142.932 109.612 143.195C111.259 143.563 112.456 144.622 113.201 146.374C113.965 148.114 114.068 150.234 113.509 152.735C112.855 155.663 111.567 157.808 109.645 159.172C107.724 160.536 105.276 161.246 102.301 161.302C102.139 161.314 101.981 161.302 101.828 161.268C101.6 161.217 101.375 161.111 101.155 160.95C100.823 160.716 100.582 160.398 100.432 159.996L100.254 159.5C100.182 159.323 100.164 159.151 100.202 158.984C100.225 158.877 100.281 158.769 100.37 158.661C100.556 158.399 100.811 158.263 101.133 158.255C102.373 158.292 103.46 158.231 104.392 158.071C105.328 157.895 106.205 157.587 107.024 157.146C107.847 156.689 108.528 156.041 109.068 155.201C109.626 154.349 110.045 153.298 110.325 152.047C110.72 150.278 110.75 148.852 110.416 147.769C110.085 146.67 109.431 146.012 108.455 145.794C107.586 145.6 106.653 145.8 105.656 146.393C104.677 146.975 103.82 147.768 103.083 148.773C102.365 149.765 101.877 150.768 101.618 151.783C101.558 151.978 101.506 152.175 101.462 152.373L101.352 152.973C101.277 153.308 101.096 153.58 100.81 153.788C100.516 154.027 100.185 154.113 99.8156 154.046L99.6275 154.028C99.5817 154.018 99.5436 154.01 99.5131 154.003C99.1776 153.928 98.9041 153.755 98.6926 153.483C98.4573 153.175 98.3594 152.825 98.3988 152.433C98.5236 151.516 98.6728 150.669 98.8466 149.891C99.2894 147.909 100.056 145.479 101.148 142.601C101.265 142.291 101.383 141.941 101.502 141.551ZM131.602 157.209C131.571 157.202 131.533 157.194 131.487 157.183C131.182 157.115 130.932 156.947 130.735 156.679C130.531 156.377 130.467 156.051 130.546 155.7L130.556 155.654C130.641 155.273 130.844 154.974 131.165 154.758C131.489 154.526 131.845 154.437 132.233 154.492C133.409 154.675 134.446 154.866 135.346 155.067C136.246 155.268 137.154 155.503 138.071 155.772C138.445 155.888 138.722 156.118 138.901 156.462C139.099 156.794 139.148 157.149 139.047 157.527L139.027 157.619C138.93 157.981 138.719 158.246 138.393 158.414C138.117 158.576 137.826 158.623 137.521 158.555C137.475 158.545 137.429 158.535 137.384 158.525C136.428 158.215 135.554 157.972 134.761 157.795C133.617 157.539 132.564 157.344 131.602 157.209ZM132.347 150.003C132.442 150.008 132.527 150.019 132.604 150.036C132.848 150.09 133.05 150.224 133.211 150.436C133.438 150.711 133.514 151.016 133.439 151.351L133.387 151.58C133.299 151.976 133.091 152.298 132.764 152.545C132.451 152.796 132.096 152.917 131.698 152.908C130.696 152.876 129.656 152.804 128.576 152.691C128.466 152.682 128.392 152.729 128.353 152.833C127.863 153.876 127.425 154.763 127.038 155.493C125.409 158.699 123.658 161.63 121.784 164.285C121.568 164.605 121.268 164.803 120.883 164.877C120.664 164.924 120.448 164.924 120.235 164.876C120.082 164.842 119.935 164.785 119.793 164.705L119.135 164.318C118.842 164.124 118.662 163.852 118.597 163.501C118.57 163.335 118.572 163.184 118.602 163.046C118.643 162.863 118.728 162.698 118.857 162.551C119.724 161.464 120.666 160.113 121.683 158.499C122.716 156.889 123.584 155.402 124.289 154.038C124.484 153.666 124.766 153.12 125.135 152.402C125.16 152.36 125.161 152.32 125.137 152.283C125.114 152.245 125.079 152.221 125.033 152.211C124.435 152.094 123.984 152.001 123.679 151.933C123.191 151.824 122.704 151.707 122.22 151.583C121.842 151.482 121.554 151.266 121.356 150.933C121.158 150.601 121.094 150.243 121.164 149.858L121.21 149.652C121.273 149.298 121.462 149.028 121.775 148.842C122.067 148.683 122.373 148.639 122.693 148.711C122.724 148.717 122.754 148.724 122.785 148.731C123.281 148.874 123.804 149.007 124.353 149.129C124.978 149.269 125.614 149.395 126.262 149.508C126.372 149.516 126.454 149.471 126.508 149.371C126.683 148.946 126.831 148.57 126.952 148.245C127.054 147.932 127.158 147.611 127.263 147.282C127.36 146.919 127.566 146.645 127.879 146.459C128.174 146.285 128.474 146.232 128.779 146.3C128.81 146.307 128.848 146.315 128.894 146.325L129.725 146.583C130.069 146.692 130.307 146.913 130.441 147.247C130.546 147.495 130.571 147.741 130.516 147.985C130.499 148.061 130.473 148.143 130.437 148.231C130.215 148.726 130.089 149.002 130.06 149.059L129.736 149.756C129.73 149.786 129.73 149.818 129.739 149.852C129.763 149.89 129.797 149.913 129.843 149.924C130.697 149.97 131.532 149.997 132.347 150.003ZM127.645 160.84C127.775 160.469 128.027 160.205 128.398 160.047C128.701 159.907 129.013 159.873 129.334 159.944C129.395 159.958 129.448 159.97 129.494 159.98L129.58 160.023C129.924 160.132 130.17 160.355 130.319 160.693C130.436 160.959 130.463 161.229 130.402 161.504C130.388 161.565 130.365 161.632 130.333 161.704C130.252 161.926 130.19 162.129 130.149 162.312C130.023 162.876 130.147 163.36 130.522 163.764C130.896 164.168 131.662 164.499 132.821 164.758C133.934 165.007 135.12 165.183 136.377 165.288C136.441 165.286 136.496 165.291 136.542 165.301C136.817 165.362 137.039 165.516 137.208 165.762C137.431 166.052 137.498 166.363 137.407 166.695L137.323 166.964C137.219 167.357 136.998 167.668 136.659 167.897C136.335 168.128 135.979 168.217 135.591 168.162C134.389 168.022 133.247 167.831 132.165 167.589C130.228 167.156 128.828 166.507 127.965 165.642C127.116 164.78 126.825 163.755 127.091 162.565C127.207 162.047 127.391 161.472 127.645 160.84ZM145.372 153.513C145.443 153.192 145.613 152.934 145.881 152.738C146.168 152.53 146.486 152.465 146.837 152.543C146.837 152.543 146.845 152.545 146.86 152.548L147.706 152.737C148.057 152.816 148.316 153.018 148.483 153.343C148.631 153.616 148.67 153.905 148.602 154.21C148.592 154.256 148.581 154.302 148.571 154.348C148.374 154.944 148.233 155.433 148.148 155.814C148.069 156.165 147.994 156.5 147.923 156.82C147.603 158.254 147.357 159.568 147.186 160.762C146.714 164.595 147.126 166.657 148.422 166.946C149.139 167.106 150.075 166.179 151.229 164.163C151.382 163.909 151.603 163.782 151.891 163.783C151.955 163.781 152.018 163.787 152.079 163.801C152.277 163.845 152.426 163.966 152.526 164.165L152.98 165.035C153.164 165.428 153.25 165.832 153.238 166.245C153.226 166.37 153.208 166.486 153.184 166.593C153.119 166.883 152.995 167.151 152.812 167.399C151.819 168.762 150.899 169.693 150.051 170.192C149.222 170.679 148.38 170.827 147.526 170.637C146.154 170.33 145.131 169.389 144.458 167.814C143.804 166.227 143.653 163.928 144.006 160.916C144.226 159.141 144.609 157.033 145.154 154.593L145.372 153.513ZM157.953 157.716C157.869 157.521 157.848 157.325 157.893 157.126C157.917 157.02 157.956 156.916 158.01 156.816C158.173 156.517 158.417 156.355 158.743 156.332L159.162 156.281C159.374 156.265 159.579 156.278 159.777 156.323C159.96 156.364 160.146 156.429 160.334 156.519C160.688 156.726 160.932 157.029 161.068 157.427C161.573 158.821 161.928 160.454 162.135 162.325C162.341 164.196 162.391 165.944 162.284 167.569C162.279 167.664 162.268 167.75 162.251 167.826C162.186 168.116 162.039 168.379 161.81 168.616C161.522 168.904 161.17 169.082 160.754 169.149L160.159 169.232C160.027 169.251 159.9 169.246 159.778 169.219C159.595 169.178 159.432 169.086 159.288 168.941C159.039 168.694 158.929 168.397 158.958 168.051C159.11 166.228 159.109 164.403 158.957 162.575C158.808 160.733 158.474 159.113 157.953 157.716ZM176.642 170.057C176.347 170.231 176.024 170.279 175.673 170.2C175.338 170.125 175.066 169.945 174.858 169.658C174.665 169.375 174.585 169.053 174.617 168.692L175.426 161.74L175.838 159.574C175.919 159.208 176.119 158.925 176.436 158.723C176.757 158.507 177.1 158.439 177.466 158.521L179.044 158.874C179.41 158.955 179.692 159.163 179.89 159.495C180.091 159.812 180.143 160.152 180.046 160.515L179.497 162.649L177.294 169.29C177.169 169.63 176.952 169.886 176.642 170.057ZM176.165 176.17C175.612 176.495 174.985 176.579 174.283 176.422C173.582 176.265 173.05 175.922 172.688 175.393C172.326 174.864 172.22 174.264 172.37 173.593C172.52 172.922 172.873 172.416 173.429 172.076C174 171.74 174.629 171.648 175.315 171.801C176.002 171.955 176.524 172.304 176.883 172.848C177.257 173.396 177.369 174.005 177.219 174.676C177.069 175.347 176.718 175.845 176.165 176.17Z" fill="#5BC2C3"/>
</svg>
