<svg width="1440" height="8905" viewBox="0 0 1440 8905" fill="none" xmlns="http://www.w3.org/2000/svg">
<g clip-path="url(#clip0)">
<rect width="1440" height="8905" fill="white"/>
<rect x="0.5" y="0.5" width="1439" height="144" fill="white" stroke="black"/>
<rect width="1440" height="10060" fill="#5BC2C3"/>
<rect x="1" y="8286" width="1435" height="632" fill="#73CCCD"/>
<path d="M1250.85 7922.03C1243.55 7915.06 1183.46 7957.25 1144.47 8022.52C1125.89 8053.89 1112.99 8088.64 1106.43 8124.99C1095.53 8155.96 1079.35 8215.48 1090.35 8287.88C1096.54 8328.51 1111.72 8427.42 1189.95 8468.11C1248.19 8498.41 1309.18 8478.68 1328.83 8471.35C1338.24 8474.19 1464.43 8510.02 1559.01 8421.67C1636.37 8349.44 1661.02 8222.99 1618.13 8137.01C1607.5 8115.95 1593.1 8097.27 1575.72 8082.01C1568.22 8054.47 1551.18 8010 1511.32 7976.69C1450.88 7926.22 1375.33 7932.46 1357.66 7934.47C1298.32 7941.2 1253.46 7970.39 1244.03 7955.89C1237.53 7945.89 1255.26 7926.25 1250.85 7922.03Z" fill="#73CCCD"/>
<path d="M-133.879 8166.07C-140.806 8168.72 -135.533 8225.45 -108.407 8275.58C-95.3154 8299.57 -78.1145 8320.78 -57.6811 8338.13C-42.1427 8356.61 -10.5994 8388.81 38.5544 8406.59C66.1416 8416.55 133.341 8440.72 186.286 8400.47C225.707 8370.49 234.799 8321.03 237.121 8304.75C242.207 8299.18 308.965 8223.77 286.943 8126.76C268.949 8047.42 198.524 7985.79 129.666 7985.48C112.757 7985.5 96.0108 7988.98 80.3585 7995.74C60.5013 7991.29 26.6921 7987.54 -8.14659 8003.64C-60.9564 8028.05 -83.6089 8082.93 -88.5603 8095.96C-105.208 8139.71 -102.71 8181.25 -115.097 8182.73C-123.638 8183.75 -129.689 8164.48 -133.879 8166.07Z" fill="#73CCCD"/>
<path d="M573.863 8162.39C578.072 8157.05 549.732 8115.81 507.363 8090.09C487.002 8077.84 464.661 8069.69 441.478 8066.05C421.583 8059.21 383.48 8049.43 337.964 8059.17C312.424 8064.64 250.255 8078.06 226.645 8134.36C209.067 8176.29 223.221 8218.78 228.395 8232.44C226.853 8239.16 207.634 8329.17 266.128 8393.48C313.952 8446.08 394.638 8460.02 447.876 8427.4C460.911 8419.32 472.337 8408.65 481.518 8395.97C498.736 8389.93 526.414 8376.69 546.397 8347.66C576.682 8303.64 570.668 8250.5 568.913 8238.09C563.032 8196.41 543.331 8165.56 552.249 8158.51C558.401 8153.65 571.313 8165.62 573.863 8162.39Z" fill="#73CCCD"/>
<path d="M1159.55 8452.89C1165.91 8456.7 1203.9 8415.53 1223.09 8361.21C1232.2 8335.13 1236.66 8307.57 1236.24 8279.95C1239.77 8255.5 1243.06 8209.34 1224.57 8158.51C1214.18 8129.99 1188.8 8060.59 1125.57 8044.54C1078.49 8032.6 1036.6 8057.57 1023.25 8066.32C1015.94 8065.88 918.231 8061.72 861.588 8142.51C815.256 8208.57 815.385 8304.95 859.225 8360.13C870.056 8373.62 883.311 8384.72 898.253 8392.82C907.717 8411.57 926.62 8441.01 960.648 8458.34C1012.24 8484.6 1066.76 8466.93 1079.42 8462.39C1121.98 8447.18 1150.67 8418.12 1159.68 8427.04C1165.88 8433.2 1155.7 8450.59 1159.55 8452.89Z" fill="#73CCCD"/>
<path d="M907.234 8602.65C916.467 8606.27 957.455 8543.56 970.745 8467.68C976.991 8431.27 976.771 8393.94 970.097 8357.61C969.35 8324.58 963.473 8262.98 927.836 8200.04C907.824 8164.73 852.938 8094.67 766 8087.5C701.264 8082.17 657.61 8108.51 641.933 8123.01C632.196 8124.05 502.42 8140.18 445.6 8259.26C399.117 8356.63 420.618 8483.72 490.644 8546.78C507.914 8562.18 527.851 8573.89 549.348 8581.26C565.979 8603.89 597.422 8638.53 646.134 8653.86C719.985 8677.07 787.967 8641.7 803.668 8632.92C856.421 8603.44 887.826 8558.76 901.683 8568.54C911.232 8575.28 901.655 8600.46 907.234 8602.65Z" fill="#73CCCD"/>
<path d="M86.8249 3783.18C88.1764 3784.75 89.9238 3785.93 91.8859 3786.6C93.848 3787.27 95.9534 3787.41 97.9838 3786.99C102.836 3785.92 105.124 3781.91 105.48 3781.27C106.503 3782.44 107.82 3783.31 109.295 3783.81C110.771 3784.3 112.35 3784.39 113.872 3784.07C114.114 3784.01 117.963 3783.08 119.429 3779.74C121.034 3776.05 118.665 3771.91 117.578 3769.95C110.303 3757.15 80.8925 3737.09 59.514 3746.01C57.2566 3746.95 55.198 3748.31 53.4471 3750.02C43.5683 3759.33 42.058 3778.8 49.8008 3783.78C50.6988 3784.35 55.3411 3787.06 65.528 3781.95C66.1768 3783.77 67.3255 3785.37 68.8422 3786.56C72.8501 3789.64 77.8829 3788.34 79.2639 3787.98C82.2144 3787.19 84.8522 3785.51 86.8249 3783.18Z" fill="#73CCCD"/>
<path d="M163.044 3752.83C163.143 3754.9 162.686 3756.96 161.721 3758.8C160.756 3760.63 159.318 3762.17 157.556 3763.27C153.301 3765.83 148.881 3764.49 148.18 3764.26C148.241 3765.82 147.888 3767.36 147.155 3768.73C146.422 3770.1 145.336 3771.26 144.01 3772.07C143.795 3772.19 140.358 3774.16 136.997 3772.74C133.296 3771.17 132.171 3766.53 131.616 3764.36C128.096 3750.06 135.667 3715.28 157.327 3707.06C159.613 3706.19 162.043 3705.76 164.489 3705.8C178.063 3705.77 192.547 3718.88 190.344 3727.81C190.088 3728.85 188.576 3734.01 177.664 3737.3C178.444 3739.06 178.709 3741.01 178.43 3742.93C177.633 3747.92 173.087 3750.43 171.837 3751.12C169.148 3752.57 166.08 3753.17 163.044 3752.83Z" fill="#73CCCD"/>
<rect x="-36" y="2250" width="1556" height="775" fill="#73CCCD"/>
<path d="M1234.85 1950.03C1227.55 1943.06 1167.46 1985.25 1128.47 2050.52C1109.89 2081.89 1096.99 2116.64 1090.43 2152.99C1079.53 2183.96 1063.35 2243.48 1074.35 2315.88C1080.54 2356.51 1095.72 2455.42 1173.95 2496.11C1232.19 2526.41 1293.18 2506.68 1312.83 2499.35C1322.24 2502.19 1448.43 2538.02 1543.01 2449.67C1620.37 2377.44 1645.02 2250.99 1602.13 2165.01C1591.5 2143.95 1577.1 2125.27 1559.72 2110.01C1552.22 2082.47 1535.18 2038 1495.32 2004.69C1434.88 1954.22 1359.33 1960.46 1341.66 1962.47C1282.32 1969.2 1237.46 1998.39 1228.03 1983.89C1221.53 1973.89 1239.26 1954.25 1234.85 1950.03Z" fill="#73CCCD"/>
<path d="M-149.879 2194.08C-156.806 2196.72 -151.533 2253.45 -124.407 2303.58C-111.315 2327.57 -94.1145 2348.78 -73.6811 2366.13C-58.1427 2384.61 -26.5994 2416.81 22.5544 2434.59C50.1416 2444.55 117.341 2468.72 170.286 2428.47C209.707 2398.49 218.799 2349.03 221.121 2332.75C226.207 2327.18 292.965 2251.77 270.943 2154.76C252.949 2075.42 182.524 2013.79 113.666 2013.48C96.7566 2013.5 80.0108 2016.98 64.3585 2023.74C44.5013 2019.29 10.6921 2015.54 -24.1466 2031.64C-76.9564 2056.05 -99.6089 2110.93 -104.56 2123.96C-121.208 2167.71 -118.71 2209.25 -131.097 2210.73C-139.638 2211.75 -145.689 2192.48 -149.879 2194.08Z" fill="#73CCCD"/>
<path d="M557.863 2190.39C562.072 2185.05 533.732 2143.81 491.363 2118.09C471.002 2105.84 448.661 2097.69 425.478 2094.05C405.583 2087.21 367.48 2077.43 321.964 2087.17C296.424 2092.64 234.255 2106.06 210.645 2162.36C193.067 2204.29 207.221 2246.78 212.395 2260.44C210.853 2267.16 191.634 2357.17 250.128 2421.48C297.952 2474.08 378.638 2488.02 431.876 2455.4C444.911 2447.32 456.337 2436.65 465.518 2423.97C482.736 2417.93 510.414 2404.69 530.397 2375.66C560.682 2331.64 554.668 2278.5 552.913 2266.09C547.032 2224.41 527.331 2193.56 536.249 2186.51C542.401 2181.65 555.313 2193.62 557.863 2190.39Z" fill="#73CCCD"/>
<path d="M1143.55 2480.89C1149.91 2484.7 1187.9 2443.53 1207.09 2389.21C1216.2 2363.13 1220.66 2335.57 1220.24 2307.95C1223.77 2283.5 1227.06 2237.34 1208.57 2186.51C1198.18 2157.99 1172.8 2088.59 1109.57 2072.54C1062.49 2060.6 1020.6 2085.57 1007.25 2094.32C999.937 2093.88 902.231 2089.72 845.588 2170.51C799.256 2236.57 799.385 2332.95 843.225 2388.13C854.056 2401.62 867.311 2412.72 882.253 2420.82C891.717 2439.57 910.62 2469.01 944.648 2486.34C996.241 2512.6 1050.76 2494.93 1063.42 2490.39C1105.98 2475.18 1134.67 2446.12 1143.68 2455.04C1149.88 2461.2 1139.7 2478.59 1143.55 2480.89Z" fill="#73CCCD"/>
<path d="M891.234 2630.65C900.467 2634.27 941.455 2571.56 954.745 2495.68C960.991 2459.27 960.771 2421.94 954.097 2385.61C953.35 2352.58 947.473 2290.98 911.836 2228.04C891.824 2192.73 836.938 2122.67 750 2115.5C685.264 2110.17 641.61 2136.51 625.933 2151.01C616.196 2152.05 486.42 2168.18 429.6 2287.26C383.117 2384.63 404.618 2511.72 474.644 2574.78C491.914 2590.18 511.851 2601.89 533.348 2609.26C549.979 2631.89 581.422 2666.53 630.134 2681.86C703.985 2705.07 771.967 2669.7 787.668 2660.92C840.421 2631.43 871.826 2586.76 885.683 2596.54C895.232 2603.28 885.655 2628.46 891.234 2630.65Z" fill="#73CCCD"/>
<path d="M1234.85 2740.03C1227.55 2733.06 1167.46 2775.25 1128.47 2840.52C1109.89 2871.89 1096.99 2906.64 1090.43 2942.99C1079.53 2973.96 1063.35 3033.48 1074.35 3105.88C1080.54 3146.51 1095.72 3245.42 1173.95 3286.11C1232.19 3316.41 1293.18 3296.68 1312.83 3289.35C1322.24 3292.19 1448.43 3328.02 1543.01 3239.67C1620.37 3167.44 1645.02 3040.99 1602.13 2955.01C1591.5 2933.95 1577.1 2915.27 1559.72 2900.01C1552.22 2872.47 1535.18 2828 1495.32 2794.69C1434.88 2744.22 1359.33 2750.46 1341.66 2752.47C1282.32 2759.2 1237.46 2788.39 1228.03 2773.89C1221.53 2763.89 1239.26 2744.25 1234.85 2740.03Z" fill="#5BC2C3"/>
<path d="M-149.879 2984.08C-156.806 2986.72 -151.533 3043.45 -124.407 3093.58C-111.315 3117.57 -94.1145 3138.78 -73.6811 3156.13C-58.1427 3174.61 -26.5994 3206.81 22.5544 3224.59C50.1416 3234.55 117.341 3258.72 170.286 3218.47C209.707 3188.49 218.799 3139.03 221.121 3122.75C226.207 3117.18 292.965 3041.77 270.943 2944.76C252.949 2865.42 182.524 2803.79 113.666 2803.48C96.7566 2803.5 80.0108 2806.98 64.3585 2813.74C44.5013 2809.29 10.6921 2805.54 -24.1466 2821.64C-76.9564 2846.05 -99.6089 2900.93 -104.56 2913.96C-121.208 2957.71 -118.71 2999.25 -131.097 3000.73C-139.638 3001.75 -145.689 2982.48 -149.879 2984.08Z" fill="#5BC2C3"/>
<path d="M557.863 2980.39C562.072 2975.05 533.732 2933.81 491.363 2908.09C471.002 2895.84 448.661 2887.69 425.478 2884.05C405.583 2877.21 367.48 2867.43 321.964 2877.17C296.424 2882.64 234.255 2896.06 210.645 2952.36C193.067 2994.29 207.221 3036.78 212.395 3050.44C210.853 3057.16 191.634 3147.17 250.128 3211.48C297.952 3264.08 378.638 3278.02 431.876 3245.4C444.911 3237.32 456.337 3226.65 465.518 3213.97C482.736 3207.93 510.414 3194.69 530.397 3165.66C560.682 3121.64 554.668 3068.5 552.913 3056.09C547.032 3014.41 527.331 2983.56 536.249 2976.51C542.401 2971.65 555.313 2983.62 557.863 2980.39Z" fill="#5BC2C3"/>
<path d="M1143.55 3270.89C1149.91 3274.7 1187.9 3233.53 1207.09 3179.21C1216.2 3153.13 1220.66 3125.57 1220.24 3097.95C1223.77 3073.5 1227.06 3027.34 1208.57 2976.51C1198.18 2947.99 1172.8 2878.59 1109.57 2862.54C1062.49 2850.6 1020.6 2875.57 1007.25 2884.32C999.937 2883.88 902.231 2879.72 845.588 2960.51C799.256 3026.57 799.385 3122.95 843.225 3178.13C854.056 3191.62 867.311 3202.72 882.253 3210.82C891.717 3229.57 910.62 3259.01 944.648 3276.34C996.241 3302.6 1050.76 3284.93 1063.42 3280.39C1105.98 3265.18 1134.67 3236.12 1143.68 3245.04C1149.88 3251.2 1139.7 3268.59 1143.55 3270.89Z" fill="#5BC2C3"/>
<path d="M891.234 3420.65C900.467 3424.27 941.455 3361.56 954.745 3285.68C960.991 3249.27 960.771 3211.94 954.097 3175.61C953.35 3142.58 947.473 3080.98 911.836 3018.04C891.824 2982.73 836.938 2912.67 750 2905.5C685.264 2900.17 641.61 2926.51 625.933 2941.01C616.196 2942.05 486.42 2958.18 429.6 3077.26C383.117 3174.63 404.618 3301.72 474.644 3364.78C491.914 3380.18 511.851 3391.89 533.348 3399.26C549.979 3421.89 581.422 3456.53 630.134 3471.86C703.985 3495.07 771.967 3459.7 787.668 3450.92C840.421 3421.43 871.826 3376.76 885.683 3386.54C895.232 3393.28 885.655 3418.46 891.234 3420.65Z" fill="#5BC2C3"/>
<rect x="-36" y="4221" width="1556" height="775" fill="#73CCCD"/>
<path d="M1234.85 3921.03C1227.55 3914.06 1167.46 3956.25 1128.47 4021.52C1109.89 4052.89 1096.99 4087.64 1090.43 4123.99C1079.53 4154.96 1063.35 4214.48 1074.35 4286.88C1080.54 4327.51 1095.72 4426.42 1173.95 4467.11C1232.19 4497.41 1293.18 4477.68 1312.83 4470.35C1322.24 4473.19 1448.43 4509.02 1543.01 4420.67C1620.37 4348.44 1645.02 4221.99 1602.13 4136.01C1591.5 4114.95 1577.1 4096.27 1559.72 4081.01C1552.22 4053.47 1535.18 4009 1495.32 3975.69C1434.88 3925.22 1359.33 3931.46 1341.66 3933.47C1282.32 3940.2 1237.46 3969.39 1228.03 3954.89C1221.53 3944.89 1239.26 3925.25 1234.85 3921.03Z" fill="#73CCCD"/>
<path d="M-149.879 4165.08C-156.806 4167.72 -151.533 4224.45 -124.407 4274.58C-111.315 4298.57 -94.1145 4319.78 -73.6811 4337.13C-58.1427 4355.61 -26.5994 4387.81 22.5544 4405.59C50.1416 4415.55 117.341 4439.72 170.286 4399.47C209.707 4369.49 218.799 4320.03 221.121 4303.75C226.207 4298.18 292.965 4222.77 270.943 4125.76C252.949 4046.42 182.524 3984.79 113.666 3984.48C96.7566 3984.5 80.0108 3987.98 64.3585 3994.74C44.5013 3990.29 10.6921 3986.54 -24.1466 4002.64C-76.9564 4027.05 -99.6089 4081.93 -104.56 4094.96C-121.208 4138.71 -118.71 4180.25 -131.097 4181.73C-139.638 4182.75 -145.689 4163.48 -149.879 4165.08Z" fill="#73CCCD"/>
<path d="M557.863 4161.39C562.072 4156.05 533.732 4114.81 491.363 4089.09C471.002 4076.84 448.661 4068.69 425.478 4065.05C405.583 4058.21 367.48 4048.43 321.964 4058.17C296.424 4063.64 234.255 4077.06 210.645 4133.36C193.067 4175.29 207.221 4217.78 212.395 4231.44C210.853 4238.16 191.634 4328.17 250.128 4392.48C297.952 4445.08 378.638 4459.02 431.876 4426.4C444.911 4418.32 456.337 4407.65 465.518 4394.97C482.736 4388.93 510.414 4375.69 530.397 4346.66C560.682 4302.64 554.668 4249.5 552.913 4237.09C547.032 4195.41 527.331 4164.56 536.249 4157.51C542.401 4152.65 555.313 4164.62 557.863 4161.39Z" fill="#73CCCD"/>
<path d="M1143.55 4451.89C1149.91 4455.7 1187.9 4414.53 1207.09 4360.21C1216.2 4334.13 1220.66 4306.57 1220.24 4278.95C1223.77 4254.5 1227.06 4208.34 1208.57 4157.51C1198.18 4128.99 1172.8 4059.59 1109.57 4043.54C1062.49 4031.6 1020.6 4056.57 1007.25 4065.32C999.937 4064.88 902.231 4060.72 845.588 4141.51C799.256 4207.57 799.385 4303.95 843.225 4359.13C854.056 4372.62 867.311 4383.72 882.253 4391.82C891.717 4410.57 910.62 4440.01 944.648 4457.34C996.241 4483.6 1050.76 4465.93 1063.42 4461.39C1105.98 4446.18 1134.67 4417.12 1143.68 4426.04C1149.88 4432.2 1139.7 4449.59 1143.55 4451.89Z" fill="#73CCCD"/>
<path d="M891.234 4601.65C900.467 4605.27 941.455 4542.56 954.745 4466.68C960.991 4430.27 960.771 4392.94 954.097 4356.61C953.35 4323.58 947.473 4261.98 911.836 4199.04C891.824 4163.73 836.938 4093.67 750 4086.5C685.264 4081.17 641.61 4107.51 625.933 4122.01C616.196 4123.05 486.42 4139.18 429.6 4258.26C383.117 4355.63 404.618 4482.72 474.644 4545.78C491.914 4561.18 511.851 4572.89 533.348 4580.26C549.979 4602.89 581.422 4637.53 630.134 4652.86C703.985 4676.07 771.967 4640.7 787.668 4631.92C840.421 4602.43 871.826 4557.76 885.683 4567.54C895.232 4574.28 885.655 4599.46 891.234 4601.65Z" fill="#73CCCD"/>
<path d="M1234.85 4571.03C1227.55 4564.06 1167.46 4606.25 1128.47 4671.52C1109.89 4702.89 1096.99 4737.64 1090.43 4773.99C1079.53 4804.96 1063.35 4864.48 1074.35 4936.88C1080.54 4977.51 1095.72 5076.42 1173.95 5117.11C1232.19 5147.41 1293.18 5127.68 1312.83 5120.35C1322.24 5123.19 1448.43 5159.02 1543.01 5070.67C1620.37 4998.44 1645.02 4871.99 1602.13 4786.01C1591.5 4764.95 1577.1 4746.27 1559.72 4731.01C1552.22 4703.47 1535.18 4659 1495.32 4625.69C1434.88 4575.22 1359.33 4581.46 1341.66 4583.47C1282.32 4590.2 1237.46 4619.39 1228.03 4604.89C1221.53 4594.89 1239.26 4575.25 1234.85 4571.03Z" fill="#5BC2C3"/>
<path d="M-149.879 4815.08C-156.806 4817.72 -151.533 4874.45 -124.407 4924.58C-111.315 4948.57 -94.1145 4969.78 -73.6811 4987.13C-58.1427 5005.61 -26.5994 5037.81 22.5544 5055.59C50.1416 5065.55 117.341 5089.72 170.286 5049.47C209.707 5019.49 218.799 4970.03 221.121 4953.75C226.207 4948.18 292.965 4872.77 270.943 4775.76C252.949 4696.42 182.524 4634.79 113.666 4634.48C96.7566 4634.5 80.0108 4637.98 64.3585 4644.74C44.5013 4640.29 10.6921 4636.54 -24.1466 4652.64C-76.9564 4677.05 -99.6089 4731.93 -104.56 4744.96C-121.208 4788.71 -118.71 4830.25 -131.097 4831.73C-139.638 4832.75 -145.689 4813.48 -149.879 4815.08Z" fill="#5BC2C3"/>
<path d="M557.863 4811.39C562.072 4806.05 533.732 4764.81 491.363 4739.09C471.002 4726.84 448.661 4718.69 425.478 4715.05C405.583 4708.21 367.48 4698.43 321.964 4708.17C296.424 4713.64 234.255 4727.06 210.645 4783.36C193.067 4825.29 207.221 4867.78 212.395 4881.44C210.853 4888.16 191.634 4978.17 250.128 5042.48C297.952 5095.08 378.638 5109.02 431.876 5076.4C444.911 5068.32 456.337 5057.65 465.518 5044.97C482.736 5038.93 510.414 5025.69 530.397 4996.66C560.682 4952.64 554.668 4899.5 552.913 4887.09C547.032 4845.41 527.331 4814.56 536.249 4807.51C542.401 4802.65 555.313 4814.62 557.863 4811.39Z" fill="#5BC2C3"/>
<path d="M1143.55 5101.89C1149.91 5105.7 1187.9 5064.53 1207.09 5010.21C1216.2 4984.13 1220.66 4956.57 1220.24 4928.95C1223.77 4904.5 1227.06 4858.34 1208.57 4807.51C1198.18 4778.99 1172.8 4709.59 1109.57 4693.54C1062.49 4681.6 1020.6 4706.57 1007.25 4715.32C999.937 4714.88 902.231 4710.72 845.588 4791.51C799.256 4857.57 799.385 4953.95 843.225 5009.13C854.056 5022.62 867.311 5033.72 882.253 5041.82C891.717 5060.57 910.62 5090.01 944.648 5107.34C996.241 5133.6 1050.76 5115.93 1063.42 5111.39C1105.98 5096.18 1134.67 5067.12 1143.68 5076.04C1149.88 5082.2 1139.7 5099.59 1143.55 5101.89Z" fill="#5BC2C3"/>
<path d="M891.234 5251.65C900.467 5255.27 941.455 5192.56 954.745 5116.68C960.991 5080.27 960.771 5042.94 954.097 5006.61C953.35 4973.58 947.473 4911.98 911.836 4849.04C891.824 4813.73 836.938 4743.67 750 4736.5C685.264 4731.17 641.61 4757.51 625.933 4772.01C616.196 4773.05 486.42 4789.18 429.6 4908.26C383.117 5005.63 404.618 5132.72 474.644 5195.78C491.914 5211.18 511.851 5222.89 533.348 5230.26C549.979 5252.89 581.422 5287.53 630.134 5302.86C703.985 5326.07 771.967 5290.7 787.668 5281.92C840.421 5252.43 871.826 5207.76 885.683 5217.54C895.232 5224.28 885.655 5249.46 891.234 5251.65Z" fill="#5BC2C3"/>
<path d="M1055.98 7174.17C1055.43 7174.17 1054.89 7174.17 1054.35 7174.17C1050.43 7174.36 1046.54 7173.39 1043.17 7171.36C1035.26 7166.65 1026.2 7164.22 1017 7164.33C1014.74 7164.33 1012.49 7164.47 1010.24 7164.75C1006.5 7165.26 1002.68 7164.71 999.227 7163.15C994.575 7161.04 989.521 7159.96 984.415 7160C974.621 7160 966.052 7163.75 961.033 7169.44C958.548 7172.31 955.272 7174.37 951.619 7175.37C940.786 7178.26 933 7186.03 933 7195.16C933 7205.54 943.038 7214.15 956.259 7215.86C958.933 7216.22 961.507 7217.12 963.824 7218.51C969.106 7221.52 975.086 7223.07 981.158 7223.01C983.863 7223.01 986.56 7222.72 989.201 7222.14C992.514 7221.45 995.956 7221.72 999.117 7222.94C1004.86 7224.98 1010.91 7226.02 1017 7226C1026.2 7226.11 1035.26 7223.68 1043.17 7218.97C1046.55 7216.92 1050.45 7215.93 1054.39 7216.13C1054.93 7216.13 1055.46 7216.13 1056.02 7216.13C1071.49 7216.13 1084.04 7206.73 1084.04 7195.12C1084.04 7183.52 1071.45 7174.17 1055.98 7174.17Z" fill="#73CCCD"/>
<path d="M1395.37 7304.33C1395.08 7304.21 1394.8 7304.07 1394.49 7303.96C1394.18 7303.85 1393.85 7303.86 1393.55 7303.78C1393.24 7303.69 1392.96 7303.51 1392.65 7303.44C1392.35 7303.36 1392.05 7303.22 1391.73 7303.15C1391.41 7303.09 1391.11 7303.03 1390.79 7302.98L1389.84 7302.85C1389.53 7302.85 1389.21 7302.85 1388.89 7302.79C1388.57 7302.72 1388.18 7302.79 1387.83 7302.79C1387.49 7302.79 1387.16 7302.57 1386.83 7302.48C1386.5 7302.39 1386.19 7302.19 1385.86 7302.06C1385.53 7301.94 1385.17 7301.9 1384.85 7301.76C1384.54 7301.61 1384.29 7301.35 1384 7301.17C1383.7 7300.98 1383.42 7300.76 1383.15 7300.57C1382.88 7300.37 1382.6 7300.17 1382.33 7299.98L1381.48 7299.43C1381.2 7299.24 1380.94 7299.03 1380.65 7298.86C1380.36 7298.69 1380.01 7298.63 1379.72 7298.46C1379.42 7298.29 1379.15 7298.1 1378.86 7297.94C1378.57 7297.78 1378.27 7297.64 1377.97 7297.5C1377.66 7297.37 1377.33 7297.29 1377.01 7297.16C1376.69 7297.02 1376.41 7296.88 1376.1 7296.75C1375.8 7296.63 1375.44 7296.62 1375.12 7296.51L1374.18 7296.13C1373.86 7296.03 1373.58 7295.79 1373.26 7295.7C1372.94 7295.61 1372.6 7295.61 1372.26 7295.53C1371.93 7295.44 1371.63 7295.3 1371.31 7295.22C1370.99 7295.15 1370.62 7295.22 1370.3 7295.15C1369.98 7295.08 1369.67 7294.9 1369.33 7294.9C1369 7294.9 1368.66 7294.9 1368.33 7294.9C1368 7294.9 1367.67 7294.73 1367.34 7294.7H1366.33C1366 7294.7 1365.67 7294.63 1365.33 7294.62C1364.98 7294.61 1364.66 7294.71 1364.32 7294.71C1363.98 7294.71 1363.6 7294.71 1363.24 7294.71H1362.16C1361.8 7294.71 1361.44 7294.71 1361.08 7294.77C1360.73 7294.83 1360.37 7294.92 1360.02 7294.96C1359.66 7295.01 1359.31 7295.1 1358.95 7295.16C1358.6 7295.22 1358.23 7295.16 1357.87 7295.28C1357.52 7295.41 1357.19 7295.47 1356.83 7295.55L1355.79 7295.8C1355.47 7295.88 1355.14 7295.96 1354.82 7296.02C1354.5 7296.08 1354.18 7296.13 1353.83 7296.13C1353.47 7296.13 1353.17 7296.04 1352.85 7296.04C1352.52 7296.06 1352.19 7296.06 1351.87 7296.04C1351.53 7296.04 1351.2 7296.04 1350.89 7295.96C1350.57 7295.87 1350.27 7295.7 1349.95 7295.63C1349.63 7295.55 1349.3 7295.5 1349 7295.39C1348.67 7295.33 1348.35 7295.25 1348.04 7295.15C1347.75 7295.01 1347.48 7294.79 1347.2 7294.65C1346.91 7294.5 1346.61 7294.35 1346.34 7294.17C1346.07 7293.98 1345.83 7293.64 1345.53 7293.46C1345.22 7293.27 1344.88 7293.16 1344.57 7293C1344.27 7292.84 1343.91 7292.73 1343.59 7292.57C1343.27 7292.42 1343 7292.17 1342.68 7292.02C1342.37 7291.88 1341.99 7291.84 1341.65 7291.72C1341.32 7291.59 1340.99 7291.48 1340.66 7291.37C1340.33 7291.26 1340.01 7291.07 1339.67 7290.97C1339.32 7290.87 1338.99 7290.75 1338.65 7290.66C1338.31 7290.58 1337.92 7290.66 1337.57 7290.66C1337.23 7290.66 1336.91 7290.49 1336.55 7290.44C1336.2 7290.39 1335.87 7290.28 1335.51 7290.25C1335.16 7290.21 1334.83 7290 1334.47 7290C1334.11 7290 1333.76 7290.12 1333.4 7290.11C1333.05 7290.1 1332.69 7290 1332.34 7290C1331.98 7290 1331.66 7290 1331.32 7290.06C1330.98 7290.12 1330.65 7290.06 1330.31 7290.15L1329.31 7290.27C1328.97 7290.27 1328.61 7290.18 1328.28 7290.27C1327.95 7290.36 1327.61 7290.42 1327.27 7290.48C1326.94 7290.54 1326.61 7290.6 1326.28 7290.69C1325.95 7290.77 1325.62 7290.85 1325.29 7290.94C1324.96 7291.04 1324.66 7291.19 1324.33 7291.3C1324 7291.41 1323.67 7291.46 1323.35 7291.57C1323.03 7291.68 1322.69 7291.73 1322.37 7291.86C1322.05 7292 1321.77 7292.18 1321.46 7292.33C1321.16 7292.48 1320.85 7292.64 1320.56 7292.78C1320.26 7292.93 1319.94 7293.09 1319.65 7293.26C1319.35 7293.43 1319.12 7293.69 1318.83 7293.87C1318.53 7294.06 1318.17 7294.11 1317.9 7294.29C1317.63 7294.47 1317.43 7294.81 1317.16 7295.01C1316.89 7295.22 1316.56 7295.34 1316.29 7295.57C1316.02 7295.79 1315.76 7295.98 1315.52 7296.22C1315.3 7296.47 1315.07 7296.71 1314.83 7296.94C1314.56 7297.13 1314.28 7297.3 1313.99 7297.45C1313.71 7297.62 1313.42 7297.78 1313.12 7297.91C1312.82 7298.07 1312.6 7298.35 1312.29 7298.48L1311.35 7298.83C1311.04 7298.92 1310.69 7298.89 1310.37 7298.97C1310.05 7299.06 1309.73 7299.15 1309.4 7299.19C1309.08 7299.24 1308.75 7299.27 1308.42 7299.28C1308.09 7299.3 1307.76 7299.3 1307.43 7299.28C1307.28 7299.28 1307.12 7299.28 1306.96 7299.28C1306.8 7299.28 1306.29 7299.35 1305.96 7299.37C1305.62 7299.38 1305.27 7299.27 1304.93 7299.29C1304.58 7299.32 1304.28 7299.55 1303.93 7299.59C1303.59 7299.62 1303.26 7299.59 1302.93 7299.68C1302.6 7299.78 1302.27 7299.83 1301.93 7299.89C1301.6 7299.95 1301.25 7299.89 1300.93 7299.99C1300.61 7300.09 1300.26 7300.1 1299.92 7300.2C1299.59 7300.3 1299.31 7300.49 1298.98 7300.59C1298.65 7300.69 1298.31 7300.7 1297.99 7300.82C1297.67 7300.95 1297.41 7301.19 1297.09 7301.32C1296.77 7301.44 1296.44 7301.5 1296.14 7301.63C1295.83 7301.77 1295.56 7302.01 1295.27 7302.17C1294.97 7302.33 1294.64 7302.44 1294.35 7302.6C1294.05 7302.76 1293.75 7302.92 1293.46 7303.09C1293.18 7303.26 1292.8 7303.34 1292.53 7303.53C1292.26 7303.73 1292.09 7304.09 1291.82 7304.29C1291.55 7304.5 1291.22 7304.61 1290.95 7304.83C1290.68 7305.05 1290.41 7305.24 1290.17 7305.47C1289.91 7305.7 1289.67 7305.94 1289.44 7306.19C1289.21 7306.43 1289.06 7306.76 1288.83 7307C1288.6 7307.25 1288.27 7307.41 1288.05 7307.67C1287.82 7307.92 1287.75 7308.3 1287.56 7308.57C1287.36 7308.84 1287.18 7309.12 1286.99 7309.41C1286.81 7309.69 1286.49 7309.9 1286.32 7310.19C1286.15 7310.48 1286.08 7310.84 1285.94 7311.13C1285.79 7311.43 1285.52 7311.7 1285.39 7312C1285.25 7312.31 1285.19 7312.65 1285.07 7312.97C1284.94 7313.29 1284.88 7313.62 1284.78 7313.95C1284.69 7314.29 1284.61 7314.6 1284.54 7314.93C1284.47 7315.27 1284.36 7315.58 1284.29 7315.92C1284.23 7316.25 1284.23 7316.57 1284.2 7316.97C1284.11 7317.3 1284.05 7317.64 1284 7317.98C1284 7318.31 1284 7318.65 1284 7318.99C1284 7319.34 1284.09 7319.67 1284.11 7320.01C1284.13 7320.35 1284.33 7320.66 1284.37 7321C1284.4 7321.35 1284.45 7321.69 1284.51 7322.02C1284.58 7322.35 1284.51 7322.72 1284.66 7323.05C1284.81 7323.38 1284.81 7323.74 1284.91 7324.07C1285.01 7324.4 1285.12 7324.73 1285.24 7325.06C1285.36 7325.39 1285.64 7325.64 1285.79 7325.96C1285.94 7326.27 1286.03 7326.61 1286.19 7326.91C1286.35 7327.22 1286.45 7327.56 1286.64 7327.86C1286.82 7328.15 1287.14 7328.36 1287.33 7328.64C1287.53 7328.92 1287.64 7329.28 1287.85 7329.56C1288.06 7329.84 1288.24 7330.14 1288.47 7330.39C1288.71 7330.65 1288.95 7330.91 1289.19 7331.17C1289.42 7331.42 1289.72 7331.61 1289.97 7331.85C1290.22 7332.1 1290.45 7332.35 1290.72 7332.58C1290.99 7332.8 1291.2 7333.09 1291.48 7333.3C1291.76 7333.51 1292.15 7333.56 1292.43 7333.76C1292.72 7333.97 1292.91 7334.29 1293.21 7334.48C1293.5 7334.66 1293.79 7334.84 1294.1 7335.02C1294.41 7335.19 1294.78 7335.21 1295.09 7335.38C1295.41 7335.55 1295.62 7335.85 1295.94 7336.01L1296.9 7336.42C1297.22 7336.56 1297.6 7336.56 1297.91 7336.68C1298.23 7336.8 1298.53 7337.04 1298.86 7337.15C1299.19 7337.26 1299.53 7337.31 1299.88 7337.41C1300.22 7337.5 1300.56 7337.5 1300.89 7337.59C1301.22 7337.68 1301.55 7337.79 1301.9 7337.86L1302.93 7338.02C1303.27 7338.08 1303.61 7338.12 1303.97 7338.15C1304.33 7338.19 1304.64 7338.29 1305 7338.31H1305.94C1306.26 7338.31 1306.58 7338.2 1306.89 7338.2C1307.19 7338.2 1307.53 7338.4 1307.83 7338.39C1308.14 7338.37 1308.47 7338.25 1308.78 7338.23C1309.08 7338.2 1309.41 7338.23 1309.72 7338.23C1310.03 7338.23 1310.34 7338.09 1310.65 7338.06C1310.96 7338.02 1311.35 7337.94 1311.69 7337.92C1312.04 7337.9 1312.4 7337.92 1312.75 7337.92C1313.1 7337.93 1313.44 7337.97 1313.79 7338.02C1314.13 7338.02 1314.48 7338.13 1314.82 7338.19C1315.16 7338.25 1315.48 7338.42 1315.81 7338.52C1316.14 7338.62 1316.51 7338.63 1316.83 7338.77C1317.15 7338.9 1317.47 7339.04 1317.79 7339.2C1318.1 7339.35 1318.44 7339.47 1318.73 7339.65C1319.02 7339.83 1319.31 7340.07 1319.58 7340.27C1319.85 7340.48 1320.1 7340.69 1320.37 7340.89C1320.64 7341.08 1320.84 7341.37 1321.12 7341.55C1321.4 7341.73 1321.7 7341.88 1321.98 7342.05C1322.26 7342.22 1322.57 7342.38 1322.86 7342.54C1323.16 7342.7 1323.41 7342.92 1323.71 7343.07C1324 7343.22 1324.36 7343.23 1324.66 7343.38C1324.97 7343.52 1325.2 7343.82 1325.51 7343.94L1326.45 7344.28C1326.76 7344.39 1327.1 7344.43 1327.42 7344.53C1327.74 7344.63 1328.08 7344.64 1328.4 7344.72C1328.72 7344.81 1329.05 7344.86 1329.38 7344.93C1329.71 7345.01 1330 7345.19 1330.33 7345.25L1331.31 7345.42C1331.64 7345.42 1331.96 7345.61 1332.29 7345.64C1332.62 7345.68 1332.97 7345.56 1333.31 7345.58C1333.64 7345.61 1333.96 7345.77 1334.3 7345.78C1334.64 7345.79 1334.96 7345.78 1335.3 7345.78C1335.65 7345.78 1336 7345.84 1336.35 7345.78C1336.69 7345.72 1337.03 7345.55 1337.38 7345.52L1338.41 7345.42C1338.76 7345.42 1339.12 7345.5 1339.46 7345.42C1339.8 7345.35 1340.15 7345.26 1340.48 7345.2C1340.81 7345.14 1341.13 7344.92 1341.47 7344.85C1341.81 7344.77 1342.14 7344.72 1342.49 7344.63C1342.83 7344.53 1343.17 7344.5 1343.51 7344.39L1344.49 7344.05C1344.8 7343.93 1345.1 7343.73 1345.42 7343.6C1345.74 7343.46 1346.1 7343.42 1346.42 7343.28C1346.74 7343.13 1346.99 7342.86 1347.29 7342.7C1347.6 7342.56 1347.91 7342.43 1348.22 7342.32C1348.53 7342.2 1348.85 7342.08 1349.17 7341.98C1349.49 7341.88 1349.83 7341.89 1350.16 7341.82C1350.49 7341.75 1350.79 7341.52 1351.12 7341.48C1351.45 7341.43 1351.79 7341.48 1352.12 7341.4C1352.45 7341.33 1352.8 7341.49 1353.14 7341.49C1353.48 7341.49 1353.81 7341.4 1354.15 7341.49C1354.48 7341.57 1354.81 7341.61 1355.14 7341.67C1355.47 7341.73 1355.79 7341.84 1356.11 7341.93C1356.43 7342.01 1356.81 7342.01 1357.15 7342.09C1357.49 7342.16 1357.8 7342.32 1358.14 7342.39C1358.49 7342.47 1358.82 7342.58 1359.16 7342.63C1359.5 7342.68 1359.85 7342.75 1360.2 7342.79C1360.56 7342.82 1360.9 7342.79 1361.24 7342.79C1361.59 7342.79 1361.93 7342.97 1362.27 7342.98C1362.62 7343 1362.97 7342.98 1363.33 7342.98C1363.68 7342.98 1364.03 7342.98 1364.37 7342.98C1364.71 7342.98 1365.04 7342.92 1365.38 7342.91C1365.71 7342.9 1366.05 7342.91 1366.38 7342.84C1366.71 7342.76 1367.04 7342.84 1367.39 7342.84C1367.73 7342.84 1368.06 7342.93 1368.4 7342.84C1368.75 7342.74 1369.05 7342.7 1369.38 7342.65C1369.71 7342.6 1370.06 7342.58 1370.39 7342.52C1370.72 7342.46 1371.04 7342.32 1371.36 7342.25C1371.68 7342.17 1372.03 7342.16 1372.35 7342.09C1372.67 7342.01 1373.01 7341.94 1373.33 7341.84C1373.65 7341.75 1373.92 7341.48 1374.24 7341.38C1374.56 7341.28 1374.96 7341.38 1375.28 7341.29C1375.6 7341.21 1375.84 7340.89 1376.15 7340.76C1376.46 7340.64 1376.8 7340.57 1377.11 7340.43C1377.41 7340.3 1377.77 7340.27 1378.08 7340.13C1378.38 7339.98 1378.59 7339.65 1378.88 7339.5C1379.18 7339.35 1379.58 7339.38 1379.88 7339.22C1380.17 7339.06 1380.44 7338.85 1380.72 7338.68C1381.01 7338.51 1381.26 7338.26 1381.54 7338.08C1381.83 7337.9 1382.05 7337.64 1382.32 7337.44C1382.59 7337.25 1382.97 7337.2 1383.24 7337C1383.5 7336.76 1383.79 7336.53 1384.08 7336.31C1384.4 7336.13 1384.78 7336.09 1385.11 7335.93C1385.44 7335.78 1385.76 7335.63 1386.12 7335.51C1386.47 7335.38 1386.74 7335.09 1387.1 7335C1387.46 7334.95 1387.83 7334.92 1388.2 7334.9C1388.56 7334.9 1388.91 7334.79 1389.28 7334.76C1389.65 7334.72 1389.95 7334.7 1390.29 7334.65C1390.62 7334.6 1390.96 7334.56 1391.29 7334.5C1391.62 7334.44 1391.93 7334.28 1392.26 7334.21C1392.59 7334.13 1392.93 7334.21 1393.26 7334.05C1393.6 7333.89 1393.88 7333.78 1394.2 7333.67C1394.51 7333.56 1394.88 7333.58 1395.2 7333.46C1395.52 7333.34 1395.81 7333.16 1396.12 7333.03C1396.43 7332.89 1396.75 7332.77 1397.04 7332.62C1397.33 7332.48 1397.59 7332.21 1397.89 7332.04C1398.18 7331.86 1398.49 7331.73 1398.77 7331.55C1399.05 7331.36 1399.3 7331.13 1399.57 7330.93C1399.84 7330.74 1400.06 7330.47 1400.33 7330.26C1400.6 7330.05 1400.96 7329.96 1401.21 7329.74C1401.45 7329.52 1401.67 7329.24 1401.91 7329.01C1402.14 7328.78 1402.26 7328.42 1402.47 7328.16C1402.68 7327.9 1402.88 7327.62 1403.07 7327.35C1403.27 7327.08 1403.5 7326.84 1403.68 7326.56C1403.87 7326.27 1404.16 7326.05 1404.32 7325.76C1404.48 7325.47 1404.55 7325.12 1404.7 7324.83C1404.85 7324.53 1404.95 7324.2 1405.07 7323.88C1405.19 7323.57 1405.35 7323.28 1405.45 7322.95C1405.59 7322.65 1405.72 7322.33 1405.83 7322.01C1405.92 7321.68 1405.99 7321.35 1406.05 7321.02C1406.05 7320.67 1406.14 7320.33 1406.16 7320C1406.13 7319.66 1406.08 7319.32 1406.01 7318.98C1406.09 7318.64 1406.15 7318.3 1406.19 7317.95C1406.19 7317.62 1406.19 7317.28 1406.09 7316.95C1405.99 7316.61 1405.84 7316.3 1405.78 7315.96C1405.72 7315.63 1405.66 7315.3 1405.56 7314.97C1405.46 7314.65 1405.34 7314.34 1405.2 7314.03C1405.11 7313.7 1405 7313.38 1404.87 7313.06C1404.74 7312.75 1404.47 7312.52 1404.31 7312.23C1404.15 7311.93 1404.06 7311.59 1403.89 7311.29C1403.72 7311 1403.46 7310.78 1403.27 7310.5C1403.07 7310.22 1402.91 7309.92 1402.7 7309.66C1402.5 7309.41 1402.35 7309.08 1402.12 7308.82C1401.88 7308.56 1401.61 7308.36 1401.37 7308.13C1401.12 7307.9 1400.79 7307.76 1400.53 7307.54C1400.31 7307.3 1400.06 7307.06 1399.81 7306.84C1399.54 7306.64 1399.33 7306.34 1399.05 7306.16C1398.77 7305.97 1398.5 7305.77 1398.2 7305.58C1397.91 7305.4 1397.57 7305.34 1397.26 7305.18C1396.95 7305.02 1396.65 7304.89 1396.34 7304.75C1396.03 7304.6 1395.69 7304.47 1395.37 7304.33Z" fill="#73CCCD"/>
<g clip-path="url(#clip1)">
<path d="M116.979 7151.16C116.428 7151.16 115.89 7151.16 115.351 7151.16C111.431 7151.36 107.541 7150.39 104.174 7148.36C96.2557 7143.65 87.2017 7141.22 78.0018 7141.33C75.743 7141.33 73.4863 7141.47 71.2444 7141.75C67.4954 7142.26 63.6798 7141.7 60.227 7140.15C55.5748 7138.03 50.5208 7136.96 45.4147 7137C35.6214 7137 27.0523 7140.75 22.0332 7146.44C19.548 7149.31 16.2719 7151.37 12.6195 7152.37C1.78565 7155.26 -6 7163.03 -6 7172.16C-6 7182.53 4.0381 7191.15 17.259 7192.86C19.9333 7193.22 22.5074 7194.12 24.8243 7195.51C30.1058 7198.52 36.0863 7200.07 42.1584 7200.01C44.8629 7200.01 47.5598 7199.72 50.2011 7199.14C53.5145 7198.44 56.9556 7198.72 60.1168 7199.94C65.8588 7201.98 71.9092 7203.02 78.0018 7203C87.2017 7203.11 96.2557 7200.68 104.174 7195.97C107.545 7193.92 111.451 7192.93 115.388 7193.13C115.926 7193.13 116.465 7193.13 117.016 7193.13C132.489 7193.13 145.037 7183.73 145.037 7172.12C145.037 7160.52 132.452 7151.16 116.979 7151.16Z" fill="#73CCCD"/>
</g>
<path d="M1466.37 7151.33C1466.08 7151.21 1465.8 7151.07 1465.49 7150.96C1465.18 7150.85 1464.85 7150.86 1464.55 7150.78C1464.24 7150.69 1463.96 7150.51 1463.65 7150.44C1463.35 7150.36 1463.05 7150.22 1462.73 7150.15C1462.41 7150.09 1462.11 7150.03 1461.79 7149.98L1460.84 7149.85C1460.53 7149.85 1460.21 7149.85 1459.89 7149.79C1459.57 7149.72 1459.18 7149.79 1458.83 7149.79C1458.49 7149.79 1458.16 7149.57 1457.83 7149.48C1457.5 7149.39 1457.19 7149.19 1456.86 7149.06C1456.53 7148.94 1456.17 7148.9 1455.85 7148.76C1455.54 7148.61 1455.29 7148.35 1455 7148.17C1454.7 7147.98 1454.42 7147.76 1454.15 7147.57C1453.88 7147.37 1453.6 7147.17 1453.33 7146.98L1452.48 7146.43C1452.2 7146.24 1451.94 7146.03 1451.65 7145.86C1451.36 7145.69 1451.01 7145.63 1450.72 7145.46C1450.42 7145.29 1450.15 7145.1 1449.86 7144.94C1449.57 7144.78 1449.27 7144.64 1448.97 7144.5C1448.66 7144.37 1448.33 7144.29 1448.01 7144.16C1447.69 7144.02 1447.41 7143.88 1447.1 7143.75C1446.8 7143.63 1446.44 7143.62 1446.12 7143.51L1445.18 7143.13C1444.86 7143.03 1444.58 7142.79 1444.26 7142.7C1443.94 7142.61 1443.6 7142.61 1443.26 7142.53C1442.93 7142.44 1442.63 7142.3 1442.31 7142.22C1441.99 7142.15 1441.62 7142.22 1441.3 7142.15C1440.98 7142.08 1440.67 7141.9 1440.33 7141.9C1440 7141.9 1439.66 7141.9 1439.33 7141.9C1439 7141.9 1438.67 7141.73 1438.34 7141.7H1437.33C1437 7141.7 1436.67 7141.63 1436.33 7141.62C1435.98 7141.61 1435.66 7141.71 1435.32 7141.71C1434.98 7141.71 1434.6 7141.71 1434.24 7141.71H1433.16C1432.8 7141.71 1432.44 7141.71 1432.08 7141.77C1431.73 7141.83 1431.37 7141.92 1431.02 7141.96C1430.66 7142.01 1430.31 7142.1 1429.95 7142.16C1429.6 7142.22 1429.23 7142.16 1428.87 7142.28C1428.52 7142.41 1428.19 7142.47 1427.83 7142.55L1426.79 7142.8C1426.47 7142.88 1426.14 7142.96 1425.82 7143.02C1425.5 7143.08 1425.18 7143.13 1424.83 7143.13C1424.47 7143.13 1424.17 7143.04 1423.85 7143.04C1423.52 7143.06 1423.19 7143.06 1422.87 7143.04C1422.53 7143.04 1422.2 7143.04 1421.89 7142.96C1421.57 7142.87 1421.27 7142.7 1420.95 7142.63C1420.63 7142.55 1420.3 7142.5 1420 7142.39C1419.67 7142.33 1419.35 7142.25 1419.04 7142.15C1418.75 7142.01 1418.48 7141.79 1418.2 7141.65C1417.91 7141.5 1417.61 7141.35 1417.34 7141.17C1417.07 7140.98 1416.83 7140.64 1416.53 7140.46C1416.22 7140.27 1415.88 7140.16 1415.57 7140C1415.27 7139.84 1414.91 7139.73 1414.59 7139.57C1414.27 7139.42 1414 7139.17 1413.68 7139.02C1413.37 7138.88 1412.99 7138.84 1412.65 7138.72C1412.32 7138.59 1411.99 7138.48 1411.66 7138.37C1411.33 7138.26 1411.01 7138.07 1410.67 7137.97C1410.32 7137.87 1409.99 7137.75 1409.65 7137.66C1409.31 7137.58 1408.92 7137.66 1408.57 7137.66C1408.23 7137.66 1407.91 7137.49 1407.55 7137.44C1407.2 7137.39 1406.87 7137.28 1406.51 7137.25C1406.16 7137.21 1405.83 7137 1405.47 7137C1405.11 7137 1404.76 7137.12 1404.4 7137.11C1404.05 7137.1 1403.69 7137 1403.34 7137C1402.98 7137 1402.66 7137 1402.32 7137.06C1401.98 7137.12 1401.65 7137.06 1401.31 7137.15L1400.31 7137.27C1399.97 7137.27 1399.61 7137.18 1399.28 7137.27C1398.95 7137.36 1398.61 7137.42 1398.27 7137.48C1397.94 7137.54 1397.61 7137.6 1397.28 7137.69C1396.95 7137.77 1396.62 7137.85 1396.29 7137.94C1395.96 7138.04 1395.66 7138.19 1395.33 7138.3C1395 7138.41 1394.67 7138.46 1394.35 7138.57C1394.03 7138.68 1393.69 7138.73 1393.37 7138.86C1393.05 7139 1392.77 7139.18 1392.46 7139.33C1392.16 7139.48 1391.85 7139.64 1391.56 7139.78C1391.26 7139.93 1390.94 7140.09 1390.65 7140.26C1390.35 7140.43 1390.12 7140.69 1389.83 7140.87C1389.53 7141.06 1389.17 7141.11 1388.9 7141.29C1388.63 7141.47 1388.43 7141.81 1388.16 7142.01C1387.89 7142.22 1387.56 7142.34 1387.29 7142.57C1387.02 7142.79 1386.76 7142.98 1386.52 7143.22C1386.3 7143.47 1386.07 7143.71 1385.83 7143.94C1385.56 7144.13 1385.28 7144.3 1384.99 7144.45C1384.71 7144.62 1384.42 7144.78 1384.12 7144.91C1383.82 7145.07 1383.6 7145.35 1383.29 7145.48L1382.35 7145.83C1382.04 7145.92 1381.69 7145.89 1381.37 7145.97C1381.05 7146.06 1380.73 7146.15 1380.4 7146.19C1380.08 7146.24 1379.75 7146.27 1379.42 7146.28C1379.09 7146.3 1378.76 7146.3 1378.43 7146.28C1378.28 7146.28 1378.12 7146.28 1377.96 7146.28C1377.8 7146.28 1377.29 7146.35 1376.96 7146.37C1376.62 7146.38 1376.27 7146.27 1375.93 7146.29C1375.58 7146.32 1375.28 7146.55 1374.93 7146.59C1374.59 7146.62 1374.26 7146.59 1373.93 7146.68C1373.6 7146.78 1373.27 7146.83 1372.93 7146.89C1372.6 7146.95 1372.25 7146.89 1371.93 7146.99C1371.61 7147.09 1371.26 7147.1 1370.92 7147.2C1370.59 7147.3 1370.31 7147.49 1369.98 7147.59C1369.65 7147.69 1369.31 7147.7 1368.99 7147.82C1368.67 7147.95 1368.41 7148.19 1368.09 7148.32C1367.77 7148.44 1367.44 7148.5 1367.14 7148.63C1366.83 7148.77 1366.56 7149.01 1366.27 7149.17C1365.97 7149.33 1365.64 7149.44 1365.35 7149.6C1365.05 7149.76 1364.75 7149.92 1364.46 7150.09C1364.18 7150.26 1363.8 7150.34 1363.53 7150.53C1363.26 7150.73 1363.09 7151.09 1362.82 7151.29C1362.55 7151.5 1362.22 7151.61 1361.95 7151.83C1361.68 7152.05 1361.41 7152.24 1361.17 7152.47C1360.91 7152.7 1360.67 7152.94 1360.44 7153.19C1360.21 7153.43 1360.06 7153.76 1359.83 7154C1359.6 7154.25 1359.27 7154.41 1359.05 7154.67C1358.82 7154.92 1358.75 7155.3 1358.56 7155.57C1358.36 7155.84 1358.18 7156.12 1357.99 7156.41C1357.81 7156.69 1357.49 7156.9 1357.32 7157.19C1357.15 7157.48 1357.08 7157.84 1356.94 7158.13C1356.79 7158.43 1356.52 7158.7 1356.39 7159C1356.25 7159.31 1356.19 7159.65 1356.07 7159.97C1355.94 7160.29 1355.88 7160.62 1355.78 7160.95C1355.69 7161.29 1355.61 7161.6 1355.54 7161.93C1355.47 7162.27 1355.36 7162.58 1355.29 7162.92C1355.23 7163.25 1355.23 7163.57 1355.2 7163.97C1355.11 7164.3 1355.05 7164.64 1355 7164.98C1355 7165.31 1355 7165.65 1355 7165.99C1355 7166.34 1355.09 7166.67 1355.11 7167.01C1355.13 7167.35 1355.33 7167.66 1355.37 7168C1355.4 7168.35 1355.45 7168.69 1355.51 7169.02C1355.58 7169.35 1355.51 7169.72 1355.66 7170.05C1355.81 7170.38 1355.81 7170.74 1355.91 7171.07C1356.01 7171.4 1356.12 7171.73 1356.24 7172.06C1356.36 7172.39 1356.64 7172.64 1356.79 7172.96C1356.94 7173.27 1357.03 7173.61 1357.19 7173.91C1357.35 7174.22 1357.45 7174.56 1357.64 7174.86C1357.82 7175.15 1358.14 7175.36 1358.33 7175.64C1358.53 7175.92 1358.64 7176.28 1358.85 7176.56C1359.06 7176.84 1359.24 7177.14 1359.47 7177.39C1359.71 7177.65 1359.95 7177.91 1360.19 7178.17C1360.42 7178.42 1360.72 7178.61 1360.97 7178.85C1361.22 7179.1 1361.45 7179.35 1361.72 7179.58C1361.99 7179.8 1362.2 7180.09 1362.48 7180.3C1362.76 7180.51 1363.15 7180.56 1363.43 7180.76C1363.72 7180.97 1363.91 7181.29 1364.21 7181.48C1364.5 7181.66 1364.79 7181.84 1365.1 7182.02C1365.41 7182.19 1365.78 7182.21 1366.09 7182.38C1366.41 7182.55 1366.62 7182.85 1366.94 7183.01L1367.9 7183.42C1368.22 7183.56 1368.6 7183.56 1368.91 7183.68C1369.23 7183.8 1369.53 7184.04 1369.86 7184.15C1370.19 7184.26 1370.53 7184.31 1370.88 7184.41C1371.22 7184.5 1371.56 7184.5 1371.89 7184.59C1372.22 7184.68 1372.55 7184.79 1372.9 7184.86L1373.93 7185.02C1374.27 7185.08 1374.61 7185.12 1374.97 7185.15C1375.33 7185.19 1375.64 7185.29 1376 7185.31H1376.94C1377.26 7185.31 1377.58 7185.2 1377.89 7185.2C1378.19 7185.2 1378.53 7185.4 1378.83 7185.39C1379.14 7185.37 1379.47 7185.25 1379.78 7185.23C1380.08 7185.2 1380.41 7185.23 1380.72 7185.23C1381.03 7185.23 1381.34 7185.09 1381.65 7185.06C1381.96 7185.02 1382.35 7184.94 1382.69 7184.92C1383.04 7184.9 1383.4 7184.92 1383.75 7184.92C1384.1 7184.93 1384.44 7184.97 1384.79 7185.02C1385.13 7185.02 1385.48 7185.13 1385.82 7185.19C1386.16 7185.25 1386.48 7185.42 1386.81 7185.52C1387.14 7185.62 1387.51 7185.63 1387.83 7185.77C1388.15 7185.9 1388.47 7186.04 1388.79 7186.2C1389.1 7186.35 1389.44 7186.47 1389.73 7186.65C1390.02 7186.83 1390.31 7187.07 1390.58 7187.27C1390.85 7187.48 1391.1 7187.69 1391.37 7187.89C1391.64 7188.08 1391.84 7188.37 1392.12 7188.55C1392.4 7188.73 1392.7 7188.88 1392.98 7189.05C1393.26 7189.22 1393.57 7189.38 1393.86 7189.54C1394.16 7189.7 1394.41 7189.92 1394.71 7190.07C1395 7190.22 1395.36 7190.23 1395.66 7190.38C1395.97 7190.52 1396.2 7190.82 1396.51 7190.94L1397.45 7191.28C1397.76 7191.39 1398.1 7191.43 1398.42 7191.53C1398.74 7191.63 1399.08 7191.64 1399.4 7191.72C1399.72 7191.81 1400.05 7191.86 1400.38 7191.93C1400.71 7192.01 1401 7192.19 1401.33 7192.25L1402.31 7192.42C1402.64 7192.42 1402.96 7192.61 1403.29 7192.64C1403.62 7192.68 1403.97 7192.56 1404.31 7192.58C1404.64 7192.61 1404.96 7192.77 1405.3 7192.78C1405.64 7192.79 1405.96 7192.78 1406.3 7192.78C1406.65 7192.78 1407 7192.84 1407.35 7192.78C1407.69 7192.72 1408.03 7192.55 1408.38 7192.52L1409.41 7192.42C1409.76 7192.42 1410.12 7192.5 1410.46 7192.42C1410.8 7192.35 1411.15 7192.26 1411.48 7192.2C1411.81 7192.14 1412.13 7191.92 1412.47 7191.85C1412.81 7191.77 1413.14 7191.72 1413.49 7191.63C1413.83 7191.53 1414.17 7191.5 1414.51 7191.39L1415.49 7191.05C1415.8 7190.93 1416.1 7190.73 1416.42 7190.6C1416.74 7190.46 1417.1 7190.42 1417.42 7190.28C1417.74 7190.13 1417.99 7189.86 1418.29 7189.7C1418.6 7189.56 1418.91 7189.43 1419.22 7189.32C1419.53 7189.2 1419.85 7189.08 1420.17 7188.98C1420.49 7188.88 1420.83 7188.89 1421.16 7188.82C1421.49 7188.75 1421.79 7188.52 1422.12 7188.48C1422.45 7188.43 1422.79 7188.48 1423.12 7188.4C1423.45 7188.33 1423.8 7188.49 1424.14 7188.49C1424.48 7188.49 1424.81 7188.4 1425.15 7188.49C1425.48 7188.57 1425.81 7188.61 1426.14 7188.67C1426.47 7188.73 1426.79 7188.84 1427.11 7188.93C1427.43 7189.01 1427.81 7189.01 1428.15 7189.09C1428.49 7189.16 1428.8 7189.32 1429.14 7189.39C1429.49 7189.47 1429.82 7189.58 1430.16 7189.63C1430.5 7189.68 1430.85 7189.75 1431.2 7189.79C1431.56 7189.82 1431.9 7189.79 1432.24 7189.79C1432.59 7189.79 1432.93 7189.97 1433.27 7189.98C1433.62 7190 1433.97 7189.98 1434.33 7189.98C1434.68 7189.98 1435.03 7189.98 1435.37 7189.98C1435.71 7189.98 1436.04 7189.92 1436.38 7189.91C1436.71 7189.9 1437.05 7189.91 1437.38 7189.84C1437.71 7189.76 1438.04 7189.84 1438.39 7189.84C1438.73 7189.84 1439.06 7189.93 1439.4 7189.84C1439.75 7189.74 1440.05 7189.7 1440.38 7189.65C1440.71 7189.6 1441.06 7189.58 1441.39 7189.52C1441.72 7189.46 1442.04 7189.32 1442.36 7189.25C1442.68 7189.17 1443.03 7189.16 1443.35 7189.09C1443.67 7189.01 1444.01 7188.94 1444.33 7188.84C1444.65 7188.75 1444.92 7188.48 1445.24 7188.38C1445.56 7188.28 1445.96 7188.38 1446.28 7188.29C1446.6 7188.21 1446.84 7187.89 1447.15 7187.76C1447.46 7187.64 1447.8 7187.57 1448.11 7187.43C1448.41 7187.3 1448.77 7187.27 1449.08 7187.13C1449.38 7186.98 1449.59 7186.65 1449.88 7186.5C1450.18 7186.35 1450.58 7186.38 1450.88 7186.22C1451.17 7186.06 1451.44 7185.85 1451.72 7185.68C1452.01 7185.51 1452.26 7185.26 1452.54 7185.08C1452.83 7184.9 1453.05 7184.64 1453.32 7184.44C1453.59 7184.25 1453.97 7184.2 1454.24 7184C1454.5 7183.76 1454.79 7183.53 1455.08 7183.31C1455.4 7183.13 1455.78 7183.09 1456.11 7182.93C1456.44 7182.78 1456.76 7182.63 1457.12 7182.51C1457.47 7182.38 1457.74 7182.09 1458.1 7182C1458.46 7181.95 1458.83 7181.92 1459.2 7181.9C1459.56 7181.9 1459.91 7181.79 1460.28 7181.76C1460.65 7181.72 1460.95 7181.7 1461.29 7181.65C1461.62 7181.6 1461.96 7181.56 1462.29 7181.5C1462.62 7181.44 1462.93 7181.28 1463.26 7181.21C1463.59 7181.13 1463.93 7181.21 1464.26 7181.05C1464.6 7180.89 1464.88 7180.78 1465.2 7180.67C1465.51 7180.56 1465.88 7180.58 1466.2 7180.46C1466.52 7180.34 1466.81 7180.16 1467.12 7180.03C1467.43 7179.89 1467.75 7179.77 1468.04 7179.62C1468.33 7179.48 1468.59 7179.21 1468.89 7179.04C1469.18 7178.86 1469.49 7178.73 1469.77 7178.55C1470.05 7178.36 1470.3 7178.13 1470.57 7177.93C1470.84 7177.74 1471.06 7177.47 1471.33 7177.26C1471.6 7177.05 1471.96 7176.96 1472.21 7176.74C1472.45 7176.52 1472.67 7176.24 1472.91 7176.01C1473.14 7175.78 1473.26 7175.42 1473.47 7175.16C1473.68 7174.9 1473.88 7174.62 1474.07 7174.35C1474.27 7174.08 1474.5 7173.84 1474.68 7173.56C1474.87 7173.27 1475.16 7173.05 1475.32 7172.76C1475.48 7172.47 1475.55 7172.12 1475.7 7171.83C1475.85 7171.53 1475.95 7171.2 1476.07 7170.88C1476.19 7170.57 1476.35 7170.28 1476.45 7169.95C1476.59 7169.65 1476.72 7169.33 1476.83 7169.01C1476.92 7168.68 1476.99 7168.35 1477.05 7168.02C1477.05 7167.67 1477.14 7167.33 1477.16 7167C1477.13 7166.66 1477.08 7166.32 1477.01 7165.98C1477.09 7165.64 1477.15 7165.3 1477.19 7164.95C1477.19 7164.62 1477.19 7164.28 1477.09 7163.95C1476.99 7163.61 1476.84 7163.3 1476.78 7162.96C1476.72 7162.63 1476.66 7162.3 1476.56 7161.97C1476.46 7161.65 1476.34 7161.34 1476.2 7161.03C1476.11 7160.7 1476 7160.38 1475.87 7160.06C1475.74 7159.75 1475.47 7159.52 1475.31 7159.23C1475.15 7158.93 1475.06 7158.59 1474.89 7158.29C1474.72 7158 1474.46 7157.78 1474.27 7157.5C1474.07 7157.22 1473.91 7156.92 1473.7 7156.66C1473.5 7156.41 1473.35 7156.08 1473.12 7155.82C1472.88 7155.56 1472.61 7155.36 1472.37 7155.13C1472.12 7154.9 1471.79 7154.76 1471.53 7154.54C1471.31 7154.3 1471.06 7154.06 1470.81 7153.84C1470.54 7153.64 1470.33 7153.34 1470.05 7153.16C1469.77 7152.97 1469.5 7152.77 1469.2 7152.58C1468.91 7152.4 1468.57 7152.34 1468.26 7152.18C1467.95 7152.02 1467.65 7151.89 1467.34 7151.75C1467.03 7151.6 1466.69 7151.47 1466.37 7151.33Z" fill="#73CCCD"/>
<path d="M318.373 7260.33C318.079 7260.21 317.797 7260.07 317.49 7259.96C317.184 7259.85 316.853 7259.86 316.546 7259.78C316.24 7259.69 315.958 7259.51 315.652 7259.44C315.345 7259.36 315.051 7259.22 314.732 7259.15C314.413 7259.09 314.107 7259.03 313.788 7258.98L312.844 7258.85C312.525 7258.85 312.207 7258.85 311.888 7258.79C311.569 7258.72 311.177 7258.79 310.834 7258.79C310.49 7258.79 310.159 7258.57 309.828 7258.48C309.497 7258.39 309.191 7258.19 308.86 7258.06C308.529 7257.94 308.174 7257.9 307.855 7257.76C307.536 7257.61 307.291 7257.35 306.997 7257.17C306.702 7256.98 306.42 7256.76 306.151 7256.57C305.881 7256.37 305.599 7256.17 305.329 7255.98L304.484 7255.43C304.202 7255.24 303.944 7255.03 303.65 7254.86C303.356 7254.69 303.012 7254.63 302.718 7254.46C302.424 7254.29 302.154 7254.1 301.86 7253.94C301.566 7253.78 301.272 7253.64 300.965 7253.5C300.659 7253.37 300.328 7253.29 300.009 7253.16C299.69 7253.02 299.408 7252.88 299.102 7252.75C298.795 7252.63 298.44 7252.62 298.121 7252.51L297.177 7252.13C296.858 7252.03 296.577 7251.79 296.258 7251.7C295.939 7251.61 295.596 7251.61 295.265 7251.53C294.934 7251.44 294.627 7251.3 294.309 7251.22C293.99 7251.15 293.622 7251.22 293.303 7251.15C292.985 7251.08 292.666 7250.9 292.335 7250.9C292.004 7250.9 291.661 7250.9 291.33 7250.9C290.999 7250.9 290.668 7250.73 290.337 7250.7H289.331C289 7250.7 288.669 7250.63 288.326 7250.62C287.983 7250.61 287.664 7250.71 287.321 7250.71C286.978 7250.71 286.598 7250.71 286.242 7250.71H285.163C284.796 7250.71 284.44 7250.71 284.085 7250.77C283.729 7250.83 283.374 7250.92 283.018 7250.96C282.663 7251.01 282.307 7251.1 281.952 7251.16C281.596 7251.22 281.228 7251.16 280.873 7251.28C280.517 7251.41 280.186 7251.47 279.831 7251.55L278.789 7251.8C278.47 7251.88 278.139 7251.96 277.82 7252.02C277.502 7252.08 277.183 7252.13 276.827 7252.13C276.472 7252.13 276.165 7252.04 275.847 7252.04C275.52 7252.06 275.192 7252.06 274.866 7252.04C274.535 7252.04 274.204 7252.04 273.885 7251.96C273.566 7251.87 273.272 7251.7 272.953 7251.63C272.635 7251.55 272.304 7251.5 271.997 7251.39C271.674 7251.33 271.355 7251.25 271.041 7251.15C270.747 7251.01 270.477 7250.79 270.195 7250.65C269.913 7250.5 269.607 7250.35 269.337 7250.17C269.067 7249.98 268.834 7249.64 268.528 7249.46C268.221 7249.27 267.878 7249.16 267.572 7249C267.265 7248.84 266.91 7248.73 266.591 7248.57C266.272 7248.42 266.003 7248.17 265.684 7248.02C265.365 7247.88 264.985 7247.84 264.654 7247.72C264.323 7247.59 263.992 7247.48 263.661 7247.37C263.33 7247.26 263.011 7247.07 262.668 7246.97C262.325 7246.87 261.994 7246.75 261.651 7246.66C261.307 7246.58 260.915 7246.66 260.572 7246.66C260.229 7246.66 259.91 7246.49 259.554 7246.44C259.199 7246.39 258.868 7246.28 258.512 7246.25C258.157 7246.21 257.826 7246 257.47 7246C257.115 7246 256.759 7246.12 256.404 7246.11C256.048 7246.1 255.693 7246 255.337 7246C254.982 7246 254.663 7246 254.32 7246.06C253.976 7246.12 253.645 7246.06 253.314 7246.15L252.309 7246.27C251.966 7246.27 251.61 7246.18 251.28 7246.27C250.949 7246.36 250.605 7246.42 250.274 7246.48C249.943 7246.54 249.612 7246.6 249.281 7246.69C248.95 7246.77 248.619 7246.85 248.288 7246.94C247.957 7247.04 247.663 7247.19 247.332 7247.3C247.001 7247.41 246.67 7247.46 246.351 7247.57C246.033 7247.68 245.689 7247.73 245.371 7247.86C245.052 7248 244.77 7248.18 244.464 7248.33C244.157 7248.48 243.851 7248.64 243.556 7248.78C243.262 7248.93 242.943 7249.09 242.649 7249.26C242.355 7249.43 242.122 7249.69 241.828 7249.87C241.534 7250.06 241.166 7250.11 240.896 7250.29C240.626 7250.47 240.43 7250.81 240.161 7251.01C239.891 7251.22 239.56 7251.34 239.29 7251.57C239.021 7251.79 238.763 7251.98 238.518 7252.22C238.302 7252.47 238.073 7252.71 237.831 7252.94C237.561 7253.13 237.279 7253.3 236.986 7253.45C236.706 7253.62 236.415 7253.78 236.115 7253.91C235.821 7254.07 235.6 7254.35 235.294 7254.48L234.35 7254.83C234.043 7254.92 233.688 7254.89 233.369 7254.97C233.05 7255.06 232.732 7255.15 232.401 7255.19C232.076 7255.24 231.748 7255.27 231.42 7255.28C231.089 7255.3 230.758 7255.3 230.427 7255.28C230.28 7255.28 230.12 7255.28 229.961 7255.28C229.802 7255.28 229.287 7255.35 228.956 7255.37C228.625 7255.38 228.269 7255.27 227.926 7255.29C227.583 7255.32 227.276 7255.55 226.933 7255.59C226.59 7255.62 226.259 7255.59 225.928 7255.68C225.597 7255.78 225.266 7255.83 224.935 7255.89C224.604 7255.95 224.248 7255.89 223.93 7255.99C223.611 7256.09 223.255 7256.1 222.924 7256.2C222.593 7256.3 222.311 7256.49 221.98 7256.59C221.65 7256.69 221.306 7256.7 220.988 7256.82C220.669 7256.95 220.411 7257.19 220.093 7257.32C219.774 7257.44 219.443 7257.5 219.136 7257.63C218.83 7257.77 218.56 7258.01 218.266 7258.17C217.972 7258.33 217.641 7258.44 217.347 7258.6C217.052 7258.76 216.746 7258.92 216.464 7259.09C216.182 7259.26 215.802 7259.34 215.532 7259.53C215.263 7259.73 215.091 7260.09 214.821 7260.29C214.552 7260.5 214.221 7260.61 213.951 7260.83C213.681 7261.05 213.411 7261.24 213.166 7261.47C212.913 7261.7 212.672 7261.94 212.443 7262.19C212.21 7262.43 212.063 7262.76 211.83 7263C211.597 7263.25 211.266 7263.41 211.045 7263.67C210.825 7263.92 210.751 7264.3 210.555 7264.57C210.359 7264.84 210.175 7265.12 209.991 7265.41C209.807 7265.69 209.489 7265.9 209.317 7266.19C209.145 7266.48 209.084 7266.84 208.937 7267.13C208.79 7267.43 208.52 7267.7 208.385 7268C208.25 7268.31 208.189 7268.65 208.067 7268.97C207.944 7269.29 207.883 7269.62 207.785 7269.95C207.687 7270.29 207.613 7270.6 207.539 7270.93C207.466 7271.27 207.356 7271.58 207.294 7271.92C207.233 7272.25 207.233 7272.57 207.196 7272.97C207.112 7273.3 207.046 7273.64 207 7273.98C207 7274.31 207 7274.65 207 7274.99C207 7275.34 207.086 7275.67 207.11 7276.01C207.135 7276.35 207.331 7276.66 207.368 7277C207.405 7277.35 207.454 7277.69 207.515 7278.02C207.576 7278.35 207.515 7278.72 207.662 7279.05C207.809 7279.38 207.809 7279.74 207.907 7280.07C208.005 7280.4 208.116 7280.73 208.238 7281.06C208.361 7281.39 208.643 7281.64 208.79 7281.96C208.937 7282.27 209.035 7282.61 209.194 7282.91C209.354 7283.22 209.452 7283.56 209.636 7283.86C209.82 7284.15 210.138 7284.36 210.334 7284.64C210.531 7284.92 210.641 7285.28 210.849 7285.56C211.058 7285.84 211.242 7286.14 211.475 7286.39C211.707 7286.65 211.953 7286.91 212.186 7287.17C212.418 7287.42 212.725 7287.61 212.97 7287.85C213.215 7288.1 213.448 7288.35 213.718 7288.58C213.988 7288.8 214.196 7289.09 214.478 7289.3C214.76 7289.51 215.152 7289.56 215.434 7289.76C215.716 7289.97 215.912 7290.29 216.207 7290.48C216.501 7290.66 216.795 7290.84 217.101 7291.02C217.408 7291.19 217.776 7291.21 218.094 7291.38C218.413 7291.55 218.622 7291.85 218.94 7292.01L219.896 7292.42C220.215 7292.56 220.595 7292.56 220.914 7292.68C221.233 7292.8 221.527 7293.04 221.858 7293.15C222.189 7293.26 222.532 7293.31 222.875 7293.41C223.219 7293.5 223.562 7293.5 223.893 7293.59C224.224 7293.68 224.555 7293.79 224.898 7293.86L225.928 7294.02C226.271 7294.08 226.614 7294.12 226.97 7294.15C227.325 7294.19 227.644 7294.29 228 7294.31H228.944C229.262 7294.31 229.581 7294.2 229.888 7294.2C230.194 7294.2 230.525 7294.4 230.831 7294.39C231.138 7294.37 231.469 7294.25 231.775 7294.23C232.082 7294.2 232.413 7294.23 232.719 7294.23C233.026 7294.23 233.345 7294.09 233.651 7294.06C233.958 7294.02 234.35 7293.94 234.693 7293.92C235.036 7293.9 235.404 7293.92 235.747 7293.92C236.096 7293.93 236.444 7293.97 236.789 7294.02C237.133 7294.02 237.476 7294.13 237.819 7294.19C238.162 7294.25 238.481 7294.42 238.812 7294.52C239.143 7294.62 239.511 7294.63 239.83 7294.77C240.148 7294.9 240.467 7295.04 240.786 7295.2C241.105 7295.35 241.436 7295.47 241.73 7295.65C242.024 7295.83 242.306 7296.07 242.576 7296.27C242.845 7296.48 243.103 7296.69 243.372 7296.89C243.642 7297.08 243.838 7297.37 244.12 7297.55C244.402 7297.73 244.696 7297.88 244.978 7298.05C245.26 7298.22 245.567 7298.38 245.861 7298.54C246.155 7298.7 246.413 7298.92 246.707 7299.07C247.001 7299.22 247.357 7299.23 247.663 7299.38C247.97 7299.52 248.202 7299.82 248.509 7299.94L249.453 7300.28C249.759 7300.39 250.103 7300.43 250.421 7300.53C250.74 7300.63 251.083 7300.64 251.402 7300.72C251.721 7300.81 252.052 7300.86 252.383 7300.93C252.714 7301.01 252.996 7301.19 253.327 7301.25L254.307 7301.42C254.638 7301.42 254.957 7301.61 255.288 7301.64C255.619 7301.68 255.975 7301.56 256.306 7301.58C256.637 7301.61 256.955 7301.77 257.299 7301.78C257.642 7301.79 257.961 7301.78 258.304 7301.78C258.647 7301.78 259.003 7301.84 259.346 7301.78C259.689 7301.72 260.032 7301.55 260.376 7301.52L261.405 7301.42C261.761 7301.42 262.116 7301.5 262.46 7301.42C262.803 7301.35 263.146 7301.26 263.477 7301.2C263.808 7301.14 264.127 7300.92 264.47 7300.85C264.813 7300.77 265.144 7300.72 265.488 7300.63C265.831 7300.53 266.174 7300.5 266.505 7300.39L267.486 7300.05C267.805 7299.93 268.099 7299.73 268.418 7299.6C268.736 7299.46 269.104 7299.42 269.423 7299.28C269.742 7299.13 269.987 7298.86 270.293 7298.7C270.596 7298.56 270.907 7298.43 271.225 7298.32C271.531 7298.2 271.85 7298.08 272.169 7297.98C272.488 7297.88 272.831 7297.89 273.162 7297.82C273.493 7297.75 273.787 7297.52 274.118 7297.48C274.449 7297.43 274.792 7297.48 275.123 7297.4C275.454 7297.33 275.798 7297.49 276.141 7297.49C276.484 7297.49 276.815 7297.4 277.146 7297.49C277.477 7297.57 277.808 7297.61 278.139 7297.67C278.47 7297.73 278.789 7297.84 279.107 7297.93C279.426 7298.01 279.806 7298.01 280.149 7298.09C280.493 7298.16 280.799 7298.32 281.142 7298.39C281.486 7298.47 281.817 7298.58 282.16 7298.63C282.503 7298.68 282.846 7298.75 283.202 7298.79C283.557 7298.82 283.901 7298.79 284.244 7298.79C284.587 7298.79 284.93 7298.97 285.274 7298.98C285.617 7299 285.972 7298.98 286.328 7298.98C286.683 7298.98 287.027 7298.98 287.37 7298.98C287.713 7298.98 288.044 7298.92 288.375 7298.91C288.706 7298.9 289.049 7298.91 289.38 7298.84C289.711 7298.76 290.042 7298.84 290.386 7298.84C290.729 7298.84 291.06 7298.93 291.403 7298.84C291.746 7298.74 292.053 7298.7 292.384 7298.65C292.715 7298.6 293.058 7298.58 293.389 7298.52C293.72 7298.46 294.039 7298.32 294.358 7298.25C294.676 7298.17 295.032 7298.16 295.351 7298.09C295.669 7298.01 296.013 7297.94 296.331 7297.84C296.65 7297.75 296.92 7297.48 297.238 7297.38C297.557 7297.28 297.962 7297.38 298.281 7297.29C298.599 7297.21 298.844 7296.89 299.151 7296.76C299.457 7296.64 299.801 7296.57 300.107 7296.43C300.414 7296.3 300.769 7296.27 301.076 7296.13C301.382 7295.98 301.59 7295.65 301.885 7295.5C302.179 7295.35 302.583 7295.38 302.878 7295.22C303.172 7295.06 303.442 7294.85 303.724 7294.68C304.005 7294.51 304.263 7294.26 304.545 7294.08C304.827 7293.9 305.047 7293.64 305.317 7293.44C305.587 7293.25 305.967 7293.2 306.237 7293C306.504 7292.76 306.787 7292.53 307.082 7292.31C307.401 7292.13 307.781 7292.09 308.112 7291.93C308.443 7291.78 308.762 7291.63 309.117 7291.51C309.473 7291.38 309.743 7291.09 310.098 7291C310.464 7290.95 310.832 7290.92 311.201 7290.9C311.557 7290.9 311.913 7290.79 312.28 7290.76C312.648 7290.72 312.955 7290.7 313.286 7290.65C313.617 7290.6 313.96 7290.56 314.291 7290.5C314.622 7290.44 314.928 7290.28 315.259 7290.21C315.59 7290.13 315.933 7290.21 316.264 7290.05C316.595 7289.89 316.877 7289.78 317.196 7289.67C317.515 7289.56 317.883 7289.58 318.201 7289.46C318.52 7289.34 318.814 7289.16 319.121 7289.03C319.427 7288.89 319.746 7288.77 320.04 7288.62C320.334 7288.48 320.592 7288.21 320.886 7288.04C321.18 7287.86 321.487 7287.73 321.769 7287.55C322.051 7287.36 322.296 7287.13 322.566 7286.93C322.835 7286.74 323.056 7286.47 323.326 7286.26C323.595 7286.05 323.963 7285.96 324.208 7285.74C324.453 7285.52 324.674 7285.24 324.907 7285.01C325.14 7284.78 325.263 7284.42 325.471 7284.16C325.679 7283.9 325.876 7283.62 326.072 7283.35C326.268 7283.08 326.501 7282.84 326.685 7282.56C326.868 7282.27 327.163 7282.05 327.322 7281.76C327.481 7281.47 327.555 7281.12 327.702 7280.83C327.849 7280.53 327.947 7280.2 328.07 7279.88C328.192 7279.57 328.352 7279.28 328.45 7278.95C328.594 7278.65 328.721 7278.33 328.83 7278.01C328.92 7277.68 328.993 7277.35 329.051 7277.02C329.051 7276.67 329.136 7276.33 329.161 7276C329.131 7275.66 329.082 7275.32 329.014 7274.98C329.089 7274.64 329.146 7274.3 329.185 7273.95C329.185 7273.62 329.185 7273.28 329.087 7272.95C328.989 7272.61 328.842 7272.3 328.781 7271.96C328.72 7271.63 328.658 7271.3 328.56 7270.97C328.458 7270.65 328.339 7270.34 328.205 7270.03C328.111 7269.7 328 7269.38 327.874 7269.06C327.739 7268.75 327.469 7268.52 327.31 7268.23C327.15 7267.93 327.065 7267.59 326.893 7267.29C326.721 7267 326.464 7266.78 326.268 7266.5C326.072 7266.22 325.912 7265.92 325.704 7265.66C325.495 7265.41 325.348 7265.08 325.115 7264.82C324.883 7264.56 324.613 7264.36 324.368 7264.13C324.122 7263.9 323.791 7263.76 323.534 7263.54C323.305 7263.3 323.064 7263.06 322.811 7262.84C322.541 7262.64 322.333 7262.34 322.051 7262.16C321.769 7261.97 321.499 7261.77 321.205 7261.58C320.911 7261.4 320.567 7261.34 320.261 7261.18C319.954 7261.02 319.648 7260.89 319.341 7260.75C319.035 7260.6 318.692 7260.47 318.373 7260.33Z" fill="#73CCCD"/>
<path d="M392.373 6991.33C392.079 6991.21 391.797 6991.07 391.49 6990.96C391.184 6990.85 390.853 6990.86 390.546 6990.78C390.24 6990.69 389.958 6990.51 389.652 6990.44C389.345 6990.36 389.051 6990.22 388.732 6990.15C388.413 6990.09 388.107 6990.03 387.788 6989.98L386.844 6989.85C386.525 6989.85 386.207 6989.85 385.888 6989.79C385.569 6989.72 385.177 6989.79 384.834 6989.79C384.49 6989.79 384.159 6989.57 383.828 6989.48C383.497 6989.39 383.191 6989.19 382.86 6989.06C382.529 6988.94 382.174 6988.9 381.855 6988.76C381.536 6988.61 381.291 6988.35 380.997 6988.17C380.702 6987.98 380.42 6987.76 380.151 6987.57C379.881 6987.37 379.599 6987.17 379.329 6986.98L378.484 6986.43C378.202 6986.24 377.944 6986.03 377.65 6985.86C377.356 6985.69 377.012 6985.63 376.718 6985.46C376.424 6985.29 376.154 6985.1 375.86 6984.94C375.566 6984.78 375.272 6984.64 374.965 6984.5C374.659 6984.37 374.328 6984.29 374.009 6984.16C373.69 6984.02 373.408 6983.88 373.102 6983.75C372.795 6983.63 372.44 6983.62 372.121 6983.51L371.177 6983.13C370.858 6983.03 370.577 6982.79 370.258 6982.7C369.939 6982.61 369.596 6982.61 369.265 6982.53C368.934 6982.44 368.627 6982.3 368.309 6982.22C367.99 6982.15 367.622 6982.22 367.303 6982.15C366.985 6982.08 366.666 6981.9 366.335 6981.9C366.004 6981.9 365.661 6981.9 365.33 6981.9C364.999 6981.9 364.668 6981.73 364.337 6981.7H363.331C363 6981.7 362.669 6981.63 362.326 6981.62C361.983 6981.61 361.664 6981.71 361.321 6981.71C360.978 6981.71 360.598 6981.71 360.242 6981.71H359.163C358.796 6981.71 358.44 6981.71 358.085 6981.77C357.729 6981.83 357.374 6981.92 357.018 6981.96C356.663 6982.01 356.307 6982.1 355.952 6982.16C355.596 6982.22 355.228 6982.16 354.873 6982.28C354.517 6982.41 354.186 6982.47 353.831 6982.55L352.789 6982.8C352.47 6982.88 352.139 6982.96 351.82 6983.02C351.502 6983.08 351.183 6983.13 350.827 6983.13C350.472 6983.13 350.165 6983.04 349.847 6983.04C349.52 6983.06 349.192 6983.06 348.866 6983.04C348.535 6983.04 348.204 6983.04 347.885 6982.96C347.566 6982.87 347.272 6982.7 346.953 6982.63C346.635 6982.55 346.304 6982.5 345.997 6982.39C345.674 6982.33 345.355 6982.25 345.041 6982.15C344.747 6982.01 344.477 6981.79 344.195 6981.65C343.913 6981.5 343.607 6981.35 343.337 6981.17C343.067 6980.98 342.834 6980.64 342.528 6980.46C342.221 6980.27 341.878 6980.16 341.572 6980C341.265 6979.84 340.91 6979.73 340.591 6979.57C340.272 6979.42 340.003 6979.17 339.684 6979.02C339.365 6978.88 338.985 6978.84 338.654 6978.72C338.323 6978.59 337.992 6978.48 337.661 6978.37C337.33 6978.26 337.011 6978.07 336.668 6977.97C336.325 6977.87 335.994 6977.75 335.651 6977.66C335.307 6977.58 334.915 6977.66 334.572 6977.66C334.229 6977.66 333.91 6977.49 333.554 6977.44C333.199 6977.39 332.868 6977.28 332.512 6977.25C332.157 6977.21 331.826 6977 331.47 6977C331.115 6977 330.759 6977.12 330.404 6977.11C330.048 6977.1 329.693 6977 329.337 6977C328.982 6977 328.663 6977 328.32 6977.06C327.976 6977.12 327.645 6977.06 327.314 6977.15L326.309 6977.27C325.966 6977.27 325.61 6977.18 325.28 6977.27C324.949 6977.36 324.605 6977.42 324.274 6977.48C323.943 6977.54 323.612 6977.6 323.281 6977.69C322.95 6977.77 322.619 6977.85 322.288 6977.94C321.957 6978.04 321.663 6978.19 321.332 6978.3C321.001 6978.41 320.67 6978.46 320.351 6978.57C320.033 6978.68 319.689 6978.73 319.371 6978.86C319.052 6979 318.77 6979.18 318.464 6979.33C318.157 6979.48 317.851 6979.64 317.556 6979.78C317.262 6979.93 316.943 6980.09 316.649 6980.26C316.355 6980.43 316.122 6980.69 315.828 6980.87C315.534 6981.06 315.166 6981.11 314.896 6981.29C314.626 6981.47 314.43 6981.81 314.161 6982.01C313.891 6982.22 313.56 6982.34 313.29 6982.57C313.021 6982.79 312.763 6982.98 312.518 6983.22C312.302 6983.47 312.073 6983.71 311.831 6983.94C311.561 6984.13 311.279 6984.3 310.986 6984.45C310.706 6984.62 310.415 6984.78 310.115 6984.91C309.821 6985.07 309.6 6985.35 309.294 6985.48L308.35 6985.83C308.043 6985.92 307.688 6985.89 307.369 6985.97C307.05 6986.06 306.732 6986.15 306.401 6986.19C306.076 6986.24 305.748 6986.27 305.42 6986.28C305.089 6986.3 304.758 6986.3 304.427 6986.28C304.28 6986.28 304.12 6986.28 303.961 6986.28C303.802 6986.28 303.287 6986.35 302.956 6986.37C302.625 6986.38 302.269 6986.27 301.926 6986.29C301.583 6986.32 301.276 6986.55 300.933 6986.59C300.59 6986.62 300.259 6986.59 299.928 6986.68C299.597 6986.78 299.266 6986.83 298.935 6986.89C298.604 6986.95 298.248 6986.89 297.93 6986.99C297.611 6987.09 297.255 6987.1 296.924 6987.2C296.593 6987.3 296.311 6987.49 295.98 6987.59C295.65 6987.69 295.306 6987.7 294.988 6987.82C294.669 6987.95 294.411 6988.19 294.093 6988.32C293.774 6988.44 293.443 6988.5 293.136 6988.63C292.83 6988.77 292.56 6989.01 292.266 6989.17C291.972 6989.33 291.641 6989.44 291.347 6989.6C291.052 6989.76 290.746 6989.92 290.464 6990.09C290.182 6990.26 289.802 6990.34 289.532 6990.53C289.263 6990.73 289.091 6991.09 288.821 6991.29C288.552 6991.5 288.221 6991.61 287.951 6991.83C287.681 6992.05 287.411 6992.24 287.166 6992.47C286.913 6992.7 286.672 6992.94 286.443 6993.19C286.21 6993.43 286.063 6993.76 285.83 6994C285.597 6994.25 285.266 6994.41 285.045 6994.67C284.825 6994.92 284.751 6995.3 284.555 6995.57C284.359 6995.84 284.175 6996.12 283.991 6996.41C283.807 6996.69 283.489 6996.9 283.317 6997.19C283.145 6997.48 283.084 6997.84 282.937 6998.13C282.79 6998.43 282.52 6998.7 282.385 6999C282.25 6999.31 282.189 6999.65 282.067 6999.97C281.944 7000.29 281.883 7000.62 281.785 7000.95C281.687 7001.29 281.613 7001.6 281.539 7001.93C281.466 7002.27 281.356 7002.58 281.294 7002.92C281.233 7003.25 281.233 7003.57 281.196 7003.97C281.112 7004.3 281.046 7004.64 281 7004.98C281 7005.31 281 7005.65 281 7005.99C281 7006.34 281.086 7006.67 281.11 7007.01C281.135 7007.35 281.331 7007.66 281.368 7008C281.405 7008.35 281.454 7008.69 281.515 7009.02C281.576 7009.35 281.515 7009.72 281.662 7010.05C281.809 7010.38 281.809 7010.74 281.907 7011.07C282.005 7011.4 282.116 7011.73 282.238 7012.06C282.361 7012.39 282.643 7012.64 282.79 7012.96C282.937 7013.27 283.035 7013.61 283.194 7013.91C283.354 7014.22 283.452 7014.56 283.636 7014.86C283.82 7015.15 284.138 7015.36 284.334 7015.64C284.531 7015.92 284.641 7016.28 284.849 7016.56C285.058 7016.84 285.242 7017.14 285.475 7017.39C285.707 7017.65 285.953 7017.91 286.186 7018.17C286.418 7018.42 286.725 7018.61 286.97 7018.85C287.215 7019.1 287.448 7019.35 287.718 7019.58C287.988 7019.8 288.196 7020.09 288.478 7020.3C288.76 7020.51 289.152 7020.56 289.434 7020.76C289.716 7020.97 289.912 7021.29 290.207 7021.48C290.501 7021.66 290.795 7021.84 291.101 7022.02C291.408 7022.19 291.776 7022.21 292.094 7022.38C292.413 7022.55 292.622 7022.85 292.94 7023.01L293.896 7023.42C294.215 7023.56 294.595 7023.56 294.914 7023.68C295.233 7023.8 295.527 7024.04 295.858 7024.15C296.189 7024.26 296.532 7024.31 296.875 7024.41C297.219 7024.5 297.562 7024.5 297.893 7024.59C298.224 7024.68 298.555 7024.79 298.898 7024.86L299.928 7025.02C300.271 7025.08 300.614 7025.12 300.97 7025.15C301.325 7025.19 301.644 7025.29 302 7025.31H302.944C303.262 7025.31 303.581 7025.2 303.888 7025.2C304.194 7025.2 304.525 7025.4 304.831 7025.39C305.138 7025.37 305.469 7025.25 305.775 7025.23C306.082 7025.2 306.413 7025.23 306.719 7025.23C307.026 7025.23 307.345 7025.09 307.651 7025.06C307.958 7025.02 308.35 7024.94 308.693 7024.92C309.036 7024.9 309.404 7024.92 309.747 7024.92C310.096 7024.93 310.444 7024.97 310.789 7025.02C311.133 7025.02 311.476 7025.13 311.819 7025.19C312.162 7025.25 312.481 7025.42 312.812 7025.52C313.143 7025.62 313.511 7025.63 313.83 7025.77C314.148 7025.9 314.467 7026.04 314.786 7026.2C315.105 7026.35 315.436 7026.47 315.73 7026.65C316.024 7026.83 316.306 7027.07 316.576 7027.27C316.845 7027.48 317.103 7027.69 317.372 7027.89C317.642 7028.08 317.838 7028.37 318.12 7028.55C318.402 7028.73 318.696 7028.88 318.978 7029.05C319.26 7029.22 319.567 7029.38 319.861 7029.54C320.155 7029.7 320.413 7029.92 320.707 7030.07C321.001 7030.22 321.357 7030.23 321.663 7030.38C321.97 7030.52 322.202 7030.82 322.509 7030.94L323.453 7031.28C323.759 7031.39 324.103 7031.43 324.421 7031.53C324.74 7031.63 325.083 7031.64 325.402 7031.72C325.721 7031.81 326.052 7031.86 326.383 7031.93C326.714 7032.01 326.996 7032.19 327.327 7032.25L328.307 7032.42C328.638 7032.42 328.957 7032.61 329.288 7032.64C329.619 7032.68 329.975 7032.56 330.306 7032.58C330.637 7032.61 330.955 7032.77 331.299 7032.78C331.642 7032.79 331.961 7032.78 332.304 7032.78C332.647 7032.78 333.003 7032.84 333.346 7032.78C333.689 7032.72 334.032 7032.55 334.376 7032.52L335.405 7032.42C335.761 7032.42 336.116 7032.5 336.46 7032.42C336.803 7032.35 337.146 7032.26 337.477 7032.2C337.808 7032.14 338.127 7031.92 338.47 7031.85C338.813 7031.77 339.144 7031.72 339.488 7031.63C339.831 7031.53 340.174 7031.5 340.505 7031.39L341.486 7031.05C341.805 7030.93 342.099 7030.73 342.418 7030.6C342.736 7030.46 343.104 7030.42 343.423 7030.28C343.742 7030.13 343.987 7029.86 344.293 7029.7C344.596 7029.56 344.907 7029.43 345.225 7029.32C345.531 7029.2 345.85 7029.08 346.169 7028.98C346.488 7028.88 346.831 7028.89 347.162 7028.82C347.493 7028.75 347.787 7028.52 348.118 7028.48C348.449 7028.43 348.792 7028.48 349.123 7028.4C349.454 7028.33 349.798 7028.49 350.141 7028.49C350.484 7028.49 350.815 7028.4 351.146 7028.49C351.477 7028.57 351.808 7028.61 352.139 7028.67C352.47 7028.73 352.789 7028.84 353.107 7028.93C353.426 7029.01 353.806 7029.01 354.149 7029.09C354.493 7029.16 354.799 7029.32 355.142 7029.39C355.486 7029.47 355.817 7029.58 356.16 7029.63C356.503 7029.68 356.846 7029.75 357.202 7029.79C357.557 7029.82 357.901 7029.79 358.244 7029.79C358.587 7029.79 358.93 7029.97 359.274 7029.98C359.617 7030 359.972 7029.98 360.328 7029.98C360.683 7029.98 361.027 7029.98 361.37 7029.98C361.713 7029.98 362.044 7029.92 362.375 7029.91C362.706 7029.9 363.049 7029.91 363.38 7029.84C363.711 7029.76 364.042 7029.84 364.386 7029.84C364.729 7029.84 365.06 7029.93 365.403 7029.84C365.746 7029.74 366.053 7029.7 366.384 7029.65C366.715 7029.6 367.058 7029.58 367.389 7029.52C367.72 7029.46 368.039 7029.32 368.358 7029.25C368.676 7029.17 369.032 7029.16 369.351 7029.09C369.669 7029.01 370.013 7028.94 370.331 7028.84C370.65 7028.75 370.92 7028.48 371.238 7028.38C371.557 7028.28 371.962 7028.38 372.281 7028.29C372.599 7028.21 372.844 7027.89 373.151 7027.76C373.457 7027.64 373.801 7027.57 374.107 7027.43C374.414 7027.3 374.769 7027.27 375.076 7027.13C375.382 7026.98 375.59 7026.65 375.885 7026.5C376.179 7026.35 376.583 7026.38 376.878 7026.22C377.172 7026.06 377.442 7025.85 377.724 7025.68C378.005 7025.51 378.263 7025.26 378.545 7025.08C378.827 7024.9 379.047 7024.64 379.317 7024.44C379.587 7024.25 379.967 7024.2 380.237 7024C380.504 7023.76 380.787 7023.53 381.082 7023.31C381.401 7023.13 381.781 7023.09 382.112 7022.93C382.443 7022.78 382.762 7022.63 383.117 7022.51C383.473 7022.38 383.743 7022.09 384.098 7022C384.464 7021.95 384.832 7021.92 385.201 7021.9C385.557 7021.9 385.913 7021.79 386.28 7021.76C386.648 7021.72 386.955 7021.7 387.286 7021.65C387.617 7021.6 387.96 7021.56 388.291 7021.5C388.622 7021.44 388.928 7021.28 389.259 7021.21C389.59 7021.13 389.933 7021.21 390.264 7021.05C390.595 7020.89 390.877 7020.78 391.196 7020.67C391.515 7020.56 391.883 7020.58 392.201 7020.46C392.52 7020.34 392.814 7020.16 393.121 7020.03C393.427 7019.89 393.746 7019.77 394.04 7019.62C394.334 7019.48 394.592 7019.21 394.886 7019.04C395.18 7018.86 395.487 7018.73 395.769 7018.55C396.051 7018.36 396.296 7018.13 396.566 7017.93C396.835 7017.74 397.056 7017.47 397.326 7017.26C397.595 7017.05 397.963 7016.96 398.208 7016.74C398.453 7016.52 398.674 7016.24 398.907 7016.01C399.14 7015.78 399.263 7015.42 399.471 7015.16C399.679 7014.9 399.876 7014.62 400.072 7014.35C400.268 7014.08 400.501 7013.84 400.685 7013.56C400.868 7013.27 401.163 7013.05 401.322 7012.76C401.481 7012.47 401.555 7012.12 401.702 7011.83C401.849 7011.53 401.947 7011.2 402.07 7010.88C402.192 7010.57 402.352 7010.28 402.45 7009.95C402.594 7009.65 402.721 7009.33 402.83 7009.01C402.92 7008.68 402.993 7008.35 403.051 7008.02C403.051 7007.67 403.136 7007.33 403.161 7007C403.131 7006.66 403.082 7006.32 403.014 7005.98C403.089 7005.64 403.146 7005.3 403.185 7004.95C403.185 7004.62 403.185 7004.28 403.087 7003.95C402.989 7003.61 402.842 7003.3 402.781 7002.96C402.72 7002.63 402.658 7002.3 402.56 7001.97C402.458 7001.65 402.339 7001.34 402.205 7001.03C402.111 7000.7 402 7000.38 401.874 7000.06C401.739 6999.75 401.469 6999.52 401.31 6999.23C401.15 6998.93 401.065 6998.59 400.893 6998.29C400.721 6998 400.464 6997.78 400.268 6997.5C400.072 6997.22 399.912 6996.92 399.704 6996.66C399.495 6996.41 399.348 6996.08 399.115 6995.82C398.883 6995.56 398.613 6995.36 398.368 6995.13C398.122 6994.9 397.791 6994.76 397.534 6994.54C397.305 6994.3 397.064 6994.06 396.811 6993.84C396.541 6993.64 396.333 6993.34 396.051 6993.16C395.769 6992.97 395.499 6992.77 395.205 6992.58C394.911 6992.4 394.567 6992.34 394.261 6992.18C393.954 6992.02 393.648 6991.89 393.341 6991.75C393.035 6991.6 392.692 6991.47 392.373 6991.33Z" fill="#73CCCD"/>
<path d="M1243.37 7047.33C1243.08 7047.21 1242.8 7047.07 1242.49 7046.96C1242.18 7046.85 1241.85 7046.86 1241.55 7046.78C1241.24 7046.69 1240.96 7046.51 1240.65 7046.44C1240.35 7046.36 1240.05 7046.22 1239.73 7046.15C1239.41 7046.09 1239.11 7046.03 1238.79 7045.98L1237.84 7045.85C1237.53 7045.85 1237.21 7045.85 1236.89 7045.79C1236.57 7045.72 1236.18 7045.79 1235.83 7045.79C1235.49 7045.79 1235.16 7045.57 1234.83 7045.48C1234.5 7045.39 1234.19 7045.19 1233.86 7045.06C1233.53 7044.94 1233.17 7044.9 1232.85 7044.76C1232.54 7044.61 1232.29 7044.35 1232 7044.17C1231.7 7043.98 1231.42 7043.76 1231.15 7043.57C1230.88 7043.37 1230.6 7043.17 1230.33 7042.98L1229.48 7042.43C1229.2 7042.24 1228.94 7042.03 1228.65 7041.86C1228.36 7041.69 1228.01 7041.63 1227.72 7041.46C1227.42 7041.29 1227.15 7041.1 1226.86 7040.94C1226.57 7040.78 1226.27 7040.64 1225.97 7040.5C1225.66 7040.37 1225.33 7040.29 1225.01 7040.16C1224.69 7040.02 1224.41 7039.88 1224.1 7039.75C1223.8 7039.63 1223.44 7039.62 1223.12 7039.51L1222.18 7039.13C1221.86 7039.03 1221.58 7038.79 1221.26 7038.7C1220.94 7038.61 1220.6 7038.61 1220.26 7038.53C1219.93 7038.44 1219.63 7038.3 1219.31 7038.22C1218.99 7038.15 1218.62 7038.22 1218.3 7038.15C1217.98 7038.08 1217.67 7037.9 1217.33 7037.9C1217 7037.9 1216.66 7037.9 1216.33 7037.9C1216 7037.9 1215.67 7037.73 1215.34 7037.7H1214.33C1214 7037.7 1213.67 7037.63 1213.33 7037.62C1212.98 7037.61 1212.66 7037.71 1212.32 7037.71C1211.98 7037.71 1211.6 7037.71 1211.24 7037.71H1210.16C1209.8 7037.71 1209.44 7037.71 1209.08 7037.77C1208.73 7037.83 1208.37 7037.92 1208.02 7037.96C1207.66 7038.01 1207.31 7038.1 1206.95 7038.16C1206.6 7038.22 1206.23 7038.16 1205.87 7038.28C1205.52 7038.41 1205.19 7038.47 1204.83 7038.55L1203.79 7038.8C1203.47 7038.88 1203.14 7038.96 1202.82 7039.02C1202.5 7039.08 1202.18 7039.13 1201.83 7039.13C1201.47 7039.13 1201.17 7039.04 1200.85 7039.04C1200.52 7039.06 1200.19 7039.06 1199.87 7039.04C1199.53 7039.04 1199.2 7039.04 1198.89 7038.96C1198.57 7038.87 1198.27 7038.7 1197.95 7038.63C1197.63 7038.55 1197.3 7038.5 1197 7038.39C1196.67 7038.33 1196.35 7038.25 1196.04 7038.15C1195.75 7038.01 1195.48 7037.79 1195.2 7037.65C1194.91 7037.5 1194.61 7037.35 1194.34 7037.17C1194.07 7036.98 1193.83 7036.64 1193.53 7036.46C1193.22 7036.27 1192.88 7036.16 1192.57 7036C1192.27 7035.84 1191.91 7035.73 1191.59 7035.57C1191.27 7035.42 1191 7035.17 1190.68 7035.02C1190.37 7034.88 1189.99 7034.84 1189.65 7034.72C1189.32 7034.59 1188.99 7034.48 1188.66 7034.37C1188.33 7034.26 1188.01 7034.07 1187.67 7033.97C1187.32 7033.87 1186.99 7033.75 1186.65 7033.66C1186.31 7033.58 1185.92 7033.66 1185.57 7033.66C1185.23 7033.66 1184.91 7033.49 1184.55 7033.44C1184.2 7033.39 1183.87 7033.28 1183.51 7033.25C1183.16 7033.21 1182.83 7033 1182.47 7033C1182.11 7033 1181.76 7033.12 1181.4 7033.11C1181.05 7033.1 1180.69 7033 1180.34 7033C1179.98 7033 1179.66 7033 1179.32 7033.06C1178.98 7033.12 1178.65 7033.06 1178.31 7033.15L1177.31 7033.27C1176.97 7033.27 1176.61 7033.18 1176.28 7033.27C1175.95 7033.36 1175.61 7033.42 1175.27 7033.48C1174.94 7033.54 1174.61 7033.6 1174.28 7033.69C1173.95 7033.77 1173.62 7033.85 1173.29 7033.94C1172.96 7034.04 1172.66 7034.19 1172.33 7034.3C1172 7034.41 1171.67 7034.46 1171.35 7034.57C1171.03 7034.68 1170.69 7034.73 1170.37 7034.86C1170.05 7035 1169.77 7035.18 1169.46 7035.33C1169.16 7035.48 1168.85 7035.64 1168.56 7035.78C1168.26 7035.93 1167.94 7036.09 1167.65 7036.26C1167.35 7036.43 1167.12 7036.69 1166.83 7036.87C1166.53 7037.06 1166.17 7037.11 1165.9 7037.29C1165.63 7037.47 1165.43 7037.81 1165.16 7038.01C1164.89 7038.22 1164.56 7038.34 1164.29 7038.57C1164.02 7038.79 1163.76 7038.98 1163.52 7039.22C1163.3 7039.47 1163.07 7039.71 1162.83 7039.94C1162.56 7040.13 1162.28 7040.3 1161.99 7040.45C1161.71 7040.62 1161.42 7040.78 1161.12 7040.91C1160.82 7041.07 1160.6 7041.35 1160.29 7041.48L1159.35 7041.83C1159.04 7041.92 1158.69 7041.89 1158.37 7041.97C1158.05 7042.06 1157.73 7042.15 1157.4 7042.19C1157.08 7042.24 1156.75 7042.27 1156.42 7042.28C1156.09 7042.3 1155.76 7042.3 1155.43 7042.28C1155.28 7042.28 1155.12 7042.28 1154.96 7042.28C1154.8 7042.28 1154.29 7042.35 1153.96 7042.37C1153.62 7042.38 1153.27 7042.27 1152.93 7042.29C1152.58 7042.32 1152.28 7042.55 1151.93 7042.59C1151.59 7042.62 1151.26 7042.59 1150.93 7042.68C1150.6 7042.78 1150.27 7042.83 1149.93 7042.89C1149.6 7042.95 1149.25 7042.89 1148.93 7042.99C1148.61 7043.09 1148.26 7043.1 1147.92 7043.2C1147.59 7043.3 1147.31 7043.49 1146.98 7043.59C1146.65 7043.69 1146.31 7043.7 1145.99 7043.82C1145.67 7043.95 1145.41 7044.19 1145.09 7044.32C1144.77 7044.44 1144.44 7044.5 1144.14 7044.63C1143.83 7044.77 1143.56 7045.01 1143.27 7045.17C1142.97 7045.33 1142.64 7045.44 1142.35 7045.6C1142.05 7045.76 1141.75 7045.92 1141.46 7046.09C1141.18 7046.26 1140.8 7046.34 1140.53 7046.53C1140.26 7046.73 1140.09 7047.09 1139.82 7047.29C1139.55 7047.5 1139.22 7047.61 1138.95 7047.83C1138.68 7048.05 1138.41 7048.24 1138.17 7048.47C1137.91 7048.7 1137.67 7048.94 1137.44 7049.19C1137.21 7049.43 1137.06 7049.76 1136.83 7050C1136.6 7050.25 1136.27 7050.41 1136.05 7050.67C1135.82 7050.92 1135.75 7051.3 1135.56 7051.57C1135.36 7051.84 1135.18 7052.12 1134.99 7052.41C1134.81 7052.69 1134.49 7052.9 1134.32 7053.19C1134.15 7053.48 1134.08 7053.84 1133.94 7054.13C1133.79 7054.43 1133.52 7054.7 1133.39 7055C1133.25 7055.31 1133.19 7055.65 1133.07 7055.97C1132.94 7056.29 1132.88 7056.62 1132.78 7056.95C1132.69 7057.29 1132.61 7057.6 1132.54 7057.93C1132.47 7058.27 1132.36 7058.58 1132.29 7058.92C1132.23 7059.25 1132.23 7059.57 1132.2 7059.97C1132.11 7060.3 1132.05 7060.64 1132 7060.98C1132 7061.31 1132 7061.65 1132 7061.99C1132 7062.34 1132.09 7062.67 1132.11 7063.01C1132.13 7063.35 1132.33 7063.66 1132.37 7064C1132.4 7064.35 1132.45 7064.69 1132.51 7065.02C1132.58 7065.35 1132.51 7065.72 1132.66 7066.05C1132.81 7066.38 1132.81 7066.74 1132.91 7067.07C1133.01 7067.4 1133.12 7067.73 1133.24 7068.06C1133.36 7068.39 1133.64 7068.64 1133.79 7068.96C1133.94 7069.27 1134.03 7069.61 1134.19 7069.91C1134.35 7070.22 1134.45 7070.56 1134.64 7070.86C1134.82 7071.15 1135.14 7071.36 1135.33 7071.64C1135.53 7071.92 1135.64 7072.28 1135.85 7072.56C1136.06 7072.84 1136.24 7073.14 1136.47 7073.39C1136.71 7073.65 1136.95 7073.91 1137.19 7074.17C1137.42 7074.42 1137.72 7074.61 1137.97 7074.85C1138.22 7075.1 1138.45 7075.35 1138.72 7075.58C1138.99 7075.8 1139.2 7076.09 1139.48 7076.3C1139.76 7076.51 1140.15 7076.56 1140.43 7076.76C1140.72 7076.97 1140.91 7077.29 1141.21 7077.48C1141.5 7077.66 1141.79 7077.84 1142.1 7078.02C1142.41 7078.19 1142.78 7078.21 1143.09 7078.38C1143.41 7078.55 1143.62 7078.85 1143.94 7079.01L1144.9 7079.42C1145.22 7079.56 1145.6 7079.56 1145.91 7079.68C1146.23 7079.8 1146.53 7080.04 1146.86 7080.15C1147.19 7080.26 1147.53 7080.31 1147.88 7080.41C1148.22 7080.5 1148.56 7080.5 1148.89 7080.59C1149.22 7080.68 1149.55 7080.79 1149.9 7080.86L1150.93 7081.02C1151.27 7081.08 1151.61 7081.12 1151.97 7081.15C1152.33 7081.19 1152.64 7081.29 1153 7081.31H1153.94C1154.26 7081.31 1154.58 7081.2 1154.89 7081.2C1155.19 7081.2 1155.53 7081.4 1155.83 7081.39C1156.14 7081.37 1156.47 7081.25 1156.78 7081.23C1157.08 7081.2 1157.41 7081.23 1157.72 7081.23C1158.03 7081.23 1158.34 7081.09 1158.65 7081.06C1158.96 7081.02 1159.35 7080.94 1159.69 7080.92C1160.04 7080.9 1160.4 7080.92 1160.75 7080.92C1161.1 7080.93 1161.44 7080.97 1161.79 7081.02C1162.13 7081.02 1162.48 7081.13 1162.82 7081.19C1163.16 7081.25 1163.48 7081.42 1163.81 7081.52C1164.14 7081.62 1164.51 7081.63 1164.83 7081.77C1165.15 7081.9 1165.47 7082.04 1165.79 7082.2C1166.1 7082.35 1166.44 7082.47 1166.73 7082.65C1167.02 7082.83 1167.31 7083.07 1167.58 7083.27C1167.85 7083.48 1168.1 7083.69 1168.37 7083.89C1168.64 7084.08 1168.84 7084.37 1169.12 7084.55C1169.4 7084.73 1169.7 7084.88 1169.98 7085.05C1170.26 7085.22 1170.57 7085.38 1170.86 7085.54C1171.16 7085.7 1171.41 7085.92 1171.71 7086.07C1172 7086.22 1172.36 7086.23 1172.66 7086.38C1172.97 7086.52 1173.2 7086.82 1173.51 7086.94L1174.45 7087.28C1174.76 7087.39 1175.1 7087.43 1175.42 7087.53C1175.74 7087.63 1176.08 7087.64 1176.4 7087.72C1176.72 7087.81 1177.05 7087.86 1177.38 7087.93C1177.71 7088.01 1178 7088.19 1178.33 7088.25L1179.31 7088.42C1179.64 7088.42 1179.96 7088.61 1180.29 7088.64C1180.62 7088.68 1180.97 7088.56 1181.31 7088.58C1181.64 7088.61 1181.96 7088.77 1182.3 7088.78C1182.64 7088.79 1182.96 7088.78 1183.3 7088.78C1183.65 7088.78 1184 7088.84 1184.35 7088.78C1184.69 7088.72 1185.03 7088.55 1185.38 7088.52L1186.41 7088.42C1186.76 7088.42 1187.12 7088.5 1187.46 7088.42C1187.8 7088.35 1188.15 7088.26 1188.48 7088.2C1188.81 7088.14 1189.13 7087.92 1189.47 7087.85C1189.81 7087.77 1190.14 7087.72 1190.49 7087.63C1190.83 7087.53 1191.17 7087.5 1191.51 7087.39L1192.49 7087.05C1192.8 7086.93 1193.1 7086.73 1193.42 7086.6C1193.74 7086.46 1194.1 7086.42 1194.42 7086.28C1194.74 7086.13 1194.99 7085.86 1195.29 7085.7C1195.6 7085.56 1195.91 7085.43 1196.22 7085.32C1196.53 7085.2 1196.85 7085.08 1197.17 7084.98C1197.49 7084.88 1197.83 7084.89 1198.16 7084.82C1198.49 7084.75 1198.79 7084.52 1199.12 7084.48C1199.45 7084.43 1199.79 7084.48 1200.12 7084.4C1200.45 7084.33 1200.8 7084.49 1201.14 7084.49C1201.48 7084.49 1201.81 7084.4 1202.15 7084.49C1202.48 7084.57 1202.81 7084.61 1203.14 7084.67C1203.47 7084.73 1203.79 7084.84 1204.11 7084.93C1204.43 7085.01 1204.81 7085.01 1205.15 7085.09C1205.49 7085.16 1205.8 7085.32 1206.14 7085.39C1206.49 7085.47 1206.82 7085.58 1207.16 7085.63C1207.5 7085.68 1207.85 7085.75 1208.2 7085.79C1208.56 7085.82 1208.9 7085.79 1209.24 7085.79C1209.59 7085.79 1209.93 7085.97 1210.27 7085.98C1210.62 7086 1210.97 7085.98 1211.33 7085.98C1211.68 7085.98 1212.03 7085.98 1212.37 7085.98C1212.71 7085.98 1213.04 7085.92 1213.38 7085.91C1213.71 7085.9 1214.05 7085.91 1214.38 7085.84C1214.71 7085.76 1215.04 7085.84 1215.39 7085.84C1215.73 7085.84 1216.06 7085.93 1216.4 7085.84C1216.75 7085.74 1217.05 7085.7 1217.38 7085.65C1217.71 7085.6 1218.06 7085.58 1218.39 7085.52C1218.72 7085.46 1219.04 7085.32 1219.36 7085.25C1219.68 7085.17 1220.03 7085.16 1220.35 7085.09C1220.67 7085.01 1221.01 7084.94 1221.33 7084.84C1221.65 7084.75 1221.92 7084.48 1222.24 7084.38C1222.56 7084.28 1222.96 7084.38 1223.28 7084.29C1223.6 7084.21 1223.84 7083.89 1224.15 7083.76C1224.46 7083.64 1224.8 7083.57 1225.11 7083.43C1225.41 7083.3 1225.77 7083.27 1226.08 7083.13C1226.38 7082.98 1226.59 7082.65 1226.88 7082.5C1227.18 7082.35 1227.58 7082.38 1227.88 7082.22C1228.17 7082.06 1228.44 7081.85 1228.72 7081.68C1229.01 7081.51 1229.26 7081.26 1229.54 7081.08C1229.83 7080.9 1230.05 7080.64 1230.32 7080.44C1230.59 7080.25 1230.97 7080.2 1231.24 7080C1231.5 7079.76 1231.79 7079.53 1232.08 7079.31C1232.4 7079.13 1232.78 7079.09 1233.11 7078.93C1233.44 7078.78 1233.76 7078.63 1234.12 7078.51C1234.47 7078.38 1234.74 7078.09 1235.1 7078C1235.46 7077.95 1235.83 7077.92 1236.2 7077.9C1236.56 7077.9 1236.91 7077.79 1237.28 7077.76C1237.65 7077.72 1237.95 7077.7 1238.29 7077.65C1238.62 7077.6 1238.96 7077.56 1239.29 7077.5C1239.62 7077.44 1239.93 7077.28 1240.26 7077.21C1240.59 7077.13 1240.93 7077.21 1241.26 7077.05C1241.6 7076.89 1241.88 7076.78 1242.2 7076.67C1242.51 7076.56 1242.88 7076.58 1243.2 7076.46C1243.52 7076.34 1243.81 7076.16 1244.12 7076.03C1244.43 7075.89 1244.75 7075.77 1245.04 7075.62C1245.33 7075.48 1245.59 7075.21 1245.89 7075.04C1246.18 7074.86 1246.49 7074.73 1246.77 7074.55C1247.05 7074.36 1247.3 7074.13 1247.57 7073.93C1247.84 7073.74 1248.06 7073.47 1248.33 7073.26C1248.6 7073.05 1248.96 7072.96 1249.21 7072.74C1249.45 7072.52 1249.67 7072.24 1249.91 7072.01C1250.14 7071.78 1250.26 7071.42 1250.47 7071.16C1250.68 7070.9 1250.88 7070.62 1251.07 7070.35C1251.27 7070.08 1251.5 7069.84 1251.68 7069.56C1251.87 7069.27 1252.16 7069.05 1252.32 7068.76C1252.48 7068.47 1252.55 7068.12 1252.7 7067.83C1252.85 7067.53 1252.95 7067.2 1253.07 7066.88C1253.19 7066.57 1253.35 7066.28 1253.45 7065.95C1253.59 7065.65 1253.72 7065.33 1253.83 7065.01C1253.92 7064.68 1253.99 7064.35 1254.05 7064.02C1254.05 7063.67 1254.14 7063.33 1254.16 7063C1254.13 7062.66 1254.08 7062.32 1254.01 7061.98C1254.09 7061.64 1254.15 7061.3 1254.19 7060.95C1254.19 7060.62 1254.19 7060.28 1254.09 7059.95C1253.99 7059.61 1253.84 7059.3 1253.78 7058.96C1253.72 7058.63 1253.66 7058.3 1253.56 7057.97C1253.46 7057.65 1253.34 7057.34 1253.2 7057.03C1253.11 7056.7 1253 7056.38 1252.87 7056.06C1252.74 7055.75 1252.47 7055.52 1252.31 7055.23C1252.15 7054.93 1252.06 7054.59 1251.89 7054.29C1251.72 7054 1251.46 7053.78 1251.27 7053.5C1251.07 7053.22 1250.91 7052.92 1250.7 7052.66C1250.5 7052.41 1250.35 7052.08 1250.12 7051.82C1249.88 7051.56 1249.61 7051.36 1249.37 7051.13C1249.12 7050.9 1248.79 7050.76 1248.53 7050.54C1248.31 7050.3 1248.06 7050.06 1247.81 7049.84C1247.54 7049.64 1247.33 7049.34 1247.05 7049.16C1246.77 7048.97 1246.5 7048.77 1246.2 7048.58C1245.91 7048.4 1245.57 7048.34 1245.26 7048.18C1244.95 7048.02 1244.65 7047.89 1244.34 7047.75C1244.03 7047.6 1243.69 7047.47 1243.37 7047.33Z" fill="#73CCCD"/>
<path d="M329.825 3368.18C331.176 3369.75 332.924 3370.93 334.886 3371.6C336.848 3372.27 338.953 3372.41 340.984 3371.99C345.836 3370.92 348.124 3366.91 348.48 3366.27C349.503 3367.44 350.82 3368.31 352.295 3368.81C353.771 3369.3 355.35 3369.39 356.872 3369.07C357.114 3369.01 360.963 3368.08 362.429 3364.74C364.034 3361.05 361.665 3356.91 360.578 3354.95C353.303 3342.15 323.893 3322.09 302.514 3331.01C300.257 3331.95 298.198 3333.31 296.447 3335.02C286.568 3344.33 285.058 3363.8 292.801 3368.78C293.699 3369.35 298.341 3372.06 308.528 3366.95C309.177 3368.77 310.326 3370.37 311.842 3371.56C315.85 3374.64 320.883 3373.34 322.264 3372.98C325.214 3372.19 327.852 3370.51 329.825 3368.18Z" fill="#73CCCD"/>
<path d="M406.044 3337.83C406.143 3339.9 405.686 3341.96 404.721 3343.8C403.756 3345.63 402.318 3347.17 400.556 3348.27C396.301 3350.83 391.881 3349.49 391.18 3349.26C391.241 3350.82 390.888 3352.36 390.155 3353.73C389.422 3355.1 388.336 3356.26 387.01 3357.07C386.795 3357.19 383.358 3359.16 379.997 3357.74C376.296 3356.17 375.171 3351.53 374.616 3349.36C371.096 3335.06 378.667 3300.28 400.327 3292.06C402.613 3291.19 405.043 3290.76 407.489 3290.8C421.063 3290.77 435.547 3303.88 433.344 3312.81C433.088 3313.85 431.576 3319.01 420.664 3322.3C421.444 3324.06 421.709 3326.01 421.43 3327.93C420.633 3332.92 416.087 3335.43 414.837 3336.12C412.148 3337.57 409.08 3338.17 406.044 3337.83Z" fill="#73CCCD"/>
<path d="M1339.82 3645.18C1341.18 3646.75 1342.92 3647.93 1344.89 3648.6C1346.85 3649.27 1348.95 3649.41 1350.98 3648.99C1355.84 3647.92 1358.12 3643.91 1358.48 3643.27C1359.5 3644.44 1360.82 3645.31 1362.3 3645.81C1363.77 3646.3 1365.35 3646.39 1366.87 3646.07C1367.11 3646.01 1370.96 3645.08 1372.43 3641.74C1374.03 3638.05 1371.66 3633.91 1370.58 3631.95C1363.3 3619.15 1333.89 3599.09 1312.51 3608.01C1310.26 3608.95 1308.2 3610.31 1306.45 3612.02C1296.57 3621.33 1295.06 3640.8 1302.8 3645.78C1303.7 3646.35 1308.34 3649.06 1318.53 3643.95C1319.18 3645.77 1320.33 3647.37 1321.84 3648.56C1325.85 3651.64 1330.88 3650.34 1332.26 3649.98C1335.21 3649.19 1337.85 3647.51 1339.82 3645.18Z" fill="#73CCCD"/>
<path d="M1416.04 3614.83C1416.14 3616.9 1415.69 3618.96 1414.72 3620.8C1413.76 3622.63 1412.32 3624.17 1410.56 3625.27C1406.3 3627.83 1401.88 3626.49 1401.18 3626.26C1401.24 3627.82 1400.89 3629.36 1400.15 3630.73C1399.42 3632.1 1398.34 3633.26 1397.01 3634.07C1396.8 3634.19 1393.36 3636.16 1390 3634.74C1386.3 3633.17 1385.17 3628.53 1384.62 3626.36C1381.1 3612.06 1388.67 3577.28 1410.33 3569.06C1412.61 3568.19 1415.04 3567.76 1417.49 3567.8C1431.06 3567.77 1445.55 3580.88 1443.34 3589.81C1443.09 3590.85 1441.58 3596.01 1430.66 3599.3C1431.44 3601.06 1431.71 3603.01 1431.43 3604.93C1430.63 3609.92 1426.09 3612.43 1424.84 3613.12C1422.15 3614.57 1419.08 3615.17 1416.04 3614.83Z" fill="#73CCCD"/>
<path d="M1077.1 3155.01C1076.74 3158.25 1077.25 3161.54 1078.59 3164.51C1079.93 3167.49 1082.04 3170.06 1084.7 3171.95C1091.14 3176.4 1098.22 3174.72 1099.34 3174.44C1099.09 3176.88 1099.5 3179.34 1100.52 3181.57C1101.53 3183.79 1103.13 3185.71 1105.13 3187.12C1105.46 3187.34 1110.67 3190.77 1116.09 3188.87C1122.07 3186.75 1124.29 3179.58 1125.38 3176.22C1132.31 3154.08 1123.82 3098.65 1090.58 3083.61C1087.07 3082.02 1083.29 3081.11 1079.44 3080.92C1058.1 3079.55 1034.04 3098.73 1036.63 3113C1036.93 3114.65 1038.8 3122.9 1055.63 3129.15C1054.24 3131.85 1053.63 3134.89 1053.88 3137.93C1054.64 3145.85 1061.54 3150.25 1063.44 3151.46C1067.52 3154 1072.29 3155.24 1077.1 3155.01Z" fill="#73CCCD"/>
<path d="M1193.95 3210.2C1191.67 3212.54 1188.81 3214.23 1185.66 3215.09C1182.51 3215.95 1179.19 3215.95 1176.04 3215.09C1168.51 3212.94 1165.31 3206.41 1164.81 3205.36C1163.09 3207.1 1160.93 3208.35 1158.56 3208.98C1156.2 3209.61 1153.7 3209.6 1151.34 3208.95C1150.97 3208.83 1145.01 3206.99 1143.03 3201.59C1140.87 3195.64 1145 3189.36 1146.9 3186.39C1159.6 3166.97 1207.8 3138.32 1240.54 3154.44C1244 3156.14 1247.1 3158.48 1249.68 3161.34C1264.3 3176.95 1264.77 3207.71 1252.1 3214.78C1250.64 3215.59 1243.07 3219.39 1227.56 3210.36C1226.36 3213.15 1224.4 3215.56 1221.89 3217.29C1215.29 3221.73 1207.5 3219.2 1205.37 3218.5C1200.81 3216.96 1196.83 3214.07 1193.95 3210.2Z" fill="#73CCCD"/>
<path d="M38.6209 3081.01C41.2158 3082.99 44.2938 3084.24 47.5358 3084.64C50.7779 3085.03 54.0659 3084.55 57.0589 3083.24C64.1903 3080.02 66.4112 3073.09 66.7487 3071.98C68.7074 3073.45 71.0232 3074.38 73.4572 3074.66C75.8913 3074.93 78.3556 3074.56 80.5962 3073.57C80.9506 3073.4 86.5783 3070.71 87.7495 3065.08C89.0234 3058.88 84.0228 3053.27 81.7109 3050.61C66.3269 3033.24 14.4666 3011.9 -15.5775 3032.61C-18.7501 3034.8 -21.4798 3037.57 -23.6223 3040.77C-35.8162 3058.33 -31.8014 3088.84 -18.2475 3093.99C-16.6759 3094.58 -8.63986 3097.24 5.39594 3086.05C6.98854 3088.64 9.27988 3090.73 12.0071 3092.08C19.186 3095.52 26.5204 3091.88 28.5321 3090.88C32.8207 3088.69 36.3403 3085.25 38.6209 3081.01Z" fill="#73CCCD"/>
<path d="M146.21 3009.41C147.037 3012.57 147.004 3015.89 146.114 3019.03C145.224 3022.18 143.51 3025.02 141.15 3027.28C135.426 3032.61 128.178 3031.99 127.024 3031.87C127.625 3034.25 127.582 3036.74 126.899 3039.09C126.217 3041.44 124.919 3043.57 123.139 3045.26C122.848 3045.52 118.192 3049.67 112.55 3048.58C106.333 3047.36 103.089 3040.58 101.528 3037.42C91.4449 3016.52 91.7861 2960.44 122.492 2940.73C125.733 2938.64 129.34 2937.19 133.121 2936.45C154.032 2931.99 180.624 2947.47 180.138 2961.96C180.081 2963.64 179.431 2972.08 163.684 2980.7C165.461 2983.17 166.505 2986.1 166.698 2989.13C167.095 2997.08 160.908 3002.44 159.206 3003.91C155.534 3007.02 151 3008.94 146.21 3009.41Z" fill="#73CCCD"/>
<path d="M977.85 3863.76C977.623 3865.8 977.948 3867.87 978.791 3869.75C979.634 3871.63 980.963 3873.24 982.642 3874.44C986.7 3877.24 991.162 3876.18 991.871 3876C991.713 3877.54 991.969 3879.09 992.61 3880.49C993.251 3881.9 994.256 3883.11 995.519 3883.99C995.725 3884.13 999.008 3886.29 1002.43 3885.1C1006.19 3883.76 1007.59 3879.24 1008.28 3877.13C1012.65 3863.17 1007.3 3828.24 986.345 3818.76C984.133 3817.76 981.751 3817.18 979.326 3817.07C965.878 3816.2 950.716 3828.29 952.346 3837.28C952.536 3838.32 953.715 3843.53 964.324 3847.46C963.442 3849.16 963.058 3851.08 963.217 3852.99C963.697 3857.98 968.046 3860.76 969.242 3861.52C971.817 3863.12 974.82 3863.9 977.85 3863.76Z" fill="#73CCCD"/>
<path d="M1051.5 3898.54C1050.06 3900.02 1048.26 3901.08 1046.27 3901.62C1044.28 3902.16 1042.19 3902.17 1040.2 3901.63C1035.46 3900.27 1033.44 3896.15 1033.13 3895.49C1032.04 3896.59 1030.68 3897.38 1029.19 3897.78C1027.7 3898.17 1026.13 3898.16 1024.64 3897.75C1024.4 3897.68 1020.65 3896.52 1019.4 3893.12C1018.04 3889.36 1020.64 3885.41 1021.84 3883.54C1029.84 3871.3 1060.22 3853.24 1080.86 3863.4C1083.03 3864.47 1084.99 3865.95 1086.62 3867.75C1095.83 3877.58 1096.12 3896.97 1088.14 3901.43C1087.22 3901.94 1082.45 3904.33 1072.67 3898.64C1071.92 3900.4 1070.68 3901.92 1069.1 3903.01C1064.94 3905.81 1060.04 3904.21 1058.69 3903.77C1055.82 3902.8 1053.31 3900.98 1051.5 3898.54Z" fill="#73CCCD"/>
</g>
<defs>
<clipPath id="clip0">
<rect width="1440" height="8905" fill="white"/>
</clipPath>
<clipPath id="clip1">
<rect width="151" height="66" fill="white" transform="translate(-6 7137)"/>
</clipPath>
</defs>
</svg>
